<?xml version="1.0" encoding="UTF-8"?>
<svg id="Layer_4" data-name="Layer 4" xmlns="http://www.w3.org/2000/svg" viewBox="0 0 591.92 364.82">
  <defs>
    <style>
      .cls-1 {
        fill: #231f20;
        font-family: AzoSans-Black, 'Azo Sans';
        font-size: 17.98px;
        font-weight: 800;
      }

      .cls-2 {
        letter-spacing: -.02em;
      }

      .cls-3 {
        fill: none;
        stroke: #231f20;
        stroke-miterlimit: 10;
        stroke-width: 2px;
      }

      .cls-4 {
        letter-spacing: 0em;
      }

      .cls-5 {
        letter-spacing: -.04em;
      }

      .cls-6 {
        letter-spacing: 0em;
      }

      .cls-7 {
        fill: #5b727b;
        stroke-width: 0px;
      }
    </style>
  </defs>
  <path class="cls-7" d="m49.76,214.13c1.79-3.17,3.26-6.17,5.1-8.93,3.63-5.43,7.25-10.9,11.28-16.04,6.25-7.97,13.65-14.76,22.93-19.12,6.23-2.93,12.77-4.69,19.76-3.15,2.31.51,4.41,1.49,5.64,3.64.9,1.57.74,2.7-.66,3.81-1.69,1.34-3.51,2.53-5.37,3.61-7.06,4.08-11.51,10.2-13.88,17.86-1.33,4.3-1.23,8.75-.53,13.17.22,1.36.46,2.72.8,4.05.27,1.08-.06,1.45-1.13,1.42-3.25-.09-6.5-.19-9.76-.19-10.94,0-21.89.02-32.83.03-.28,0-.57-.07-1.35-.17Z"/>
  <text class="cls-1" transform="translate(54.12 130.23)"><tspan x="0" y="0">height</tspan></text>
  <rect class="cls-3" x="19.74" y="99.51" width="125.3" height="165.81"/>
  <text class="cls-1" transform="translate(71.81 245.89)"><tspan x="0" y="0">10</tspan></text>
  <path class="cls-7" d="m195.39,214.13c1.79-3.17,3.26-6.17,5.1-8.93,3.63-5.43,7.25-10.9,11.28-16.04,6.25-7.97,13.65-14.76,22.93-19.12,6.23-2.93,12.77-4.69,19.76-3.15,2.31.51,4.41,1.49,5.64,3.64.9,1.57.74,2.7-.66,3.81-1.69,1.34-3.51,2.53-5.37,3.61-7.06,4.08-11.51,10.2-13.88,17.86-1.33,4.3-1.23,8.75-.53,13.17.22,1.36.46,2.72.8,4.05.27,1.08-.06,1.45-1.13,1.42-3.25-.09-6.5-.19-9.76-.19-10.94,0-21.89.02-32.83.03-.28,0-.57-.07-1.35-.17Z"/>
  <text class="cls-1" transform="translate(207.88 130.23)"><tspan x="0" y="0">base</tspan></text>
  <rect class="cls-3" x="165.37" y="99.51" width="125.3" height="165.81"/>
  <text class="cls-1" transform="translate(213.26 245.89)"><tspan x="0" y="0">6</tspan><tspan class="cls-4" x="11.74" y="0">.</tspan><tspan class="cls-6" x="17.42" y="0">8</tspan></text>
  <path class="cls-7" d="m335.96,214.13c1.79-3.17,3.26-6.17,5.1-8.93,3.63-5.43,7.25-10.9,11.28-16.04,6.25-7.97,13.65-14.76,22.93-19.12,6.23-2.93,12.77-4.69,19.76-3.15,2.31.51,4.41,1.49,5.64,3.64.9,1.57.74,2.7-.66,3.81-1.69,1.34-3.51,2.53-5.37,3.61-7.06,4.08-11.51,10.2-13.88,17.86-1.33,4.3-1.23,8.75-.53,13.17.22,1.36.46,2.72.8,4.05.27,1.08-.06,1.45-1.13,1.42-3.25-.09-6.5-.19-9.76-.19-10.94,0-21.89.02-32.83.03-.28,0-.57-.07-1.35-.17Z"/>
  <text class="cls-1" transform="translate(349.65 130.23)"><tspan x="0" y="0">area</tspan></text>
  <rect class="cls-3" x="305.94" y="99.51" width="125.3" height="165.81"/>
  <text class="cls-1" transform="translate(345.05 245.89)"><tspan x="0" y="0">53 14</tspan></text>
  <path class="cls-7" d="m476.89,214.13c1.79-3.17,3.26-6.17,5.1-8.93,3.63-5.43,7.25-10.9,11.28-16.04,6.25-7.97,13.65-14.76,22.93-19.12,6.23-2.93,12.77-4.69,19.76-3.15,2.31.51,4.41,1.49,5.64,3.64.9,1.57.74,2.7-.66,3.81-1.69,1.34-3.51,2.53-5.37,3.61-7.06,4.08-11.51,10.2-13.88,17.86-1.33,4.3-1.23,8.75-.53,13.17.22,1.36.46,2.72.8,4.05.27,1.08-.06,1.45-1.13,1.42-3.25-.09-6.5-.19-9.76-.19-10.94,0-21.89.02-32.83.03-.28,0-.57-.07-1.35-.17Z"/>
  <text class="cls-1" transform="translate(490.56 130.23)"><tspan class="cls-2" x="0" y="0">r</tspan><tspan x="7.34" y="0">a</tspan><tspan class="cls-5" x="17.3" y="0">k</tspan><tspan x="27.75" y="0">e</tspan></text>
  <rect class="cls-3" x="446.88" y="99.51" width="125.3" height="165.81"/>
  <text class="cls-1" transform="translate(498.72 249.75)"><tspan x="0" y="0">18</tspan></text>
</svg>