<?xml version="1.0" encoding="UTF-8"?>
<svg id="Layer_2" data-name="Layer 2" xmlns="http://www.w3.org/2000/svg" viewBox="0 0 591.92 364.65">
  <defs>
    <style>
      .cls-1 {
        stroke: #f1f2f2;
        stroke-width: 3px;
      }

      .cls-1, .cls-2, .cls-3 {
        fill: none;
      }

      .cls-1, .cls-4, .cls-3 {
        stroke-miterlimit: 10;
      }

      .cls-1, .cls-3 {
        stroke-linecap: round;
      }

      .cls-2, .cls-5, .cls-6, .cls-7, .cls-8, .cls-9, .cls-10, .cls-11, .cls-12, .cls-13 {
        stroke-width: 0px;
      }

      .cls-5 {
        opacity: .8;
      }

      .cls-5, .cls-8 {
        fill: #949598;
      }

      .cls-4 {
        fill: #bcbec0;
        stroke-width: .5px;
      }

      .cls-4, .cls-3 {
        stroke: #221f20;
      }

      .cls-3 {
        stroke-width: 2px;
      }

      .cls-14 {
        fill: #221f20;
        font-family: AzoSans-Black, 'Azo Sans';
        font-size: 20px;
        font-weight: 800;
      }

      .cls-6 {
        fill: #5f717a;
      }

      .cls-7 {
        fill: #565765;
      }

      .cls-9 {
        fill: #e0e3e5;
      }

      .cls-10 {
        fill: #91aaaf;
      }

      .cls-11 {
        fill: #818284;
      }

      .cls-12 {
        fill: #e8d6c8;
      }

      .cls-13 {
        fill: #010101;
      }

      .cls-15 {
        letter-spacing: 0em;
      }
    </style>
  </defs>
  <path class="cls-5" d="m178.55,253.09c-2.63,3.06-7.81,6.83-7.45,7.94.49,1.5,5.95,1.22,10.18-.12,7.56-2.4,13.71-13.12,15.61-16.5,2.34-4.14,1.43-4.91.69-6.3-1.48-2.76-11.79-5.59-16.41-.87-3.52,3.59,2.11,10.34-2.62,15.84Z"/>
  <path class="cls-5" d="m113.94,252.54c-2.38,2.7-7.05,6.03-6.72,7.02.44,1.33,5.37,1.08,9.2-.11,6.83-2.12,12.38-11.59,14.1-14.57,2.11-3.66,1.29-4.34.62-5.56-1.34-2.44-10.65-4.93-14.82-.77-3.18,3.17,1.91,9.13-2.37,13.99Z"/>
  <path class="cls-8" d="m94.4,234.97c-.77-1.25,2.16-1.46,3.12-2.57,28.25-32.72,171.48-73.48,171.48-73.48,109.38-27.97,154.71-38.52,189.43-48.56,10.65-3.08,20.08-13.75,23.78-10.77,3.76,3.03-.04,15.03-1.44,18.12-27.08,59.65-203.38,135.48-374.62,133.37-1.14-.01-2.2-.62-2.8-1.59l-8.94-14.53Z"/>
  <path class="cls-4" d="m94.89,235.82c-.77-1.25-.62-2.84.33-3.94,28.25-32.72,172.05-75.69,172.05-75.69,109.38-27.97,154.71-38.52,189.43-48.56,10.65-3.08,21.8-11,25.5-8.02,3.76,3.03,0,12.64-1.4,15.72-27.08,59.65-205.15,135.13-376.39,133.02-1.14-.01-2.2-.62-2.8-1.59l-6.73-10.93Z"/>
  <path class="cls-1" d="m112.97,235.73c100.09-29.24,192.66-58.46,233.94-72.49,45.17-15.35,110.94-32.33,131.93-58.36"/>
  <path class="cls-11" d="m107.21,229.1c-.18-1.43,1.81-2.77,2.63-3.32,8.51-5.62,16.17-10.22,24.25-14.38,25.6-13.16,73.29-35.06,66.34-23.09-5.27,9.08,12.51,32.41,28.3,35.32,17.32,3.18-107.02,27.11-114.32,17.9l-7.21-12.43Z"/>
  <line class="cls-2" x1="210.67" y1="205.35" x2="222.09" y2="203.31"/>
  <text class="cls-14" transform="translate(141.73 335.76)"><tspan x="0" y="0">fin</tspan></text>
  <path class="cls-3" d="m177.95,273.49c-2.07,5.56,2.52,18.32-.68,25.42-3.88,8.61-15.6,11.61-18.11,18.35"/>
  <text class="cls-14" transform="translate(204.28 122.78)"><tspan x="0" y="0">deck</tspan></text>
  <path class="cls-3" d="m244.15,175.11c-2.46-5.4-14.74-11.17-17.49-18.46-3.34-8.83,2.82-19.24-.17-25.78"/>
  <text class="cls-14" transform="translate(319.13 295.37)"><tspan x="0" y="0">bot</tspan><tspan class="cls-15" x="33.28" y="0">t</tspan><tspan x="41.82" y="0">om</tspan></text>
  <path class="cls-3" d="m337.64,273.26c-2.46-5.4-14.74-11.17-17.49-18.46-3.34-8.83,2.82-19.24-.17-25.78"/>
  <g>
    <path class="cls-10" d="m280.64,146.36c3.01,1.34,9.31,2.97,13.77,3.58,1.51.2,2.73.28,3.64.23.23.4.51.75.85,1.07,1.27,1.21,3.09,1.81,4.94,1.81s3.86-.64,5.26-1.91c.25-.23.49-.48.91-1.01.35.05.75.08,1.23.08.83,0,1.85-.08,3.06-.24,4.47-.6,10.79-2.22,13.79-3.56.18-.08.35-.16.51-.24.13-.06.26-.13.39-.2.55-.28,1.05-.58,1.53-.9.03.4.11.87.23,1.4.05.21.18.56.34.94h-.02c-.06,0-.11-.01-.17-.01-.93-.02-1.84.55-2.43,1-.1.07-.19.14-.26.21-.08.06-.15.12-.21.17l-.05.04c-2.1,1.76-2.78,4.84-3.63,8.73l-.16.72c-.32,1.44-.92,1.72-1.92,2.17-.16.07-.32.15-.48.22-.26.12-.53.27-.8.45-.09.05-.18.11-.28.19-.16.11-.33.25-.49.4h0c-.25.11-.56.22-.89.33l-.2.06c-.13.04-.28.08-.42.12h-.01c-.28.07-.57.15-.87.23-.32.07-.64.15-.97.23-.78.19-1.58.38-2.29.59-.12.04-.7.15-1.37.28-.52.1-1.02.2-1.49.3-.15.03-.29.06-.43.09-.29.06-.58.11-.85.18-.03,0-.06.01-.08.02-.21.05-.41.09-.61.13-.22.05-.44.09-.65.15-.42.09-.8.19-1.16.28-.18.04-.35.09-.51.13-.17.04-.32.09-.46.13-.42.12-.76.23-1.05.35-.07.03-.13.05-.19.08-.13.06-.24.11-.33.17h0s-.06-.02-.09-.02-.07-.02-.1-.02c-.29-.07-.68-.15-1.15-.24-.07-.02-.15-.04-.23-.05-.12-.03-.25-.05-.38-.08-.24-.05-.49-.1-.75-.15-.08-.02-.16-.03-.24-.05-.13-.03-.27-.05-.41-.08-.22-.05-.45-.09-.67-.14-.48-.09-.98-.2-1.48-.3-2.52-.5-5.37-1.07-5.67-1.16-.71-.21-1.52-.4-2.29-.59-.63-.15-1.26-.3-1.84-.46-.15-.04-.29-.08-.42-.12l-.2-.06c-.23-.07-.44-.15-.63-.22-.09-.04-.18-.07-.25-.11h0c-.26-.24-.52-.43-.77-.59-.02-.01-.03-.02-.04-.03-.09-.06-.18-.11-.26-.16-.08-.05-.17-.1-.25-.14-.17-.09-.33-.17-.49-.24-.08-.04-.17-.08-.24-.11-1-.46-1.59-.73-1.91-2.17l-.16-.73c-.85-3.89-1.52-6.97-3.62-8.74l-.05-.04c-.44-.37-1.51-1.27-2.65-1.38-.07,0-.15-.01-.22-.01h-.01c-.07,0-.14,0-.21.01.16-.38.3-.73.34-.94.12-.54.2-1,.23-1.4.16.1.31.21.48.31.25.16.52.31.79.46.13.07.26.13.39.21.25.12.5.24.77.36Z"/>
    <path class="cls-12" d="m312.17,64.46c1.42,1.72,3.65,2.81,5.81,2.87.05,0,.09,0,.13,0,2.94,0,6.01-2.33,7.19-4.52.3-.56.47-1.08.49-1.57,0-.06.01-.13.01-.2v-.12s-.02-.16-.02-.16c-.2-.67-.25-.76-.31-.84-1.03-1.48-2.65-1.37-4.9-1.21-.8.05-1.71.11-2.68.11-.6,0-1.17-.02-1.72-.03-2.82-.08-4.86-.13-5.23,2.07-.02.09-.03.18-.03.28-.02.19-.01.39.01.59.09.89.52,1.84,1.25,2.72Zm-19.47-5.65c-.54.01-1.1.03-1.69.03h-.04c-.99,0-1.89-.06-2.68-.12-2.25-.16-3.87-.28-4.9,1.2-.2.29-.31.63-.33,1,0,.1,0,.21,0,.32,0,.07.01.14.02.21.06.43.22.88.47,1.35,1.18,2.2,4.24,4.53,7.19,4.53h.12c2.16-.05,4.39-1.14,5.82-2.86.73-.88,1.17-1.84,1.26-2.73.02-.11.02-.23.02-.35v-.26c-.02-.07-.02-.15-.04-.21,0-.01,0-.02,0-.03-.36-2.2-2.4-2.15-5.23-2.09Zm-22.94-3.77c.19-.05.39-.07.59-.07.18,0,.35.02.52.06.15.03.29,0,.41-.08s.2-.22.22-.36c2.15-17.16,16.25-30.09,32.8-30.09h.3c16.56.02,30.65,12.98,32.77,30.15.02.15.1.28.22.36.12.08.27.11.41.08.37-.08.75-.08,1.12.02,1.11.3,1.96,1.42,2.38,3.17.45,1.86.36,4.16-.26,6.48-1.06,3.98-3.47,7.09-5.72,7.38-.19.03-.34.15-.41.32-3.9,9.77-12.04,17.29-21.78,20.08-.71.2-1.43.38-2.15.53-.05-.01-.1-.01-.16,0-2.1.37-4.27.57-6.45.57h-.29c-2.16,0-4.31-.2-6.41-.57-.06-.01-.12-.01-.18.01-.76-.17-1.51-.35-2.22-.56-9.73-2.82-17.86-10.34-21.73-20.12-.07-.17-.23-.3-.42-.32-2.25-.3-4.64-3.41-5.7-7.4-.61-2.32-.7-4.62-.25-6.48.43-1.75,1.28-2.88,2.39-3.17Zm60.28-1.89c.49.19.9-.55.51-.88-1.18-1-2.41-1.71-3.87-2.26-1.43-.53-2.91-.92-4.41-1.15-1.49-.23-2.98-.34-4.49-.26-.77.04-1.55.12-2.32.23-.79.11-1.65.18-2.27.71-.5.43-.21,1.29.38,1.44.72.18,1.48-.1,2.2-.21.66-.1,1.33-.16,2-.19,1.41-.07,2.84-.02,4.24.17,2.78.38,5.41,1.41,8.02,2.4Zm-19.51,33.18c0-.73-.34-1.48-1.06-2.06s-1.82-.97-3.33-.97h-.01c-2.79,0-7.4,1.4-7.4,3.01s3.4,2.18,5.96,2.46c.78.08,1.47.12,2.08.12,1.52,0,2.54-.25,3.12-.77.56-.5.64-1.19.64-1.8Zm-4.38-9.32c1.39-.14,2.98-.71,2.84-2.4-.13-1.65-1.84-2.62-2.7-3.87-1.01-1.47-1.51-3.14-1.69-4.89-.04-.46-.71-.47-.72,0-.04,1.37.3,2.72.85,3.97.57,1.28,1.4,2.3,2.35,3.32.43.46.97,1.12.81,1.81-.15.65-.88.75-1.44.77s-1.16.02-1.7-.09c-.59-.12-.85-.43-1.31-.76-.5-.35-1.08.23-.97.74.33,1.44,2.53,1.52,3.68,1.4Zm-8.99-26.02c.59-.16.88-1.02.38-1.44-.6-.51-1.4-.58-2.16-.7-.77-.11-1.55-.2-2.32-.24-1.54-.08-3.07.02-4.6.26-1.47.22-2.91.6-4.31,1.12-1.49.55-2.75,1.27-3.97,2.29-.39.33.03,1.06.51.88,2.61-.99,5.25-2.02,8.02-2.4,1.36-.18,2.75-.23,4.12-.18.71.03,1.42.09,2.12.2.72.11,1.48.39,2.2.21Z"/>
    <path class="cls-13" d="m335.37,163.02s-.03.08-.05.12c.01-.04.03-.08.04-.12,0,0,0,0,0,0Z"/>
    <path class="cls-13" d="m332.62,149.35c.24-.13.32-.43.2-.67.02.02.03.04.04.06,1.39,2.52,2.39,8.67,2.87,12.11.04.26.04.52.01.79-.15-.18-.39-.23-.61-.14-.23.11-.4.34-.62.89.19-.46.25-.94.19-1.4-.37-2.7-1.38-9.27-2.74-11.73-.01-.02-.03-.04-.04-.07.15.23.46.31.7.17Z"/>
    <path class="cls-13" d="m332.41,167.35c.06-.06.12-.11.17-.18-.05.06-.11.12-.17.18Z"/>
    <path class="cls-13" d="m331.5,144.32s.05-.04.08-.07c-.06.23-.09.78.18,1.98.09.38.77,1.88,1.04,2.39l-.08-.13c-.38-.61-.89-.97-1.51-1.06-.04,0-.08-.01-.12-.02-.16-.38-.3-.73-.34-.94-.12-.53-.2-1-.23-1.4.33-.22.64-.46.94-.71l.04-.04Z"/>
    <path class="cls-13" d="m331.07,147.41c-.06,0-.11-.01-.17-.01.06,0,.11,0,.17.01Z"/>
    <path class="cls-7" d="m331.05,148.44c.31.05.57.24.78.58.03.04.05.09.08.13,0,.01.01.02.02.03.01.03.03.05.04.07,1.36,2.47,2.37,9.03,2.74,11.73.06.46,0,.94-.19,1.4-.2.48-.41,1.16-.6,1.76l-.21.69c-.18.59-.37,1.19-.44,1.35-.17.37-.39.7-.67,1-.05.06-.11.12-.17.18-.59.58-1.37,1.02-2.24,1.36-.32.13-.65.24-1,.35-.21.07-.43.12-.65.18-.36.09-.73.17-1.1.24-.19.04-.37.07-.56.09-.33.05-.65.09-.97.13h0c-.07-.03-.13-.06-.2-.1-.05-.02-.09-.04-.13-.07-.08-.04-.17-.09-.25-.15-.11-.06-.21-.13-.32-.2-.1-.07-.2-.13-.3-.21-.17-.12-.33-.25-.49-.4-.09-.07-.18-.15-.26-.23-.58-.54-1.09-1.16-1.53-1.82-.07-.1-.13-.2-.2-.3-.46-.72-.83-1.46-1.07-2.14-.37-1.02-.34-1.5-.32-1.55.63-.59,1.25-.87,1.84-1.14,1.06-.49,2.07-.95,2.5-2.9l.16-.72c.81-3.7,1.45-6.62,3.28-8.15l.05-.04c.22-.19.73-.61,1.28-.88.08-.04.15-.07.23-.1.09-.04.17-.07.26-.09.15-.04.3-.07.44-.07.06,0,.12,0,.18.01Z"/>
    <path class="cls-13" d="m331.05,148.44c-.06,0-.12-.01-.18-.01-.15,0-.29.03-.44.07.21-.06.43-.09.62-.06Z"/>
    <path class="cls-13" d="m330.42,143.85c.11-.09.22-.17.33-.26-.1.09-.21.18-.33.26Z"/>
    <path class="cls-13" d="m330.07,144.11c.12-.08.23-.17.35-.25-.11.09-.23.17-.35.25Z"/>
    <path class="cls-13" d="m329.71,144.35c.12-.08.24-.16.36-.24-.12.09-.24.17-.36.24Z"/>
    <path class="cls-13" d="m329.93,148.69c.08-.04.15-.07.23-.1-.08.03-.15.06-.23.1Z"/>
    <path class="cls-13" d="m330.17,168.71c-.32.13-.65.24-1,.35.34-.1.67-.22,1-.35Z"/>
    <path class="cls-13" d="m330.05,53.14c-2.61-.99-5.24-2.02-8.02-2.4-1.4-.19-2.83-.24-4.24-.17-.67.03-1.34.09-2,.19-.72.11-1.48.39-2.2.21-.6-.16-.88-1.02-.38-1.44.63-.53,1.48-.6,2.27-.71.77-.11,1.54-.2,2.32-.23,1.51-.07,3,.03,4.49.26,1.51.23,2.98.62,4.41,1.15,1.45.55,2.68,1.26,3.87,2.26.39.33-.03,1.06-.51.88Z"/>
    <path class="cls-13" d="m328.59,146.16c.13-.06.26-.13.39-.2-.13.07-.26.13-.39.2Z"/>
    <path class="cls-13" d="m328.2,148.6c.08-.07.17-.13.26-.21-.1.07-.19.15-.26.21Z"/>
    <path class="cls-13" d="m328.2,148.6c-.08.06-.15.12-.21.17.06-.05.13-.11.21-.17Z"/>
    <path class="cls-13" d="m327.42,169.48c.37-.07.74-.15,1.1-.24-.36.09-.73.17-1.1.24Z"/>
    <path class="cls-13" d="m326.87,169.57c-.33.06-.65.1-.96.13,0,0-.01,0-.01,0,.32-.04.64-.08.97-.13Z"/>
    <path class="cls-13" d="m326.2,169.9s.06.08.08.12c-.02-.04-.05-.08-.08-.12Z"/>
    <path class="cls-13" d="m325.95,170.74c.2-.06.34-.22.37-.42.02-.1,0-.21-.04-.3.1.19.07.43-.09.59-.07.07-.15.11-.24.13Z"/>
    <path class="cls-13" d="m334.2,166.61c-1.02,2.25-3.8,3.64-8.28,4.14.01,0,.02,0,.03-.01.09-.02.17-.07.24-.13.16-.16.19-.39.09-.59-.02-.04-.04-.08-.08-.12-.02-.03-.05-.05-.07-.07-.02-.01-.03-.02-.04-.03-.02-.02-.04-.03-.07-.04,0,0,0,0-.01,0-.04-.02-.07-.03-.1-.05.31-.04.63-.08.96-.13.18-.03.37-.06.56-.09.37-.07.74-.15,1.1-.24.22-.05.44-.11.65-.18.34-.1.67-.22,1-.35.87-.34,1.65-.78,2.24-1.36.06-.06.12-.11.17-.18.28-.3.51-.63.67-1,.07-.16.25-.77.44-1.35l.21-.69c.19-.61.4-1.29.6-1.76.22-.55.39-.78.62-.89.21-.09.46-.04.61.14-.03.38-.12.77-.27,1.14-.03.08-.06.16-.09.25,0,0,0,0,0,0-.02.04-.03.08-.04.12-.24.71-.34,1.01-.43,1.3l-.21.69c-.24.8-.39,1.27-.48,1.48Z"/>
    <path class="cls-13" d="m326.13,169.83s-.03-.02-.04-.03c.02,0,.03.02.04.03Z"/>
    <path class="cls-13" d="m325.95,170.74s-.02.01-.03.01c-.02,0-.04,0-.05,0l.08-.02Z"/>
    <path class="cls-13" d="m325.91,169.71h-.02s0,0,0,0c0,0,0,0,.01,0Z"/>
    <path class="cls-13" d="m325.9,169.71h.01s.07.04.1.05c-.08-.04-.17-.05-.25-.04,0,0,.02,0,.02,0,.04,0,.07-.01.11-.02h0Z"/>
    <path class="cls-13" d="m325.69,169.6c.07.04.13.07.2.1-.07-.03-.13-.06-.2-.1Z"/>
    <path class="cls-13" d="m325.45,170.6c-.2-.2-.2-.53,0-.73.08-.08.17-.12.26-.15.02,0,.03,0,.04,0,.09-.01.18,0,.25.04,0,0,0,0,.01,0,.03.01.05.02.07.04.02.01.03.02.04.03.03.02.05.05.07.07.03.04.06.08.08.12.04.09.06.2.04.3-.03.2-.18.36-.37.42l-.08.02h-.06s-.07,0-.11-.01c-.03,0-.07-.02-.1-.03h0s-.05-.02-.07-.04c-.03-.02-.05-.04-.08-.07h0Z"/>
    <path class="cls-13" d="m325.79,60.77l.02.16-.02-.16Z"/>
    <path class="cls-13" d="m325.85,170.75s-.03,0-.04,0c-.04,0-.07,0-.1-.02.04,0,.07.01.11.01h.04Z"/>
    <path class="cls-13" d="m325.61,170.71s.07.03.1.03c-.04,0-.07-.02-.1-.03Z"/>
    <path class="cls-13" d="m325.31,169.38c.08.05.17.1.25.15-.09-.04-.17-.09-.25-.15Z"/>
    <path class="cls-13" d="m325.53,170.68c-.48-.22-.94-.5-1.39-.83.54-.03,1.06-.07,1.57-.12-.09.02-.19.07-.26.15-.2.2-.2.53,0,.73h0s.05.05.08.07Z"/>
    <path class="cls-13" d="m325.02,59.73l.03.03s-.02-.02-.03-.03Z"/>
    <path class="cls-13" d="m324.91,59.61s.08.07.11.11c-.04-.04-.07-.08-.11-.11Z"/>
    <path class="cls-13" d="m324.99,169.18c-.1-.07-.2-.13-.3-.21.09.08.19.15.3.21Z"/>
    <path class="cls-13" d="m324.45,59.27l.16.1c-.05-.04-.1-.07-.16-.1Z"/>
    <path class="cls-13" d="m324.3,59.19l.15.08s-.1-.06-.15-.08Z"/>
    <path class="cls-13" d="m323.94,168.34c.08.08.17.16.26.23-.09-.07-.18-.15-.26-.23Z"/>
    <path class="cls-13" d="m324.37,106.93c.23.16.3.49.13.72-.08.12-.17.25-.26.37-.13-.07-.26-.13-.38-.19-.13-.07-.24-.19-.28-.34-.04-.15-.02-.3.07-.43.16-.23.48-.3.72-.13Z"/>
    <path class="cls-13" d="m323.71,169.5c.14.12.29.24.44.35-.15-.11-.3-.22-.44-.35Z"/>
    <path class="cls-13" d="m323.29,169.14c.13.12.28.25.42.37-.15-.11-.29-.24-.42-.37Z"/>
    <path class="cls-13" d="m324.03,169.86c-.28.02-.56.03-.85.04.29-.01.57-.02.85-.04Z"/>
    <path class="cls-13" d="m322.89,168.74c.13.13.26.26.4.39-.13-.12-.27-.26-.4-.39Z"/>
    <path class="cls-13" d="m322.51,168.33c.12.14.25.28.38.42-.13-.13-.26-.28-.38-.42Z"/>
    <path class="cls-13" d="m314.76,59.03c.44,0,.9.02,1.4.03.55.02,1.12.03,1.73.03h.02c.99,0,1.88-.06,2.68-.12.66-.05,1.26-.09,1.8-.09,1.29,0,2.23.24,2.9,1.2.15.21.24.45.28.72.02.13.02.28.01.44-.04.44-.19.92-.47,1.44-1.15,2.14-4.22,4.39-6.99,4.39h-.12c-2.1-.05-4.26-1.12-5.64-2.79-.69-.83-1.11-1.73-1.2-2.56-.02-.19-.03-.37-.01-.55,0-.08.02-.16.03-.23.07-.42.2-.74.39-1,.05-.06.1-.12.16-.18.23-.23.51-.38.84-.49.17-.06.34-.1.53-.13.48-.08,1.04-.11,1.68-.11Z"/>
    <path class="cls-13" d="m322.15,167.89c.11.15.23.29.36.43-.12-.14-.25-.29-.36-.43Z"/>
    <path class="cls-13" d="m322.22,166.22c.06.1.13.2.2.3-.07-.1-.13-.2-.2-.3Z"/>
    <path class="cls-13" d="m321.86,167.52c.09.13.19.25.3.38-.1-.12-.2-.25-.3-.38Z"/>
    <path class="cls-13" d="m322.23,160.44c-.16.07-.31.14-.48.22.16-.08.32-.15.48-.22Z"/>
    <path class="cls-13" d="m322.05,169.9c-.09,0-.2-.01-.32-.02.12.01.23.02.32.02Z"/>
    <path class="cls-13" d="m321.81,167.45c-.09-.12-.18-.25-.26-.38.08.13.17.25.26.38Z"/>
    <path class="cls-13" d="m320.9,161.85c-.14-.21-.42-.29-.65-.18-.02.01-.05.02-.07.03.17-.15.33-.29.49-.4.09-.07.18-.13.28-.19.28-.18.55-.33.8-.45.17-.08.32-.16.48-.22,1-.46,1.6-.73,1.92-2.17l.16-.72c.86-3.89,1.53-6.97,3.63-8.73l.05-.04c.06-.05.13-.11.21-.17s.17-.13.26-.21c.59-.45,1.51-1.01,2.43-1,.06,0,.11,0,.17.01h.02s.08.01.12.02c.61.1,1.12.46,1.51,1.06l.08.13s.02.04.03.05c.12.24.04.54-.2.67-.24.14-.55.07-.7-.17,0-.01-.01-.02-.02-.03-.03-.04-.05-.09-.08-.13-.21-.34-.47-.53-.78-.58-.2-.03-.41,0-.62.06-.09.02-.17.05-.26.09-.08.03-.15.06-.23.1-.55.28-1.05.7-1.28.88l-.05.04c-1.83,1.53-2.47,4.45-3.28,8.15l-.16.72c-.43,1.95-1.44,2.41-2.5,2.9-.59.27-1.21.55-1.84,1.14.19-.17.22-.46.08-.67Z"/>
    <path class="cls-13" d="m320.95,161.12c-.09.06-.18.12-.28.19.09-.07.19-.13.28-.19Z"/>
    <path class="cls-13" d="m320.7,165.65c.08.15.16.3.24.45-.09-.15-.17-.3-.24-.45Z"/>
    <path class="cls-13" d="m319.83,163.22s-.01-.08-.02-.11c-.01-.05-.02-.1-.02-.15h0c.33-.11.62-.22.89-.35.05-.02.09-.05.13-.09-.02.05-.05.53.32,1.55.25.69.61,1.43,1.07,2.14.06.1.12.2.2.3.44.65.96,1.28,1.53,1.82.08.08.17.16.26.23.16.15.32.28.49.4.09.08.19.15.3.21.1.07.21.14.32.2.08.05.16.1.25.15.04.03.08.05.13.07.07.04.13.07.2.1-.04,0-.08.01-.11.02,0,0-.02,0-.02,0-.02,0-.03,0-.04,0-.51.05-1.03.09-1.57.12-.15-.11-.3-.22-.44-.35-.15-.12-.29-.24-.42-.37-.13-.13-.27-.26-.4-.39s-.25-.28-.38-.42-.24-.28-.36-.43c-.1-.12-.2-.25-.3-.38l-.05-.06c-.09-.12-.18-.25-.26-.38-.22-.32-.42-.65-.6-.97-.09-.15-.17-.3-.24-.45,0,0,0-.01-.01-.02-.07-.14-.13-.29-.2-.42-.09-.21-.18-.42-.26-.62l-.09-.25c-.06-.16-.11-.32-.15-.47-.03-.1-.06-.2-.08-.3-.03-.12-.05-.24-.07-.35Z"/>
    <path class="cls-13" d="m320.49,165.22c.07.13.13.28.2.42l-.2-.42Z"/>
    <path class="cls-13" d="m320.68,162.61c-.26.12-.56.24-.89.34-.06-.56.05-.95.32-1.19.02-.02.04-.04.06-.06h0s.05-.02.07-.03c.23-.11.51-.03.65.18.15.21.11.5-.08.67-.04.04-.08.07-.13.09Z"/>
    <path class="cls-13" d="m320.13,164.35l.09.25c-.04-.09-.07-.17-.09-.25Z"/>
    <path class="cls-13" d="m319.91,163.58c.02.1.05.2.08.3-.03-.1-.06-.2-.08-.3Z"/>
    <path class="cls-13" d="m319.83,163.22c.02.11.04.23.07.35-.03-.12-.05-.24-.07-.35Z"/>
    <path class="cls-6" d="m319.58,163.03c.07-.02.15-.05.21-.07,0,.05.01.1.02.15,0,.04.01.07.02.11.02.11.04.23.07.35.02.1.05.2.08.3.04.15.09.31.15.47.03.08.06.16.09.25.08.2.17.4.26.62l.2.42s0,.01.01.02c.08.15.16.3.24.45.18.32.38.65.6.97.08.13.17.25.26.38l.05.06c.09.13.19.25.3.38.11.15.23.29.36.43.12.14.25.28.38.42s.26.27.4.39c.13.13.28.25.42.37.14.12.29.24.44.35-.04,0-.08,0-.12,0-.28.02-.56.03-.85.04-.33.01-.67.02-1.02.02-.03,0-.06,0-.1,0-.09,0-.2-.01-.32-.02-.54-.06-1.33-.22-2.29-.44-.21-.05-.43-.1-.65-.16-.7-.17-1.47-.36-2.28-.58-.25-.07-.51-.13-.77-.2-1.68-.45-3.48-.97-5.17-1.46-.19-.05-.37-.11-.56-.16-.95-.28-1.86-.55-2.67-.78-.12-.04-.24-.07-.35-.11.15-.05.31-.09.48-.13.08-.02.16-.04.25-.07h.01c.13-.04.26-.07.4-.1.42-.1.87-.21,1.33-.31.27-.06.54-.12.8-.18.19-.04.37-.08.55-.11l.22-.05c.44-.09.86-.18,1.24-.25.06-.02.12-.03.18-.04.06-.01.12-.03.18-.04.11-.02.22-.05.33-.06.16-.03.3-.06.42-.08.87-.18,1.3-.26,1.46-.31.68-.2,1.47-.39,2.24-.57.66-.16,1.31-.31,1.91-.48.07-.02.13-.04.2-.06.14-.04.28-.08.41-.12Z"/>
    <path class="cls-13" d="m319.8,162.96s.01.1.02.15c-.01-.05-.02-.1-.02-.15Z"/>
    <path class="cls-13" d="m319.58,163.03c.07-.02.15-.05.21-.07-.07.02-.14.05-.21.07Z"/>
    <path class="cls-13" d="m315.6,92.9c6.68,1.42,9.23,4.24,10.19,6.45,1.04,2.39.7,5.15-.97,7.82,3.43,1.91,8.27,7.4,10.06,12.51,1.02,2.89,4.11,11.66.7,18.99-1.15,2.46-2.42,4.24-4.01,5.58.01-.04.02-.08.03-.1.09-.22.02-.47-.18-.61s-.46-.13-.64.02c-.02.01-.03.02-.04.03.02-.01.03-.03.04-.04,1.52-1.25,2.74-2.94,3.85-5.32,3.24-6.95.25-15.43-.73-18.21-1.71-4.86-6.47-10.26-9.67-11.99.09-.12.18-.25.26-.37.16-.23.1-.56-.13-.72-.24-.16-.56-.1-.72.13,1.72-2.51,2.15-5.11,1.19-7.3-.94-2.17-3.68-5.01-11.33-6.2l.11-.03c.66-.19,1.32-.4,1.98-.64Z"/>
    <path class="cls-13" d="m319.09,162.09l.2-.06-.2.06Z"/>
    <path class="cls-13" d="m318.79,169.29c.22.06.44.11.65.16-.21-.05-.43-.1-.65-.16Z"/>
    <path class="cls-13" d="m318.97,163.2c.07-.02.13-.04.2-.06-.07.02-.13.04-.2.06Z"/>
    <path class="cls-13" d="m319.09,162.09c-.13.04-.27.08-.42.12.14-.04.28-.08.42-.12Z"/>
    <path class="cls-13" d="m318.66,162.21c-.28.08-.57.16-.87.23.3-.08.59-.16.87-.23Z"/>
    <path class="cls-12" d="m314.93,101.87c.86.41,1.35.67,1.59,1.26.1.25.14.51.12.8h0s0,.01,0,.01v.05c-.13,1.4-1.55,2.96-1.94,3.32-.01,0-.02.02-.04.04-.02.01-.04.03-.06.05-.43.39-1.06.76-1.88,1.08-.21.09-.43.16-.63.23-1.12.36-2.33.56-3.6.57h-8.16c-1.3-.01-2.52-.21-3.67-.62-.16-.05-.32-.11-.46-.17-.02-.01-.04-.02-.05-.03-.3-.12-.55-.23-.76-.34-.18-.09-.33-.18-.47-.26h0s0,0-.01,0c0,0,0-.01-.01-.01h0c-.12-.08-.22-.15-.32-.22-.18-.13-.31-.25-.42-.36-.45-.41-2.08-2.25-1.91-3.73.02-.16.05-.3.11-.45.24-.59.73-.85,1.59-1.26.77-.36,1.72-.82,2.59-1.78.42-.46.75-1.09,1.03-1.92l.02-.05s.02-.05.02-.06c.02-.05.03-.11.03-.17.22-.72.39-1.48.51-2.27.07-.45.12-.9.15-1.36,1.97.37,3.99.56,6,.56h.31c2.05,0,4.09-.19,6.06-.57.06,1.04.25,2.42.62,3.59-.01.06,0,.12.01.18.01.04.02.07.04.12,0,.02.01.03.02.04.27.81.62,1.46,1.02,1.92.86.97,1.82,1.43,2.59,1.79Z"/>
    <path class="cls-13" d="m316.51,168.7c-.25-.06-.51-.13-.77-.2.26.07.51.13.77.2Z"/>
    <path class="cls-13" d="m328.08,146.4c-3,1.33-9.31,2.96-13.79,3.56-.28.04-.55-.16-.58-.45s.16-.55.45-.58c4.31-.58,10.62-2.2,13.5-3.48.76-.33,1.44-.7,2.06-1.1.12-.08.24-.16.36-.24h0c.12-.08.23-.17.35-.25.11-.08.22-.17.33-.26.02-.01.03-.02.04-.03.18-.16.45-.16.64-.02s.26.39.18.61c-.01.02-.02.06-.03.1-.03.03-.05.05-.08.07l-.04.04c-.3.25-.61.48-.94.71-.47.32-.98.62-1.53.9-.13.07-.26.13-.39.2-.17.08-.34.16-.51.24Z"/>
    <path class="cls-9" d="m315.44,108.1h0s0,0,0,0c0,0,0,0,0,0Z"/>
    <path class="cls-13" d="m315.43,108.08s0,0,0,0h0Z"/>
    <path class="cls-13" d="m313.63,59.04c-.08.01-.16.02-.24.03.08-.01.16-.02.24-.03Z"/>
    <path class="cls-13" d="m318.73,112.77c-1.57.88-3.27,1.28-5.07,1.71l-.51.12s-.08.02-.12.02c-.24,0-.45-.16-.51-.4-.06-.28.11-.56.38-.62l.52-.12c1.8-.43,3.36-.79,4.8-1.6,2.28-1.28,4.16-2.94,5.42-4.8-.09.13-.11.29-.07.43.04.15.15.27.28.34.12.06.25.12.38.19-1.34,1.83-3.24,3.47-5.51,4.74Z"/>
    <path class="cls-13" d="m312.55,59.27c.17-.06.35-.1.53-.13-.19.04-.37.08-.53.13Z"/>
    <path class="cls-13" d="m312.13,93.93c.23-.05.47-.11.7-.17-.23.06-.46.12-.7.17Z"/>
    <path class="cls-13" d="m312.62,164.7c.11-.02.22-.05.33-.06-.1.02-.21.04-.33.06Z"/>
    <path class="cls-13" d="m313.16,163.53c-.52.1-1.02.2-1.49.3.47-.1.97-.2,1.49-.3Z"/>
    <path class="cls-13" d="m315.4,100.79c.88.42,1.72.82,2.12,1.83.17.43.23.89.18,1.39.03-.45-.03-.88-.19-1.28-.4-1.01-1.24-1.41-2.12-1.83-.75-.36-1.53-.73-2.24-1.54-.24-.27-.46-.64-.65-1.11.02,0,.04,0,.06,0,.18.42.38.75.6,1,.72.81,1.49,1.18,2.24,1.54Z"/>
    <path class="cls-13" d="m313.15,99.37c.72.81,1.49,1.18,2.24,1.54.88.42,1.72.82,2.12,1.83.16.4.22.83.19,1.28v.02s0,.02,0,.03c0,.03-.02.06-.03.09,0-.03,0-.06.01-.09v-.05c.04-.45-.03-.88-.19-1.28-.4-1-1.24-1.4-2.11-1.82-.75-.36-1.53-.73-2.25-1.54-.24-.28-.46-.65-.65-1.12,0,0,.01,0,.02,0,.19.47.41.84.65,1.11Z"/>
    <path class="cls-13" d="m312.47,59.27h0s0,0,0,0Z"/>
    <path class="cls-13" d="m312.45,164.74c-.06.01-.12.02-.18.04.06-.02.12-.03.18-.04Z"/>
    <path class="cls-13" d="m312.36,97.76c.06.18.12.34.19.49-.02,0-.04,0-.06,0-.05-.11-.09-.23-.13-.35,0-.06,0-.11-.01-.16h0Z"/>
    <path class="cls-13" d="m312.34,97.69s.02.05.02.07h0s-.01-.05-.02-.07Z"/>
    <path class="cls-13" d="m312.34,97.69l-.03-.09s.03.06.03.09Z"/>
    <path class="cls-13" d="m312.21,97.26c.03.11.06.21.09.31-.03-.06-.08-.11-.13-.15-.08-.06-.17-.09-.26-.1.1-.03.21-.05.31-.06Z"/>
    <path class="cls-13" d="m312.75,99.72c1.64,1.85,3.64,1.64,4.27,3.21.13.34.18.69.16,1.04,0,.02,0,.05,0,.07-.02.15-.04.31-.08.46-.24-.04-.42-.23-.44-.47,0-.01,0-.03,0-.04v-.05c.03-.3-.01-.57-.11-.82-.25-.63-.81-.9-1.59-1.27-.77-.36-1.72-.82-2.58-1.79-.4-.46-.75-1.1-1.02-1.91,0-.02-.01-.03-.01-.04-.02-.05-.03-.08-.04-.11-.07-.26.08-.54.34-.62l.08-.02c.06-.02.13-.03.19-.04.09.01.18.05.26.1.05.04.1.09.13.15,0,0,.01.02.01.03l.03.09s.01.05.02.07c-.17.03-.35.07-.52.11-.02,0-.03,0-.04.01.01.04.03.08.04.11h0c.23.69.53,1.3.92,1.73Z"/>
    <path class="cls-13" d="m317.01,102.93c-.63-1.57-2.63-1.35-4.27-3.21-.39-.44-.69-1.05-.92-1.73h0s-.03-.08-.04-.12c.02,0,.03,0,.04-.01.18-.04.35-.08.52-.11.01.05.02.1.01.16.04.12.08.24.13.35,0,0-.01,0-.02,0,.19.47.41.84.65,1.12.72.81,1.5,1.18,2.25,1.54.88.42,1.71.81,2.11,1.82.16.4.22.83.19,1.28v.05s-.01.06-.02.09c-.08.21-.28.36-.5.36h-.05s-.03,0-.04-.01c.04-.15.07-.31.08-.46,0-.03,0-.05,0-.07.03-.36-.02-.71-.16-1.04Z"/>
    <path class="cls-13" d="m311.71,59.77c-.06.05-.11.11-.16.18.05-.06.1-.12.16-.18Z"/>
    <path class="cls-13" d="m311.19,93.07c.72-.15,1.44-.33,2.15-.53.07-.02.15-.03.22-.02.72.11,1.4.23,2.04.37-.65.23-1.31.45-1.98.64l-.11.03c-.23.06-.46.13-.69.19-.23.06-.46.12-.7.17-.14.04-.29.07-.43.1-.01-.14-.02-.28-.02-.4,0-.14-.08-.3-.18-.4-.09-.09-.2-.13-.32-.15Z"/>
    <path class="cls-13" d="m310.64,94.24s.07-.01.1-.02c.32-.06.64-.12.97-.2.05.91.2,2.15.51,3.24-.1.01-.2.03-.31.06-.07,0-.13,0-.2.03-.02,0-.06.01-.08.02-.21.07-.35.25-.37.46-.37-1.17-.56-2.54-.62-3.59Z"/>
    <path class="cls-13" d="m311.54,59.95s.01-.02.02-.03c-.01.01-.02.02-.02.03Z"/>
    <path class="cls-13" d="m314.94,101.86c.78.37,1.34.64,1.59,1.27.1.25.14.52.12.82v.05s0,.03-.01.04c0-.03-.01-.06,0-.09h0c.02-.3-.02-.57-.12-.81-.24-.59-.73-.85-1.59-1.26-.77-.36-1.72-.82-2.59-1.79-.4-.46-.75-1.1-1.02-1.92,0-.01-.01-.03-.02-.04-.02-.05-.03-.08-.04-.12-.02-.06-.02-.12-.01-.18.02-.2.16-.39.37-.46.02-.01.06-.02.08-.02.07-.02.13-.03.2-.03-.06.01-.13.03-.19.04l-.08.02c-.26.08-.41.36-.34.62.01.03.02.07.04.11,0,.02,0,.03.01.04.28.81.62,1.45,1.02,1.91.86.97,1.81,1.42,2.58,1.79Z"/>
    <path class="cls-13" d="m312.35,64.28c1.38,1.67,3.55,2.74,5.64,2.79h.12c2.77,0,5.84-2.25,6.99-4.39.28-.52.44-1.01.47-1.44-.03.45-.19.94-.47,1.47-1.15,2.14-4.22,4.4-6.99,4.4h-.12c-2.1-.05-4.26-1.12-5.64-2.79-.7-.85-1.12-1.75-1.2-2.6.09.84.51,1.73,1.2,2.56Z"/>
    <path class="cls-13" d="m316.16,59.05c-.5-.01-.97-.03-1.4-.03-.63,0-1.19.03-1.68.11-.19.04-.37.08-.53.13-.33.11-.61.26-.84.49-.05.05-.11.11-.16.18-.19.26-.33.58-.39,1-.01.07-.02.15-.03.23,0-.09.01-.18.03-.26.07-.39.19-.71.37-.96,0-.01.01-.02.02-.03.22-.3.53-.5.91-.64h0c.27-.1.58-.17.91-.21.08-.01.16-.02.24-.03.35-.03.73-.04,1.14-.04.44,0,.9.01,1.4.02.56.02,1.14.04,1.75.03.99,0,1.88-.06,2.68-.11.66-.05,1.27-.09,1.81-.09l1.91.34c.05.02.1.05.15.08.06.03.11.06.16.1l.3.24s.08.07.11.11c.01,0,.02.02.03.03l.24.3c.15.22.24.47.28.74-.04-.26-.13-.51-.28-.72-.67-.97-1.61-1.2-2.9-1.2-.53,0-1.13.04-1.8.09-.79.06-1.69.12-2.68.12h-.02c-.61,0-1.18-.02-1.73-.03Z"/>
    <path class="cls-13" d="m312.35,64.31c1.38,1.67,3.55,2.74,5.64,2.79h.12c2.77,0,5.84-2.25,6.99-4.4.29-.52.44-1.02.47-1.47.01-.16.01-.3-.01-.44-.03-.28-.12-.52-.28-.74l-.24-.3-.03-.03s-.07-.08-.11-.11l-.3-.24-.16-.1-.15-.08-1.91-.34c-.54,0-1.14.04-1.81.09-.79.05-1.69.11-2.68.11-.61,0-1.19-.02-1.75-.03-.5-.01-.97-.02-1.4-.02-.41,0-.79.01-1.14.04-.08,0-.16.02-.24.03-.34.04-.64.1-.91.2,0,0,0,0,0,0-.38.13-.69.34-.91.64-.01.01-.02.02-.02.03-.18.25-.31.57-.37.96-.02.08-.03.17-.03.26-.02.18-.01.36.01.55.08.84.5,1.75,1.2,2.6Zm-1.3-3.42c.42-2.51,3.09-1.96,6.84-1.95s6.14-.89,7.49,1.05c1.58,2.29-3.16,7.29-7.39,7.19-3.98-.1-7.38-3.63-6.94-6.29Z"/>
    <path class="cls-13" d="m311.03,165.03l-.22.05.22-.05Z"/>
    <path class="cls-13" d="m317.99,67.3c-2.16-.05-4.39-1.15-5.81-2.87-.72-.87-1.15-1.81-1.25-2.69-.02-.2-.03-.4-.01-.59.01-.08.02-.17.03-.24.36-2.2,2.4-2.15,5.23-2.08.55.02,1.12.03,1.72.03h.02c.98,0,1.87-.06,2.66-.11,2.25-.16,3.87-.27,4.9,1.21.04.06.08.12.31.81l.02.16v.12c0,.07,0,.13,0,.2-.04.47-.2.99-.49,1.54-1.18,2.2-4.25,4.52-7.19,4.52h-.13Zm-.09-8.36c-3.75,0-6.43-.56-6.84,1.95-.44,2.66,2.96,6.19,6.94,6.29,4.24.1,8.97-4.91,7.39-7.19-1.35-1.94-3.74-1.04-7.49-1.05Z"/>
    <path class="cls-13" d="m310.4,164.1c.27-.06.56-.12.85-.18-.29.06-.58.12-.85.18Z"/>
    <path class="cls-13" d="m312.17,64.43c1.42,1.72,3.65,2.82,5.81,2.87h.13c2.94,0,6.01-2.32,7.19-4.52.29-.55.46-1.06.49-1.54-.03.48-.19,1.01-.49,1.57-1.18,2.19-4.25,4.52-7.19,4.52-.04,0-.08,0-.13,0-2.16-.05-4.39-1.15-5.81-2.87-.73-.88-1.16-1.83-1.25-2.72.1.88.53,1.82,1.25,2.69Z"/>
    <path class="cls-13" d="m310.94,60.87c.36-2.2,2.4-2.15,5.23-2.07.55.01,1.12.03,1.72.03.98,0,1.88-.06,2.68-.11,2.25-.16,3.87-.26,4.9,1.21.06.08.11.17.31.84-.23-.69-.27-.75-.31-.81-1.03-1.48-2.65-1.37-4.9-1.21-.79.05-1.69.11-2.66.11h-.02c-.6,0-1.17-.02-1.72-.03-2.82-.07-4.86-.12-5.23,2.08-.02.08-.02.16-.03.24,0-.09.02-.19.03-.28Z"/>
    <path class="cls-13" d="m311.23,150.19c-.47,0-.88-.03-1.23-.08.07-.09.13-.18.19-.28.15-.23.29-.47.4-.71.7.05,1.82.02,3.56-.21-.29.04-.48.3-.45.58s.3.48.58.45c-1.2.16-2.23.24-3.06.24Z"/>
    <path class="cls-13" d="m310.02,166.88c.19.05.37.11.56.16-.19-.05-.37-.1-.56-.16Z"/>
    <path class="cls-13" d="m310.31,164.12c-.21.05-.42.09-.61.13.2-.05.4-.09.61-.13Z"/>
    <path class="cls-13" d="m310.31,86.32c0,.58-.07,1.18-.57,1.62-.76.69-2.4.88-5.02.59-3.88-.42-5.76-1.15-5.76-2.23,0-1.32,4.27-2.79,7.17-2.79h.01c2.87,0,4.17,1.45,4.17,2.8Z"/>
    <path class="cls-13" d="m309.46,165.37c.27-.06.54-.12.8-.18-.26.06-.53.12-.8.18Z"/>
    <path class="cls-13" d="m309.63,142c.68.36,1.21,1.16,1.49,2.26.33,1.27.33,3.14-.52,4.87h-.04c.86-1.73.86-3.6.53-4.86-.28-1.09-.81-1.88-1.48-2.24-.24-.12-.53-.22-.84-.3,0-.01.01-.02.02-.03.3.08.6.17.84.3Z"/>
    <path class="cls-13" d="m316.66,137.38c-.88.43-1.69.8-2.41,1.14l-.38.18c-2.84,1.34-4.39,2.06-5.08,3.01-.1-.03-.2-.05-.3-.08l-.28-.08c.6-.32,1.42-.79,1.65-1.64.03-.11.06-.26.08-.42h0c.88-.5,2.02-1.04,3.49-1.73l.38-.18c.72-.34,1.52-.71,2.4-1.14,5.24-2.53,5.48-6.34,5.48-6.76.02-.52-.65-1.3-1.7-1.99-.24-.16-.31-.48-.15-.72.16-.24.48-.31.72-.15.83.55,2.21,1.64,2.17,2.88-.01.49-.27,4.87-6.07,7.67Z"/>
    <path class="cls-12" d="m307.39,138.87c.11-.05.26-.12.43-.22.19-.1.78-.42.92-.37.13.14.19.86.06,1.34-.12.44-.75.77-1.2,1.01-.52.28-1.11.59-.93,1.19.15.5.73.65,1.2.78.11.03.23.06.35.09.33.08.7.18.89.28.3.16.57.52.77,1.02.07.17.12.35.18.54.31,1.21.27,3.08-.78,4.7-.26.4-.57.76-.91,1.07-2.32,2.11-6.55,2.16-8.7.12-.13-.13-.26-.27-.37-.42.45-.14.91-.4,1.06-.91.14-.5.29-.97.43-1.42.53-1.68,1-3.12.65-5.11-.02-.09-.04-.18-.06-.26-.1-.43-.26-.81-.5-1.16.16-.13.32-.26.49-.38.66-.47,1.16-.57,1.99-.72.88-.17,2.08-.4,4.04-1.18Z"/>
    <path class="cls-13" d="m307.89,164.67c.35-.09.74-.18,1.16-.28-.42.09-.8.19-1.16.28Z"/>
    <path class="cls-13" d="m307.52,141.89c.37-.98,1.11-1.65,2.42-2.4-.02.16-.05.31-.08.42-.23.85-1.05,1.32-1.65,1.64l.28.08c.1.03.2.05.3.08-.01.01-.02.02-.02.03.31.08.6.18.84.3.67.35,1.2,1.15,1.48,2.24.33,1.26.33,3.13-.53,4.86h.04c-.11.24-.25.47-.4.71-.06.09-.12.19-.19.28-.14-.02-.28-.05-.39-.08-.17-.04-.3-.16-.36-.31s-.05-.33.05-.47c1.06-1.62,1.1-3.5.78-4.72-.05-.2-.11-.38-.18-.55-.2-.5-.48-.88-.78-1.03-.2-.11-.57-.2-.9-.29l-.36-.09c-.14-.04-.25-.13-.32-.26s-.07-.29-.03-.42Z"/>
    <path class="cls-13" d="m307.73,165.79c.13-.04.26-.07.4-.1-.13.04-.27.07-.4.1Z"/>
    <path class="cls-13" d="m307.89,164.67c-.18.05-.34.09-.51.13.16-.04.33-.09.51-.13Z"/>
    <path class="cls-13" d="m307.86,115.35c-.08.02-.17.02-.25.03.08,0,.17-.02.25-.03Z"/>
    <path class="cls-13" d="m307.72,165.79c-.09.03-.17.05-.25.07.08-.03.17-.05.25-.07Z"/>
    <path class="cls-13" d="m306.84,93.69c.44-.03.87-.07,1.3-.12-.43.05-.86.09-1.3.12Z"/>
    <path class="cls-13" d="m307.27,115.4c.09,0,.18,0,.28-.02-.09.01-.18.02-.28.02Z"/>
    <path class="cls-13" d="m307.12,115.18s0-.01,0-.01c.67.01,1.38-.14,1.93-.52.17-.13.29-.3.28-.44-.21-.53-1.01-.77-1.86-.81-.02-.06-.05-.11-.09-.16.05,0,.09,0,.13.01.55.04,1.02.17,1.37.34s.55.39.55.62c0,.47-.92.98-2.29.98Z"/>
    <path class="cls-13" d="m306.99,165.99c.11.04.23.07.35.11-.12-.04-.24-.07-.36-.11h0Z"/>
    <path class="cls-13" d="m307.13,113.22c.01-.1.16-.14.21-.04.01.02.03.03.03.05-.08,0-.16-.01-.24-.01Z"/>
    <path class="cls-13" d="m307.46,113.39c-.11,0-.23,0-.35,0,0-.05,0-.1,0-.15,0,0,0-.02,0-.02.09,0,.17,0,.24.01.04.05.07.1.09.16Z"/>
    <path class="cls-13" d="m307.39,164.8c-.16.05-.32.09-.46.13.15-.04.3-.09.46-.13Z"/>
    <path class="cls-13" d="m307.09,115.17h.04s0,0,0,.01h-.03s-.05,0-.07,0c.03,0,.05,0,.07,0Z"/>
    <path class="cls-13" d="m307.1,115.4s.09,0,.13,0c-.05,0-.09.01-.14.01h-.05s.04,0,.05,0Z"/>
    <path class="cls-13" d="m306.98,115.17c-.23-.01-.61-.07-.98-.18.31-.41.54-.55.74-.83.2-.26.35-.44.38-.77.11,0,.23,0,.35,0,.24.55-.05,1.23-.34,1.78h-.04s-.05,0-.07,0h-.04Z"/>
    <path class="cls-13" d="m307.02,115.41h-.03.03Z"/>
    <path class="cls-13" d="m306.92,115.4s.06,0,.08,0h0s-.05,0-.08,0Z"/>
    <path class="cls-13" d="m307.31,119.43c.16-1.09-1.01-1.69-1.43-2.74-.17-.43-.24-.95-.06-1.4.37.08.75.1,1.07.1,0,0,.01,0,.02,0,.03,0,.05,0,.08,0-.03.06-.06.11-.09.17-.03.11-.02.13.01.26.21.88,1.14,1.37,1.41,2.36.5,1.39-.59,2.82-1.69,3.4-.06.04-.13.02-.16-.04-.02-.04-.02-.08,0-.12.39-.69.76-1.38.83-1.99Z"/>
    <path class="cls-13" d="m306.84,93.69c-.5.04-1,.06-1.51.07.5-.01,1.01-.03,1.51-.07Z"/>
    <path class="cls-13" d="m306.9,115.4c-.33,0-.71-.03-1.07-.1l.02-.05c.23.06.48.1.75.13h.2s.07.02.11.02Z"/>
    <path class="cls-13" d="m305.96,115.04c.2.05.42.09.65.11l.2.02c.06,0,.11,0,.17,0h.04s.05,0,.07,0h.03c-.04.08-.08.15-.12.22-.03,0-.06,0-.08,0-.01,0-.02,0-.02,0-.04,0-.07-.01-.11-.01h-.2c-.27-.04-.52-.08-.75-.14.03-.07.07-.13.11-.2h.01Z"/>
    <path class="cls-13" d="m306.61,115.15c-.23-.02-.45-.06-.65-.11.01-.02.03-.04.04-.05.37.11.75.17.98.18-.06,0-.11,0-.17,0l-.2-.02Z"/>
    <path class="cls-13" d="m314.53,163.25c.71-.21,1.51-.4,2.29-.59.32-.08.65-.16.97-.23.3-.07.59-.15.87-.23h.01c.15-.04.28-.08.42-.12l.2-.06c.33-.1.63-.21.89-.33-.02.02-.04.04-.06.06-.26.24-.37.63-.32,1.19h0c-.07.03-.14.05-.21.07-.13.04-.27.08-.41.12-.07.02-.13.04-.2.06-.6.17-1.25.32-1.91.48-.76.18-1.56.37-2.24.57-.16.05-.59.13-1.46.31-.12.03-.26.05-.42.08-.1.02-.21.04-.33.06-.06.01-.11.03-.18.04-.06.01-.12.02-.18.04-.37.08-.79.16-1.24.25l-.22.05c-.18.04-.36.08-.55.11-.26.06-.53.12-.8.18-.46.1-.91.21-1.33.31-.13.03-.27.07-.4.1h-.01c-.08.02-.17.04-.25.07-.17.05-.33.09-.48.13h-.01c-.33-.09-.64-.19-.93-.28l-.47-.14c-.06-.02-.13-.03-.22-.05.09-.06.2-.11.33-.17.06-.03.12-.05.19-.08.29-.11.63-.23,1.05-.35.15-.04.3-.08.46-.13.17-.04.33-.08.51-.13.36-.09.74-.18,1.16-.28.21-.05.43-.1.65-.15.2-.04.4-.09.61-.13.03,0,.06-.01.08-.02.27-.06.56-.11.85-.18.14-.03.28-.06.43-.09.47-.1.97-.2,1.49-.3.67-.13,1.25-.24,1.37-.28Z"/>
    <path class="cls-13" d="m305.68,165.36c.06-.03.12-.05.19-.08-.07.03-.13.05-.19.08Z"/>
    <path class="cls-13" d="m314.38,182.29c3.94.67,6.93.66,8.92.65,2.98,0,5.05-.23,6.87-.43l.32-.04c2.46-.27,3.82-.42,4.5-.86,2.32-1.49,3.93-4.84,3.91-8.15,0-1.18-.23-2.01-.59-3.38-.65-2.44-1.64-4.81-2.94-7.07.03-.09.06-.17.09-.25.15-.37.24-.76.27-1.14.02.02.04.04.05.06,1.59,2.57,2.77,5.31,3.52,8.13.37,1.4.61,2.33.62,3.64v.06c0,3.62-1.8,7.31-4.38,8.97-.89.57-2.24.72-4.95,1.02l-.32.03c-1.75.19-3.94.43-6.98.44h-.46c-2.44,0-5.14-.07-8.63-.67-2.66-.46-5.34-1.15-7.73-1.99-1-.35-1.6-.61-2.15-.87.08-.04.15-.07.22-.11.19-.08.3-.27.3-.47,0-.2-.12-.38-.31-.47.5.24,1.08.51,2.29.94,2.34.83,4.95,1.5,7.56,1.95Z"/>
    <path class="cls-13" d="m305.3,166.57c-.18-.05-.31-.19-.35-.37s.02-.37.15-.5c.06-.06.15-.12.25-.18h0c.09.02.17.04.22.05l.47.14c.29.09.61.18.93.28-.6.18-1.03.34-1.17.47-.1.09-.23.14-.36.14-.04,0-.08,0-.11-.02-.01,0-.02,0-.03,0h0Z"/>
    <path class="cls-13" d="m322.15,170.95c-1.96,0-9.49-2.19-16.4-4.24l-.42-.12s.08.02.11.02c.13,0,.26-.05.36-.14.15-.13.58-.29,1.17-.47h0c.12.04.23.07.36.11.81.24,1.72.51,2.67.78.18.06.37.11.56.16,1.69.49,3.49,1.01,5.17,1.46.26.07.52.14.77.2.81.22,1.58.42,2.28.58.22.06.44.11.65.16.96.22,1.75.38,2.29.44.12.01.23.02.32.02.04,0,.07,0,.1,0,.35,0,.69,0,1.02-.02.29-.01.57-.02.85-.04.04,0,.08,0,.12,0,.44.33.9.61,1.39.83.02.02.05.03.07.04h0s.06.03.1.03c.03.01.07.02.1.02-1.13.12-2.33.18-3.65.19Z"/>
    <path class="cls-13" d="m305.3,166.58s-.02,0-.04-.01c.01,0,.02,0,.03,0h0Z"/>
    <path class="cls-13" d="m305.25,165.5s-.07-.02-.1-.02c.04,0,.07.02.1.02Z"/>
    <path class="cls-13" d="m305.11,166.53s-.07-.02-.11-.02c.04,0,.08.02.11.02Z"/>
    <path class="cls-13" d="m305.96,115.04c-.71-.17-1.18-.5-1.18-.85,0-.53,1.06-.98,2.32-.98h.04s0,.02,0,.02c0,.05,0,.1,0,.15-.78.01-1.55.18-1.93.44-.71.51.03.93.8,1.16-.01.02-.03.03-.04.05Z"/>
    <path class="cls-13" d="m305,166.51c-.1-.02-.21-.05-.34-.07.12.03.24.05.34.07Z"/>
    <path class="cls-13" d="m305.84,115.25c-.78-.21-1.29-.6-1.29-1.05,0-.67,1.12-1.2,2.54-1.2.16,0,.3,0,.43.02,1.25.1,2.12.59,2.12,1.18,0,.34-.29.64-.74.86-.29.13-.64.24-1.04.3-.08.01-.17.02-.25.03-.03,0-.05,0-.07,0-.09.01-.19.02-.28.02-.02,0-.03,0-.04,0-.04,0-.09,0-.13,0-.02,0-.04,0-.05,0h-.02s-.01,0-.02,0c.04-.07.08-.15.12-.22,1.37,0,2.29-.51,2.29-.98,0-.23-.21-.45-.55-.62s-.82-.3-1.37-.34c-.04,0-.08,0-.13-.01,0-.02-.02-.04-.03-.05-.05-.1-.2-.06-.21.04h-.04c-1.26,0-2.31.45-2.32.98,0,.35.48.67,1.18.85h-.01c-.04.07-.08.14-.11.21Z"/>
    <path class="cls-13" d="m306.16,77c-1.14.11-3.34.04-3.68-1.4-.12-.51.47-1.09.97-.74.47.33.72.63,1.31.76.55.11,1.14.11,1.7.09s1.29-.12,1.44-.77c.16-.69-.38-1.35-.81-1.81-.94-1.02-1.78-2.04-2.35-3.32-.55-1.25-.88-2.6-.85-3.97.01-.47.67-.46.72,0,.18,1.75.67,3.42,1.69,4.89.87,1.26,2.57,2.23,2.7,3.87.14,1.69-1.45,2.26-2.84,2.4Z"/>
    <path class="cls-13" d="m304.55,114.2c0,.45.5.85,1.29,1.05l-.02.05c-.61-.11-1.17-.37-1.35-.92h0c.01-.06.02-.12.02-.18,0-.06-.02-.11-.03-.17.44-1.55,3.8-1.43,4.83-.59.58.39.58,1.12-.04,1.48-.43.27-.9.38-1.39.43.4-.06.75-.16,1.04-.3.46-.21.74-.51.74-.86,0-.6-.88-1.08-2.12-1.18-.13-.01-.28-.02-.43-.02-1.42,0-2.54.52-2.54,1.2Z"/>
    <path class="cls-13" d="m304.49,114.2c0,.06,0,.11-.02.17-.02-.06-.04-.11-.05-.18.01-.06.02-.11.03-.16.02.05.03.11.03.17Z"/>
    <path class="cls-13" d="m304.29,94.72h.29c2.05,0,4.08-.16,6.06-.48h0c-1.97.38-4.02.57-6.06.57h-.31c-2.01,0-4.03-.19-6-.56v-.02c1.97.32,3.99.48,6.02.49Z"/>
    <path class="cls-13" d="m303.77,165.19c.08.02.16.03.23.05-.08-.02-.16-.03-.23-.05Z"/>
    <path class="cls-13" d="m302.63,164.96c.26.05.51.1.75.15-.24-.05-.49-.1-.75-.15Z"/>
    <path class="cls-13" d="m303.06,179.88l-.85-.38.85.38Z"/>
    <path class="cls-13" d="m302.39,164.91c.08.02.17.04.24.05-.08-.02-.16-.03-.24-.05Z"/>
    <path class="cls-13" d="m302.58,113.13c0,.06,0,.11-.01.17-.09-.02-.18-.03-.28-.05.02-.04.04-.09.06-.13.01-.03.03-.06.05-.08.05.01.1.02.16.03.02.02.02.04.02.06Z"/>
    <path class="cls-13" d="m302.24,113.37s.04-.07.05-.11c.09.02.19.03.28.05,0,.05,0,.09-.01.13-.1-.03-.21-.05-.32-.06Z"/>
    <path class="cls-13" d="m302.51,113.02s.04.03.05.04c-.05-.01-.1-.02-.16-.03.03-.03.07-.03.11-.02Z"/>
    <path class="cls-13" d="m303.73,114.19c-.12-.35-.58-.61-1.17-.76.01-.04.01-.08.01-.13.83.15,1.43.5,1.43.89,0,.44-.78.85-1.81.96.02-.07.03-.13.05-.2.71-.13,1.31-.39,1.49-.76Z"/>
    <path class="cls-13" d="m301.42,115.03c.25-.57.57-1.11.82-1.66.11.02.21.04.32.06-.02.24-.08.46-.12.69-.05.26-.12.55-.2.84-.26.05-.54.08-.81.08Z"/>
    <path class="cls-13" d="m302.19,115.15s-.01.05-.02.07v-.05s0-.02,0-.02h.02Z"/>
    <path class="cls-13" d="m302.17,115.17v.05s0-.05,0-.05Z"/>
    <path class="cls-13" d="m302.14,115.37c.01-.05.02-.1.04-.16h0s.01-.05.02-.07c1.03-.1,1.81-.51,1.81-.96,0-.39-.6-.74-1.43-.89.01-.06.01-.11.01-.17,0-.02,0-.04-.02-.06.98.17,1.67.6,1.67,1.13,0,.59-.84,1.07-2.03,1.18h-.05Z"/>
    <path class="cls-10" d="m291.6,109.7c3.71,2.94,7.86,2.95,12.71,2.97.34,0,.67,0,1,0,2.15,0,4.25-.05,6.23-.44,1.99-.39,3.88-1.13,5.63-2.52,2.64-2.09,6.15-6.4,4.32-9.05-1.97-2.89-5.41-4.14-9.29-3.41-.32-1.09-.47-2.33-.51-3.24.15-.03.29-.06.43-.1.23-.05.46-.11.7-.17.23-.06.46-.12.69-.19,7.65,1.18,10.39,4.02,11.33,6.2.96,2.2.53,4.79-1.19,7.3-1.26,1.85-3.14,3.51-5.42,4.8-1.44.81-3,1.18-4.8,1.6l-.52.12c-.28.06-.45.34-.38.62.06.24.27.4.51.4.04,0,.08,0,.12-.02l.51-.12c1.8-.43,3.5-.83,5.07-1.71,2.27-1.28,4.17-2.91,5.51-4.74,3.2,1.73,7.96,7.13,9.67,11.99.98,2.79,3.97,11.27.73,18.21-1.11,2.38-2.33,4.07-3.85,5.32-.02.01-.03.03-.04.04-.11.09-.22.17-.33.26-.11.08-.23.17-.35.25h0c-.12.08-.24.17-.36.24-.62.4-1.3.77-2.06,1.1-2.88,1.28-9.18,2.9-13.5,3.48-1.74.22-2.85.25-3.56.21.86-1.74.85-3.61.52-4.87-.28-1.1-.81-1.9-1.49-2.26-.24-.12-.53-.22-.84-.3.69-.94,2.23-1.67,5.08-3.01l.38-.18c.72-.34,1.53-.72,2.41-1.14,5.8-2.8,6.06-7.18,6.07-7.67.04-1.24-1.34-2.34-2.17-2.88-.24-.16-.56-.09-.72.15-.16.24-.09.56.15.72,1.05.69,1.72,1.47,1.7,1.99,0,.43-.24,4.23-5.48,6.76-.88.43-1.68.8-2.4,1.14l-.38.18c-1.46.69-2.61,1.23-3.49,1.72.09-.69.04-1.7-.57-2.11-.68-.47-1.53,0-2.09.31-.12.07-.23.13-.31.16-1.87.75-2.96.96-3.84,1.12-.87.17-1.57.3-2.42.91-.22.15-.42.32-.62.49-.93-.79-2.39-1.48-4.79-2.62l-.39-.18c-.72-.34-1.51-.72-2.39-1.14-5.24-2.55-5.46-6.35-5.47-6.78-.02-.51.66-1.29,1.71-1.98.24-.16.31-.48.15-.72-.16-.24-.48-.31-.72-.15-.83.54-2.21,1.64-2.18,2.88.01.49.26,4.87,6.06,7.69.88.43,1.69.8,2.4,1.15l.39.18c2.43,1.15,3.96,1.87,4.75,2.65.02.05.05.1.09.15.34.37.53.77.62,1.3.3,1.71-.1,2.97-.61,4.57-.15.46-.3.94-.44,1.45,0,0-.14.19-.96.28-.06,0-.11.02-.17.05-.86.06-2.07-.01-3.61-.21-4.38-.59-10.55-2.19-13.49-3.5-.78-.34-1.47-.72-2.1-1.13-.12-.08-.24-.16-.35-.24-.22-.16-.44-.32-.65-.49-.01-.02-.03-.03-.04-.04h0s0,0,0,0c-1.51-1.26-2.73-2.95-3.83-5.33-3.22-6.95-.22-15.43.76-18.21,1.72-4.86,6.49-10.25,9.69-11.98,1.34,1.83,3.23,3.47,5.5,4.75,1.57.89,3.27,1.29,5.07,1.72l.51.12s.08.02.12.02c.23,0,.45-.16.5-.4.07-.28-.1-.56-.38-.62l-.51-.12c-1.8-.43-3.36-.8-4.8-1.61-2.28-1.28-4.15-2.94-5.4-4.79,0,0,0-.02-.01-.02-1.72-2.51-2.14-5.11-1.18-7.31.94-2.17,3.69-5,11.34-6.17.45.13.91.25,1.39.36.17.04.34.08.52.12-.02.48-.07.94-.14,1.41-.09.63-.22,1.24-.38,1.81-3.9-.76-7.38.48-9.39,3.38-1.84,2.65,1.67,6.97,4.31,9.06Zm12.86,4.33c-.3-1.25-2.95-1.41-4.4-.78-.04.02-.08.03-.11.05-.45.19-.74.47-.8.78h0s-.01.04-.02.05c0,.02,0,.03,0,.05h0c0,.15.05.28.14.4,0,0,0,.02.01.02.02.02.03.04.05.06.34.44,1.08.73,1.89.84-.15.41-.25.84-.26,1.3.06.69.35,1.42.66,1.99.53,1.08-.19,1.85-.73,2.87-1.19,1.84-.38,4.33,1.2,5.64.09.09.24-.03.18-.13-.52-1.15-.97-2.32-.83-3.37.13-1.27,1.12-1.98,1.49-3.3.16-.56.23-1.22,0-1.79-.33-.73-.79-1.26-.97-2.02-.04-.34.02-.73.1-1.14,1.15-.03,2.23-.4,2.38-1.19.18.55.74.81,1.35.92-.18.45-.1.97.06,1.4.42,1.05,1.58,1.65,1.43,2.74-.07.62-.44,1.3-.83,1.99-.02.04-.02.08,0,.12.03.06.1.08.16.04,1.1-.58,2.19-2.01,1.69-3.4-.27-.99-1.2-1.47-1.41-2.36-.03-.13-.04-.15-.01-.26.03-.05.06-.11.09-.17h.09s.09,0,.14-.01c.01,0,.02,0,.04,0,.09,0,.19,0,.28-.02.03,0,.05,0,.07,0,.08,0,.17-.01.25-.03.49-.05.96-.16,1.39-.43.61-.36.62-1.09.04-1.48-1.02-.84-4.39-.96-4.83.59Zm-8.95,19.27s0-.03-.02-.04c0,0-.01,0-.01-.01-.01,0-.02,0-.03,0-.02,0-.03,0-.05,0h-.05s-.04,0-.05.02c-.01.02-.02.03-.02.05,0,.02.01.04.02.05.02.01.03.02.05.02s.03,0,.05,0h.05s.02,0,.02,0c.01,0,.02-.01.02-.02.01-.01.02-.03.02-.04Z"/>
    <path class="cls-13" d="m301.98,164.83c-.22-.05-.45-.09-.67-.14.23.05.45.09.67.14Z"/>
    <path class="cls-13" d="m301.36,115.16s.04-.09.06-.13c.28,0,.56-.03.81-.08-.02.07-.03.13-.05.2h-.02v.02-.02c-.18.02-.34.03-.49.03-.11,0-.21,0-.32-.01Z"/>
    <path class="cls-13" d="m302.1,115.56c-.29,0-.59-.02-.87-.05.02-.04.03-.08.05-.13.13.01.27.02.4.02.15,0,.31,0,.46-.02-.02.06-.03.12-.04.19Z"/>
    <path class="cls-13" d="m300.9,121.67c.54-1.02,1.26-1.79.73-2.87-.32-.57-.61-1.31-.66-1.99.01-.46.11-.89.26-1.3.29.04.58.05.87.05-.08.4-.13.8-.1,1.14.17.76.63,1.29.97,2.02.22.57.15,1.23,0,1.79-.37,1.32-1.37,2.02-1.49,3.3-.14,1.06.3,2.23.83,3.37.06.11-.09.22-.18.13-1.58-1.31-2.4-3.8-1.2-5.64Z"/>
    <path class="cls-13" d="m301.27,115.38c.03-.07.06-.15.09-.22.1,0,.21.01.32.01.16,0,.32-.01.49-.03v.02s.01.05.01.05h0c-.02.06-.03.11-.04.16-.16.02-.31.02-.46.02-.13,0-.28,0-.4-.02Z"/>
    <path class="cls-13" d="m300.86,141.16c.23.35.4.73.5,1.16h-.03c-.15-.6-.42-1.11-.84-1.56-.12-.13-.26-.26-.4-.39.2-.18.4-.34.62-.49.86-.61,1.55-.74,2.42-.91.88-.17,1.97-.37,3.84-1.12.08-.03.19-.09.31-.16.56-.31,1.41-.77,2.09-.31.61.42.65,1.42.57,2.11h0c-1.31.75-2.05,1.42-2.42,2.4-.05.13-.04.29.03.42s.18.22.32.26l.36.09c.33.08.7.18.9.29.3.16.58.53.78,1.03h-.03c-.2-.48-.47-.85-.77-1.01-.2-.1-.57-.2-.89-.28-.12-.03-.24-.06-.35-.09-.47-.12-1.06-.28-1.2-.78-.18-.61.41-.92.93-1.19.46-.24,1.08-.58,1.2-1.01.13-.49.08-1.2-.06-1.34-.15-.05-.73.27-.92.37-.17.09-.32.17-.43.22-1.97.78-3.17,1.01-4.04,1.18-.83.16-1.33.25-1.99.72-.17.12-.33.25-.49.38Z"/>
    <path class="cls-13" d="m301.68,113.22c.21,0,.42.02.61.04-.02.04-.03.08-.05.11-.68-.12-1.46-.1-2.03.08.3-.11.67-.18,1.07-.21.12-.02.25-.02.4-.02Z"/>
    <path class="cls-9" d="m300.33,110.36h8.08s.09.01.09.01c1.38-.01,2.7-.22,3.93-.62.23-.08.46-.16.69-.25.94-.38,1.69-.81,2.17-1.26.02-.02.04-.03.06-.05.04-.03.06-.05.09-.09h0s2.08-1.96,2.26-4.04c0-.01,0-.02,0-.03v-.02c.05-.5-.01-.97-.18-1.39-.4-1.01-1.24-1.41-2.12-1.83-.75-.36-1.53-.73-2.24-1.54-.22-.25-.43-.58-.6-1,3.39-.59,6.38.51,8.09,3.01.23.33.33.71.33,1.13,0,2.04-2.41,4.91-4.44,6.52-3.48,2.76-7.53,2.75-12.27,2.73-1.99-.01-3.87-.02-5.64-.24l.13-1.13c.51.06,1.03.09,1.57.09Z"/>
    <path class="cls-13" d="m300.06,113.25c1.45-.63,4.1-.47,4.4.78-.01.05-.02.1-.03.16.01.06.03.12.05.18h0c-.15.79-1.23,1.17-2.38,1.19.01-.06.03-.12.04-.19h.05c1.19-.11,2.03-.6,2.03-1.18,0-.52-.69-.96-1.67-1.13-.01-.02-.03-.03-.05-.04-.04-.02-.08-.01-.11.02-.23-.03-.47-.05-.72-.05-.16,0-.3,0-.43.02-.46.04-.87.12-1.2.24Z"/>
    <path class="cls-13" d="m299.33,114.67c.13.15.33.29.58.39.37.17.85.28,1.36.32-.02.05-.03.09-.05.13-.81-.11-1.55-.4-1.89-.84Z"/>
    <path class="cls-13" d="m299.14,114.08c.06-.31.35-.59.8-.78-.41.19-.71.46-.8.78Z"/>
    <path class="cls-13" d="m299.37,114.15c.1.64,1.06.9,2.06.87-.02.05-.04.09-.06.13-.51-.04-.99-.14-1.35-.31-.41-.18-.65-.43-.65-.66,0-.15.09-.3.25-.43-.12.11-.2.24-.24.39Z"/>
    <path class="cls-13" d="m299.91,115.06c-.25-.11-.45-.24-.58-.39-.02-.02-.04-.04-.05-.06,0,0,0-.02-.01-.02-.08-.12-.12-.25-.14-.39h0s0-.07.01-.1h0c.09-.33.39-.59.8-.78.04-.02.07-.04.11-.05.33-.12.74-.21,1.2-.24.13-.01.26-.02.43-.02.25,0,.49.02.72.05-.03.02-.04.05-.05.08-.02.04-.04.09-.06.13-.2-.02-.4-.04-.61-.04-.16,0-.29,0-.4.02-.4.03-.77.1-1.07.21-.02,0-.04.01-.05.02-.09.03-.18.07-.25.11-.12.05-.22.12-.3.19-.16.13-.25.28-.25.43,0,.24.24.48.65.66.37.17.84.27,1.35.31-.03.07-.06.15-.09.22-.51-.04-.99-.15-1.36-.32Z"/>
    <path class="cls-13" d="m299.66,150.43c2.15,2.04,6.38,1.98,8.7-.12.35-.32.65-.67.91-1.07,1.05-1.61,1.1-3.48.78-4.7-.05-.19-.11-.37-.18-.54h.03c.07.16.13.34.18.53.32,1.22.28,3.1-.78,4.72-.09.14-.11.32-.05.47s.19.28.36.31c.12.03.25.06.39.08-.42.53-.65.78-.91,1.01-1.4,1.27-3.35,1.91-5.26,1.91s-3.68-.6-4.94-1.81c-.34-.32-.62-.66-.85-1.07.13,0,.26-.02.38-.03.4-.04,1.63-.17,1.87-1.04.15-.5.29-.97.44-1.42.53-1.67,1-3.12.65-5.09-.02-.09-.04-.18-.06-.27h.03c.03.08.05.17.06.26.35,1.98-.11,3.43-.65,5.11-.14.45-.29.91-.43,1.42-.15.51-.61.77-1.06.91.11.15.24.29.37.42Z"/>
    <path class="cls-13" d="m299.28,114.61s.03.04.05.06c-.02-.02-.04-.04-.05-.06Z"/>
    <path class="cls-13" d="m299.13,114.19c.02.15.06.28.14.39-.09-.12-.14-.25-.14-.39Z"/>
    <path class="cls-13" d="m299.14,114.09s-.01.06-.01.09c0-.02,0-.03,0-.05,0-.02,0-.03.02-.05Z"/>
    <path class="cls-13" d="m299.72,147.35c.51-1.6.91-2.87.61-4.57-.09-.53-.29-.93-.62-1.3-.04-.04-.07-.09-.09-.15.04.04.08.08.12.12.34.37.53.78.63,1.31.3,1.71-.1,2.98-.62,4.59-.15.46-.3.94-.44,1.45,0,0-.13.2-.99.29-.05,0-.11.01-.17.02.05-.03.11-.04.17-.05.81-.08.96-.28.96-.28.14-.51.3-.99.44-1.45Z"/>
    <path class="cls-13" d="m306.13,83.52c-2.9,0-7.17,1.47-7.17,2.79,0,1.08,1.88,1.81,5.76,2.23,2.62.29,4.27.09,5.02-.59.5-.44.57-1.04.57-1.62,0-1.34-1.3-2.79-4.17-2.8h-.01Zm-7.28,2.79c0-1.45,4.39-2.9,7.29-2.9,2.9,0,4.28,1.46,4.28,2.91s-.46,2.9-5.72,2.33c-2.89-.31-5.86-.9-5.86-2.34Z"/>
    <path class="cls-13" d="m306.14,83.41c-2.91,0-7.29,1.45-7.29,2.9s2.97,2.03,5.86,2.34c5.26.57,5.72-.89,5.72-2.33s-1.38-2.91-4.28-2.91Zm-1.45,5.35c-2.56-.28-5.96-.83-5.96-2.46s4.61-3.01,7.4-3.01h.01c1.51,0,2.61.39,3.33.97s1.06,1.33,1.06,2.06c0,.6-.08,1.29-.64,1.8-.58.52-1.61.77-3.12.77-.61,0-1.3-.04-2.08-.12Z"/>
    <path class="cls-13" d="m297.38,94.07c.24.05.49.1.73.15-.24-.05-.49-.1-.73-.15Z"/>
    <path class="cls-13" d="m298.32,149.1c.86-.09.99-.29.99-.29.15-.51.3-1,.44-1.45.51-1.6.92-2.88.62-4.59-.1-.53-.29-.94-.63-1.31-.04-.04-.08-.08-.12-.12-.1-.2-.06-.45.1-.62.12-.12.25-.24.37-.35.15.13.28.25.4.39.42.46.69.96.84,1.57.02.09.04.18.06.27.35,1.97-.11,3.42-.65,5.09-.15.45-.29.91-.44,1.42-.24.88-1.47,1-1.87,1.04-.12.01-.25.02-.38.03-.06-.09-.11-.19-.17-.29-.08-.16-.08-.35,0-.51.06-.11.16-.2.26-.24.06,0,.11-.01.17-.02Z"/>
    <path class="cls-13" d="m297.93,60.92c.02.07.02.14.03.21l-.03-.21Z"/>
    <path class="cls-13" d="m297.88,93.07c2.1.37,4.25.57,6.41.57h.29c2.18,0,4.36-.19,6.45-.57.05-.01.1-.01.16,0-.21.05-.43.09-.64.13-.79.15-1.6.28-2.41.36-.43.05-.86.09-1.3.12-.5.04-1,.06-1.51.07-.25,0-.5.01-.76.01h-.31c-2,0-4-.19-5.96-.57-.2-.04-.4-.08-.61-.12.06-.02.12-.02.18-.01Z"/>
    <path class="cls-13" d="m297.2,97.35c-.05-.01-.1-.02-.16-.02-.12-.03-.24-.05-.36-.08.16-.57.29-1.18.38-1.81.07-.47.12-.93.14-1.41.06.01.12.03.18.04.24.05.49.1.73.15.05.01.11.02.16.03-.03.46-.07.91-.15,1.36-.11.79-.29,1.56-.51,2.27,0-.11-.03-.22-.1-.32-.08-.11-.19-.18-.32-.21Z"/>
    <path class="cls-13" d="m297.38,94.07c-.06-.01-.12-.03-.18-.04h0c.06.01.12.03.18.04Z"/>
    <path class="cls-13" d="m297.22,93.61c0-.14.06-.27.16-.37.08-.08.2-.15.32-.16.2.04.4.08.61.12,1.96.37,3.96.57,5.96.57h.31c.25,0,.5,0,.76-.01.5,0,1.01-.03,1.51-.07.44-.03.87-.07,1.3-.12.81-.09,1.61-.21,2.41-.36.21-.04.43-.08.64-.13.12.02.23.06.32.15.1.1.18.26.18.4,0,.12,0,.26.02.4-.32.07-.64.14-.97.2-.03,0-.07.01-.1.02h0c-1.98.32-4.01.48-6.06.48h-.29c-2.02,0-4.04-.17-6.02-.49v.02c-.05,0-.11-.02-.16-.03-.24-.05-.49-.1-.73-.15-.06-.01-.11-.03-.18-.04.01-.14.02-.28.02-.42Z"/>
    <path class="cls-13" d="m297.2,94.03h0c-.18-.04-.35-.07-.52-.11.17.04.35.08.52.11Z"/>
    <path class="cls-13" d="m296.58,97.6c.03-.11.07-.22.1-.34.12.03.24.05.36.08-.22.01-.42.15-.49.36l.03-.1Z"/>
    <path class="cls-13" d="m296.34,98.25c.07-.15.13-.32.19-.49h0s-.01.07-.02.1c-.05.14-.1.27-.15.39-.01,0-.02,0-.03,0Z"/>
    <path class="cls-13" d="m296.66,108.69c-.17-.06-.33-.12-.47-.17-.02,0-.03-.02-.05-.02-.25-.11-.47-.2-.66-.3-.03-.03-.06-.05-.09-.06.21.11.46.22.76.34.02.01.04.02.05.03.14.06.3.11.46.17,1.15.41,2.37.61,3.67.61h8.16c1.27,0,2.48-.19,3.6-.56.2-.07.42-.15.63-.23.83-.33,1.46-.7,1.88-1.08.03-.02.05-.04.06-.05.02-.02.03-.03.04-.04.39-.36,1.81-1.92,1.94-3.32v-.05h0s0,.06,0,.09c-.15,1.4-1.55,2.95-1.93,3.3l-.04.04-.02.02s-.03.02-.05.04c-.43.39-1.06.76-1.89,1.09-.21.08-.43.16-.66.24-1.1.37-2.27.56-3.51.56h-8.22c-1.3-.01-2.53-.21-3.67-.62Z"/>
    <path class="cls-13" d="m296.19,108.52c.13.05.3.11.47.17,1.14.4,2.37.61,3.67.61h8.22c1.24.01,2.41-.18,3.51-.55.23-.08.45-.16.66-.24.83-.33,1.46-.7,1.89-1.09.02-.02.03-.03.05-.04l.02-.02.04-.04c.38-.35,1.79-1.9,1.93-3.3.02.23.2.43.44.47-.38,1.6-1.89,3.09-2.01,3.2-.02.02-.03.03-.05.05h0s-.04.04-.06.05c-.31.28-.89.73-2.05,1.19-.22.09-.44.17-.66.24-.01,0-.02.01-.03.01-1.18.4-2.43.58-3.68.58h-8.1s-.12-.01-.12-.01c-1.3,0-2.6-.19-3.83-.63,0,0-.01,0-.02-.01-.18-.06-.35-.12-.5-.19-.01,0-.03-.01-.04-.02-.11-.05-.21-.09-.31-.13.11-.23.04-.5-.16-.65.19.1.4.19.66.3.02,0,.04.02.05.02Z"/>
    <path class="cls-13" d="m295.19,93.52c-.66-.19-1.32-.4-1.97-.64.64-.14,1.32-.26,2.04-.37.07-.01.15,0,.22.02.72.21,1.46.39,2.22.56-.12.02-.23.08-.32.16-.1.1-.16.23-.16.37s-.01.28-.02.42c-.17-.04-.35-.08-.52-.11-.47-.11-.93-.23-1.39-.36l-.11-.03Z"/>
    <path class="cls-13" d="m295.4,133.24s.04,0,.05,0c.01,0,.02,0,.03,0,0,0,0,.01.01.01.01.01.02.03.02.04s0,.03-.02.04c0,0-.01.01-.02.02,0,0-.02,0-.02,0h-.05s-.03,0-.05,0-.03-.01-.05-.02c-.01-.01-.02-.03-.02-.05,0-.02.01-.03.02-.05.01-.01.03-.02.05-.02h.05Z"/>
    <path class="cls-13" d="m296.5,109.19c1.23.44,2.52.63,3.83.63h8.08s.15.01.15.01c1.25,0,2.49-.18,3.68-.58.01,0,.02,0,.03-.01.22-.08.45-.16.66-.24,1.15-.46,1.74-.91,2.05-1.19.03-.02.04-.04.06-.05h0s.03-.04.05-.05c.11-.1,1.63-1.59,2.01-3.2.02,0,.03.01.04.01h.05c.23,0,.43-.15.5-.36-.23,1.98-2.13,3.81-2.25,3.92h0s-.06.07-.09.09c0,0-.01.02-.04.04-.52.47-1.26.89-2.18,1.26-.22.09-.46.17-.69.25-1.24.42-2.53.62-3.87.62h-8.22c-1.42-.01-2.77-.23-4-.67-.2-.07-.38-.13-.54-.2-.01,0-.03-.01-.04-.02-.27-.11-.51-.22-.72-.32.04.01.08.02.11.02.2,0,.38-.11.48-.3,0,0,0,0,0-.01.1.04.2.08.31.13.01,0,.03.01.04.02.16.06.33.12.5.19,0,0,.01,0,.02.01Z"/>
    <path class="cls-13" d="m295.74,109.48c-.32-.13-.6-.25-.84-.38.04.02.08.04.12.04,0,0,0,0,0,0,.21.1.45.21.72.32.02,0,.03.02.04.02.16.07.34.13.54.2,1.23.44,2.57.66,4,.66h8.22c1.34.01,2.64-.19,3.87-.61.23-.08.46-.16.69-.25.92-.37,1.66-.79,2.18-1.26.03-.03.04-.04.04-.04.04-.03.07-.06.09-.09,0,0,0,0,0,0,.12-.11,2.02-1.95,2.25-3.92.01-.03.02-.06.03-.09-.19,2.08-2.24,4.02-2.26,4.04h0s-.06.06-.09.09c-.02.02-.04.03-.06.05-.48.45-1.23.88-2.17,1.26-.22.09-.45.17-.69.25-1.23.4-2.55.61-3.93.62h-8.17c-.53-.01-1.06-.04-1.57-.1-.85-.1-1.67-.3-2.43-.57-.19-.06-.37-.13-.55-.2-.01,0-.02,0-.04-.02Z"/>
    <path class="cls-13" d="m295.63,108.85c-.18-.08-.34-.16-.49-.23-.03-.01-.05-.03-.07-.04.12-.21.08-.46-.07-.63.11.07.24.13.38.2l.09.05c.2.15.26.42.16.65Z"/>
    <path class="cls-13" d="m298.05,150.16c-.92.05-2.14-.03-3.64-.23.28.04.55-.16.59-.44.04-.29-.16-.55-.45-.59,1.54.2,2.75.28,3.61.21-.11.04-.2.13-.26.24-.09.16-.09.35,0,.51.05.1.1.2.17.29Z"/>
    <path class="cls-13" d="m294.92,107.88c.13.08.29.17.47.26.03.02.06.04.09.06l-.09-.05c-.14-.07-.26-.13-.38-.2t0,0s-.05-.05-.08-.07h0Z"/>
    <path class="cls-13" d="m294.9,107.86s0,0,.01.01c0,0-.01-.01-.02-.01h0Z"/>
    <path class="cls-13" d="m294.92,107.88s.06.04.08.07c-.03-.02-.06-.04-.09-.05l-.03-.02s-.05-.03-.07-.04c.03,0,.05.01.08.03,0,0,.01,0,.02.01t.01,0Z"/>
    <path class="cls-13" d="m294.2,108.03c.14-.2.39-.28.61-.2.02.01.04.03.07.04l.03.02s.06.04.09.05t0,0c.15.17.19.42.07.63-.16-.09-.31-.17-.43-.24-.02,0-.03-.01-.04-.02-.13-.08-.25-.17-.35-.24-.02-.02-.04-.03-.06-.04Z"/>
    <path class="cls-13" d="m294.75,109.02c-.09-.04-.18-.09-.26-.15.08.05.17.09.26.15Z"/>
    <path class="cls-13" d="m295.15,108.62c.15.08.31.16.49.23,0,0,0,0,0,.01-.1.19-.29.3-.48.3-.04,0-.08,0-.11-.02,0,0,0,0,0,0-.04-.02-.08-.04-.12-.06-.17-.08-.31-.17-.44-.24.05.02.09.02.14.02.18,0,.35-.09.46-.25,0,0,.01-.02.01-.02.03.01.05.03.07.04Z"/>
    <path class="cls-13" d="m294.48,107.59s.07.04.1.06c.09.07.2.14.32.22-.03-.02-.05-.03-.08-.03-.09-.06-.18-.12-.25-.18-.03-.02-.06-.05-.09-.07Z"/>
    <path class="cls-13" d="m294.75,109.02c-.09-.05-.18-.1-.26-.15-.02,0-.03-.02-.05-.03-.02-.02-.05-.03-.07-.05.03.02.06.03.09.04h0c.13.08.28.16.44.24.04.02.08.04.12.06-.04,0-.08-.02-.12-.04-.05-.03-.1-.05-.16-.08Z"/>
    <path class="cls-13" d="m294.37,108.8h0s.05.03.07.05c-.03-.01-.05-.03-.07-.05Z"/>
    <path class="cls-13" d="m294.36,108.79s0,0,.01,0t-.01,0Z"/>
    <path class="cls-13" d="m294.34,108.78s.01.01.02.01h0s0,0-.01-.01Z"/>
    <path class="cls-13" d="m294.38,108.78s.06.03.08.05c-.03,0-.06-.02-.09-.04h0s0,0-.01,0c0,0-.01,0-.02-.01-.04-.02-.07-.05-.09-.08.03.02.05.04.08.05.02.01.04.02.05.03Z"/>
    <path class="cls-13" d="m294.26,108.08c.1.07.22.16.35.24.01.01.02.02.04.02.12.08.27.16.43.24,0,0,0,.02-.01.02-.1.17-.28.25-.46.25-.05,0-.09,0-.14-.02h0s-.06-.04-.08-.05c-.02,0-.04-.02-.05-.03-.03-.02-.05-.04-.08-.05h-.01c-.15-.18-.18-.44-.05-.65,0-.01.01-.02.02-.02.02.01.04.03.06.04Z"/>
    <path class="cls-13" d="m294.56,107.66c.07.05.16.11.25.18-.22-.08-.47,0-.61.2-.15-.11-.26-.22-.35-.3.16-.19.42-.24.63-.15.03.03.06.05.09.07Z"/>
    <path class="cls-13" d="m297.73,61.18c.02.18.02.36-.01.56-.09.83-.51,1.73-1.2,2.56-1.39,1.67-3.55,2.73-5.65,2.78h-.11c-.43,0-.87-.05-1.3-.16-.18-.04-.35-.09-.53-.15-.09-.02-.18-.05-.26-.08-.52-.19-1.04-.43-1.53-.72t0,0c-.08-.05-.16-.09-.24-.15-1.37-.85-2.52-2.02-3.13-3.16-.28-.51-.44-1-.47-1.44-.01-.15,0-.3.02-.43.04-.27.13-.51.28-.72.67-.97,1.6-1.2,2.88-1.2.55,0,1.15.04,1.82.09.8.06,1.71.12,2.7.12h.04c.59,0,1.15-.02,1.69-.03.49-.01.96-.03,1.39-.03,2.03,0,3.34.26,3.61,1.92.02.07.02.15.03.22Z"/>
    <path class="cls-13" d="m294.19,108.06c-.13.21-.1.47.05.64-.16-.11-.23-.16-.29-.2-.04-.03-.08-.06-.12-.09-.15-.19-.16-.45,0-.65,0,0,.01-.02.02-.02.09.08.2.19.35.3,0,0-.01.01-.02.02Z"/>
    <path class="cls-13" d="m294.25,108.7s.06.06.09.08c0,0-.01,0-.02,0-.16-.1-.29-.19-.4-.28h0s-.07-.06-.09-.1c.04.03.08.06.12.09.06.04.12.09.29.2h.01Z"/>
    <path class="cls-9" d="m294.91,109.1c.24.12.51.25.84.38.02.01.03.02.04.02.18.07.35.14.55.2.77.28,1.58.47,2.43.57l-.13,1.13c-2.32-.3-4.44-.97-6.38-2.51-2.44-1.94-5.44-5.72-4.1-7.66.73-1.05,2.65-3.17,6.27-3.17.6,0,1.24.06,1.93.19-.18.42-.37.75-.6,1-.72.8-1.49,1.17-2.25,1.53-.88.42-1.72.81-2.12,1.82-.11.27-.18.56-.19.84,0,.02,0,.03,0,.04v.02c-.21,2.28,2.23,4.56,2.24,4.57.12.11.28.26.5.43h0c.11.09.24.18.4.28,0,0,.01,0,.02,0,0,0,0,.01.01.01h0s0,0,.01,0c.02.02.05.04.07.05.02.01.03.02.05.03.08.05.17.1.26.15.05.03.1.06.16.08Z"/>
    <path class="cls-13" d="m294.15,107.29c.11.11.24.22.42.36-.03-.02-.06-.04-.1-.06-.13-.1-.24-.2-.33-.29-.44-.4-2.01-2.16-1.92-3.63.01-.04.02-.07.03-.11-.17,1.48,1.46,3.32,1.91,3.73Z"/>
    <path class="cls-13" d="m297.52,97.56c.07.09.1.2.1.32,0,.06,0,.11-.03.17,0,0-.01.03-.02.06l-.02.05c-.28.83-.61,1.46-1.03,1.92-.86.96-1.82,1.42-2.59,1.78-.86.41-1.35.66-1.59,1.26-.06.15-.09.29-.11.45,0,.04-.02.08-.03.11,0-.04,0-.08,0-.11.02-.16.06-.31.11-.45.25-.63.81-.9,1.59-1.27.77-.36,1.72-.82,2.58-1.78.42-.46.75-1.08,1.03-1.92,0-.02,0-.03.01-.04.01-.03.02-.06.02-.06.05-.16.03-.33-.07-.47-.07-.1-.18-.18-.31-.2,0,0-.01,0-.02,0-.05-.01-.09-.02-.13-.03.05,0,.1,0,.16.02.12.03.24.1.32.21Z"/>
    <path class="cls-13" d="m297.54,98.15c-.28.83-.61,1.45-1.03,1.92-.86.96-1.81,1.41-2.58,1.78-.78.37-1.34.64-1.59,1.27-.06.15-.1.3-.11.45,0,.04,0,.07,0,.11-.07.22-.28.37-.51.37h0c-.02-.18-.02-.36,0-.54.02-.2.07-.39.15-.59.63-1.56,2.63-1.35,4.27-3.2.39-.44.69-1.04.92-1.73h0s.02-.07.03-.1c0,0-.02,0-.02,0-.18-.04-.35-.08-.52-.11,0-.02.01-.04.02-.05h0c.07-.22.27-.36.49-.37.05.01.09.02.13.03,0,0,.01,0,.02,0,.12.03.23.1.31.2.1.13.12.31.07.47,0,0-.01.03-.02.06,0,.01,0,.03-.01.04Z"/>
    <path class="cls-13" d="m294.14,107.3c.09.09.2.19.33.29-.21-.1-.47-.04-.63.15-.02-.02-.04-.04-.06-.05-.12-.11-1.92-1.87-2.08-3.64h0c.23,0,.44-.15.51-.37-.09,1.47,1.48,3.23,1.92,3.63Z"/>
    <path class="cls-13" d="m297.05,97.98c-.23.69-.52,1.29-.92,1.73-1.65,1.85-3.64,1.64-4.27,3.2-.08.2-.12.39-.15.59-.02.18-.02.36,0,.54h-.04c-.24-.02-.44-.2-.49-.43h0c0-.06.01-.11.02-.17.02-.24.08-.49.18-.72.4-1.01,1.24-1.4,2.11-1.82.76-.36,1.54-.73,2.25-1.53.24-.27.46-.64.65-1.11-.01,0-.02,0-.03,0,.05-.12.1-.25.15-.39,0-.04,0-.07.02-.1.17.04.35.07.52.11,0,0,.02,0,.02,0-.01.03-.02.07-.03.1h0Z"/>
    <path class="cls-13" d="m295.74,99.25c.22-.25.42-.58.6-1,.01,0,.02,0,.03,0-.19.47-.4.84-.64,1.1-.72.8-1.49,1.17-2.25,1.53-.88.42-1.72.81-2.13,1.83-.09.24-.15.49-.18.73.02-.29.08-.57.19-.84.4-1.01,1.24-1.4,2.12-1.82.75-.36,1.53-.73,2.25-1.53Z"/>
    <path class="cls-13" d="m296.4,98.26c-.19.47-.41.84-.65,1.11-.72.8-1.49,1.17-2.25,1.53-.88.42-1.71.81-2.11,1.82-.09.23-.16.48-.18.72,0,.05-.01.1-.02.16,0-.04-.01-.07-.01-.1v-.02s0-.03,0-.04c.03-.24.09-.49.18-.73.41-1.01,1.25-1.41,2.13-1.83.75-.36,1.53-.73,2.25-1.53.24-.26.45-.63.64-1.1.01,0,.02,0,.03,0Z"/>
    <path class="cls-13" d="m293.83,107.75c-.15.2-.14.46,0,.65-.17-.13-.3-.24-.4-.34-.02-.02-2.38-2.22-2.25-4.45.05.23.24.42.49.43h.04c.17,1.77,1.96,3.53,2.08,3.64.02.02.04.04.06.05-.01,0-.02.02-.02.02Z"/>
    <path class="cls-13" d="m293.83,108.4s.05.07.09.09c-.22-.17-.38-.31-.5-.43-.02-.02-2.46-2.29-2.24-4.57,0,.04,0,.07.01.1h0c-.13,2.24,2.23,4.44,2.25,4.46.1.1.23.21.4.34Z"/>
    <path class="cls-13" d="m289.69,163.17c.13.04.26.07.4.11-.13-.04-.28-.07-.4-.11Z"/>
    <path class="cls-13" d="m290.02,162.18c-.15-.04-.29-.08-.42-.12.13.04.28.08.42.12Z"/>
    <path class="cls-13" d="m289.6,162.07l-.2-.06.2.06Z"/>
    <path class="cls-13" d="m288.93,66.77c.18.06.35.1.53.15-.18-.04-.35-.09-.53-.15Z"/>
    <path class="cls-6" d="m288.89,162.93c.25.08.52.17.8.24.13.04.27.07.4.11.48.12,1,.25,1.52.37.76.19,1.56.37,2.24.58.32.09,2.39.51,5.76,1.18,1.95.39,3.96.79,5.04,1.02.13.03.24.05.34.07.04,0,.07.02.11.02.06.02.11.03.16.04.02,0,.03.01.04.01s.02,0,.03,0l.42.12c6.91,2.05,14.44,4.24,16.4,4.24,1.33,0,2.52-.07,3.65-.19.02,0,.03,0,.04,0h.02s.04,0,.05,0c4.47-.5,7.26-1.89,8.28-4.14.09-.21.24-.67.48-1.48l.21-.69c.09-.29.19-.6.43-1.3.02-.04.03-.08.05-.12,1.3,2.26,2.29,4.63,2.94,7.07.36,1.37.58,2.2.59,3.38.02,3.31-1.59,6.66-3.91,8.15-.68.44-2.03.59-4.5.86l-.32.04c-1.82.2-3.88.42-6.87.43-1.99,0-4.98.02-8.92-.65-2.61-.45-5.22-1.12-7.56-1.95-1.2-.43-1.79-.7-2.29-.94l-20.51-9.26c.16-.09.3-.2.45-.31l.06-.05c.13-.1.26-.2.39-.31l.11-.09c.13-.11.26-.23.39-.35.3-.28.58-.58.84-.89.12-.14.23-.28.34-.42l.06-.08.14-.19c.26-.35.5-.72.72-1.07.06-.09.11-.18.16-.27.05-.09.1-.18.15-.27.05-.09.1-.18.14-.26.18-.36.34-.71.47-1.04.03-.06.05-.13.07-.19.05-.14.1-.28.14-.41.04-.12.07-.23.1-.35.04-.15.07-.29.09-.43.01-.06.02-.11.02-.17.01-.03.01-.06.02-.09Z"/>
    <path class="cls-13" d="m288.89,162.93s0,.06-.02.09l.02-.09Z"/>
    <path class="cls-13" d="m288.66,163.97c.04-.12.07-.24.1-.35-.03.11-.06.23-.1.35Z"/>
    <path class="cls-13" d="m288.76,161.78c-.09-.04-.18-.07-.25-.1h0c.08.03.17.07.25.1Z"/>
    <path class="cls-13" d="m289.69,163.17c-.29-.08-.55-.16-.8-.24.05-.56-.06-.95-.32-1.2-.02-.02-.04-.04-.06-.05.08.03.17.07.25.1.19.07.4.15.63.22l.2.06c.13.04.28.08.42.12.58.16,1.21.31,1.84.46.77.19,1.58.38,2.29.59.3.09,3.15.66,5.67,1.16.5.1,1,.2,1.48.3.23.05.46.09.67.14.14.03.28.05.41.08.08.02.17.04.24.05.26.05.51.1.75.15.13.03.26.05.38.08.08.02.16.04.23.05.47.09.86.17,1.15.24.04,0,.07.02.1.02s.06.02.09.02c-.1.06-.19.12-.25.18-.13.12-.19.32-.15.5s.18.32.35.37c-.01,0-.02,0-.03,0-.05-.01-.1-.02-.16-.04-.03,0-.07-.02-.11-.02-.1-.03-.22-.05-.34-.07-1.08-.23-3.09-.63-5.04-1.02-3.37-.67-5.44-1.09-5.76-1.18-.68-.2-1.47-.39-2.24-.58-.52-.12-1.04-.25-1.52-.37-.14-.04-.28-.07-.4-.11Z"/>
    <path class="cls-13" d="m288.52,164.38c-.02.06-.05.13-.07.19.03-.07.05-.13.07-.19Z"/>
    <path class="cls-13" d="m287.86,162.49s-.02-.02-.03-.02c0,0,0-.01,0-.02-.19-.17-.21-.44-.06-.65.15-.21.44-.28.66-.17.02.01.05.02.07.03h0s.04.04.06.06c.26.25.37.64.32,1.2-.33-.11-.63-.22-.89-.35-.05-.02-.09-.05-.13-.09Z"/>
    <path class="cls-13" d="m288.67,66.69c-.52-.18-1.04-.43-1.53-.72.49.29,1.01.53,1.53.72Z"/>
    <path class="cls-13" d="m287.84,165.87c.05-.09.1-.18.14-.26-.04.09-.09.18-.14.26Z"/>
    <path class="cls-13" d="m287.84,162.47c-.07-.07-.14-.13-.21-.19.07.05.14.11.21.17,0,0,0,.01,0,.02Z"/>
    <path class="cls-13" d="m304.28,112.16c-4.69-.02-8.79-.04-12.36-2.87-2.44-1.94-5.83-6.01-4.2-8.36,1.54-2.22,4.51-4.01,8.81-3.18-.06.18-.12.34-.19.49-.7-.13-1.33-.19-1.93-.19-3.61,0-5.53,2.11-6.27,3.17-1.34,1.94,1.66,5.72,4.1,7.66,1.94,1.54,4.06,2.21,6.38,2.51,1.76.23,3.64.23,5.64.24,4.74.02,8.79.03,12.27-2.73,2.03-1.61,4.44-4.48,4.44-6.52,0-.42-.1-.8-.33-1.13-1.71-2.5-4.7-3.6-8.09-3.01-.07-.15-.13-.32-.19-.49h0c4.26-.79,7.2.99,8.72,3.2,1.6,2.34-1.77,6.41-4.22,8.35-3.63,2.88-7.83,2.86-12.58,2.84Z"/>
    <path class="cls-13" d="m287.69,161.05s.03.02.04.03c-.02,0-.03-.02-.04-.03Z"/>
    <path class="cls-13" d="m287.54,166.41c.05-.09.1-.18.16-.27-.05.09-.1.18-.16.27Z"/>
    <path class="cls-13" d="m287.43,160.9c.08.05.17.1.26.16-.09-.05-.17-.1-.26-.16Z"/>
    <path class="cls-13" d="m291.92,109.29c3.57,2.83,7.67,2.84,12.36,2.87,4.74.02,8.94.04,12.58-2.84,2.45-1.94,5.82-6.01,4.22-8.35-1.51-2.21-4.45-4-8.72-3.21,0-.02-.01-.05-.02-.07,0-.03-.02-.06-.03-.09,0-.01,0-.02-.01-.03-.03-.1-.06-.2-.09-.31,3.88-.73,7.32.52,9.29,3.41,1.82,2.65-1.69,6.96-4.32,9.05-1.75,1.39-3.64,2.13-5.63,2.52-1.99.39-4.08.44-6.23.44-.33,0-.66,0-1,0-4.85-.02-9.01-.04-12.71-2.97-2.64-2.1-6.15-6.41-4.31-9.06,2.01-2.9,5.49-4.14,9.39-3.38-.03.11-.07.23-.1.34l-.03.1h0s-.01.04-.02.06h0c-4.3-.84-7.28.96-8.81,3.18-1.62,2.35,1.76,6.42,4.2,8.36Z"/>
    <path class="cls-13" d="m286.9,65.83c.08.05.16.1.24.15-.08-.05-.16-.09-.24-.15Z"/>
    <path class="cls-13" d="m299.72,140.72c-.16.17-.2.42-.1.62-.8-.78-2.32-1.5-4.75-2.65l-.39-.18c-.72-.34-1.52-.72-2.4-1.15-5.79-2.82-6.05-7.2-6.06-7.69-.03-1.24,1.35-2.34,2.18-2.88.24-.16.56-.09.72.15.16.24.09.56-.15.72-1.05.69-1.73,1.47-1.71,1.98.01.43.23,4.23,5.47,6.78.88.43,1.68.8,2.39,1.14l.39.18c2.39,1.13,3.85,1.82,4.79,2.62-.12.11-.25.23-.37.35Z"/>
    <path class="cls-13" d="m287.18,160.76c-.17-.09-.33-.17-.49-.24.16.07.32.15.49.24Z"/>
    <path class="cls-13" d="m286.7,161.68c.31.16.62.35.93.61-.31-.25-.62-.45-.93-.61Z"/>
    <path class="cls-13" d="m286.67,167.67l.14-.19-.14.19Z"/>
    <path class="cls-13" d="m286.61,167.75c-.11.13-.22.28-.34.42.12-.13.23-.28.34-.42Z"/>
    <path class="cls-13" d="m285.89,167.01c-.07.09-.14.18-.21.27.07-.09.15-.18.21-.27Z"/>
    <path class="cls-13" d="m285.04,169.4c.13-.11.26-.23.39-.35-.12.12-.25.23-.39.35Z"/>
    <path class="cls-13" d="m284.93,107.8c.14-.06.24-.18.28-.33.04-.14.02-.29-.06-.41,1.26,1.85,3.12,3.5,5.4,4.79,1.44.81,3,1.18,4.8,1.61l.51.12c.28.06.45.34.38.62-.06.24-.27.4-.5.4-.04,0-.08,0-.12-.02l-.51-.12c-1.8-.43-3.5-.83-5.07-1.72-2.26-1.28-4.16-2.92-5.5-4.75.13-.07.26-.14.38-.2Z"/>
    <path class="cls-13" d="m284.2,107.2c.03-.12.1-.23.21-.31.24-.16.56-.1.72.13,0,0,.01.02.01.02.07.12.1.27.06.41-.04.15-.14.27-.28.33-.12.06-.25.12-.38.2-.09-.12-.18-.25-.26-.37s-.11-.28-.07-.42Z"/>
    <path class="cls-13" d="m284.54,169.8c.13-.1.26-.2.39-.31-.12.1-.26.21-.39.31Z"/>
    <path class="cls-13" d="m284.03,170.15c.16-.1.31-.2.45-.31-.15.11-.3.21-.45.31Z"/>
    <path class="cls-13" d="m284.02,168.9c.11-.08.22-.17.33-.27-.11.1-.22.19-.33.27Z"/>
    <path class="cls-13" d="m284.42,106.9c-.11.08-.19.19-.21.31l-.24-.08c-1.66-2.67-1.99-5.42-.96-7.82.97-2.21,3.53-5.02,10.21-6.43.65.24,1.31.45,1.97.64l.11.03c-7.65,1.17-10.39,4-11.34,6.17-.96,2.2-.54,4.8,1.18,7.31-.17-.23-.48-.3-.72-.13Z"/>
    <path class="cls-13" d="m283.61,169.19c.12-.08.24-.16.36-.25-.12.09-.24.17-.36.25Z"/>
    <path class="cls-13" d="m283.59,169.21c-.08.05-.16.1-.24.15.08-.05.16-.09.24-.15Z"/>
    <path class="cls-13" d="m283.59,60.05c.67-.97,1.6-1.2,2.88-1.2.55,0,1.15.04,1.82.09.8.06,1.71.12,2.7.12.61,0,1.18-.02,1.73-.03.48-.01.94-.02,1.37-.02,2.04,0,3.36.25,3.63,1.92.02.08.03.17.03.25,0-.07-.01-.15-.03-.22-.27-1.65-1.58-1.92-3.61-1.92-.43,0-.89.02-1.39.03-.54.01-1.1.03-1.69.03h-.04c-.99,0-1.9-.07-2.7-.12-.67-.05-1.28-.09-1.82-.09-1.27,0-2.21.23-2.88,1.2-.15.21-.24.45-.28.72.03-.28.12-.53.28-.75Z"/>
    <path class="cls-13" d="m283.07,169.51c.09-.05.19-.1.28-.16-.09.06-.18.11-.28.16Z"/>
    <path class="cls-13" d="m290.76,67.1c-2.78,0-5.84-2.26-6.99-4.4-.29-.53-.44-1.02-.47-1.47.04.44.2.92.47,1.44.61,1.14,1.76,2.32,3.13,3.16.08.05.16.1.24.15t0,0c.49.29,1,.53,1.53.72.09.03.18.06.26.08.18.06.35.11.53.15.43.1.87.16,1.3.16h.11c2.1-.05,4.26-1.11,5.65-2.78.69-.83,1.11-1.73,1.2-2.56-.08.84-.5,1.75-1.2,2.59-1.39,1.67-3.55,2.73-5.65,2.78h-.11Z"/>
    <path class="cls-13" d="m283.77,62.7c1.15,2.14,4.21,4.4,6.99,4.4h.11c2.1-.05,4.26-1.11,5.65-2.78.7-.84,1.12-1.75,1.2-2.59.03-.19.03-.37.01-.56,0-.08-.01-.17-.03-.25-.27-1.66-1.59-1.92-3.63-1.92-.43,0-.88.01-1.37.02-.55.01-1.12.03-1.73.03-.99,0-1.9-.07-2.7-.12-.67-.05-1.28-.09-1.82-.09-1.27,0-2.21.23-2.88,1.2-.15.22-.24.47-.28.75-.02.13-.03.28-.02.43.03.45.19.94.47,1.47Zm-.28-2.69c1.35-1.94,3.74-1.04,7.49-1.03,3.75,0,6.43-.55,6.84,1.96.44,2.67-2.97,6.19-6.95,6.28-4.24.09-8.97-4.92-7.38-7.2Z"/>
    <path class="cls-13" d="m296.69,64.44c.73-.87,1.16-1.82,1.26-2.7-.09.89-.52,1.85-1.26,2.73-1.43,1.72-3.65,2.81-5.82,2.86h-.12c-2.95,0-6.01-2.33-7.19-4.53-.25-.48-.42-.93-.47-1.35.06.42.22.86.47,1.33,1.18,2.2,4.24,4.53,7.19,4.53.04,0,.08,0,.12,0,2.16-.05,4.39-1.14,5.82-2.85Z"/>
    <path class="cls-13" d="m290.98,58.98c-3.75,0-6.14-.9-7.49,1.03-1.59,2.28,3.14,7.3,7.38,7.2,3.98-.09,7.39-3.61,6.95-6.28-.41-2.51-3.09-1.96-6.84-1.96Zm-7.58.97c1.03-1.48,2.65-1.37,4.9-1.21.8.06,1.7.12,2.68.12.59,0,1.17-.02,1.72-.03,2.82-.07,4.86-.12,5.23,2.08l.03.21v.26c.01.11,0,.23-.01.35-.1.88-.53,1.83-1.26,2.7-1.43,1.71-3.65,2.81-5.82,2.85-.04,0-.08,0-.12,0-2.95,0-6.01-2.33-7.19-4.53-.25-.47-.41-.91-.47-1.33-.01-.07-.02-.14-.02-.21-.01-.11-.01-.22,0-.32.03-.36.13-.69.33-.97Z"/>
    <path class="cls-13" d="m288.3,58.74c-2.25-.16-3.87-.27-4.9,1.21-.2.28-.31.61-.33.97.02-.37.13-.72.33-1,1.03-1.48,2.65-1.37,4.9-1.2.79.06,1.7.12,2.68.12h.04c.59,0,1.15-.02,1.69-.03,2.82-.07,4.86-.11,5.23,2.09,0,.01,0,.02,0,.03-.36-2.2-2.4-2.15-5.23-2.08-.55.01-1.13.02-1.72.03-.99,0-1.88-.07-2.68-.12Z"/>
    <path class="cls-13" d="m283.09,61.45c-.01-.07-.02-.14-.02-.21,0,.07.01.14.02.21Z"/>
    <path class="cls-13" d="m287.99,162.58c.26.12.57.24.89.35l-.02.09c0,.06-.01.11-.02.17-.02.13-.05.28-.09.43-.03.11-.06.23-.1.35-.04.13-.09.27-.14.41-.02.06-.05.12-.07.19-.12.33-.29.68-.47,1.04-.04.09-.09.18-.14.26-.05.09-.1.18-.15.27s-.1.18-.16.27c-.22.36-.46.72-.72,1.07l-.14.19-.06.08c-.11.14-.22.28-.34.42-.26.31-.55.61-.84.89-.12.12-.25.24-.39.35l-.11.09c-.12.1-.25.21-.39.31l-.06.05c-.15.1-.3.21-.45.31,0,0,0,0,0,0l-.96-.43h-.01s0,0-.01,0c-.03-.02-.06-.02-.09-.03-.02,0-.04-.01-.05-.01-.04,0-.08-.01-.13-.02.07-.04.15-.07.21-.11.03-.01.06-.03.09-.05.09-.05.19-.1.28-.16.08-.05.16-.09.24-.15.01-.01.02-.02.03-.02.12-.08.24-.16.36-.25.02-.02.03-.03.05-.04.11-.08.22-.17.33-.27.48-.4.92-.86,1.32-1.35.07-.09.15-.18.21-.27.74-.96,1.3-2.01,1.66-2.96.36-.97.34-1.45.3-1.57.01,0,.02.01.03.02.04.04.08.07.13.09Z"/>
    <path class="cls-13" d="m283.07,169.72l.96.43c-.29.19-.58.35-.89.48.03-.02.05-.04.08-.07h0c.2-.21.2-.53,0-.74-.05-.05-.1-.08-.16-.11h.01Z"/>
    <path class="cls-13" d="m283.05,169.72s-.06-.02-.09-.03c.03,0,.06.01.09.03Z"/>
    <path class="cls-13" d="m282.95,170.71s.05-.01.08-.02c-.03.01-.05.02-.08.02Z"/>
    <path class="cls-13" d="m282.99,170.83l-.16-.07.16.07Z"/>
    <path class="cls-13" d="m282.98,169.56c-.07.04-.14.07-.21.11h0c.07-.03.15-.07.22-.11Z"/>
    <path class="cls-13" d="m282.64,170.67c-.19-.09-.31-.27-.31-.48v-.02s0-.04,0-.06c0-.03.01-.05.02-.07.01-.03.02-.05.03-.07.03-.04.05-.08.08-.12,0,0,.01-.02.02-.02h.01s.05-.05.07-.07c.03-.02.06-.04.09-.05.09-.04.2-.05.3-.03.03,0,.06.02.09.03,0,0,.01,0,.01,0,.06.03.11.06.16.11.2.2.2.53,0,.73h0s-.05.05-.08.07c-.02.02-.05.03-.07.04-.02,0-.03.01-.04.02-.03.01-.05.02-.08.02-.03,0-.06.01-.09.01-.02,0-.04,0-.06,0s-.05,0-.07-.01h0s-.03,0-.04-.01l-.04-.02Z"/>
    <path class="cls-13" d="m284.03,170.15l20.51,9.26c.19.08.31.26.31.47,0,.2-.11.39-.3.47-.07.04-.15.07-.22.11-.08-.04-.15-.07-.22-.11l-1.04-.47-.85-.38-19.22-8.67-.16-.07-.11-.05s.05.01.07.01.04,0,.06,0c.03,0,.06,0,.09-.01.03,0,.05-.01.08-.02.02,0,.03-.01.04-.02.02-.01.05-.02.07-.04.31-.13.6-.3.89-.48,0,0,0,0,0,0Z"/>
    <path class="cls-13" d="m282.83,170.75l-.12-.05h.02l.11.05Z"/>
    <path class="cls-13" d="m282.95,169.69c-.1-.02-.2-.01-.3.03.04-.02.07-.03.1-.05h.01s.09.01.13.02c.02,0,.04,0,.05.01Z"/>
    <path class="cls-13" d="m282.68,170.69s.02,0,.04.01h-.04Z"/>
    <path class="cls-13" d="m282.56,169.77s-.05.04-.07.06c.03-.02.05-.04.07-.06Z"/>
    <path class="cls-13" d="m282.46,169.86s-.06.08-.08.12c.02-.04.05-.08.08-.12Z"/>
    <path class="cls-13" d="m282.38,169.98s-.02.05-.03.07c0-.03.01-.05.03-.07Z"/>
    <path class="cls-13" d="m282.36,170.05s-.01.05-.02.07c0-.03,0-.05.02-.07Z"/>
    <path class="cls-13" d="m282.34,170.19c0,.21.12.39.31.48l.04.02c-.08-.03-.15-.06-.2-.12-.11-.11-.16-.25-.15-.39v.02Z"/>
    <path class="cls-13" d="m280.2,52.26c1.21-1.02,2.48-1.74,3.97-2.29,1.4-.51,2.84-.89,4.31-1.12,1.53-.24,3.06-.34,4.6-.26.77.04,1.55.13,2.32.24.76.11,1.56.18,2.16.7.5.43.21,1.29-.38,1.44-.72.18-1.48-.1-2.2-.21-.7-.1-1.41-.17-2.12-.2-1.37-.06-2.76,0-4.12.18-2.78.38-5.42,1.41-8.02,2.4-.48.19-.9-.55-.51-.88Z"/>
    <path class="cls-13" d="m280.39,170.32c.48.1.98.2,1.52.28-.53-.08-1.04-.17-1.52-.28Z"/>
    <path class="cls-13" d="m280.35,169.24l.34.08-.34-.08Z"/>
    <path class="cls-13" d="m279.47,145.79c.13.07.26.14.39.21-.13-.07-.26-.14-.39-.21Z"/>
    <path class="cls-13" d="m279.03,169.97c.43.13.88.25,1.35.36-.48-.1-.93-.22-1.35-.36Z"/>
    <path class="cls-13" d="m278.63,168.72c.13.06.26.1.39.15-.13-.04-.26-.09-.39-.15Z"/>
    <path class="cls-13" d="m278.61,144.03c.11.08.23.17.35.24-.12-.08-.24-.16-.35-.24Z"/>
    <path class="cls-13" d="m278.2,145.01c.16.1.31.21.48.31-.17-.1-.32-.21-.48-.31Z"/>
    <path class="cls-13" d="m278.06,147.35c-.07,0-.15-.01-.22-.01.07,0,.15,0,.22.01Z"/>
    <path class="cls-7" d="m277.66,148.4c.88-.14,2.01.81,2.39,1.13l.05.04c1.83,1.54,2.47,4.46,3.27,8.16l.16.73c.43,1.95,1.43,2.41,2.5,2.9.22.1.45.21.67.33.31.16.62.35.93.61.07.06.14.12.21.19.04.12.06.6-.3,1.57-.35.96-.92,2-1.66,2.96-.07.09-.14.18-.21.27-.4.49-.84.96-1.32,1.35-.11.1-.22.19-.33.27-.02.01-.03.02-.05.04-.11.09-.23.17-.36.25,0,0-.02.01-.03.02-.08.05-.16.1-.24.15-.09.06-.18.11-.28.16-.03.02-.06.04-.09.05-.07.04-.15.08-.22.11h0c-.66-.08-1.37-.19-2.07-.34l-.34-.08c-.45-.1-.89-.23-1.32-.38-.13-.04-.26-.09-.39-.15-.74-.28-1.43-.64-1.99-1.08-.07-.05-.13-.1-.19-.16-.44-.38-.79-.83-1.03-1.34-.07-.16-.25-.76-.43-1.34l-.21-.71c-.19-.6-.4-1.28-.6-1.76-.19-.46-.25-.94-.19-1.39.37-2.71,1.39-9.26,2.76-11.73.02-.03.03-.05.04-.07l.08-.15c.22-.35.48-.54.79-.59Z"/>
    <polygon class="cls-13" points="277.92 143.5 277.92 143.51 277.92 143.5 277.92 143.5"/>
    <path class="cls-13" d="m278.61,144.03c.11.09.23.17.35.24.63.41,1.32.79,2.1,1.13,2.93,1.31,9.1,2.91,13.49,3.5.29.04.48.3.45.59-.04.28-.31.48-.59.44-4.46-.6-10.77-2.24-13.77-3.58-.26-.12-.52-.24-.77-.36-.13-.07-.26-.14-.39-.21-.28-.15-.54-.3-.79-.46-.17-.1-.32-.21-.48-.31-.33-.22-.64-.46-.94-.71-.02-.01-.03-.03-.05-.04-.03-.02-.05-.04-.07-.06-.01-.05-.02-.08-.03-.1-.09-.22-.02-.47.18-.61.19-.14.45-.13.63.02h0s.03.03.04.04c.21.17.43.33.65.49Z"/>
    <path class="cls-13" d="m277.83,147.34c-.07,0-.14,0-.21.01.07,0,.14-.01.21-.01Z"/>
    <path class="cls-13" d="m280.05,149.52c-.37-.31-1.51-1.27-2.39-1.13-.31.05-.57.24-.79.59l-.08.15c-.15.23-.46.31-.71.17-.23-.13-.32-.43-.2-.66,0,0,0,0,0-.01.01-.02.02-.04.03-.05l.08-.13c.39-.62.9-.97,1.51-1.07l.12-.02c.07,0,.14-.01.21-.01h.01c.07,0,.15,0,.22.01,1.14.1,2.21,1.01,2.65,1.38l.05.04c2.1,1.76,2.77,4.84,3.62,8.74l.16.73c.32,1.44.91,1.72,1.91,2.17.08.04.16.07.24.11.16.07.32.15.49.24.08.04.17.09.25.14.09.05.17.1.26.16.02.01.03.02.04.03.25.16.51.35.77.59-.02-.01-.05-.02-.07-.03-.23-.11-.52-.05-.66.17-.15.21-.12.48.06.65-.07-.06-.13-.12-.21-.17-.31-.26-.62-.45-.93-.61-.23-.12-.45-.22-.67-.33-1.06-.49-2.07-.95-2.5-2.9l-.16-.73c-.8-3.7-1.44-6.62-3.27-8.16l-.05-.04Z"/>
    <path class="cls-13" d="m276.45,167.47c.06.06.12.11.19.16-.06-.05-.13-.1-.19-.16Z"/>
    <path class="cls-13" d="m276.96,146.18c.28-1.19.24-1.74.19-1.98.03.02.05.04.07.06.02.02.03.03.05.04.3.24.61.48.94.71-.03.4-.11.86-.23,1.4-.05.21-.18.56-.34.94l-.12.02c-.61.1-1.12.45-1.51,1.07l-.08.13s-.02.04-.03.05c0,0,0-.02,0-.02.26-.47.97-2.02,1.06-2.42Z"/>
    <path class="cls-6" d="m273.78,164.38l.22.72c.24.79.38,1.25.47,1.46.7,1.54,2.23,2.68,4.56,3.41.43.13.88.25,1.35.36.48.11.98.2,1.52.28.26.04.53.07.8.1l.12.05.16.07,19.22,8.67.85.38c-.33.13-.73.28-1.23.46-2.35.82-4.96,1.49-7.56,1.93-3.94.66-6.94.65-8.92.64-2.77-.01-4.68-.2-6.87-.44l-.31-.03c-2.47-.28-3.83-.43-4.51-.87-2.32-1.49-3.91-4.85-3.89-8.15.01-1.19.23-2.01.59-3.38.65-2.44,1.65-4.81,2.95-7.07.08.22.17.47.25.74.03.1.06.2.09.31.02.04.03.08.04.12.03.08.06.17.08.25Z"/>
    <path class="cls-13" d="m272.97,160.78c.38-2.77,1.43-9.49,2.89-12.1.01-.02.02-.04.03-.05-.11.24-.03.53.2.66.24.14.56.07.71-.17-.01.02-.03.04-.04.07-1.37,2.47-2.38,9.02-2.76,11.73-.06.45,0,.93.19,1.39-.22-.55-.39-.78-.62-.89-.21-.1-.46-.04-.61.14-.03-.26-.02-.53.02-.79Z"/>
    <path class="cls-13" d="m273.22,162.71c-.15-.37-.24-.76-.27-1.14.15-.18.39-.24.61-.14.23.11.4.34.62.89.2.48.41,1.16.6,1.76l.21.71c.18.58.36,1.18.43,1.34.23.52.59.96,1.03,1.34.06.06.13.11.19.16.57.45,1.25.8,1.99,1.08.13.06.26.1.39.15.43.15.87.28,1.32.38l.34.08c.7.16,1.41.26,2.07.34-.03.02-.07.04-.1.05s-.06.03-.09.05c-.03.02-.05.04-.07.06h-.01s-.02.03-.02.03c-.04.04-.07.08-.08.12-.02.02-.02.05-.03.07-.01.02-.02.05-.02.07,0,.02-.01.04,0,.06-.01.14.04.28.15.39.06.06.12.1.2.12h.03c-.28-.02-.55-.06-.8-.09-.53-.08-1.04-.17-1.52-.28s-.93-.22-1.35-.36c-2.34-.73-3.86-1.87-4.56-3.41-.09-.21-.23-.67-.47-1.46l-.22-.72c-.03-.08-.05-.17-.08-.25-.01-.04-.02-.08-.04-.12-.03-.1-.06-.21-.09-.31-.09-.26-.17-.52-.25-.74-.03-.09-.06-.17-.09-.24Z"/>
    <path class="cls-13" d="m273.66,164s.03.08.04.12c-.01-.04-.02-.08-.04-.12Z"/>
    <path class="cls-13" d="m273.66,164c-.03-.1-.06-.21-.09-.31.03.1.06.2.09.31Z"/>
    <path class="cls-13" d="m273.15,138.61c-3.4-7.33-.3-16.11.73-18.99,1.8-5.1,6.65-10.59,10.09-12.49l.24.08c-.04.14-.01.29.07.42s.17.25.26.37c-3.2,1.72-7.97,7.12-9.69,11.98-.99,2.78-3.99,11.26-.76,18.21,1.11,2.37,2.32,4.07,3.83,5.33-.18-.15-.44-.16-.63-.02-.19.14-.26.39-.18.61.01.03.02.06.03.1-1.58-1.34-2.85-3.12-4-5.59Z"/>
    <path class="cls-13" d="m278.17,182.44l.31.03c2.2.24,4.1.43,6.87.44,1.98.02,4.98.03,8.92-.64,2.6-.44,5.22-1.11,7.56-1.93.5-.18.9-.33,1.23-.46l1.04.47c.07.04.15.07.22.11-.56.26-1.15.51-2.15.86-2.4.85-5.07,1.53-7.73,1.98-3.39.58-6.04.66-8.42.66-.23,0-.45,0-.67,0-3.05-.01-5.23-.25-6.98-.45l-.31-.04c-2.71-.3-4.07-.45-4.95-1.03-2.6-1.68-4.4-5.39-4.37-9.04.01-1.32.25-2.24.63-3.64.76-2.82,1.95-5.55,3.54-8.12.02-.02.03-.05.05-.06.03.38.12.77.27,1.14.03.07.06.16.09.24-1.31,2.26-2.3,4.63-2.95,7.07-.36,1.37-.58,2.2-.59,3.38-.03,3.31,1.57,6.66,3.89,8.15.69.45,2.04.6,4.51.87Z"/>
    <path class="cls-13" d="m266.37,57.95c.52-2.13,1.64-3.52,3.13-3.92.35-.09.7-.12,1.04-.11,2.43-17.42,16.85-30.48,33.76-30.48h.31c16.91.02,31.33,13.11,33.73,30.54.35-.02.7.02,1.04.1h0c1.49.4,2.61,1.8,3.12,3.93.49,2.02.4,4.51-.26,6.99-1.14,4.27-3.69,7.54-6.28,8.09-3.78,9.28-11.29,16.53-20.36,19.79-.64-.14-1.32-.26-2.04-.37-.07-.01-.15,0-.22.02,9.74-2.8,17.88-10.31,21.78-20.08.07-.17.22-.3.41-.32,2.25-.3,4.65-3.4,5.72-7.38.62-2.32.71-4.62.26-6.48-.42-1.75-1.27-2.87-2.38-3.17-.37-.09-.74-.1-1.12-.02-.14.03-.29,0-.41-.08-.12-.09-.2-.22-.22-.36-2.12-17.17-16.21-30.13-32.77-30.15h-.3c-16.55,0-30.64,12.93-32.8,30.09-.02.15-.1.28-.22.36s-.26.11-.41.08c-.17-.04-.35-.06-.52-.06-.2,0-.39.02-.59.07-1.11.29-1.96,1.42-2.39,3.17-.45,1.86-.36,4.16.25,6.48,1.06,3.99,3.45,7.1,5.7,7.4.19.03.34.15.42.32,3.87,9.78,12,17.31,21.73,20.12-.07-.02-.15-.03-.22-.02-.72.11-1.4.23-2.04.37-9.07-3.27-16.56-10.54-20.33-19.82-2.59-.56-5.13-3.83-6.26-8.11-.66-2.48-.75-4.97-.25-6.99Z"/>
  </g>
  <text class="cls-14" transform="translate(510.89 115.16)"><tspan x="0" y="0">nose</tspan></text>
  <path class="cls-3" d="m487.27,99.17c2.61.97,8.6-1.18,11.93.32,4.04,1.82,5.45,7.32,8.61,8.5"/>
  <text class="cls-14" transform="translate(34.95 260.45)"><tspan x="0" y="0">tail</tspan></text>
  <path class="cls-3" d="m92.47,244c-2.49,1.2-5.29,6.86-8.65,8.22-4.07,1.65-8.72-1.01-11.73.44"/>
</svg>