<?xml version="1.0" encoding="UTF-8"?>
<svg id="Layer_2" data-name="Layer 2" xmlns="http://www.w3.org/2000/svg" viewBox="0 0 150 150">
  <defs>
    <style>
      .cls-1 {
        fill: #dfe3e6;
        stroke: #a4b1ac;
        stroke-miterlimit: 10;
      }
    </style>
  </defs>
  <path class="cls-1" d="m74.7,114.74c0-1.38,0-2.76.02-4.14,0-.25.09-.53.23-.74.49-.75,1.03-1.47,1.51-2.23.22-.35.5-.55.87-.67.79-.25,1.58-.51,2.37-.78.11-.04.22-.14.27-.24.32-.68.64-1.35.93-2.04.11-.25.26-.33.53-.34,1.56-.04,3.13-.1,4.69-.16.18,0,.37-.06.54-.12.43-.17.86-.34,1.28-.54.2-.09.32-.07.49.08.81.71,1.63,1.4,2.45,2.09.08.06.23.12.3.09.69-.34,1.37-.69,2.04-1.06.16-.09.25-.07.36.04.24.23.48.47.74.68.1.08.25.14.37.13.48-.05.95-.14,1.43-.21.16-.02.2-.1.15-.25-.24-.77-.46-1.54-.72-2.3-.06-.18-.23-.35-.4-.45-.43-.26-.88-.46-1.32-.71-.08-.05-.17-.21-.15-.3.04-.16-.01-.4.29-.43.91-.1,1.82-.22,2.73-.33,2.12-.26,4.24-.52,6.37-.76.16-.02.37.04.51.14.61.44,1.19.91,1.8,1.35.07.05.19.09.26.06.96-.45,1.92-.91,2.88-1.37.39-.19.39-.18.68.13.97,1.03,1.94,2.06,2.9,3.1.08.08.13.22.13.34.01.48-.02.96.02,1.44.02.24.08.5.21.69.88,1.33,1.76,2.65,2.67,3.96.22.32.51.62.82.85.88.67,1.79,1.31,2.69,1.97.16.12.33.24.51.37.06-.11.12-.2.16-.29.63-1.46,1.26-2.92,1.89-4.38.08-.19.07-.34-.03-.52-.79-1.43-1.58-2.87-2.36-4.3-1.07-1.95-2.14-3.91-3.2-5.87-.1-.19-.13-.44-.11-.66.09-1.59.23-3.17.3-4.76.02-.54.2-.94.56-1.32.91-.95,1.8-1.92,2.68-2.9.19-.21.33-.48.44-.75.22-.55.39-1.12.61-1.66.09-.23.24-.46.41-.65.46-.52.95-1.01,1.43-1.51.75-.78,1.51-1.55,2.26-2.33.1-.11.2-.26.22-.4.03-.27.02-.56-.01-.83-.03-.27.05-.46.24-.64.58-.53,1.14-1.08,1.72-1.63-.05-.06-.08-.11-.12-.14-.34-.24-.68-.48-1.03-.7-.19-.12-.27-.23-.17-.47.18-.43.3-.87.47-1.3.06-.16.02-.25-.12-.34-.55-.36-1.09-.73-1.63-1.11-.08-.06-.15-.19-.15-.28,0-.71.03-1.42.06-2.13,0-.1.07-.21.1-.31.03,0,.07,0,.1,0,.04.09.1.19.12.28.03.22.04.44.06.66.04.39.07.79.11,1.22.43-.04.82-.09,1.21-.11.23-.01.32-.1.35-.33.07-.61.17-1.21.24-1.81.2-1.59.41-3.17.59-4.76.16-1.45.28-2.91.44-4.36.01-.13.1-.29.21-.36,2.31-1.72,4.63-3.42,6.95-5.13.08-.06.15-.12.23-.19-.52-.66-1.01-1.29-1.52-1.91-.15-.19-.2-.38-.2-.61,0-.99-.01-1.98,0-2.97,0-.15.06-.33.16-.45,1.45-1.79,2.92-3.57,4.38-5.35q.48-.58,0-1.18s-.04-.04-.05-.06c-.66-.93-1.5-1.72-1.91-2.84-.45-1.23-1-2.43-1.51-3.63-.1-.24-.22-.48-.32-.73-.08.02-.11.03-.14.04-.96.49-1.93.98-2.88,1.49-.12.06-.22.26-.23.4-.19,1.69-.36,3.38-.54,5.08-.01.13-.12.3-.23.37-2.23,1.46-4.47,2.9-6.71,4.35-.77.5-1.61.92-2.12,1.75-.22.36-.49.7-.78,1.01-.14.15-.35.29-.55.32-1.27.21-2.54.39-3.82.56-.29.04-.5.16-.67.38-.68.89-1.38,1.77-2.06,2.65-.15.19-.39.38-.4.57,0,.2.21.41.35.6.14.2.11.32-.06.49-1.78,1.67-3.55,3.36-5.33,5.04-.27.26-.51.3-.89.14.04-.11.08-.22.13-.33.56-1.23,1.13-2.45,1.68-3.68.61-1.36.56-.86.25-2.26-.09-.41-.17-.82-.26-1.26h2.44s.01-.06,0-.08c-.62-1.43-1.23-2.87-1.86-4.3-.04-.1-.2-.2-.31-.22-.54-.08-1.08-.13-1.63-.19-1.8-.22-3.6-.44-5.4-.65-.2-.02-.29-.11-.34-.29-.18-.67-.39-1.33-.57-2-.07-.24-.2-.41-.43-.51-.3-.13-.59-.27-.88-.41-1.83-.86-3.66-1.72-5.5-2.58-.12-.06-.3-.09-.41-.04-1.72.86-3.43,1.75-5.14,2.61-.14.07-.34.09-.49.06-.86-.19-1.71-.4-2.56-.61-2.58-.61-5.15-1.29-7.75-1.81-1.64-.33-3.32-.43-4.98-.61-1.69-.19-3.39-.35-5.08-.53-1.63-.17-3.26-.36-4.89-.53-1.81-.19-3.63-.38-5.44-.57-1.81-.19-3.62-.4-5.44-.59-1.87-.2-3.74-.4-5.61-.59-1.65-.18-3.29-.36-4.94-.53-1.54-.16-3.08-.31-4.61-.47-1.23-.13-2.46-.28-3.7-.41-1.69-.18-3.39-.36-5.08-.54-1.15-.12-2.3-.25-3.45-.38-.18-.02-.25.03-.26.22-.05,1.04-.11,2.09-.16,3.13-.01.24-.07.41-.29.54-.24.14-.45.33-.67.49-.07.05-.16.09-.32.18.25-.91.48-1.73.73-2.6-1.48-.2-2.93-.4-4.38-.59-.02.1-.03.12-.03.15.03,1.7.04,3.4-.23,5.09-.11.72-.15,1.44-.45,2.13-1.24,2.82-2.44,5.65-3.65,8.48-.12.27-.22.55-.28.84-.51,2.35-1.01,4.7-1.49,7.05-.07.36-.07.75-.05,1.13.02.36.1.71.14,1.07.23,1.7.47,3.41.67,5.11.08.65.27,1.24.65,1.77.21.3.38.63.58.95.08.13.09.23-.07.31-.16.08-.29.19-.45.27-.2.1-.24.23-.18.45.87,2.98,1.73,5.96,2.61,8.94.08.27.25.54.45.74.53.55,1.11,1.06,1.66,1.6,1.93,1.9,3.86,3.81,5.8,5.71.12.12.28.24.44.27,1.36.25,2.73.53,4.1.71.64.08,1.07.3,1.37.87.12.24.36.46.6.58.75.36,1.52.67,2.29,1,2.89,1.25,5.78,2.51,8.68,3.76.41.18.84.35,1.28.44.78.17,1.56.3,2.35.4.23.03.49-.02.72-.11.31-.11.59-.3.9-.43.13-.06.3-.08.44-.05.64.13,1.28.29,1.93.41.15.03.34-.03.47-.12.26-.17.49-.39.75-.61.09.1.17.18.24.28.56.78,1.13,1.56,1.68,2.35.2.28.45.48.8.55.27.06.54.14.79.25.13.05.26.17.32.3.16.34.31.7.41,1.06.24.85.66,1.56,1.43,2.02.02,0,.03.02.04.04,1.03.84,2.05,1.67,3.07,2.51.15.12.23.12.35-.05.38-.54.78-1.06,1.17-1.59.11-.15.24-.21.43-.18.99.17,1.99.34,2.98.51.09.02.19.09.23.16.51.83,1.03,1.67,1.52,2.52.28.49.61.92,1.11,1.21.26.15.52.33.75.53.16.14.31.32.39.51.3.73.6,1.47.85,2.22.16.47.46.71.89.9,1.39.61,2.76,1.25,4.14,1.88.11.05.2.15.29.22"/>
</svg>