<?xml version="1.0" encoding="UTF-8"?>
<svg id="Layer_2" data-name="Layer 2" xmlns="http://www.w3.org/2000/svg" viewBox="0 0 150 150">
  <defs>
    <style>
      .cls-1 {
        fill: #a4b1ac;
      }

      .cls-2 {
        fill: #cfc6bc;
      }

      .cls-3 {
        opacity: .24;
      }

      .cls-3, .cls-4 {
        fill: #dfe3e6;
        stroke: #a4b1ac;
        stroke-miterlimit: 10;
      }
    </style>
  </defs>
  <path class="cls-2" d="m61.14,71.78l-.68.33c-.54.27-1.24.11-1.55-.35l-2.92-4.3c-.31-.46-.13-1.05.41-1.32l.68-.33c.54-.27,1.24-.11,1.55.35l2.92,4.3c.31.46.13,1.05-.41,1.32Z"/>
  <path class="cls-4" d="m88.77,96.82c0,1.32-.49,2.64-1.42,3.55-1.65,1.6-4.09,1.3-5.43-.65l-7.45-10.8,2.05,11.02c.06.33.09.66.09.98,0,2.14-1.27,4.06-3.12,4.48-2.09.48-4.12-1.13-4.53-3.61l-2.88-17.45c-.08-.47-.09-.95-.04-1.43l.86-8.29c-.1-.21-.19-.41-.25-.63l-1.15-3.86-4.33,2.42c-1.2.67-2.8.38-3.59-.64l-.82-1.06c-.78-1.02-.45-2.39.75-3.06l1.08-.61-1.91-.94c-.42-.21-.56-.66-.32-1.02l.25-.37c.24-.35.77-.48,1.19-.27l2.89,1.42,3.05-1.71-.15-.5c-.8.11-1.63.17-2.47.17-8.74,0-15.83-6.04-15.83-13.49s7.09-13.49,15.83-13.49,15.83,6.04,15.83,13.49c0,2.06-.54,4.01-1.51,5.75l1.49,16.31c.02.27.02.53,0,.78l2.14,7.86c.16.58.41,1.11.74,1.57l8.04,11.12c.62.86.93,1.91.93,2.96Z"/>
  <path class="cls-3" d="m97.11,82.73c-.73-.07-1.54-.35-2.25-.84l-.15-.1c-1.7-1.17-3.45-1.94-4.82-2.22-.73-.15-1.49-.52-2.12-1.03-.17-.14-.36-.28-.55-.41-1.87-1.29-3.93-1.74-4.59-1.01-.56.62.06,1.88,1.4,3.04-.01.01-.03.02-.04.04-.64.7.53,2.43,2.6,3.86,1.92,1.32,3.95,1.92,4.74,1.44,0,0,.02.01.03.02.3.21.61.4.91.59,1.64.98,3.14,2.16,4.23,3.49.77.93,1.86,1.92,3.19,2.84,3.3,2.27,6.8,3.2,7.82,2.08s-.68-3.62-3.69-5.82c0,0,0,0,0,0,.74-.82-.48-2.74-2.73-4.29-1.41-.97-2.89-1.56-3.98-1.67Z"/>
  <path class="cls-3" d="m95.25,86.79c-.74-.38-1.54-1-2.24-1.79l-.15-.17c-1.66-1.87-3.39-3.39-4.77-4.25-.73-.46-1.48-1.15-2.1-1.92-.17-.21-.35-.42-.54-.64-1.83-2.07-3.89-3.39-4.59-2.96-.59.37-.03,1.88,1.26,3.59-.02,0-.03.01-.05.02-.68.42.42,2.62,2.45,4.91,1.88,2.12,3.9,3.58,4.73,3.44,0,.01.02.02.03.03.3.34.6.66.9.97,1.61,1.67,3.08,3.48,4.12,5.25.73,1.24,1.79,2.69,3.09,4.16,3.23,3.65,6.73,6.06,7.81,5.39s-.51-3.85-3.45-7.31c0,0,0,0,0,0,.79-.49-.35-2.9-2.56-5.39-1.38-1.56-2.85-2.77-3.94-3.34Z"/>
  <path class="cls-1" d="m87.45,73.02l-6.99-15.44c-1.13-2.49-4.55-3.59-7.32-2.35l-2.95,1.32c-2.66,1.19-3.6,4.05-2.06,6.25l2.05,2.91-10.48,1.26c-1.07.13-2.03.41-2.59.75-1.33.82.13,1.6,2.7,1.43l12.23-.8,6.03,8.56c.85,1.2,2.31,2,3.94,2.14,3.89.35,6.84-2.93,5.44-6.05Z"/>
</svg>