<?xml version="1.0" encoding="UTF-8"?>
<svg id="Layer_2" data-name="Layer 2" xmlns="http://www.w3.org/2000/svg" viewBox="0 0 150 150">
  <defs>
    <style>
      .cls-1 {
        fill: #dfe3e6;
        stroke: #a4b1ac;
        stroke-miterlimit: 10;
      }
    </style>
  </defs>
  <path class="cls-1" d="m97.42,101.43l-16.08-1.06c-.28-.02-.52.21-.52.49v6.26c0,1.04-.84,1.88-1.87,1.88h-7.9c-1.03,0-1.87-.84-1.87-1.88v-6.49c0-.28-.24-.5-.52-.49l-16.28.92c-.39.02-.64-.39-.46-.73l7.63-13.74s.03-.05.05-.08l4.05-4.85c.27-.32.03-.81-.39-.8l-6.86.14c-.4,0-.64-.44-.41-.77l10.57-15.44s.03-.04.04-.05l1.71-1.88c.32-.35,0-.9-.46-.81l-1.99.39c-.38.08-.7-.31-.55-.67l4.6-10.99s.02-.04.03-.06l5.2-9c.19-.33.66-.33.85,0l5.19,8.99s.02.04.03.07l3.53,9.06c.13.32-.11.67-.46.67h-1.08c-.36,0-.6.37-.44.7l3.01,6.44s.02.05.03.08l4.08,14.63c.1.34-.19.67-.55.62l-5.13-.78c-.47-.07-.76.51-.41.84l2.1,2s.04.04.05.06l11.9,15.55c.26.33,0,.81-.42.79Z"/>
</svg>