<?xml version="1.0" encoding="UTF-8"?>
<svg id="Layer_2" data-name="Layer 2" xmlns="http://www.w3.org/2000/svg" viewBox="0 0 2855.4 823.49">
  <defs>
    <style>
      .cls-1, .cls-2, .cls-3, .cls-4, .cls-5 {
        font-family: FatFrank-Heavy, FatFrank;
        font-size: 317.88px;
        font-weight: 800;
      }

      .cls-1, .cls-2, .cls-3, .cls-4, .cls-5, .cls-6 {
        isolation: isolate;
      }

      .cls-1, .cls-2, .cls-7 {
        fill: #5e7179;
      }

      .cls-2, .cls-4 {
        letter-spacing: -.04em;
      }

      .cls-3, .cls-4 {
        stroke-miterlimit: 10;
      }

      .cls-3, .cls-4, .cls-5 {
        fill: none;
        stroke: #5e7179;
        stroke-width: 3.97px;
      }

      .cls-5 {
        stroke-linecap: round;
        stroke-linejoin: bevel;
      }

      .cls-8, .cls-7, .cls-9, .cls-10, .cls-11, .cls-12 {
        stroke-width: 0px;
      }

      .cls-9 {
        fill: #565764;
      }

      .cls-10 {
        fill: #dfe3e6;
      }

      .cls-11 {
        fill: #91abaf;
      }

      .cls-12 {
        fill: #ebd4c5;
      }
    </style>
  </defs>
  <g id="Layer_1-2" data-name="Layer 1-2">
    <g id="lOGO">
      <g class="cls-6">
        <text class="cls-1" transform="translate(1645.55 545.41) rotate(.05)"><tspan x="0" y="0">B</tspan></text>
        <text class="cls-3" transform="translate(1645.55 545.41) rotate(.05)"><tspan x="0" y="0">B</tspan></text>
        <text class="cls-2" transform="translate(1837.87 545.58) rotate(.05)"><tspan x="0" y="0">O</tspan></text>
        <text class="cls-4" transform="translate(1837.87 545.58) rotate(.05)"><tspan x="0" y="0">O</tspan></text>
        <text class="cls-1" transform="translate(2067.7 545.78) rotate(.05)"><tspan x="0" y="0">ARDS</tspan></text>
        <text class="cls-3" transform="translate(2067.7 545.78) rotate(.05)"><tspan x="0" y="0">ARDS</tspan></text>
      </g>
    </g>
    <g id="lOGO-2">
      <g class="cls-6">
        <text class="cls-1" transform="translate(2.05 545.51) rotate(.05)"><tspan x="0" y="0">DOMAIN</tspan></text>
        <text class="cls-5" transform="translate(2.05 545.51) rotate(.05)"><tspan x="0" y="0">DOMAIN</tspan></text>
      </g>
    </g>
  </g>
  <g>
    <path class="cls-11" d="m1323.96,630.47c15.42,6.87,47.77,15.26,70.64,18.35,7.72,1.04,13.98,1.44,18.69,1.17,1.17,2.08,2.61,3.86,4.34,5.49,6.5,6.2,15.84,9.27,25.35,9.27s19.78-3.28,26.97-9.8c1.3-1.17,2.53-2.48,4.66-5.19,1.78.27,3.86.4,6.28.4,4.26,0,9.51-.43,15.68-1.22,22.95-3.06,55.33-11.4,70.72-18.24.91-.4,1.78-.8,2.64-1.22.69-.32,1.36-.67,2.02-1.01,2.8-1.44,5.41-2.96,7.83-4.61.16,2.05.56,4.45,1.2,7.19.24,1.07.93,2.85,1.76,4.82h-.08c-.29-.03-.59-.05-.88-.05-4.77-.08-9.45,2.82-12.49,5.11-.51.37-.96.72-1.36,1.07-.4.32-.77.64-1.07.88l-.27.21c-10.78,9.03-14.25,24.82-18.64,44.79l-.8,3.7c-1.65,7.4-4.74,8.81-9.85,11.16-.8.37-1.62.75-2.45,1.14-1.33.64-2.72,1.38-4.13,2.32-.45.27-.93.59-1.41.96-.83.59-1.68,1.28-2.53,2.05h-.03c-1.3.59-2.85,1.14-4.55,1.68l-1.04.32c-.69.19-1.41.4-2.13.61h-.05c-1.44.37-2.93.77-4.47,1.17-1.62.37-3.3.77-4.95,1.17-3.99.96-8.12,1.94-11.74,3.01-.64.19-3.59.77-7.03,1.44-2.69.53-5.25,1.04-7.67,1.54-.75.13-1.46.29-2.18.45-1.49.29-2.96.59-4.34.91-.13.03-.29.05-.43.08-1.07.24-2.1.45-3.14.69-1.14.24-2.26.48-3.33.75-2.13.48-4.13.96-5.94,1.41-.91.21-1.78.45-2.61.67-.85.21-1.62.45-2.37.67-2.13.61-3.91,1.2-5.38,1.78-.35.13-.67.27-.99.4-.67.29-1.22.56-1.7.85h-.03c-.16-.03-.32-.08-.48-.11s-.35-.08-.53-.11c-1.49-.35-3.49-.75-5.88-1.22-.37-.11-.77-.19-1.2-.27-.64-.13-1.28-.27-1.97-.4-1.22-.24-2.5-.51-3.86-.77-.4-.08-.83-.16-1.25-.27-.69-.13-1.38-.27-2.1-.4-1.14-.24-2.29-.48-3.46-.72-2.48-.48-5.03-1.01-7.62-1.52-12.91-2.58-27.56-5.51-29.08-5.96-3.62-1.07-7.78-2.05-11.74-3.01-3.22-.77-6.47-1.54-9.45-2.37-.75-.21-1.46-.43-2.16-.61l-1.04-.32c-1.17-.37-2.26-.77-3.25-1.14-.45-.19-.91-.37-1.3-.56h-.03c-1.33-1.22-2.66-2.21-3.94-3.04-.08-.05-.13-.08-.21-.13-.45-.29-.91-.56-1.33-.8-.43-.27-.88-.51-1.28-.72-.85-.45-1.7-.85-2.5-1.22-.43-.21-.85-.4-1.25-.59-5.11-2.34-8.17-3.75-9.8-11.16l-.83-3.73c-4.34-19.97-7.78-35.76-18.56-44.81l-.24-.19c-2.26-1.89-7.75-6.52-13.61-7.06-.37-.03-.75-.05-1.12-.05h-.05c-.35,0-.72.03-1.07.05.83-1.97,1.52-3.75,1.76-4.82.64-2.77,1.04-5.14,1.2-7.19.8.53,1.6,1.09,2.45,1.6,1.3.83,2.66,1.6,4.07,2.37.67.35,1.33.69,2.02,1.07,1.28.64,2.58,1.25,3.94,1.86Z"/>
    <path class="cls-12" d="m1485.72,210.35c7.3,8.81,18.72,14.43,29.82,14.7.24,0,.45.03.67.03,15.1,0,30.81-11.93,36.88-23.17,1.54-2.85,2.4-5.57,2.53-8.04.03-.32.05-.67.05-1.01l-.03-.64-.08-.8c-1.04-3.43-1.3-3.89-1.6-4.31-5.3-7.59-13.61-7.03-25.14-6.23-4.1.27-8.76.59-13.77.59-3.09,0-6.02-.08-8.84-.13-14.49-.4-24.95-.67-26.81,10.62-.08.45-.13.93-.16,1.41-.08.99-.05,2,.05,3.04.45,4.55,2.69,9.43,6.42,13.95Zm-99.85-29c-2.77.05-5.62.13-8.65.13h-.19c-5.06,0-9.69-.32-13.77-.61-11.53-.83-19.84-1.41-25.14,6.18-1.04,1.46-1.6,3.22-1.7,5.14-.03.53-.03,1.09.03,1.65,0,.35.05.72.11,1.07.29,2.18,1.12,4.5,2.42,6.95,6.04,11.26,21.75,23.22,36.88,23.22h.61c11.1-.24,22.53-5.86,29.85-14.67,3.75-4.5,5.99-9.43,6.44-13.98.08-.59.11-1.2.11-1.78l-.05-1.36c-.03-.37-.05-.75-.13-1.09.03-.05,0-.08,0-.13-1.86-11.29-12.33-11.05-26.81-10.7Zm-117.66-19.33c.99-.27,2-.37,3.01-.37.91,0,1.81.08,2.69.29.75.16,1.49,0,2.1-.43s1.04-1.12,1.12-1.86c11.05-88,83.34-154.33,168.23-154.33h1.54c84.97.08,157.23,66.57,168.1,154.65.11.75.51,1.41,1.12,1.86.61.43,1.38.59,2.1.43,1.92-.43,3.83-.4,5.72.08,5.7,1.54,10.04,7.3,12.2,16.27,2.32,9.53,1.84,21.35-1.33,33.26-5.46,20.42-17.79,36.35-29.32,37.86-.96.13-1.76.77-2.1,1.65-20,50.14-61.75,88.67-111.7,103.02-3.62,1.04-7.32,1.97-11.02,2.74-.27-.05-.53-.05-.8,0-10.76,1.92-21.91,2.9-33.1,2.9h-1.49c-11.08-.03-22.13-1.01-32.88-2.93-.29-.05-.61-.05-.91.05-3.91-.85-7.72-1.78-11.4-2.85-49.93-14.46-91.62-53.04-111.49-103.23-.37-.88-1.17-1.52-2.13-1.65-11.53-1.54-23.8-17.49-29.24-37.94-3.14-11.9-3.59-23.7-1.28-33.23,2.18-8.97,6.55-14.75,12.25-16.24Zm309.22-9.72c2.5.96,4.63-2.8,2.64-4.5-6.07-5.11-12.38-8.79-19.84-11.58-7.32-2.74-14.91-4.71-22.63-5.91-7.64-1.2-15.28-1.73-23.03-1.36-3.97.19-7.93.61-11.88,1.2-4.07.59-8.44.91-11.66,3.65-2.56,2.18-1.09,6.6,1.97,7.4,3.7.93,7.59-.51,11.29-1.09,3.41-.51,6.84-.83,10.28-.99,7.22-.35,14.56-.08,21.73.88,14.25,1.94,27.77,7.24,41.14,12.3Zm-100.09,170.2c0-3.73-1.76-7.62-5.46-10.54-3.7-2.93-9.35-4.95-17.09-4.95h-.05c-14.3,0-37.94,7.19-37.94,15.44s17.44,11.18,30.57,12.59c3.99.43,7.54.64,10.68.64,7.78,0,13.05-1.3,16.03-3.97,2.88-2.58,3.28-6.12,3.28-9.21Zm-22.45-47.82c7.14-.72,15.31-3.65,14.59-12.33-.69-8.44-9.43-13.42-13.87-19.86-5.19-7.54-7.75-16.08-8.65-25.08-.21-2.34-3.62-2.42-3.67,0-.19,7,1.52,13.95,4.34,20.34,2.9,6.58,7.19,11.82,12.04,17.04,2.21,2.37,4.98,5.75,4.18,9.29-.77,3.33-4.5,3.83-7.38,3.94-2.88.11-5.94.11-8.73-.45-3.04-.64-4.34-2.21-6.74-3.89-2.56-1.78-5.57,1.17-4.95,3.81,1.7,7.4,12.99,7.78,18.85,7.19Zm-46.09-133.48c3.04-.8,4.5-5.22,1.94-7.4-3.09-2.64-7.19-2.98-11.08-3.57-3.97-.59-7.93-1.04-11.9-1.25-7.91-.43-15.76.11-23.59,1.33-7.54,1.14-14.94,3.09-22.1,5.72-7.64,2.82-14.11,6.52-20.34,11.77-2.02,1.7.13,5.46,2.61,4.5,13.37-5.06,26.92-10.36,41.17-12.3,6.98-.93,14.11-1.2,21.14-.91,3.62.16,7.27.48,10.86,1.01,3.67.59,7.59,2.02,11.29,1.09Z"/>
    <path class="cls-8" d="m1604.72,715.95c-.08.19-.16.4-.24.61.05-.21.13-.43.21-.64,0,0,0,.03.03.03Z"/>
    <path class="cls-8" d="m1590.6,645.81c1.22-.69,1.65-2.21,1.04-3.46.08.08.13.21.19.29,7.14,12.91,12.28,44.47,14.7,62.12.19,1.33.21,2.69.05,4.05-.75-.91-2.02-1.2-3.12-.72-1.2.56-2.05,1.76-3.2,4.55.96-2.34,1.28-4.82.99-7.16-1.92-13.87-7.08-47.53-14.06-60.18-.05-.11-.13-.21-.19-.35.77,1.2,2.37,1.57,3.59.85Z"/>
    <path class="cls-8" d="m1589.54,738.18c.32-.29.61-.59.88-.91-.27.32-.59.61-.88.91Z"/>
    <path class="cls-8" d="m1584.85,620.01c.13-.11.27-.21.4-.35-.29,1.2-.48,4.02.93,10.17.45,1.97,3.94,9.67,5.33,12.25l-.43-.69c-1.97-3.12-4.58-4.95-7.72-5.46-.21-.03-.4-.05-.61-.08-.83-1.97-1.52-3.75-1.76-4.82-.64-2.74-1.04-5.14-1.2-7.19,1.7-1.14,3.3-2.34,4.85-3.62l.21-.21Z"/>
    <path class="cls-8" d="m1582.67,635.85c-.29-.03-.59-.05-.88-.05.29,0,.59.03.88.05Z"/>
    <path class="cls-9" d="m1582.54,641.18c1.57.27,2.9,1.25,3.99,2.98.13.21.27.45.4.67.03.05.05.08.08.13.05.13.13.24.19.35,6.98,12.65,12.14,46.3,14.06,60.18.29,2.34-.03,4.82-.99,7.16-1.01,2.45-2.1,5.94-3.09,9.05l-1.07,3.51c-.93,3.01-1.89,6.12-2.24,6.95-.85,1.89-2.02,3.59-3.46,5.11-.27.32-.56.61-.88.91-3.04,2.96-7.03,5.22-11.48,6.98-1.65.67-3.35,1.25-5.11,1.78-1.09.35-2.21.64-3.35.91-1.86.48-3.75.88-5.64,1.22-.96.19-1.92.35-2.85.48-1.7.27-3.35.48-4.98.67h-.03c-.35-.16-.69-.32-1.04-.53-.24-.08-.45-.21-.67-.35-.43-.21-.85-.48-1.28-.75-.56-.32-1.09-.67-1.62-1.04-.53-.35-1.04-.69-1.52-1.09-.88-.64-1.7-1.3-2.53-2.05-.45-.37-.91-.77-1.33-1.2-2.96-2.77-5.59-5.96-7.85-9.32-.35-.51-.69-1.04-1.01-1.54-2.37-3.67-4.23-7.48-5.51-11-1.92-5.22-1.73-7.7-1.65-7.96,3.25-3.01,6.42-4.45,9.45-5.83,5.46-2.5,10.62-4.87,12.83-14.86l.83-3.7c4.15-18.99,7.46-33.98,16.83-41.83l.27-.21c1.14-.96,3.73-3.12,6.55-4.53.4-.19.77-.35,1.17-.51.45-.19.88-.35,1.33-.45.77-.21,1.52-.35,2.26-.35.32,0,.61.03.93.05Z"/>
    <path class="cls-8" d="m1582.54,641.18c-.32-.03-.61-.05-.93-.05-.75,0-1.49.13-2.26.35,1.09-.32,2.18-.45,3.2-.29Z"/>
    <path class="cls-8" d="m1579.34,617.61c.56-.45,1.12-.88,1.68-1.33-.53.45-1.09.91-1.68,1.33Z"/>
    <path class="cls-8" d="m1577.56,618.92c.61-.43,1.2-.88,1.78-1.3-.59.45-1.17.88-1.78,1.3Z"/>
    <path class="cls-8" d="m1575.67,620.17c.64-.4,1.25-.83,1.86-1.25-.61.45-1.22.85-1.86,1.25Z"/>
    <path class="cls-8" d="m1576.84,642.43c.4-.19.77-.37,1.17-.51-.4.16-.77.32-1.17.51Z"/>
    <path class="cls-8" d="m1578.06,745.16c-1.65.67-3.35,1.25-5.11,1.78,1.76-.53,3.46-1.12,5.11-1.78Z"/>
    <path class="cls-8" d="m1577.42,152.31c-13.37-5.06-26.89-10.36-41.14-12.3-7.16-.96-14.51-1.22-21.73-.88-3.43.16-6.87.48-10.28.99-3.7.59-7.59,2.02-11.29,1.09-3.06-.8-4.53-5.22-1.97-7.4,3.22-2.74,7.59-3.06,11.66-3.65,3.94-.59,7.91-1.01,11.88-1.2,7.75-.37,15.39.16,23.03,1.36,7.72,1.2,15.31,3.17,22.63,5.91,7.46,2.8,13.77,6.47,19.84,11.58,2,1.7-.13,5.46-2.64,4.5Z"/>
    <path class="cls-8" d="m1569.94,629.46c.69-.32,1.36-.67,2.02-1.01-.67.35-1.33.69-2.02,1.01Z"/>
    <path class="cls-8" d="m1567.95,641.98c.4-.35.85-.69,1.36-1.07-.51.37-.96.75-1.36,1.07Z"/>
    <path class="cls-8" d="m1567.95,641.98c-.4.32-.77.64-1.07.88.29-.24.67-.56,1.07-.88Z"/>
    <path class="cls-8" d="m1563.95,749.07c1.89-.35,3.78-.75,5.64-1.22-1.86.48-3.75.88-5.64,1.22Z"/>
    <path class="cls-8" d="m1561.1,749.55c-1.68.29-3.33.51-4.93.69-.03,0-.05-.03-.05-.03,1.62-.19,3.28-.4,4.98-.67Z"/>
    <path class="cls-8" d="m1557.69,751.23c.19.19.32.4.4.61-.11-.21-.24-.43-.4-.61Z"/>
    <path class="cls-8" d="m1556.39,755.54c1.01-.29,1.76-1.14,1.92-2.16.08-.53,0-1.07-.21-1.54.51.99.35,2.18-.48,3.01-.35.35-.77.59-1.22.69Z"/>
    <path class="cls-8" d="m1598.73,734.35c-5.22,11.53-19.52,18.69-42.47,21.25.05,0,.08-.03.13-.05.45-.11.88-.35,1.22-.69.83-.83.99-2.02.48-3.01-.08-.21-.21-.43-.4-.61-.11-.13-.24-.27-.37-.37-.08-.05-.13-.11-.21-.13-.11-.08-.21-.13-.35-.19-.03,0-.03-.03-.05-.03-.19-.08-.37-.16-.53-.27,1.6-.19,3.25-.4,4.93-.69.93-.13,1.89-.29,2.85-.48,1.89-.35,3.78-.75,5.64-1.22,1.14-.27,2.26-.56,3.35-.91,1.76-.53,3.46-1.12,5.11-1.78,4.45-1.76,8.44-4.02,11.48-6.98.29-.29.61-.59.88-.91,1.44-1.52,2.61-3.22,3.46-5.11.35-.83,1.3-3.94,2.24-6.95l1.07-3.51c.99-3.12,2.08-6.6,3.09-9.05,1.14-2.8,2-3.99,3.2-4.55,1.09-.48,2.37-.19,3.12.72-.13,1.97-.61,3.94-1.38,5.86-.16.4-.32.83-.48,1.28-.03,0-.03-.03-.03-.03-.08.21-.16.43-.21.64-1.25,3.62-1.76,5.19-2.21,6.68l-1.07,3.51c-1.25,4.13-2,6.5-2.48,7.59Z"/>
    <path class="cls-8" d="m1557.32,750.85c-.05-.05-.13-.08-.21-.13.08.03.13.08.21.13Z"/>
    <path class="cls-8" d="m1556.39,755.54c-.05.03-.08.05-.13.05-.08,0-.19.03-.27.03l.4-.08Z"/>
    <path class="cls-8" d="m1556.18,750.24h-.05l-.03-.03h.03s.03.03.05.03Z"/>
    <path class="cls-8" d="m1556.12,750.24h.05c.16.11.35.19.53.27-.4-.19-.85-.24-1.3-.19.03,0,.08,0,.11-.03.19-.03.37-.05.59-.08l.03.03Z"/>
    <path class="cls-8" d="m1555.06,749.68c.35.21.69.37,1.04.53-.35-.16-.69-.32-1.04-.53Z"/>
    <path class="cls-8" d="m1553.83,754.85c-1.04-1.04-1.04-2.72,0-3.75.4-.4.88-.64,1.36-.75.08,0,.13-.03.21-.03.45-.05.91,0,1.3.19.03,0,.03.03.05.03.13.05.24.11.35.19.08.05.16.08.21.13.13.11.27.24.37.37.16.19.29.4.4.61.21.48.29,1.01.21,1.54-.16,1.01-.91,1.86-1.92,2.16l-.4.08h-.29c-.19,0-.37-.03-.56-.05-.16-.03-.35-.08-.51-.16h-.03c-.11-.05-.24-.11-.35-.19-.13-.11-.27-.21-.4-.35l-.03-.03Z"/>
    <path class="cls-8" d="m1555.56,191.42l.08.8-.08-.8Z"/>
    <path class="cls-8" d="m1555.88,755.62c-.08,0-.13.03-.21.03-.19,0-.37-.03-.53-.08.19.03.37.05.56.05h.19Z"/>
    <path class="cls-8" d="m1554.63,755.41c.16.08.35.13.51.16-.19-.03-.35-.08-.51-.16Z"/>
    <path class="cls-8" d="m1553.11,748.59c.43.27.85.53,1.28.75-.45-.21-.88-.48-1.28-.75Z"/>
    <path class="cls-8" d="m1554.26,755.22c-2.48-1.12-4.85-2.56-7.11-4.23,2.77-.16,5.43-.37,8.04-.64-.48.11-.96.35-1.36.75-1.04,1.04-1.04,2.72,0,3.75l.03.03c.13.13.27.24.4.35Z"/>
    <path class="cls-8" d="m1551.65,186.1l.13.13c-.05-.05-.08-.11-.13-.13Z"/>
    <path class="cls-8" d="m1551.06,185.51c.21.19.4.37.59.59-.19-.21-.37-.43-.59-.59Z"/>
    <path class="cls-8" d="m1551.49,747.55c-.53-.35-1.04-.69-1.52-1.09.48.4.99.75,1.52,1.09Z"/>
    <path class="cls-8" d="m1548.72,183.75l.83.53c-.27-.21-.53-.37-.83-.53Z"/>
    <path class="cls-8" d="m1547.95,183.35l.77.4c-.24-.16-.51-.29-.77-.4Z"/>
    <path class="cls-8" d="m1546.11,743.21c.43.43.88.83,1.33,1.2-.45-.37-.91-.77-1.33-1.2Z"/>
    <path class="cls-8" d="m1548.29,428.24c1.2.83,1.52,2.5.69,3.7-.43.64-.88,1.28-1.36,1.92-.67-.37-1.33-.69-1.97-.99-.69-.35-1.22-.96-1.44-1.73-.21-.75-.08-1.54.37-2.21.83-1.2,2.48-1.52,3.7-.69Z"/>
    <path class="cls-8" d="m1544.91,749.2c.72.64,1.46,1.22,2.24,1.78-.75-.56-1.52-1.14-2.24-1.78Z"/>
    <path class="cls-8" d="m1542.76,747.31c.69.64,1.41,1.28,2.16,1.89-.75-.59-1.46-1.22-2.16-1.89Z"/>
    <path class="cls-8" d="m1546.54,751.01c-1.44.08-2.88.13-4.37.19,1.49-.05,2.93-.11,4.37-.19Z"/>
    <path class="cls-8" d="m1540.71,745.29c.67.69,1.36,1.36,2.05,2.02-.69-.64-1.38-1.33-2.05-2.02Z"/>
    <path class="cls-8" d="m1538.76,743.16c.64.72,1.28,1.44,1.94,2.13-.67-.69-1.33-1.41-1.94-2.13Z"/>
    <path class="cls-8" d="m1499.01,182.5c2.24,0,4.63.08,7.19.13,2.82.08,5.75.16,8.87.16h.11c5.06,0,9.67-.32,13.74-.61,3.41-.24,6.47-.45,9.21-.45,6.6,0,11.42,1.22,14.88,6.18.75,1.07,1.22,2.32,1.41,3.67.11.69.11,1.44.05,2.24-.19,2.24-.99,4.74-2.42,7.4-5.91,11-21.65,22.53-35.87,22.53h-.61c-10.76-.27-21.86-5.75-28.94-14.3-3.54-4.26-5.67-8.87-6.15-13.15-.11-.96-.13-1.92-.05-2.82.03-.4.08-.8.13-1.17.35-2.13,1.04-3.78,2.02-5.11.24-.32.51-.64.8-.91,1.17-1.17,2.61-1.97,4.29-2.53.85-.29,1.76-.51,2.74-.69,2.48-.43,5.35-.56,8.6-.56Z"/>
    <path class="cls-8" d="m1536.92,740.95c.59.77,1.2,1.49,1.84,2.21-.64-.72-1.28-1.46-1.84-2.21Z"/>
    <path class="cls-8" d="m1537.24,732.35c.32.51.67,1.04,1.01,1.54-.37-.51-.69-1.01-1.01-1.54Z"/>
    <path class="cls-8" d="m1535.41,739.01c.48.67.99,1.3,1.52,1.94-.53-.64-1.04-1.28-1.52-1.94Z"/>
    <path class="cls-8" d="m1537.32,702.71c-.8.35-1.6.72-2.45,1.14.83-.4,1.65-.77,2.45-1.14Z"/>
    <path class="cls-8" d="m1536.42,751.25c-.48,0-1.04-.05-1.65-.11.61.05,1.17.11,1.65.11Z"/>
    <path class="cls-8" d="m1535.17,738.69c-.48-.64-.93-1.28-1.36-1.94.43.67.88,1.3,1.36,1.94Z"/>
    <path class="cls-8" d="m1530.48,709.96c-.72-1.09-2.16-1.49-3.33-.93-.11.05-.24.11-.35.16.85-.77,1.7-1.46,2.53-2.05.48-.35.93-.67,1.41-.96,1.41-.93,2.8-1.68,4.13-2.32.85-.43,1.65-.8,2.45-1.14,5.11-2.34,8.2-3.75,9.85-11.16l.8-3.7c4.39-19.97,7.85-35.76,18.64-44.79l.27-.21c.29-.24.67-.56,1.07-.88s.85-.69,1.36-1.07c3.04-2.29,7.72-5.19,12.49-5.11.29,0,.59.03.88.05h.08c.21.03.4.05.61.08,3.14.51,5.75,2.34,7.72,5.46l.43.69c.05.08.11.19.13.27.61,1.25.19,2.77-1.04,3.46-1.22.72-2.82.35-3.59-.85-.03-.05-.05-.08-.08-.13-.13-.21-.27-.45-.4-.67-1.09-1.73-2.42-2.72-3.99-2.98-1.01-.16-2.1-.03-3.2.29-.45.11-.88.27-1.33.45-.4.13-.77.32-1.17.51-2.82,1.41-5.41,3.57-6.55,4.53l-.27.21c-9.37,7.85-12.67,22.85-16.83,41.83l-.83,3.7c-2.21,9.99-7.38,12.35-12.83,14.86-3.04,1.38-6.2,2.82-9.45,5.83.96-.88,1.14-2.34.4-3.43Z"/>
    <path class="cls-8" d="m1530.75,706.17c-.48.29-.93.61-1.41.96.48-.37.96-.69,1.41-.96Z"/>
    <path class="cls-8" d="m1529.47,729.45c.4.77.8,1.54,1.25,2.32-.45-.77-.85-1.54-1.25-2.32Z"/>
    <path class="cls-8" d="m1525.02,716.98c-.03-.21-.05-.4-.08-.59-.05-.27-.08-.53-.11-.77v-.03c1.68-.53,3.2-1.12,4.55-1.76.27-.11.48-.27.69-.45-.08.27-.27,2.74,1.65,7.96,1.28,3.51,3.14,7.32,5.51,11,.32.53.64,1.04,1.01,1.54,2.26,3.35,4.9,6.55,7.85,9.32.43.43.88.83,1.33,1.2.83.75,1.65,1.41,2.53,2.05.48.4.99.75,1.52,1.09.53.37,1.07.72,1.62,1.04.4.27.83.53,1.28.75.21.13.43.27.67.35.35.21.69.37,1.04.53-.21.03-.4.05-.59.08-.03.03-.08.03-.11.03-.08,0-.13.03-.21.03-2.61.27-5.27.48-8.04.64-.77-.56-1.52-1.14-2.24-1.78-.75-.61-1.46-1.25-2.16-1.89-.69-.67-1.38-1.33-2.05-2.02-.67-.69-1.3-1.41-1.94-2.13-.64-.72-1.25-1.44-1.84-2.21-.53-.64-1.04-1.28-1.52-1.94l-.24-.32c-.48-.64-.93-1.28-1.36-1.94-1.14-1.65-2.16-3.33-3.09-4.98-.45-.77-.85-1.54-1.25-2.32-.03-.03-.03-.05-.05-.08-.35-.72-.69-1.46-1.04-2.16-.48-1.09-.93-2.16-1.33-3.17-.16-.43-.32-.85-.48-1.28-.29-.83-.56-1.65-.77-2.42-.16-.53-.29-1.04-.4-1.54-.16-.61-.27-1.22-.37-1.81Z"/>
    <path class="cls-8" d="m1528.38,727.21c.35.69.69,1.44,1.04,2.16l-1.04-2.16Z"/>
    <path class="cls-8" d="m1529.39,713.84c-1.36.64-2.88,1.22-4.55,1.76-.29-2.88.27-4.87,1.62-6.12.11-.11.21-.19.32-.29h.03c.11-.05.24-.11.35-.16,1.17-.56,2.61-.16,3.33.93.75,1.09.56,2.56-.4,3.43-.21.19-.43.35-.69.45Z"/>
    <path class="cls-8" d="m1526.57,722.76c.16.43.32.85.48,1.28-.19-.45-.35-.88-.48-1.28Z"/>
    <path class="cls-8" d="m1525.4,718.8c.11.51.24,1.01.4,1.54-.16-.53-.29-1.04-.4-1.54Z"/>
    <path class="cls-8" d="m1525.02,716.98c.11.59.21,1.2.37,1.81-.16-.64-.27-1.22-.37-1.81Z"/>
    <path class="cls-7" d="m1523.74,715.97c.37-.11.75-.24,1.09-.35.03.24.05.51.11.77.03.19.05.37.08.59.11.59.21,1.17.37,1.81.11.51.24,1.01.4,1.54.21.77.48,1.6.77,2.42.13.4.29.83.48,1.28.4,1.01.85,2.08,1.33,3.17l1.04,2.16s.03.05.05.08c.4.77.8,1.54,1.25,2.32.93,1.65,1.94,3.33,3.09,4.98.43.67.88,1.3,1.36,1.94l.24.32c.48.67.99,1.3,1.52,1.94.56.75,1.2,1.49,1.84,2.21.61.72,1.28,1.44,1.94,2.13.67.69,1.36,1.38,2.05,2.02.69.67,1.41,1.3,2.16,1.89.72.64,1.49,1.22,2.24,1.78-.21,0-.4.03-.61.03-1.44.08-2.88.13-4.37.19-1.7.05-3.46.08-5.25.08-.16,0-.32,0-.51-.03-.48,0-1.04-.05-1.65-.11-2.77-.32-6.84-1.12-11.77-2.26-1.07-.24-2.18-.51-3.33-.8-3.59-.85-7.54-1.86-11.69-2.98-1.3-.35-2.61-.69-3.94-1.04-8.6-2.32-17.87-4.95-26.52-7.48-.96-.27-1.89-.56-2.85-.83-4.87-1.41-9.53-2.8-13.71-4.02-.61-.19-1.22-.37-1.81-.56.75-.24,1.57-.45,2.45-.69.4-.11.83-.21,1.28-.35h.05c.67-.19,1.36-.35,2.05-.53,2.16-.53,4.47-1.07,6.82-1.6,1.38-.32,2.77-.61,4.13-.93.96-.19,1.89-.4,2.82-.59l1.12-.24c2.26-.48,4.42-.91,6.34-1.3.32-.08.64-.13.93-.19.32-.05.61-.13.91-.19.59-.11,1.14-.24,1.68-.32.8-.16,1.52-.29,2.13-.43,4.47-.91,6.66-1.33,7.48-1.57,3.49-1.04,7.56-2,11.48-2.93,3.41-.83,6.74-1.6,9.8-2.45.35-.08.69-.19,1.04-.29.72-.19,1.44-.4,2.1-.61Z"/>
    <path class="cls-8" d="m1524.84,715.63c.03.24.05.51.11.77-.05-.27-.08-.53-.11-.77Z"/>
    <path class="cls-8" d="m1523.74,715.97c.37-.11.75-.24,1.09-.35-.35.11-.72.24-1.09.35Z"/>
    <path class="cls-8" d="m1503.29,356.24c34.24,7.3,47.37,21.75,52.3,33.1,5.33,12.28,3.57,26.41-4.95,40.1,17.6,9.8,42.42,37.97,51.6,64.17,5.22,14.8,21.06,59.83,3.57,97.43-5.88,12.62-12.43,21.75-20.56,28.62.05-.21.11-.4.16-.51.45-1.12.08-2.42-.91-3.14-.99-.72-2.34-.69-3.28.11-.08.05-.13.11-.21.16.08-.05.13-.13.21-.19,7.78-6.42,14.03-15.1,19.73-27.29,16.62-35.63,1.3-79.14-3.73-93.43-8.79-24.92-33.18-52.64-49.61-61.51.48-.64.93-1.28,1.36-1.92.83-1.2.51-2.88-.69-3.7-1.22-.83-2.88-.51-3.7.69,8.84-12.89,11.02-26.2,6.12-37.46-4.85-11.16-18.88-25.72-58.13-31.79l.56-.16c3.41-.99,6.79-2.08,10.14-3.28Z"/>
    <path class="cls-8" d="m1521.19,711.18l1.04-.32-1.04.32Z"/>
    <path class="cls-8" d="m1519.67,748.08c1.14.29,2.26.56,3.33.8-1.07-.24-2.18-.51-3.33-.8Z"/>
    <path class="cls-8" d="m1520.6,716.88c.35-.08.69-.19,1.04-.29-.35.11-.69.21-1.04.29Z"/>
    <path class="cls-8" d="m1521.19,711.18c-.69.21-1.38.4-2.13.61.72-.21,1.44-.43,2.13-.61Z"/>
    <path class="cls-8" d="m1519,711.79c-1.44.4-2.93.8-4.47,1.17,1.54-.4,3.04-.8,4.47-1.17Z"/>
    <path class="cls-12" d="m1499.86,402.28c4.39,2.1,6.92,3.43,8.15,6.47.51,1.28.72,2.64.61,4.13v.05h-.03v.27c-.67,7.19-7.93,15.2-9.93,17.04-.05.03-.11.11-.19.19-.08.05-.19.16-.32.27-2.18,2-5.43,3.89-9.67,5.57-1.07.45-2.18.83-3.22,1.2-5.72,1.86-11.96,2.85-18.45,2.9l-41.86-.05c-6.68,0-12.94-1.04-18.83-3.14-.83-.27-1.62-.56-2.34-.85-.08-.05-.19-.08-.27-.13-1.52-.61-2.8-1.17-3.89-1.76-.91-.48-1.7-.91-2.4-1.33h-.03s-.03-.03-.05-.03c-.03-.03-.03-.05-.05-.05h-.03c-.61-.4-1.14-.77-1.62-1.12-.93-.69-1.57-1.28-2.16-1.84-2.29-2.1-10.65-11.53-9.77-19.14.08-.8.27-1.54.56-2.29,1.22-3.04,3.75-4.34,8.15-6.44,3.94-1.86,8.84-4.21,13.26-9.13,2.13-2.37,3.86-5.59,5.27-9.85l.08-.24c.03-.13.08-.27.08-.29.11-.27.13-.56.13-.85,1.14-3.67,2.02-7.59,2.61-11.66.37-2.32.61-4.61.75-6.98,10.09,1.89,20.45,2.85,30.75,2.85h1.57c10.49,0,20.98-.96,31.1-2.9.32,5.35,1.28,12.41,3.2,18.4-.05.32-.03.61.05.93.05.19.11.37.19.61.03.08.05.16.08.21,1.38,4.18,3.17,7.48,5.25,9.83,4.42,4.98,9.32,7.32,13.26,9.19Z"/>
    <path class="cls-8" d="m1507.98,745.1c-1.28-.32-2.61-.67-3.94-1.04,1.33.35,2.64.69,3.94,1.04Z"/>
    <path class="cls-8" d="m1567.31,630.69c-15.39,6.84-47.77,15.18-70.72,18.24-1.44.19-2.8-.83-2.98-2.29-.19-1.46.83-2.8,2.29-2.98,22.13-2.96,54.48-11.29,69.23-17.84,3.89-1.7,7.38-3.59,10.54-5.64.64-.4,1.25-.8,1.86-1.25h.03c.61-.43,1.2-.85,1.78-1.3.59-.43,1.14-.88,1.68-1.33.08-.05.13-.11.21-.16.93-.8,2.29-.83,3.28-.11.99.72,1.36,2.02.91,3.14-.05.11-.11.29-.16.51-.13.13-.27.24-.4.35l-.21.21c-1.54,1.28-3.14,2.48-4.85,3.62-2.42,1.65-5.03,3.17-7.83,4.61-.67.35-1.33.69-2.02,1.01-.85.43-1.73.83-2.64,1.22Z"/>
    <path class="cls-10" d="m1502.47,434.21v.03h-.03s.03,0,.03-.03Z"/>
    <path class="cls-8" d="m1502.42,434.13s-.03.03-.03.03l.03-.03Z"/>
    <path class="cls-8" d="m1493.18,182.58c-.43.05-.83.08-1.22.13.4-.05.8-.11,1.22-.13Z"/>
    <path class="cls-8" d="m1519.38,458.2c-8.04,4.5-16.75,6.58-25.99,8.76l-2.64.61c-.21.05-.43.08-.61.08-1.22,0-2.32-.83-2.61-2.05-.32-1.44.56-2.88,1.97-3.2l2.66-.64c9.24-2.18,17.23-4.07,24.6-8.23,11.72-6.58,21.35-15.1,27.83-24.6-.45.67-.59,1.46-.37,2.21.21.77.75,1.38,1.44,1.73.64.29,1.3.61,1.97.99-6.87,9.4-16.62,17.79-28.25,24.34Z"/>
    <path class="cls-8" d="m1487.66,183.75c.85-.29,1.78-.51,2.74-.69-.99.19-1.89.4-2.74.69Z"/>
    <path class="cls-8" d="m1485.51,361.51c1.2-.27,2.4-.56,3.57-.88-1.2.32-2.37.61-3.57.88Z"/>
    <path class="cls-8" d="m1488.04,724.57c.59-.11,1.14-.24,1.68-.32-.53.08-1.09.21-1.68.32Z"/>
    <path class="cls-8" d="m1490.81,718.58c-2.69.53-5.25,1.04-7.67,1.54,2.42-.51,4.98-1.01,7.67-1.54Z"/>
    <path class="cls-8" d="m1502.28,396.74c4.53,2.16,8.81,4.21,10.89,9.4.88,2.18,1.2,4.58.93,7.14.16-2.32-.16-4.53-.99-6.58-2.08-5.19-6.36-7.24-10.89-9.4-3.83-1.84-7.83-3.73-11.5-7.88-1.22-1.38-2.34-3.28-3.33-5.67.11,0,.19-.03.29-.03.91,2.16,1.97,3.86,3.09,5.14,3.67,4.15,7.67,6.04,11.5,7.88Z"/>
    <path class="cls-8" d="m1490.73,389.42c3.67,4.15,7.67,6.04,11.5,7.88,4.53,2.16,8.81,4.21,10.89,9.4.83,2.05,1.14,4.26.99,6.58v.08c0,.05-.03.11-.03.16-.03.16-.08.32-.13.48.03-.16.03-.29.05-.45l.03-.27c.16-2.32-.19-4.5-.99-6.55-2.08-5.14-6.34-7.19-10.84-9.32-3.86-1.86-7.85-3.75-11.56-7.91-1.22-1.41-2.34-3.33-3.33-5.72.03,0,.05,0,.08-.03.99,2.4,2.1,4.29,3.33,5.67Z"/>
    <path class="cls-8" d="m1487.27,183.75l-.03.03s0-.03.03-.03Z"/>
    <path class="cls-8" d="m1487.13,724.76c-.29.05-.61.11-.93.19.32-.08.64-.13.93-.19Z"/>
    <path class="cls-8" d="m1486.71,381.19c.32.91.64,1.76.99,2.53-.11,0-.19.03-.29.03-.24-.56-.45-1.17-.67-1.78.03-.29,0-.56-.05-.8h.03v.03Z"/>
    <path class="cls-8" d="m1486.6,380.82c.05.11.08.24.11.35h-.03c-.03-.11-.05-.24-.08-.35Z"/>
    <path class="cls-8" d="m1486.6,380.82l-.16-.45c.08.13.13.29.16.45Z"/>
    <path class="cls-8" d="m1485.93,378.64c.13.56.29,1.09.45,1.6-.16-.29-.4-.56-.67-.77-.43-.29-.88-.48-1.36-.53.53-.13,1.07-.24,1.57-.29Z"/>
    <path class="cls-8" d="m1488.68,391.26c8.41,9.51,18.67,8.41,21.89,16.46.69,1.73.93,3.51.8,5.35,0,.11-.03.24-.03.37-.08.77-.21,1.57-.43,2.34-1.22-.19-2.16-1.2-2.26-2.4.03-.05.03-.13.03-.19l.03-.27c.11-1.54-.08-2.9-.61-4.21-1.28-3.25-4.18-4.61-8.17-6.52-3.94-1.86-8.84-4.21-13.23-9.16-2.08-2.34-3.83-5.62-5.25-9.8-.03-.08-.05-.13-.05-.21-.08-.24-.13-.43-.19-.59-.35-1.36.43-2.77,1.76-3.2l.43-.11c.32-.08.67-.16.99-.21.48.05.93.24,1.36.53.27.21.51.48.67.77.03.03.05.08.05.13l.16.45c.03.11.05.24.08.35-.88.16-1.78.35-2.69.56-.08.03-.13.03-.21.05.05.21.13.4.19.59v.03c1.17,3.49,2.72,6.63,4.71,8.87Z"/>
    <path class="cls-8" d="m1510.56,407.71c-3.22-8.04-13.47-6.95-21.89-16.46-2-2.24-3.54-5.38-4.71-8.87v-.03c-.05-.19-.13-.37-.19-.59.08-.03.13-.03.21-.05.91-.21,1.81-.4,2.69-.56.05.24.08.51.05.8.21.61.43,1.22.67,1.78-.03.03-.05.03-.08.03.99,2.4,2.1,4.31,3.33,5.72,3.7,4.15,7.7,6.04,11.56,7.91,4.5,2.13,8.76,4.18,10.84,9.32.8,2.05,1.14,4.23.99,6.55l-.03.27c-.03.16-.03.29-.05.45-.4,1.09-1.41,1.84-2.58,1.84h-.24c-.08,0-.13-.03-.21-.05.21-.77.35-1.57.43-2.34,0-.13.03-.27.03-.37.13-1.84-.11-3.62-.8-5.35Z"/>
    <path class="cls-8" d="m1483.38,186.28c-.29.27-.56.59-.8.91.24-.32.53-.64.8-.91Z"/>
    <path class="cls-8" d="m1480.66,357.15c3.7-.77,7.4-1.7,11.02-2.74.37-.11.77-.13,1.14-.08,3.7.56,7.19,1.2,10.46,1.92-3.35,1.2-6.74,2.29-10.14,3.28l-.56.16c-1.17.32-2.34.67-3.51.96-1.17.32-2.37.61-3.57.88-.72.19-1.46.35-2.21.51-.05-.72-.08-1.41-.08-2.05,0-.72-.43-1.54-.93-2.05-.45-.45-1.01-.69-1.62-.77Z"/>
    <path class="cls-8" d="m1477.84,363.11c.16-.03.35-.05.51-.08,1.65-.29,3.3-.64,4.95-1.01.24,4.66,1.01,11.02,2.64,16.62-.51.05-1.04.16-1.57.29-.35-.03-.67.03-1.01.13-.11.03-.32.05-.43.11-1.07.35-1.81,1.3-1.89,2.34-1.92-5.99-2.88-13.05-3.2-18.4Z"/>
    <path class="cls-8" d="m1482.47,187.21c.03-.05.05-.11.11-.16-.05.05-.08.11-.11.16Z"/>
    <path class="cls-8" d="m1499.91,402.2c3.99,1.92,6.9,3.28,8.17,6.52.53,1.3.72,2.66.61,4.21l-.03.27c0,.05,0,.13-.03.19-.03-.13-.05-.29-.03-.45v-.05c.11-1.49-.11-2.85-.61-4.13-1.22-3.04-3.75-4.37-8.15-6.47-3.94-1.86-8.84-4.21-13.26-9.19-2.08-2.34-3.86-5.64-5.25-9.83-.03-.05-.05-.13-.08-.21-.08-.24-.13-.43-.19-.61-.08-.32-.11-.61-.05-.93.08-1.04.83-2,1.89-2.34.11-.05.32-.08.43-.11.35-.11.67-.16,1.01-.13-.32.05-.67.13-.99.21l-.43.11c-1.33.43-2.1,1.84-1.76,3.2.05.16.11.35.19.59,0,.08.03.13.05.21,1.41,4.18,3.17,7.46,5.25,9.8,4.39,4.95,9.29,7.3,13.23,9.16Z"/>
    <path class="cls-8" d="m1486.63,209.45c7.08,8.55,18.19,14.03,28.94,14.3h.61c14.22,0,29.96-11.53,35.87-22.53,1.44-2.66,2.24-5.17,2.42-7.4-.16,2.29-.96,4.85-2.42,7.54-5.91,11-21.65,22.55-35.87,22.55h-.61c-10.76-.27-21.86-5.75-28.94-14.3-3.59-4.34-5.72-9-6.15-13.31.48,4.29,2.61,8.89,6.15,13.15Z"/>
    <path class="cls-8" d="m1506.2,182.63c-2.56-.05-4.95-.13-7.19-.13-3.25,0-6.12.13-8.6.56-.96.19-1.89.4-2.74.69-1.68.56-3.12,1.36-4.29,2.53-.27.27-.56.59-.8.91-.99,1.33-1.68,2.98-2.02,5.11-.05.37-.11.77-.13,1.17,0-.45.05-.91.13-1.33.35-2.02.99-3.65,1.92-4.93.03-.05.05-.11.11-.16,1.14-1.54,2.72-2.58,4.66-3.28l.03-.03c1.38-.51,2.96-.83,4.69-1.04.4-.05.8-.08,1.22-.13,1.78-.16,3.73-.21,5.83-.21,2.24,0,4.63.05,7.19.11,2.88.08,5.86.19,8.97.16,5.06,0,9.67-.32,13.74-.59,3.41-.24,6.5-.45,9.27-.45l9.77,1.76c.27.11.53.24.77.4.29.16.56.32.83.53l1.52,1.22c.21.16.4.37.59.59.05.03.08.08.13.13l1.22,1.54c.77,1.12,1.25,2.4,1.41,3.81-.19-1.36-.67-2.61-1.41-3.67-3.46-4.95-8.28-6.18-14.88-6.18-2.74,0-5.8.21-9.21.45-4.07.29-8.68.61-13.74.61h-.11c-3.12,0-6.04-.08-8.87-.16Z"/>
    <path class="cls-8" d="m1486.63,209.61c7.08,8.55,18.19,14.03,28.94,14.3h.61c14.22,0,29.96-11.56,35.87-22.55,1.46-2.69,2.26-5.25,2.42-7.54.05-.8.05-1.54-.05-2.24-.16-1.41-.64-2.69-1.41-3.81l-1.22-1.54-.13-.13c-.19-.21-.37-.4-.59-.59l-1.52-1.22-.83-.53-.77-.4-9.77-1.76c-2.77,0-5.86.21-9.27.45-4.07.27-8.68.59-13.74.59-3.12.03-6.1-.08-8.97-.16-2.56-.05-4.95-.11-7.19-.11-2.1,0-4.05.05-5.83.21-.43.03-.83.08-1.22.13-1.73.21-3.3.53-4.69,1.04-.03,0-.03.03-.03.03-1.94.69-3.51,1.73-4.66,3.28-.05.05-.08.11-.11.16-.93,1.28-1.57,2.9-1.92,4.93-.08.43-.13.88-.13,1.33-.08.91-.05,1.86.05,2.82.43,4.31,2.56,8.97,6.15,13.31Zm-6.66-17.55c2.13-12.86,15.87-10.04,35.09-10.01,19.22.03,31.5-4.55,38.42,5.38,8.12,11.74-16.19,37.41-37.92,36.9-20.4-.51-37.84-18.61-35.6-32.27Z"/>
    <path class="cls-8" d="m1479.86,726.25l-1.12.24,1.12-.24Z"/>
    <path class="cls-8" d="m1515.54,224.92c-11.1-.27-22.53-5.91-29.82-14.72-3.7-4.45-5.91-9.29-6.42-13.79-.11-1.04-.13-2.05-.05-3.04.05-.43.08-.85.16-1.25,1.86-11.29,12.33-11.02,26.81-10.65,2.82.08,5.75.16,8.84.16h.11c5.01,0,9.61-.32,13.66-.59,11.53-.8,19.84-1.38,25.14,6.2.21.32.43.64,1.6,4.18l.08.8.03.64c0,.35-.03.69-.05,1.01-.19,2.42-1.04,5.09-2.53,7.88-6.07,11.26-21.78,23.17-36.88,23.17h-.67Zm-.48-42.87c-19.22-.03-32.96-2.85-35.09,10.01-2.24,13.66,15.2,31.77,35.6,32.27,21.73.51,46.04-25.16,37.92-36.9-6.92-9.93-19.2-5.35-38.42-5.38Z"/>
    <path class="cls-8" d="m1476.61,721.48c1.38-.32,2.85-.61,4.34-.91-1.49.32-2.96.61-4.34.91Z"/>
    <path class="cls-8" d="m1485.72,210.19c7.3,8.81,18.72,14.46,29.82,14.72h.67c15.1,0,30.81-11.9,36.88-23.17,1.49-2.8,2.34-5.46,2.53-7.88-.13,2.48-.99,5.19-2.53,8.04-6.07,11.24-21.78,23.17-36.88,23.17-.21,0-.43-.03-.67-.03-11.1-.27-22.53-5.88-29.82-14.7-3.73-4.53-5.96-9.4-6.42-13.95.51,4.5,2.72,9.35,6.42,13.79Z"/>
    <path class="cls-8" d="m1479.41,191.95c1.86-11.29,12.33-11.02,26.81-10.62,2.82.05,5.75.13,8.84.13,5.01,0,9.67-.32,13.77-.59,11.53-.8,19.84-1.36,25.14,6.23.29.43.56.88,1.6,4.31-1.17-3.54-1.38-3.86-1.6-4.18-5.3-7.59-13.61-7-25.14-6.2-4.05.27-8.65.59-13.66.59h-.11c-3.09,0-6.02-.08-8.84-.16-14.49-.37-24.95-.64-26.81,10.65-.08.4-.11.83-.16,1.25.03-.48.08-.96.16-1.41Z"/>
    <path class="cls-8" d="m1480.9,650.15c-2.42,0-4.5-.13-6.28-.4.35-.45.67-.93.99-1.41.77-1.2,1.46-2.4,2.05-3.62,3.59.24,9.32.08,18.24-1.07-1.46.19-2.48,1.52-2.29,2.98.19,1.46,1.54,2.48,2.98,2.29-6.18.8-11.42,1.22-15.68,1.22Z"/>
    <path class="cls-8" d="m1474.67,735.76c.96.27,1.89.56,2.85.83-.96-.27-1.92-.53-2.85-.83Z"/>
    <path class="cls-8" d="m1476.19,721.56c-1.09.24-2.13.48-3.14.69,1.04-.24,2.08-.45,3.14-.69Z"/>
    <path class="cls-8" d="m1476.16,322.51c0,2.98-.35,6.07-2.9,8.33-3.89,3.51-12.33,4.5-25.77,3.04-19.89-2.13-29.53-5.88-29.53-11.42,0-6.76,21.91-14.3,36.77-14.3h.05c14.7.03,21.38,7.46,21.38,14.35Z"/>
    <path class="cls-8" d="m1471.79,728.01c1.38-.32,2.77-.64,4.13-.93-1.36.32-2.74.61-4.13.93Z"/>
    <path class="cls-8" d="m1472.67,608.13c3.49,1.84,6.23,5.96,7.67,11.58,1.68,6.5,1.7,16.08-2.69,25h-.19c4.39-8.89,4.39-18.48,2.72-24.95-1.44-5.59-4.15-9.67-7.59-11.48-1.22-.64-2.74-1.12-4.31-1.54.03-.05.05-.08.11-.13,1.54.4,3.06.88,4.29,1.52Z"/>
    <path class="cls-8" d="m1508.75,584.41c-4.53,2.18-8.65,4.13-12.35,5.86l-1.97.93c-14.59,6.87-22.5,10.57-26.04,15.42-.53-.16-1.04-.27-1.54-.4-.48-.13-.96-.27-1.44-.4,3.06-1.62,7.27-4.07,8.47-8.41.16-.59.29-1.33.4-2.16v-.03c4.53-2.56,10.38-5.3,17.89-8.84l1.97-.93c3.67-1.73,7.78-3.65,12.3-5.83,26.89-12.99,28.09-32.51,28.12-34.69.08-2.66-3.35-6.66-8.73-10.2-1.25-.8-1.57-2.45-.77-3.67.8-1.25,2.45-1.57,3.67-.77,4.26,2.8,11.34,8.41,11.16,14.78-.05,2.5-1.38,24.98-31.13,39.35Z"/>
    <path class="cls-12" d="m1461.17,592.05c.56-.24,1.33-.64,2.18-1.12.99-.53,3.99-2.16,4.74-1.92.69.72.96,4.39.29,6.9-.61,2.24-3.83,3.94-6.18,5.19-2.66,1.41-5.7,3.01-4.77,6.12.75,2.56,3.75,3.35,6.18,3.99.59.16,1.2.32,1.81.48,1.68.43,3.57.91,4.58,1.44,1.52.8,2.9,2.69,3.94,5.22.35.85.64,1.78.91,2.77,1.6,6.23,1.38,15.82-4.02,24.1-1.33,2.05-2.9,3.89-4.69,5.51-11.9,10.81-33.6,11.1-44.63.64-.69-.67-1.33-1.38-1.92-2.13,2.29-.72,4.69-2.05,5.43-4.69.72-2.58,1.49-4.98,2.21-7.27,2.74-8.6,5.14-16.03,3.33-26.2-.08-.45-.19-.91-.32-1.36-.51-2.21-1.36-4.15-2.56-5.94.83-.69,1.65-1.36,2.53-1.97,3.38-2.42,5.94-2.9,10.2-3.7,4.5-.88,10.65-2.05,20.74-6.07Z"/>
    <path class="cls-8" d="m1463.78,724.41c1.81-.45,3.81-.93,5.94-1.41-2.13.48-4.1.96-5.94,1.41Z"/>
    <path class="cls-8" d="m1461.86,607.55c1.92-5.03,5.7-8.47,12.41-12.3-.11.83-.24,1.57-.4,2.16-1.2,4.34-5.41,6.79-8.47,8.41.48.13.96.27,1.44.4.51.13,1.01.24,1.54.4-.05.05-.08.08-.11.13,1.57.43,3.09.91,4.31,1.54,3.43,1.81,6.15,5.88,7.59,11.48,1.68,6.47,1.68,16.06-2.72,24.95h.19c-.59,1.22-1.28,2.42-2.05,3.62-.32.48-.64.96-.99,1.41-.72-.11-1.41-.24-2.02-.4-.85-.19-1.52-.8-1.84-1.6s-.24-1.7.24-2.42c5.43-8.33,5.64-17.97,4.02-24.23-.27-1.01-.56-1.94-.93-2.8-1.04-2.58-2.45-4.5-3.99-5.3-1.01-.56-2.93-1.04-4.61-1.46-.61-.16-1.22-.32-1.84-.48-.72-.21-1.3-.69-1.65-1.36-.35-.67-.37-1.46-.13-2.16Z"/>
    <path class="cls-8" d="m1462.93,730.14c.67-.19,1.36-.37,2.05-.53-.69.19-1.38.35-2.05.53Z"/>
    <path class="cls-8" d="m1463.78,724.41c-.91.24-1.76.45-2.61.67.83-.21,1.7-.45,2.61-.67Z"/>
    <path class="cls-8" d="m1463.62,471.4c-.43.08-.85.11-1.28.13.43-.03.85-.08,1.28-.13Z"/>
    <path class="cls-8" d="m1462.87,730.14c-.45.13-.88.24-1.28.35.4-.13.85-.24,1.28-.35Z"/>
    <path class="cls-8" d="m1458.35,360.29c2.24-.16,4.45-.37,6.66-.61-2.21.27-4.42.48-6.66.61Z"/>
    <path class="cls-8" d="m1460.56,471.64c.45,0,.93-.03,1.41-.08-.45.05-.93.08-1.41.08Z"/>
    <path class="cls-8" d="m1459.81,470.53s.03-.05.03-.05c3.43.05,7.08-.72,9.88-2.69.88-.67,1.46-1.54,1.41-2.26-1.09-2.72-5.17-3.94-9.56-4.15-.11-.29-.27-.56-.48-.83.24.03.45.03.67.05,2.8.21,5.25.85,7,1.73s2.82,2,2.82,3.17c0,2.4-4.74,5.01-11.77,5.03Z"/>
    <path class="cls-8" d="m1459.15,731.18c.59.19,1.2.37,1.81.56-.64-.19-1.22-.37-1.84-.56h.03Z"/>
    <path class="cls-8" d="m1459.84,460.49c.05-.51.83-.72,1.09-.21.05.08.13.16.16.27-.4-.03-.8-.05-1.25-.05Z"/>
    <path class="cls-8" d="m1461.57,461.37c-.59-.03-1.2-.03-1.78,0,.03-.24.03-.51.03-.77,0-.03,0-.08.03-.11.45,0,.85.03,1.25.05.21.27.37.53.48.83Z"/>
    <path class="cls-8" d="m1461.17,725.08c-.83.24-1.62.45-2.37.67.75-.21,1.52-.45,2.37-.67Z"/>
    <path class="cls-8" d="m1459.65,470.47h.19s-.03.03-.03.05h-.16c-.13,0-.24,0-.37-.03.13,0,.24-.03.37-.03Z"/>
    <path class="cls-8" d="m1459.68,471.67c.24,0,.48,0,.69-.03-.24.03-.48.05-.72.05h-.24c.08,0,.19-.03.27-.03Z"/>
    <path class="cls-8" d="m1459.07,470.5c-1.2-.05-3.14-.37-5.03-.93,1.6-2.1,2.77-2.8,3.81-4.26,1.01-1.36,1.81-2.26,1.94-3.94.59-.03,1.2-.03,1.78,0,1.25,2.82-.27,6.28-1.73,9.11h-.19c-.13,0-.24.03-.37.03h-.21Z"/>
    <path class="cls-8" d="m1459.31,471.7h-.13l.03-.03c.05.03.08.03.11.03Z"/>
    <path class="cls-8" d="m1458.77,471.67c.13.03.29.03.43,0l-.03.03c-.13,0-.27-.03-.4-.03Z"/>
    <path class="cls-8" d="m1460.8,492.36c.8-5.59-5.19-8.65-7.32-14.03-.85-2.21-1.22-4.87-.32-7.19,1.89.4,3.83.51,5.51.53.03.03.05.03.11,0,.13,0,.27.03.4.03-.16.29-.32.59-.45.85-.13.56-.08.67.05,1.33,1.09,4.53,5.86,7.03,7.24,12.09,2.56,7.11-3.04,14.46-8.65,17.44-.29.19-.67.08-.83-.21-.11-.19-.11-.43,0-.61,2-3.54,3.91-7.06,4.26-10.22Z"/>
    <path class="cls-8" d="m1458.35,360.29c-2.56.21-5.14.32-7.72.35,2.58-.05,5.17-.16,7.72-.35Z"/>
    <path class="cls-8" d="m1458.67,471.67c-1.68-.03-3.62-.13-5.51-.53l.08-.24c1.17.29,2.45.53,3.83.67l1.04.05c.19,0,.37.03.56.05Z"/>
    <path class="cls-8" d="m1453.85,469.83c1.01.27,2.13.45,3.33.56l1.01.08c.29.03.59.03.88.03h.21c.13.03.24.03.37.03h.16c-.21.4-.43.77-.61,1.14-.13.03-.29.03-.43,0-.05.03-.08.03-.11,0-.19-.03-.37-.05-.56-.05l-1.04-.05c-1.38-.13-2.66-.37-3.83-.67.16-.35.35-.69.56-1.01l.05-.05Z"/>
    <path class="cls-8" d="m1457.18,470.39c-1.2-.11-2.32-.29-3.33-.56.05-.11.13-.19.19-.27,1.89.56,3.83.88,5.03.93-.29,0-.59,0-.88-.03l-1.01-.08Z"/>
    <path class="cls-8" d="m1497.84,717.14c3.62-1.07,7.75-2.05,11.74-3.01,1.65-.4,3.33-.8,4.95-1.17,1.54-.37,3.04-.77,4.47-1.17h.05c.75-.21,1.44-.4,2.13-.61l1.04-.32c1.7-.53,3.25-1.09,4.55-1.68-.11.11-.21.19-.32.29-1.36,1.25-1.92,3.25-1.62,6.12v.03c-.35.11-.72.24-1.09.35-.67.21-1.38.43-2.1.61-.35.11-.69.21-1.04.29-3.06.85-6.39,1.62-9.8,2.45-3.91.93-7.99,1.89-11.48,2.93-.83.24-3.01.67-7.48,1.57-.61.13-1.33.27-2.13.43-.53.08-1.09.21-1.68.32-.29.05-.59.13-.91.19-.29.05-.61.11-.93.19-1.92.4-4.07.83-6.34,1.3l-1.12.24c-.93.19-1.86.4-2.82.59-1.36.29-2.74.61-4.13.93-2.34.53-4.66,1.07-6.82,1.6-.69.16-1.38.35-2.05.53h-.05c-.43.11-.88.21-1.28.35-.88.24-1.7.45-2.45.69h-.05c-1.68-.48-3.3-.96-4.79-1.41l-2.42-.72c-.29-.08-.69-.16-1.14-.27.48-.29,1.04-.56,1.7-.85.32-.13.64-.27.99-.4,1.46-.59,3.25-1.17,5.38-1.78.75-.21,1.54-.43,2.37-.67.85-.21,1.7-.43,2.61-.67,1.84-.45,3.81-.93,5.94-1.41,1.07-.27,2.18-.51,3.33-.75,1.01-.21,2.05-.45,3.14-.69.13-.03.29-.05.43-.08,1.38-.29,2.85-.59,4.34-.91.72-.16,1.44-.32,2.18-.45,2.42-.51,4.98-1.01,7.67-1.54,3.43-.67,6.39-1.25,7.03-1.44Z"/>
    <path class="cls-8" d="m1452.44,727.93c.32-.13.64-.27.99-.4-.35.13-.67.27-.99.4Z"/>
    <path class="cls-8" d="m1497.06,814.81c20.21,3.43,35.55,3.38,45.75,3.35,15.31-.03,25.91-1.17,35.23-2.18l1.65-.19c12.62-1.38,19.57-2.16,23.06-4.42,11.9-7.64,20.16-24.84,20.05-41.8-.03-6.07-1.17-10.33-3.01-17.36-3.33-12.51-8.41-24.68-15.07-36.27.16-.45.32-.88.48-1.28.77-1.92,1.25-3.89,1.38-5.86.11.08.19.21.27.32,8.15,13.21,14.22,27.24,18.08,41.72,1.89,7.19,3.14,11.93,3.2,18.69v.32c0,18.59-9.21,37.49-22.47,46.01-4.55,2.93-11.5,3.67-25.38,5.22l-1.65.16c-9,.99-20.21,2.21-35.81,2.24h-2.37c-12.51,0-26.36-.37-44.28-3.43-13.66-2.34-27.37-5.88-39.65-10.22-5.14-1.81-8.2-3.12-11.05-4.45.4-.19.77-.37,1.14-.56.96-.43,1.54-1.38,1.52-2.42,0-1.04-.61-1.97-1.57-2.4,2.58,1.25,5.57,2.61,11.74,4.82,11.98,4.23,25.4,7.7,38.77,9.99Z"/>
    <path class="cls-8" d="m1450.47,734.16c-.91-.27-1.6-.99-1.81-1.92s.08-1.92.77-2.56c.32-.29.75-.61,1.28-.91h.03c.45.11.85.19,1.14.27l2.42.72c1.49.45,3.12.93,4.79,1.41-3.06.91-5.27,1.73-6.02,2.4-.51.45-1.2.72-1.86.72-.19,0-.4-.03-.59-.08-.05,0-.08-.03-.13-.03l-.03-.03Z"/>
    <path class="cls-8" d="m1536.92,756.61c-10.06,0-48.7-11.24-84.14-21.75l-2.16-.64c.19.05.4.08.59.08.67,0,1.36-.27,1.86-.72.75-.67,2.96-1.49,6.02-2.4h.03c.61.19,1.2.37,1.84.56,4.18,1.22,8.84,2.61,13.71,4.02.93.29,1.89.56,2.85.83,8.65,2.53,17.92,5.17,26.52,7.48,1.33.37,2.66.72,3.94,1.04,4.15,1.12,8.09,2.13,11.69,2.98,1.14.29,2.26.56,3.33.8,4.93,1.14,9,1.94,11.77,2.26.61.05,1.17.11,1.65.11.19.03.35.03.51.03,1.78,0,3.54-.03,5.25-.08,1.49-.05,2.93-.11,4.37-.19.21,0,.4-.03.61-.03,2.26,1.68,4.63,3.12,7.11,4.23.11.08.24.13.35.19h.03c.16.08.32.13.51.16.16.05.35.08.53.08-5.8.61-11.93.93-18.75.96Z"/>
    <path class="cls-8" d="m1450.49,734.19c-.05,0-.11-.03-.19-.05.05.03.11.03.16.03l.03.03Z"/>
    <path class="cls-8" d="m1450.23,728.67c-.16-.03-.35-.08-.53-.11.19.03.37.08.53.11Z"/>
    <path class="cls-8" d="m1449.48,733.95c-.19-.03-.37-.08-.56-.11.21.03.4.08.56.11Z"/>
    <path class="cls-8" d="m1453.85,469.83c-3.62-.88-6.07-2.56-6.07-4.34.03-2.72,5.43-5.01,11.88-5.01h.19s-.03.08-.03.11c0,.27,0,.53-.03.77-3.99.05-7.93.93-9.88,2.24-3.62,2.61.16,4.79,4.13,5.96-.05.08-.13.16-.19.27Z"/>
    <path class="cls-8" d="m1448.92,733.84c-.51-.11-1.09-.24-1.76-.37.64.13,1.25.24,1.76.37Z"/>
    <path class="cls-8" d="m1453.24,470.9c-4.02-1.07-6.6-3.09-6.6-5.41,0-3.46,5.72-6.15,13.02-6.15.8,0,1.54.03,2.21.08,6.39.51,10.89,3.01,10.89,6.07-.03,1.76-1.46,3.3-3.81,4.39-1.46.69-3.28,1.22-5.33,1.52-.43.05-.85.11-1.28.13-.13.03-.24.03-.37.03-.48.05-.96.08-1.41.08-.08.03-.13.03-.19,0-.21.03-.45.03-.69.03-.08,0-.19.03-.27.03h-.11s-.05,0-.11-.03c.19-.37.4-.75.61-1.14,7.03-.03,11.77-2.64,11.77-5.03,0-1.17-1.07-2.29-2.82-3.17s-4.21-1.52-7-1.73c-.21-.03-.43-.03-.67-.05-.03-.11-.11-.19-.16-.27-.27-.51-1.04-.29-1.09.21h-.19c-6.44,0-11.85,2.29-11.88,5.01,0,1.78,2.45,3.46,6.07,4.34l-.05.05c-.21.32-.4.67-.56,1.01Z"/>
    <path class="cls-8" d="m1454.89,274.68c-5.86.59-17.15.21-18.85-7.19-.61-2.64,2.4-5.59,4.95-3.81,2.4,1.68,3.7,3.25,6.74,3.89,2.8.56,5.86.56,8.73.45,2.88-.11,6.6-.61,7.38-3.94.8-3.54-1.97-6.92-4.18-9.29-4.85-5.22-9.13-10.46-12.04-17.04-2.82-6.39-4.53-13.34-4.34-20.34.05-2.42,3.46-2.34,3.67,0,.91,9,3.46,17.55,8.65,25.08,4.45,6.44,13.18,11.42,13.87,19.86.72,8.68-7.46,11.61-14.59,12.33Z"/>
    <path class="cls-8" d="m1446.63,465.49c0,2.32,2.58,4.34,6.6,5.41l-.08.24c-3.12-.59-6.02-1.92-6.92-4.74v-.03c.05-.29.08-.59.08-.88-.03-.29-.08-.59-.16-.85,2.26-7.96,19.52-7.35,24.76-3.04,2.98,2,2.96,5.75-.19,7.59-2.18,1.38-4.61,1.94-7.11,2.21,2.05-.29,3.86-.83,5.33-1.52,2.34-1.09,3.78-2.64,3.81-4.39,0-3.06-4.5-5.57-10.89-6.07-.67-.05-1.41-.08-2.21-.08-7.3,0-13.02,2.69-13.02,6.15Z"/>
    <path class="cls-8" d="m1446.31,465.49c0,.29-.03.59-.08.88-.11-.29-.19-.59-.24-.91.05-.29.11-.56.16-.83.08.27.13.56.16.85Z"/>
    <path class="cls-8" d="m1445.27,365.56h1.49c10.49,0,20.93-.83,31.07-2.48v.03c-10.12,1.94-20.61,2.9-31.1,2.9h-1.57c-10.3,0-20.66-.96-30.75-2.85v-.11c10.12,1.65,20.48,2.48,30.86,2.5Z"/>
    <path class="cls-8" d="m1442.61,727.08c.43.08.83.16,1.2.27-.4-.08-.8-.16-1.2-.27Z"/>
    <path class="cls-8" d="m1436.78,725.9c1.36.27,2.64.53,3.86.77-1.22-.24-2.5-.51-3.86-.77Z"/>
    <path class="cls-8" d="m1438.96,802.43l-4.34-1.97,4.34,1.97Z"/>
    <path class="cls-8" d="m1435.53,725.64c.43.11.85.19,1.25.27-.4-.08-.83-.16-1.25-.27Z"/>
    <path class="cls-8" d="m1436.51,460.01c0,.29,0,.59-.05.88-.45-.11-.93-.16-1.41-.24.11-.21.21-.45.29-.67.05-.16.13-.32.27-.43.27.05.53.08.8.13.08.11.11.21.11.32Z"/>
    <path class="cls-8" d="m1434.78,461.23c.11-.19.19-.37.27-.59.48.08.96.13,1.41.24,0,.24,0,.45-.05.67-.53-.13-1.07-.24-1.62-.32Z"/>
    <path class="cls-8" d="m1436.17,459.48c.11.05.19.13.24.21-.27-.05-.53-.08-.8-.13.16-.13.35-.16.56-.08Z"/>
    <path class="cls-8" d="m1442.4,465.47c-.61-1.81-2.98-3.14-5.99-3.91.05-.21.05-.43.05-.67,4.26.77,7.32,2.56,7.32,4.58,0,2.26-3.99,4.37-9.27,4.9.08-.35.16-.67.24-1.01,3.62-.67,6.74-2.02,7.64-3.89Z"/>
    <path class="cls-8" d="m1430.58,469.75c1.3-2.9,2.93-5.67,4.21-8.52.56.08,1.09.19,1.62.32-.11,1.25-.4,2.34-.64,3.51-.27,1.33-.64,2.8-1.01,4.29-1.33.24-2.77.4-4.18.4Z"/>
    <path class="cls-8" d="m1434.52,470.37c-.03.11-.05.24-.08.35l-.03-.24v-.11h.11Z"/>
    <path class="cls-8" d="m1434.41,470.47l.03.24-.03-.24Z"/>
    <path class="cls-8" d="m1434.25,471.54c.05-.27.11-.53.19-.8v-.03c.03-.11.05-.24.08-.35,5.27-.53,9.27-2.64,9.27-4.9,0-2.02-3.06-3.81-7.32-4.58.05-.29.05-.59.05-.88,0-.11-.03-.21-.11-.32,5.03.85,8.55,3.09,8.55,5.78-.03,3.01-4.31,5.49-10.44,6.07h-.27Z"/>
    <path class="cls-11" d="m1380.2,442.43c19.01,15.07,40.31,15.15,65.21,15.26,1.73.03,3.43.03,5.14.03,11.05,0,21.78-.24,31.98-2.26,10.22-2,19.92-5.8,28.89-12.91,13.53-10.73,31.53-32.8,22.18-46.41-10.12-14.8-27.77-21.25-47.66-17.49-1.62-5.59-2.4-11.96-2.64-16.62.75-.16,1.49-.32,2.21-.51,1.2-.27,2.37-.56,3.57-.88,1.17-.29,2.34-.64,3.51-.96,39.25,6.07,53.28,20.64,58.13,31.79,4.9,11.26,2.72,24.58-6.12,37.46-6.47,9.51-16.11,18.03-27.83,24.6-7.38,4.15-15.36,6.04-24.6,8.23l-2.66.64c-1.41.32-2.29,1.76-1.97,3.2.29,1.22,1.38,2.05,2.61,2.05.19,0,.4-.03.61-.08l2.64-.61c9.24-2.18,17.95-4.26,25.99-8.76,11.64-6.55,21.38-14.94,28.25-24.34,16.43,8.87,40.82,36.59,49.61,61.51,5.03,14.3,20.34,57.81,3.73,93.43-5.7,12.2-11.96,20.88-19.73,27.29-.08.05-.13.13-.21.19-.56.45-1.12.88-1.68,1.33-.59.43-1.17.88-1.78,1.3h-.03c-.61.43-1.22.85-1.86,1.25-3.17,2.05-6.66,3.94-10.54,5.64-14.75,6.55-47.1,14.88-69.23,17.84-8.92,1.14-14.64,1.3-18.24,1.07,4.39-8.92,4.37-18.51,2.69-25-1.44-5.62-4.18-9.75-7.67-11.58-1.22-.64-2.74-1.12-4.29-1.52,3.54-4.85,11.45-8.55,26.04-15.42l1.97-.93c3.7-1.73,7.83-3.67,12.35-5.86,29.74-14.38,31.07-36.85,31.13-39.35.19-6.36-6.9-11.98-11.16-14.78-1.22-.8-2.88-.48-3.67.77-.8,1.22-.48,2.88.77,3.67,5.38,3.54,8.81,7.54,8.73,10.2-.03,2.18-1.22,21.7-28.12,34.69-4.53,2.18-8.63,4.1-12.3,5.83l-1.97.93c-7.51,3.54-13.37,6.28-17.89,8.84.45-3.54.21-8.71-2.9-10.84-3.49-2.4-7.85,0-10.73,1.57-.61.35-1.17.67-1.57.83-9.59,3.83-15.2,4.9-19.7,5.75-4.47.85-8.04,1.54-12.43,4.66-1.12.77-2.16,1.62-3.17,2.53-4.79-4.07-12.28-7.62-24.55-13.42l-2.02-.93c-3.67-1.73-7.75-3.67-12.28-5.86-26.87-13.07-28.01-32.56-28.06-34.77-.08-2.64,3.38-6.63,8.79-10.17,1.22-.8,1.57-2.45.77-3.67-.83-1.22-2.48-1.57-3.7-.77-4.23,2.77-11.34,8.39-11.18,14.75.05,2.5,1.36,24.98,31.07,39.43,4.53,2.18,8.65,4.13,12.33,5.88l2,.93c12.49,5.88,20.29,9.59,24.39,13.58.11.27.27.53.48.75,1.73,1.89,2.72,3.94,3.2,6.66,1.54,8.76-.51,15.26-3.14,23.46-.75,2.37-1.54,4.82-2.26,7.43,0,0-.72.99-4.9,1.41-.29.03-.59.11-.85.24-4.39.32-10.62-.05-18.51-1.09-22.47-3.04-54.13-11.24-69.18-17.95-3.99-1.76-7.54-3.7-10.76-5.8-.61-.4-1.22-.83-1.81-1.25-1.14-.8-2.26-1.62-3.33-2.5-.05-.08-.13-.13-.21-.19v-.03h-.03c-7.75-6.44-13.98-15.15-19.65-27.32-16.54-35.65-1.14-79.14,3.91-93.41,8.84-24.92,33.28-52.59,49.71-61.43,6.87,9.4,16.59,17.81,28.2,24.36,8.04,4.55,16.77,6.63,25.99,8.81l2.64.64c.21.05.43.08.64.08,1.2,0,2.29-.83,2.58-2.05.35-1.44-.53-2.88-1.97-3.2l-2.64-.64c-9.24-2.21-17.23-4.1-24.6-8.28-11.69-6.58-21.27-15.07-27.72-24.55,0-.03-.03-.08-.05-.11-8.81-12.89-10.97-26.2-6.04-37.49,4.85-11.13,18.91-25.67,58.15-31.66,2.32.67,4.69,1.28,7.11,1.86.88.21,1.76.4,2.66.61-.11,2.48-.35,4.85-.72,7.24-.48,3.25-1.14,6.36-1.94,9.29-20-3.91-37.84,2.45-48.17,17.33-9.43,13.61,8.55,35.73,22.1,46.49Zm65.96,22.21c-1.54-6.39-15.12-7.22-22.58-3.99-.21.08-.4.16-.59.27-2.32.99-3.81,2.4-4.1,3.99v.03c-.05.08-.05.16-.08.24,0,.08,0,.16.03.24v.05c0,.72.24,1.38.72,2.02.03.03.03.08.05.11.08.11.16.21.27.32,1.73,2.26,5.54,3.73,9.69,4.31-.77,2.1-1.28,4.31-1.33,6.66.29,3.51,1.78,7.3,3.41,10.22,2.72,5.57-.96,9.48-3.73,14.72-6.12,9.43-1.94,22.21,6.18,28.94.45.45,1.22-.13.93-.69-2.69-5.88-4.95-11.88-4.23-17.31.67-6.52,5.75-10.14,7.67-16.91.8-2.88,1.17-6.26.03-9.19-1.7-3.73-4.07-6.47-4.95-10.36-.19-1.73.08-3.75.51-5.83,5.91-.13,11.45-2.05,12.2-6.1.91,2.82,3.81,4.15,6.92,4.74-.91,2.32-.53,4.98.32,7.19,2.13,5.38,8.12,8.44,7.32,14.03-.35,3.17-2.26,6.68-4.26,10.22-.11.19-.11.43,0,.61.16.29.53.4.83.21,5.62-2.98,11.21-10.33,8.65-17.44-1.38-5.06-6.15-7.56-7.24-12.09-.13-.67-.19-.77-.05-1.33.13-.27.29-.56.45-.85h.48c.24,0,.48-.03.72-.05.05.03.11.03.19,0,.48,0,.96-.03,1.41-.08.13,0,.24,0,.37-.03.43-.03.85-.05,1.28-.13,2.5-.27,4.93-.83,7.11-2.21,3.14-1.84,3.17-5.59.19-7.59-5.25-4.31-22.5-4.93-24.76,3.04Zm-45.93,98.84c0-.08-.03-.16-.08-.21-.03,0-.05-.03-.05-.05-.05-.03-.11-.03-.16-.03-.08,0-.16-.03-.27-.03h-.24c-.08,0-.19.03-.24.08-.05.08-.11.16-.11.24.03.11.05.19.11.24.08.05.16.11.24.11s.16,0,.24-.03h.27s.08-.03.11-.03c.05-.03.08-.05.11-.08.05-.05.08-.13.08-.21Z"/>
    <path class="cls-8" d="m1433.43,725.24c-1.12-.24-2.29-.48-3.46-.72,1.17.24,2.32.48,3.46.72Z"/>
    <path class="cls-8" d="m1430.26,470.45c.11-.24.21-.45.32-.69,1.41,0,2.85-.16,4.18-.4-.08.35-.16.67-.24,1.01h-.11v.11l-.03-.11c-.88.08-1.7.13-2.5.13-.56,0-1.09-.03-1.62-.05Z"/>
    <path class="cls-8" d="m1434.04,472.5c-1.49,0-3.01-.08-4.47-.27.08-.21.16-.43.24-.67.67.05,1.38.08,2.08.08.77,0,1.57-.03,2.37-.11-.08.32-.16.64-.21.96Z"/>
    <path class="cls-8" d="m1427.91,503.84c2.77-5.25,6.44-9.16,3.73-14.72-1.62-2.93-3.12-6.71-3.41-10.22.05-2.34.56-4.55,1.33-6.66,1.46.19,2.98.27,4.47.27-.43,2.08-.69,4.1-.51,5.83.88,3.89,3.25,6.63,4.95,10.36,1.14,2.93.77,6.31-.03,9.19-1.92,6.76-7,10.38-7.67,16.91-.72,5.43,1.54,11.42,4.23,17.31.29.56-.48,1.14-.93.69-8.12-6.74-12.3-19.52-6.18-28.94Z"/>
    <path class="cls-8" d="m1429.8,471.56c.16-.37.29-.75.45-1.12.53.03,1.07.05,1.62.05.8,0,1.62-.05,2.5-.13l.03.11.03.24v.03c-.08.27-.13.53-.19.8-.8.08-1.6.11-2.37.11-.69,0-1.41-.03-2.08-.08Z"/>
    <path class="cls-8" d="m1427.7,603.79c1.2,1.78,2.05,3.73,2.56,5.94l-.13.03c-.77-3.12-2.13-5.7-4.29-8.04-.64-.69-1.33-1.33-2.08-2,1.01-.91,2.05-1.76,3.17-2.53,4.39-3.12,7.96-3.81,12.43-4.66,4.5-.85,10.12-1.92,19.7-5.75.4-.16.96-.48,1.57-.83,2.88-1.57,7.24-3.97,10.73-1.57,3.12,2.13,3.35,7.3,2.9,10.84v.03c-6.71,3.83-10.49,7.27-12.41,12.3-.24.69-.21,1.49.13,2.16.35.67.93,1.14,1.65,1.36.61.16,1.22.32,1.84.48,1.68.43,3.59.91,4.61,1.46,1.54.8,2.96,2.72,3.99,5.3l-.13.05c-1.04-2.53-2.42-4.42-3.94-5.22-1.01-.53-2.9-1.01-4.58-1.44-.61-.16-1.22-.32-1.81-.48-2.42-.64-5.43-1.44-6.18-3.99-.93-3.12,2.1-4.71,4.77-6.12,2.34-1.25,5.57-2.96,6.18-5.19.67-2.5.4-6.18-.29-6.9-.75-.24-3.75,1.38-4.74,1.92-.85.48-1.62.88-2.18,1.12-10.09,4.02-16.24,5.19-20.74,6.07-4.26.8-6.82,1.28-10.2,3.7-.88.61-1.7,1.28-2.53,1.97Z"/>
    <path class="cls-8" d="m1431.91,460.46c1.09,0,2.13.08,3.14.19-.08.21-.16.4-.27.59-3.49-.61-7.48-.51-10.44.43,1.54-.56,3.43-.93,5.49-1.09.61-.08,1.28-.11,2.08-.11Z"/>
    <path class="cls-10" d="m1424.96,445.82l41.43.05h.45c7.08-.05,13.87-1.12,20.18-3.2,1.2-.4,2.37-.83,3.51-1.28,4.85-1.94,8.65-4.18,11.13-6.47.11-.08.21-.16.29-.24.19-.13.32-.27.48-.45h.03c.11-.11,10.65-10.04,11.61-20.72,0-.05.03-.11.03-.16v-.08c.27-2.56-.05-4.95-.93-7.14-2.08-5.19-6.36-7.24-10.89-9.4-3.83-1.84-7.83-3.73-11.5-7.88-1.12-1.28-2.18-2.98-3.09-5.14,17.39-3.04,32.75,2.61,41.51,15.42,1.17,1.68,1.68,3.65,1.68,5.78,0,10.46-12.35,25.19-22.77,33.44-17.87,14.17-38.61,14.09-62.95,14.01-10.22-.05-19.86-.08-28.92-1.25l.67-5.78c2.61.32,5.3.48,8.04.48Z"/>
    <path class="cls-8" d="m1423.57,460.65c7.46-3.22,21.04-2.4,22.58,3.99-.05.27-.11.53-.16.83.05.32.13.61.24.91v.03c-.75,4.05-6.28,5.96-12.2,6.1.05-.32.13-.64.21-.96h.27c6.12-.59,10.41-3.06,10.44-6.07,0-2.69-3.51-4.93-8.55-5.78-.05-.08-.13-.16-.24-.21-.21-.08-.4-.05-.56.08-1.17-.16-2.42-.24-3.7-.24-.83,0-1.52.03-2.18.08-2.34.19-4.45.61-6.15,1.25Z"/>
    <path class="cls-8" d="m1419.87,467.92c.67.77,1.68,1.46,2.96,2.02,1.92.88,4.34,1.44,6.98,1.62-.08.24-.16.45-.24.67-4.15-.59-7.96-2.05-9.69-4.31Z"/>
    <path class="cls-8" d="m1418.89,464.91c.29-1.6,1.78-3.01,4.1-3.99-2.1.99-3.62,2.34-4.1,3.99Z"/>
    <path class="cls-8" d="m1420.03,465.28c.53,3.3,5.46,4.63,10.54,4.47-.11.24-.21.45-.32.69-2.64-.19-5.06-.72-6.95-1.57-2.1-.93-3.33-2.18-3.33-3.41,0-.77.48-1.52,1.28-2.18-.61.56-1.04,1.22-1.22,2Z"/>
    <path class="cls-8" d="m1422.83,469.94c-1.28-.56-2.29-1.25-2.96-2.02-.11-.11-.19-.21-.27-.32-.03-.03-.03-.08-.05-.11-.4-.61-.64-1.28-.72-2.02v-.05c0-.16.03-.32.05-.48v-.03c.48-1.65,2-3.01,4.1-3.99.19-.11.37-.19.59-.27,1.7-.64,3.81-1.07,6.15-1.25.67-.05,1.36-.08,2.18-.08,1.28,0,2.53.08,3.7.24-.13.11-.21.27-.27.43-.08.21-.19.45-.29.67-1.01-.11-2.05-.19-3.14-.19-.8,0-1.46.03-2.08.11-2.05.16-3.94.53-5.49,1.09-.08.03-.19.05-.27.08-.45.16-.91.35-1.28.56-.61.27-1.12.61-1.54.99-.8.67-1.28,1.41-1.28,2.18,0,1.22,1.22,2.48,3.33,3.41,1.89.85,4.31,1.38,6.95,1.57-.16.37-.29.75-.45,1.12-2.64-.19-5.06-.75-6.98-1.62Z"/>
    <path class="cls-8" d="m1421.52,651.38c11.02,10.46,32.72,10.17,44.63-.64,1.78-1.62,3.35-3.46,4.69-5.51,5.41-8.28,5.62-17.87,4.02-24.1-.27-.99-.56-1.92-.91-2.77l.13-.05c.37.85.67,1.78.93,2.8,1.62,6.26,1.41,15.9-4.02,24.23-.48.72-.56,1.62-.24,2.42s.99,1.41,1.84,1.6c.61.16,1.3.29,2.02.4-2.13,2.72-3.35,4.02-4.66,5.19-7.19,6.52-17.17,9.8-26.97,9.8s-18.85-3.06-25.35-9.27c-1.73-1.62-3.17-3.41-4.34-5.49.67-.03,1.33-.08,1.94-.13,2.08-.21,8.36-.85,9.61-5.35.75-2.58,1.49-4.98,2.24-7.27,2.74-8.57,5.11-16,3.33-26.09-.08-.48-.19-.93-.29-1.38l.13-.03c.13.45.24.91.32,1.36,1.81,10.17-.59,17.6-3.33,26.2-.72,2.29-1.49,4.69-2.21,7.27-.75,2.64-3.14,3.97-5.43,4.69.59.75,1.22,1.46,1.92,2.13Z"/>
    <path class="cls-8" d="m1419.61,467.6c.08.11.16.21.27.32-.11-.11-.19-.21-.27-.32Z"/>
    <path class="cls-8" d="m1418.83,465.47c.08.75.32,1.41.72,2.02-.48-.64-.72-1.3-.72-2.02Z"/>
    <path class="cls-8" d="m1418.89,464.93c-.03.16-.05.32-.05.48-.03-.08-.03-.16-.03-.24.03-.08.03-.16.08-.24Z"/>
    <path class="cls-8" d="m1421.84,635.56c2.64-8.2,4.69-14.7,3.14-23.46-.48-2.72-1.46-4.77-3.2-6.66-.21-.21-.37-.48-.48-.75.21.21.43.43.61.64,1.76,1.89,2.74,3.99,3.25,6.74,1.54,8.79-.53,15.31-3.17,23.54-.75,2.34-1.52,4.82-2.26,7.46,0,0-.67,1.04-5.06,1.49-.27.03-.56.05-.85.08.27-.13.56-.21.85-.24,4.18-.43,4.9-1.41,4.9-1.41.72-2.61,1.52-5.06,2.26-7.43Z"/>
    <path class="cls-8" d="m1454.73,308.15c-14.86,0-36.77,7.54-36.77,14.3,0,5.54,9.64,9.29,29.53,11.42,13.45,1.46,21.89.48,25.77-3.04,2.56-2.26,2.9-5.35,2.9-8.33,0-6.9-6.68-14.33-21.38-14.35h-.05Zm-37.36,14.3c0-7.43,22.5-14.88,37.41-14.86,14.88,0,21.97,7.48,21.97,14.91s-2.34,14.88-29.32,11.96c-14.83-1.6-30.06-4.61-30.06-12.01Z"/>
    <path class="cls-8" d="m1454.78,307.59c-14.91-.03-37.41,7.43-37.41,14.86s15.23,10.41,30.06,12.01c26.97,2.93,29.32-4.55,29.32-11.96s-7.08-14.91-21.97-14.91Zm-7.43,27.45c-13.13-1.41-30.57-4.26-30.57-12.59s23.64-15.44,37.94-15.44h.05c7.75,0,13.39,2.02,17.09,4.95,3.7,2.93,5.46,6.82,5.46,10.54,0,3.09-.4,6.63-3.28,9.21-2.98,2.66-8.25,3.97-16.03,3.97-3.14,0-6.68-.21-10.68-.64Z"/>
    <path class="cls-8" d="m1409.83,362.26c1.25.27,2.5.53,3.75.77-1.25-.24-2.5-.51-3.75-.77Z"/>
    <path class="cls-8" d="m1414.68,644.56c4.39-.45,5.06-1.49,5.06-1.49.75-2.64,1.52-5.11,2.26-7.46,2.64-8.23,4.71-14.75,3.17-23.54-.51-2.74-1.49-4.85-3.25-6.74-.19-.21-.4-.43-.61-.64-.51-1.04-.29-2.29.53-3.17.64-.64,1.28-1.25,1.92-1.81.75.67,1.44,1.3,2.08,2,2.16,2.34,3.51,4.93,4.29,8.04.11.45.21.91.29,1.38,1.78,10.09-.59,17.52-3.33,26.09-.75,2.29-1.49,4.69-2.24,7.27-1.25,4.5-7.54,5.14-9.61,5.35-.61.05-1.28.11-1.94.13-.32-.48-.59-.99-.85-1.49-.43-.83-.43-1.81.03-2.64.32-.56.8-1.01,1.36-1.22.29-.03.59-.05.85-.08Z"/>
    <path class="cls-8" d="m1412.68,192.19c.08.35.11.72.13,1.09l-.13-1.09Z"/>
    <path class="cls-8" d="m1412.39,357.12c10.76,1.92,21.81,2.9,32.88,2.93h1.49c11.18,0,22.34-.99,33.1-2.9.27-.05.53-.05.8,0-1.09.24-2.21.45-3.3.67-4.07.77-8.2,1.41-12.35,1.86-2.21.24-4.42.45-6.66.61-2.56.19-5.14.29-7.72.35-1.3.03-2.58.05-3.89.05h-1.57c-10.25,0-20.53-.99-30.57-2.9-1.04-.21-2.08-.4-3.12-.61.29-.11.61-.11.91-.05Z"/>
    <path class="cls-8" d="m1408.93,379.09c-.27-.05-.53-.08-.8-.08-.61-.13-1.25-.27-1.86-.4.8-2.93,1.46-6.04,1.94-9.29.37-2.4.61-4.77.72-7.24.29.05.61.13.91.19,1.25.27,2.5.53,3.75.77.27.05.56.11.83.13-.13,2.37-.37,4.66-.75,6.98-.59,4.07-1.46,7.99-2.61,11.66,0-.59-.16-1.14-.51-1.62-.4-.56-.99-.93-1.62-1.09Z"/>
    <path class="cls-8" d="m1409.83,362.26c-.29-.05-.61-.13-.91-.19v-.03c.32.08.61.16.91.21Z"/>
    <path class="cls-8" d="m1409.04,359.89c.03-.72.32-1.38.83-1.89.43-.43,1.01-.75,1.62-.83,1.04.21,2.08.4,3.12.61,10.04,1.92,20.32,2.9,30.57,2.9h1.57c1.3,0,2.58-.03,3.89-.05,2.58-.03,5.17-.13,7.72-.35,2.24-.13,4.45-.35,6.66-.61,4.15-.45,8.28-1.09,12.35-1.86,1.09-.21,2.21-.43,3.3-.67.61.08,1.17.32,1.62.77.51.51.93,1.33.93,2.05,0,.64.03,1.33.08,2.05-1.65.37-3.3.72-4.95,1.01-.16.03-.35.05-.51.08v-.03c-10.14,1.65-20.58,2.48-31.07,2.48h-1.49c-10.38-.03-20.74-.85-30.86-2.5v.11c-.27-.03-.56-.08-.83-.13-1.25-.24-2.5-.51-3.75-.77-.29-.05-.59-.13-.91-.21.05-.72.08-1.44.11-2.16Z"/>
    <path class="cls-8" d="m1408.93,362.05v.03c-.91-.21-1.78-.4-2.66-.61.88.19,1.78.4,2.66.59Z"/>
    <path class="cls-8" d="m1405.76,380.34c.16-.56.35-1.14.51-1.73.61.13,1.25.27,1.86.4-1.14.05-2.16.77-2.53,1.86l.16-.53Z"/>
    <path class="cls-8" d="m1404.51,383.69c.37-.77.69-1.62.99-2.53h.03c-.05.16-.05.35-.08.53-.24.72-.51,1.38-.77,2.02-.05,0-.11-.03-.16-.03Z"/>
    <path class="cls-8" d="m1406.13,437.27c-.85-.29-1.7-.61-2.4-.88-.08-.03-.16-.08-.27-.11-1.3-.56-2.42-1.04-3.38-1.54-.13-.13-.29-.24-.45-.32,1.09.59,2.37,1.14,3.89,1.76.08.05.19.08.27.13.72.29,1.52.59,2.34.85,5.88,2.1,12.14,3.14,18.83,3.14l41.86.05c6.5-.05,12.73-1.04,18.45-2.9,1.04-.37,2.16-.75,3.22-1.2,4.23-1.68,7.48-3.57,9.67-5.57.13-.11.24-.21.32-.27.08-.08.13-.16.19-.19,2-1.84,9.27-9.85,9.93-17.04v-.27h.03c-.03.16,0,.32.03.45-.75,7.16-7.96,15.12-9.91,16.91l-.21.21-.08.08c-.08.05-.16.11-.24.19-2.18,2-5.46,3.89-9.69,5.59-1.07.43-2.18.8-3.38,1.22-5.62,1.89-11.66,2.85-18,2.85l-42.18-.05c-6.68,0-12.97-1.04-18.83-3.12Z"/>
    <path class="cls-8" d="m1403.74,436.39c.69.27,1.54.59,2.4.88,5.86,2.08,12.14,3.12,18.83,3.12l42.18.05c6.34,0,12.38-.96,18-2.85,1.2-.43,2.32-.8,3.38-1.22,4.23-1.7,7.51-3.59,9.69-5.59.08-.08.16-.13.24-.19l.08-.08.21-.21c1.94-1.78,9.16-9.75,9.91-16.91.11,1.2,1.04,2.21,2.26,2.4-1.94,8.23-9.72,15.87-10.3,16.4-.08.08-.16.13-.24.27h-.03c-.11.08-.19.19-.32.27-1.57,1.44-4.58,3.73-10.49,6.1-1.12.45-2.26.85-3.41,1.25-.05.03-.08.05-.13.05-6.07,2.05-12.46,2.98-18.85,2.98h-.75l-40.79-.05h-.64c-6.68,0-13.34-.99-19.62-3.22-.03-.03-.05-.03-.08-.05-.91-.32-1.78-.64-2.58-.96-.05-.03-.13-.05-.19-.08-.56-.24-1.09-.45-1.6-.67.56-1.17.21-2.58-.8-3.33.96.51,2.08.99,3.38,1.54.11.03.19.08.27.11Z"/>
    <path class="cls-8" d="m1398.6,359.44c-3.41-.99-6.79-2.08-10.12-3.3,3.28-.72,6.76-1.33,10.46-1.89.37-.05.77-.03,1.14.08,3.67,1.07,7.48,2,11.4,2.85-.61.08-1.2.4-1.62.83-.51.51-.8,1.17-.83,1.89-.03.72-.05,1.44-.11,2.16-.88-.19-1.78-.4-2.66-.59-2.42-.59-4.79-1.2-7.11-1.86l-.56-.16Z"/>
    <path class="cls-8" d="m1399.66,563.16c.11,0,.19.03.27.03.05,0,.11,0,.16.03,0,.03.03.05.05.05.05.05.08.13.08.21s-.03.16-.08.21c-.03.03-.05.05-.11.08-.03,0-.08.03-.11.03h-.27c-.08.03-.16.03-.24.03s-.16-.05-.24-.11c-.05-.05-.08-.13-.11-.24,0-.08.05-.16.11-.24.05-.05.16-.08.24-.08h.24Z"/>
    <path class="cls-8" d="m1405.33,439.82c6.28,2.24,12.94,3.22,19.62,3.22h.64l40.79.05h.75c6.39,0,12.78-.93,18.85-2.98.05,0,.08-.03.13-.05,1.14-.4,2.29-.8,3.41-1.25,5.91-2.37,8.92-4.66,10.49-6.1.13-.08.21-.19.32-.27h.03c.08-.13.16-.19.24-.27.59-.53,8.36-8.17,10.3-16.4.08.03.13.05.21.05h.24c1.17,0,2.18-.75,2.58-1.84-1.17,10.14-10.92,19.54-11.53,20.13l-.03.03c-.13.16-.29.32-.48.45,0,0-.05.08-.21.21-2.69,2.4-6.44,4.58-11.18,6.47-1.14.48-2.34.88-3.51,1.3-6.34,2.13-12.97,3.17-19.86,3.17l-42.18-.05c-7.3,0-14.19-1.14-20.5-3.38-1.04-.37-1.94-.69-2.77-1.04-.05,0-.13-.05-.21-.08-1.38-.59-2.61-1.12-3.67-1.65.19.05.4.08.59.08,1.01,0,1.97-.56,2.48-1.52,0-.03.03-.03.03-.05.51.21,1.04.43,1.6.67.05.03.13.05.19.08.8.32,1.68.64,2.58.96.03.03.05.03.08.05Z"/>
    <path class="cls-8" d="m1401.45,441.29c-1.65-.67-3.06-1.3-4.29-1.94.21.11.4.19.61.21,0,.03.03,0,.03,0,1.07.53,2.29,1.07,3.67,1.65.08.03.16.08.21.08.83.35,1.73.67,2.77,1.04,6.31,2.24,13.21,3.38,20.5,3.38l42.18.05c6.9,0,13.53-1.04,19.86-3.17,1.17-.43,2.37-.83,3.51-1.3,4.74-1.89,8.49-4.07,11.18-6.47.16-.13.21-.21.21-.21.19-.13.35-.29.48-.45,0,0,.03,0,.03-.03.61-.59,10.36-9.99,11.53-20.13.05-.16.11-.32.13-.48-.96,10.68-11.5,20.61-11.61,20.72v-.03s-.03.03-.03.03c-.16.19-.29.32-.48.45-.08.08-.19.16-.29.24-2.48,2.29-6.28,4.53-11.13,6.47-1.14.45-2.32.88-3.51,1.28-6.31,2.08-13.1,3.14-20.18,3.2h-.45l-41.43-.05c-2.74,0-5.43-.16-8.04-.48-4.37-.53-8.55-1.52-12.49-2.93-.99-.32-1.89-.67-2.8-1.04-.05,0-.11-.03-.19-.08Z"/>
    <path class="cls-8" d="m1400.89,438.07c-.91-.4-1.76-.8-2.5-1.2-.13-.05-.24-.13-.37-.19.61-1.07.43-2.34-.35-3.22.59.35,1.22.69,1.94,1.04l.48.24c1.01.75,1.36,2.16.8,3.33Z"/>
    <path class="cls-8" d="m1413.3,649.99c-4.71.27-10.97-.13-18.69-1.17,1.44.19,2.8-.83,3.01-2.26.19-1.46-.83-2.82-2.29-3.01,7.88,1.04,14.11,1.41,18.51,1.09-.56.21-1.04.67-1.36,1.22-.45.83-.45,1.81-.03,2.64.27.51.53,1.01.85,1.49Z"/>
    <path class="cls-8" d="m1397.24,433.09c.69.43,1.49.85,2.4,1.33.16.08.32.19.45.32l-.48-.24c-.72-.35-1.36-.69-1.94-1.04t-.03-.03c-.13-.13-.27-.24-.43-.35h.03Z"/>
    <path class="cls-8" d="m1397.11,433.01s.03.03.05.05c-.03-.03-.05-.05-.08-.05h.03Z"/>
    <path class="cls-8" d="m1397.21,433.09c.16.11.29.21.43.35-.16-.08-.32-.19-.45-.27l-.16-.08c-.13-.08-.24-.16-.35-.21.13,0,.27.05.4.13.03,0,.05.03.08.05t.05.03Z"/>
    <path class="cls-8" d="m1393.54,433.89c.72-1.04,2-1.44,3.14-1.01.11.05.21.13.35.21l.16.08c.13.08.29.19.45.27t.03.03c.77.88.96,2.16.35,3.22-.83-.45-1.57-.85-2.21-1.25-.08-.03-.13-.05-.19-.11-.67-.43-1.28-.85-1.78-1.22-.11-.08-.19-.16-.29-.21Z"/>
    <path class="cls-8" d="m1396.36,438.92c-.48-.21-.93-.48-1.36-.75.43.24.88.48,1.36.75Z"/>
    <path class="cls-8" d="m1398.38,436.87c.75.4,1.6.8,2.5,1.2,0,.03-.03.03-.03.05-.51.96-1.46,1.52-2.48,1.52-.19,0-.4-.03-.59-.08,0,0-.03.03-.03,0-.21-.11-.43-.21-.61-.32-.85-.43-1.6-.85-2.26-1.25.24.08.48.11.72.11.91,0,1.81-.45,2.34-1.3.03-.03.05-.08.05-.11.13.05.24.13.37.19Z"/>
    <path class="cls-8" d="m1394.95,431.6c.19.08.35.19.51.29.48.35,1.01.72,1.62,1.12-.13-.08-.27-.13-.4-.13-.48-.32-.91-.64-1.28-.91-.16-.11-.32-.24-.45-.37Z"/>
    <path class="cls-8" d="m1396.36,438.92c-.48-.27-.93-.51-1.36-.75-.08-.03-.16-.08-.24-.13-.11-.08-.24-.16-.35-.24.16.08.29.16.45.19h.03c.67.4,1.41.83,2.26,1.25.19.11.4.21.61.32-.21-.03-.4-.11-.61-.21-.27-.13-.53-.27-.8-.43Z"/>
    <path class="cls-8" d="m1394.39,437.8h.03c.11.08.24.16.35.24-.13-.05-.27-.13-.37-.24Z"/>
    <path class="cls-8" d="m1394.34,437.77s.03.03.05.03t-.05-.03Z"/>
    <path class="cls-8" d="m1394.26,437.72s.05.05.08.05h-.03s-.03-.03-.05-.05Z"/>
    <path class="cls-8" d="m1394.44,437.72c.13.08.29.16.43.27-.16-.03-.29-.11-.45-.19h-.03s-.03,0-.05-.03c-.03,0-.05-.03-.08-.05-.19-.11-.35-.24-.48-.4.13.08.27.19.4.27.08.05.19.11.27.13Z"/>
    <path class="cls-8" d="m1393.83,434.1c.51.37,1.12.8,1.78,1.22.05.05.11.08.19.11.64.4,1.38.8,2.21,1.25,0,.03-.03.08-.05.11-.53.85-1.44,1.3-2.34,1.3-.24,0-.48-.03-.72-.11h-.03c-.13-.11-.29-.19-.43-.27-.08-.03-.19-.08-.27-.13-.13-.08-.27-.19-.4-.27l-.05-.03c-.77-.91-.93-2.24-.27-3.3.03-.05.05-.08.08-.11.11.05.19.13.29.21Z"/>
    <path class="cls-8" d="m1395.4,431.97c.37.27.8.59,1.28.91-1.14-.43-2.42-.03-3.14,1.01-.77-.59-1.36-1.12-1.81-1.54.8-.96,2.13-1.25,3.22-.75.13.13.29.27.45.37Z"/>
    <path class="cls-8" d="m1411.64,193.52c.08.93.08,1.86-.05,2.85-.48,4.26-2.64,8.89-6.18,13.15-7.11,8.55-18.21,14.01-28.97,14.25h-.56c-2.21,0-4.45-.27-6.66-.8-.91-.21-1.81-.45-2.72-.75-.45-.11-.91-.27-1.36-.43-2.66-.96-5.33-2.18-7.83-3.67t-.03,0c-.4-.24-.83-.48-1.22-.75-7-4.34-12.91-10.36-16.06-16.22-1.41-2.64-2.24-5.14-2.42-7.38-.05-.77-.03-1.52.08-2.21.19-1.38.67-2.61,1.41-3.7,3.43-4.95,8.23-6.15,14.75-6.15,2.8,0,5.91.21,9.35.45,4.1.29,8.76.61,13.85.64h.19c3.04,0,5.91-.08,8.68-.13,2.53-.05,4.9-.13,7.11-.13,10.41,0,17.12,1.36,18.51,9.83.08.37.11.77.13,1.14Z"/>
    <path class="cls-8" d="m1393.46,433.99c-.67,1.07-.51,2.4.27,3.3-.83-.56-1.17-.83-1.46-1.04-.21-.16-.43-.32-.61-.48-.75-.96-.8-2.32-.03-3.33.03-.03.05-.08.11-.11.45.43,1.04.96,1.81,1.54-.03.03-.05.05-.08.11Z"/>
    <path class="cls-8" d="m1393.78,437.32c.13.16.29.29.48.4-.03,0-.05,0-.08-.03-.8-.51-1.46-.96-2.05-1.41l-.03-.03c-.19-.13-.35-.29-.45-.48.19.16.4.32.61.48.29.21.64.48,1.46,1.04l.05.03Z"/>
    <path class="cls-10" d="m1397.16,439.35c1.22.64,2.64,1.28,4.29,1.94.08.05.13.08.19.08.91.37,1.81.72,2.8,1.04,3.94,1.41,8.12,2.4,12.49,2.93l-.67,5.78c-11.9-1.52-22.79-4.95-32.75-12.86-12.54-9.96-27.91-29.34-21.04-39.27,3.75-5.41,13.61-16.24,32.14-16.24,3.06,0,6.34.29,9.91.96-.91,2.13-1.92,3.83-3.06,5.11-3.67,4.1-7.67,5.99-11.53,7.83-4.53,2.16-8.81,4.18-10.89,9.35-.56,1.38-.91,2.85-.99,4.31-.03.08-.03.13-.03.21v.11c-1.09,11.72,11.42,23.38,11.5,23.46.64.59,1.44,1.33,2.58,2.18l.03.03c.59.45,1.25.91,2.05,1.41.03.03.05.03.08.03.03.03.03.05.05.05h.03s.03.03.05.03c.11.11.24.19.37.24.08.05.16.11.24.13.43.27.88.53,1.36.75.27.16.53.29.8.43Z"/>
    <path class="cls-8" d="m1393.3,430.05c.59.56,1.22,1.14,2.16,1.84-.16-.11-.32-.21-.51-.29-.69-.51-1.22-1.01-1.7-1.46-2.26-2.08-10.3-11.1-9.85-18.64.05-.19.11-.37.13-.59-.88,7.62,7.48,17.04,9.77,19.14Z"/>
    <path class="cls-8" d="m1410.55,380.18c.35.48.51,1.04.51,1.62,0,.29-.03.59-.13.85,0,.03-.05.16-.08.29l-.08.24c-1.41,4.26-3.14,7.48-5.27,9.85-4.42,4.93-9.32,7.27-13.26,9.13-4.39,2.1-6.92,3.41-8.15,6.44-.29.75-.48,1.49-.56,2.29-.03.21-.08.4-.13.59,0-.21,0-.4.03-.59.08-.8.29-1.57.59-2.32,1.28-3.22,4.18-4.61,8.17-6.5,3.94-1.86,8.84-4.21,13.23-9.11,2.13-2.37,3.86-5.57,5.27-9.83.03-.08.03-.16.05-.21.05-.16.11-.29.11-.32.27-.8.13-1.7-.37-2.4-.37-.53-.93-.91-1.57-1.04-.03,0-.05-.03-.08-.03-.24-.05-.45-.11-.69-.16.27,0,.53.03.8.08.64.16,1.22.53,1.62,1.09Z"/>
    <path class="cls-8" d="m1410.69,383.16c-1.41,4.26-3.14,7.46-5.27,9.83-4.39,4.9-9.29,7.24-13.23,9.11-3.99,1.89-6.9,3.28-8.17,6.5-.29.75-.51,1.52-.59,2.32-.03.19-.03.37-.03.59-.37,1.12-1.41,1.89-2.61,1.89h-.03c-.08-.93-.08-1.84.03-2.77.11-1.01.35-2.02.75-3.04,3.22-8.01,13.47-6.92,21.91-16.4,2.02-2.24,3.54-5.35,4.71-8.87v-.03c.05-.16.11-.35.16-.51-.03,0-.08-.03-.11-.03-.91-.21-1.81-.4-2.69-.59.03-.08.05-.19.08-.27v-.03c.37-1.09,1.38-1.81,2.53-1.86.24.05.45.11.69.16.03,0,.05.03.08.03.64.13,1.2.51,1.57,1.04.51.69.64,1.6.37,2.4,0,.03-.05.16-.11.32-.03.05-.03.13-.05.21Z"/>
    <path class="cls-8" d="m1393.25,430.13c.48.45,1.01.96,1.7,1.46-1.09-.51-2.42-.21-3.22.75-.11-.08-.21-.19-.29-.27-.64-.59-9.83-9.61-10.68-18.69h.03c1.2,0,2.24-.77,2.61-1.89-.45,7.54,7.59,16.56,9.85,18.64Z"/>
    <path class="cls-8" d="m1408.16,382.31c-1.17,3.51-2.69,6.63-4.71,8.87-8.44,9.48-18.69,8.39-21.91,16.4-.4,1.01-.64,2.02-.75,3.04-.11.93-.11,1.84-.03,2.77h-.19c-1.25-.08-2.26-1.01-2.5-2.21v-.03c.03-.29.05-.56.08-.83.11-1.25.43-2.5.91-3.7,2.08-5.17,6.34-7.19,10.84-9.35,3.89-1.84,7.88-3.73,11.56-7.85,1.25-1.38,2.37-3.28,3.35-5.67-.05,0-.08-.03-.13-.03.27-.64.53-1.3.77-2.02.03-.19.03-.37.08-.53.88.19,1.78.37,2.69.59.03,0,.08.03.11.03-.05.16-.11.35-.16.51v.03Z"/>
    <path class="cls-8" d="m1401.45,388.81c1.14-1.28,2.16-2.98,3.06-5.11.05,0,.11.03.16.03-.96,2.4-2.05,4.29-3.28,5.64-3.67,4.1-7.67,5.99-11.53,7.83-4.53,2.16-8.81,4.18-10.92,9.37-.45,1.22-.77,2.5-.91,3.73.08-1.46.43-2.93.99-4.31,2.08-5.17,6.36-7.19,10.89-9.35,3.86-1.84,7.85-3.73,11.53-7.83Z"/>
    <path class="cls-8" d="m1404.8,383.75c-.99,2.4-2.1,4.29-3.35,5.67-3.67,4.13-7.67,6.02-11.56,7.85-4.5,2.16-8.76,4.18-10.84,9.35-.48,1.2-.8,2.45-.91,3.7-.03.27-.05.53-.08.83-.03-.19-.05-.35-.05-.53v-.11c0-.08,0-.13.03-.21.13-1.22.45-2.5.91-3.73,2.1-5.19,6.39-7.22,10.92-9.37,3.86-1.84,7.85-3.73,11.53-7.83,1.22-1.36,2.32-3.25,3.28-5.64.05,0,.08.03.13.03Z"/>
    <path class="cls-8" d="m1391.62,432.45c-.77,1.01-.72,2.37.03,3.33-.88-.67-1.52-1.25-2.05-1.76-.11-.11-12.2-11.37-11.53-22.85.24,1.2,1.25,2.13,2.5,2.21h.19c.85,9.08,10.04,18.11,10.68,18.69.08.08.19.19.29.27-.05.03-.08.08-.11.11Z"/>
    <path class="cls-8" d="m1391.65,435.78c.11.19.27.35.45.48-1.14-.85-1.94-1.6-2.58-2.18-.08-.08-12.59-11.74-11.5-23.46,0,.19.03.35.05.53v.03c-.67,11.48,11.42,22.74,11.53,22.85.53.51,1.17,1.09,2.05,1.76Z"/>
    <path class="cls-8" d="m1370.4,716.72c.67.19,1.36.37,2.08.56-.69-.19-1.41-.37-2.08-.56Z"/>
    <path class="cls-8" d="m1372.08,711.66c-.75-.19-1.46-.4-2.16-.61.69.19,1.41.4,2.16.61Z"/>
    <path class="cls-8" d="m1369.92,711.05l-1.04-.32,1.04.32Z"/>
    <path class="cls-8" d="m1366.51,222.23c.91.29,1.81.53,2.72.75-.91-.19-1.81-.45-2.72-.75Z"/>
    <path class="cls-7" d="m1366.27,715.47c1.3.43,2.66.85,4.13,1.25.67.19,1.38.37,2.08.56,2.48.64,5.11,1.28,7.8,1.92,3.91.96,7.99,1.92,11.48,2.96,1.65.48,12.28,2.61,29.56,6.07,10.01,2,20.29,4.07,25.85,5.25.67.13,1.25.27,1.76.37.19.03.37.08.56.11.32.08.59.13.83.19.08.03.13.05.19.05s.08.03.13.03l2.16.64c35.44,10.52,74.08,21.75,84.14,21.75,6.82-.03,12.94-.35,18.75-.96.08,0,.13-.03.21-.03h.11c.08,0,.19-.03.27-.03,22.95-2.56,37.25-9.72,42.47-21.25.48-1.09,1.22-3.46,2.48-7.59l1.07-3.51c.45-1.49.96-3.06,2.21-6.68.08-.21.16-.43.24-.61,6.66,11.58,11.74,23.75,15.07,36.27,1.84,7.03,2.98,11.29,3.01,17.36.11,16.96-8.15,34.16-20.05,41.8-3.49,2.26-10.44,3.04-23.06,4.42l-1.65.19c-9.32,1.01-19.92,2.16-35.23,2.18-10.2.03-25.54.08-45.75-3.35-13.37-2.29-26.79-5.75-38.77-9.99-6.18-2.21-9.16-3.57-11.74-4.82l-105.2-47.48c.8-.48,1.54-1.01,2.32-1.57l.32-.24c.67-.51,1.36-1.04,2-1.57l.56-.48c.69-.59,1.36-1.17,2-1.78,1.52-1.44,2.98-2.98,4.31-4.55.61-.72,1.2-1.44,1.76-2.13l.32-.4.72-.96c1.36-1.81,2.58-3.67,3.7-5.51.29-.45.56-.93.8-1.38.27-.45.53-.93.77-1.38.27-.45.51-.91.72-1.36.93-1.84,1.76-3.62,2.4-5.33.13-.32.27-.67.37-.99.27-.72.51-1.44.72-2.1.19-.61.35-1.2.51-1.78.19-.77.35-1.49.45-2.18.05-.29.08-.59.11-.88.05-.16.05-.32.08-.48Z"/>
    <path class="cls-8" d="m1366.27,715.47c-.03.16-.03.32-.08.48l.08-.48Z"/>
    <path class="cls-8" d="m1365.13,720.79c.19-.61.35-1.22.51-1.78-.16.59-.32,1.17-.51,1.78Z"/>
    <path class="cls-8" d="m1365.63,709.58c-.45-.19-.91-.37-1.3-.53v-.03c.4.19.85.37,1.3.56Z"/>
    <path class="cls-8" d="m1370.4,716.72c-1.46-.4-2.82-.83-4.13-1.25.27-2.88-.29-4.87-1.62-6.15-.11-.11-.21-.19-.32-.27.4.16.85.35,1.3.53.99.37,2.08.77,3.25,1.14l1.04.32c.69.21,1.41.43,2.16.61,2.98.83,6.23,1.6,9.45,2.37,3.97.96,8.12,1.94,11.74,3.01,1.52.45,16.16,3.38,29.08,5.96,2.58.51,5.14,1.04,7.62,1.52,1.17.24,2.34.48,3.46.72.72.13,1.41.27,2.1.4.43.11.85.19,1.25.27,1.36.27,2.64.53,3.86.77.69.13,1.33.27,1.97.4.4.11.8.19,1.2.27,2.4.48,4.39.88,5.88,1.22.19.03.37.08.53.11s.32.08.48.11c-.53.29-.96.61-1.28.91-.69.64-.99,1.62-.77,2.56s.91,1.65,1.81,1.92c-.05,0-.11,0-.16-.03-.24-.05-.51-.11-.83-.19-.16-.03-.35-.08-.56-.11-.51-.13-1.12-.24-1.76-.37-5.57-1.17-15.84-3.25-25.85-5.25-17.28-3.46-27.91-5.59-29.56-6.07-3.49-1.04-7.56-2-11.48-2.96-2.69-.64-5.33-1.28-7.8-1.92-.72-.19-1.41-.37-2.08-.56Z"/>
    <path class="cls-8" d="m1364.41,722.9c-.11.32-.24.67-.37.99.13-.35.27-.67.37-.99Z"/>
    <path class="cls-8" d="m1361.03,713.23c-.05-.05-.08-.08-.13-.11,0-.03-.03-.05-.03-.08-.96-.88-1.07-2.26-.32-3.33.75-1.09,2.24-1.41,3.41-.85.11.05.24.11.35.16h.03v.03c.11.08.21.16.32.27,1.33,1.28,1.89,3.28,1.62,6.15-1.68-.56-3.22-1.14-4.58-1.78-.24-.11-.48-.27-.67-.45Z"/>
    <path class="cls-8" d="m1365.15,221.8c-2.69-.93-5.33-2.18-7.83-3.67,2.5,1.49,5.17,2.72,7.83,3.67Z"/>
    <path class="cls-8" d="m1360.92,730.56c.27-.45.51-.91.72-1.36-.21.45-.45.91-.72,1.36Z"/>
    <path class="cls-8" d="m1360.89,713.12c-.37-.35-.72-.67-1.09-.96.37.27.72.56,1.07.88,0,.03.03.05.03.08Z"/>
    <path class="cls-8" d="m1445.25,455.03c-24.07-.11-45.08-.19-63.4-14.7-12.54-9.96-29.9-30.83-21.57-42.87,7.88-11.37,23.14-20.58,45.21-16.3-.29.91-.61,1.76-.99,2.53-3.57-.67-6.84-.96-9.91-.96-18.53,0-28.38,10.84-32.14,16.24-6.87,9.93,8.49,29.32,21.04,39.27,9.96,7.91,20.85,11.34,32.75,12.86,9.05,1.17,18.69,1.2,28.92,1.25,24.34.08,45.08.16,62.95-14.01,10.41-8.25,22.77-22.98,22.77-33.44,0-2.13-.51-4.1-1.68-5.78-8.76-12.81-24.12-18.45-41.51-15.42-.35-.77-.67-1.62-.99-2.53v-.03c21.86-4.05,36.96,5.11,44.71,16.46,8.23,12.01-9.08,32.86-21.65,42.82-18.64,14.78-40.18,14.67-64.52,14.59Z"/>
    <path class="cls-8" d="m1360.15,705.85c.08.05.13.08.21.13-.08-.03-.13-.08-.21-.13Z"/>
    <path class="cls-8" d="m1359.35,733.33c.27-.45.53-.93.8-1.38-.24.45-.51.93-.8,1.38Z"/>
    <path class="cls-8" d="m1358.82,705.06c.43.24.88.51,1.33.8-.45-.27-.88-.53-1.33-.8Z"/>
    <path class="cls-8" d="m1381.85,440.33c18.32,14.51,39.33,14.59,63.4,14.7,24.34.08,45.88.19,64.52-14.59,12.57-9.96,29.88-30.81,21.65-42.82-7.75-11.34-22.85-20.5-44.71-16.46-.03-.11-.05-.24-.11-.35-.03-.16-.08-.32-.16-.45,0-.05-.03-.11-.05-.13-.16-.51-.32-1.04-.45-1.6,19.89-3.75,37.54,2.69,47.66,17.49,9.35,13.61-8.65,35.68-22.18,46.41-8.97,7.11-18.67,10.92-28.89,12.91-10.2,2.02-20.93,2.26-31.98,2.26-1.7,0-3.41,0-5.14-.03-24.9-.11-46.2-.19-65.21-15.26-13.55-10.76-31.53-32.88-22.1-46.49,10.33-14.88,28.17-21.25,48.17-17.33-.16.59-.35,1.17-.51,1.73l-.16.53v.03c-.03.08-.05.19-.08.27h-.03c-22.07-4.29-37.33,4.93-45.21,16.3-8.33,12.04,9.03,32.91,21.57,42.87Z"/>
    <path class="cls-8" d="m1356.07,217.38c.4.27.83.51,1.22.75-.43-.24-.83-.48-1.22-.75Z"/>
    <path class="cls-8" d="m1421.84,601.53c-.83.88-1.04,2.13-.53,3.17-4.1-3.99-11.9-7.7-24.39-13.58l-2-.93c-3.67-1.76-7.8-3.7-12.33-5.88-29.72-14.46-31.02-36.93-31.07-39.43-.16-6.36,6.95-11.98,11.18-14.75,1.22-.8,2.88-.45,3.7.77.8,1.22.45,2.88-.77,3.67-5.41,3.54-8.87,7.54-8.79,10.17.05,2.21,1.2,21.7,28.06,34.77,4.53,2.18,8.6,4.13,12.28,5.86l2.02.93c12.28,5.8,19.76,9.35,24.55,13.42-.64.56-1.28,1.17-1.92,1.81Z"/>
    <path class="cls-8" d="m1357.54,704.34c-.85-.45-1.7-.85-2.5-1.22.8.37,1.65.77,2.5,1.22Z"/>
    <path class="cls-8" d="m1355.04,709.05c1.6.83,3.2,1.78,4.77,3.12-1.6-1.3-3.2-2.29-4.77-3.12Z"/>
    <path class="cls-8" d="m1354.93,739.8l.72-.96-.72.96Z"/>
    <path class="cls-8" d="m1354.61,740.2c-.56.69-1.14,1.41-1.76,2.13.61-.69,1.2-1.41,1.76-2.13Z"/>
    <path class="cls-8" d="m1350.88,736.4c-.35.45-.72.93-1.09,1.38.37-.45.75-.93,1.09-1.38Z"/>
    <path class="cls-8" d="m1346.54,748.67c.69-.56,1.36-1.17,2-1.78-.64.61-1.3,1.2-2,1.78Z"/>
    <path class="cls-8" d="m1345.96,432.66c.72-.32,1.25-.93,1.44-1.7.21-.72.08-1.46-.29-2.1,6.44,9.48,16.03,17.97,27.72,24.55,7.38,4.18,15.36,6.07,24.6,8.28l2.64.64c1.44.32,2.32,1.76,1.97,3.2-.29,1.22-1.38,2.05-2.58,2.05-.21,0-.43-.03-.64-.08l-2.64-.64c-9.21-2.18-17.95-4.26-25.99-8.81-11.61-6.55-21.33-14.96-28.2-24.36.67-.37,1.33-.72,1.97-1.01Z"/>
    <path class="cls-8" d="m1342.25,429.63c.13-.61.51-1.17,1.09-1.57,1.22-.83,2.85-.51,3.7.69.03.03.05.08.05.11.37.64.51,1.38.29,2.1-.19.77-.72,1.38-1.44,1.7-.64.29-1.3.64-1.97,1.01-.48-.64-.93-1.28-1.36-1.92s-.56-1.41-.37-2.13Z"/>
    <path class="cls-8" d="m1343.99,750.72c.69-.51,1.36-1.04,2-1.57-.64.53-1.33,1.07-2,1.57Z"/>
    <path class="cls-8" d="m1341.35,752.53c.8-.51,1.57-1.04,2.32-1.57-.77.56-1.52,1.09-2.32,1.57Z"/>
    <path class="cls-8" d="m1341.3,746.11c.59-.43,1.14-.88,1.7-1.38-.56.51-1.12.96-1.7,1.38Z"/>
    <path class="cls-8" d="m1343.35,428.06c-.59.4-.96.96-1.09,1.57l-1.25-.4c-8.49-13.69-10.22-27.83-4.9-40.1,4.95-11.34,18.13-25.77,52.38-32.99,3.33,1.22,6.71,2.32,10.12,3.3l.56.16c-39.25,5.99-53.31,20.53-58.15,31.66-4.93,11.29-2.77,24.6,6.04,37.49-.85-1.2-2.48-1.52-3.7-.69Z"/>
    <path class="cls-8" d="m1339.22,747.58c.64-.4,1.25-.83,1.84-1.28-.61.45-1.22.88-1.84,1.28Z"/>
    <path class="cls-8" d="m1339.09,747.69c-.4.27-.8.51-1.22.75.43-.24.83-.48,1.22-.75Z"/>
    <path class="cls-8" d="m1339.09,187.72c3.43-4.95,8.23-6.15,14.75-6.15,2.8,0,5.91.21,9.35.45,4.1.29,8.76.64,13.85.64,3.12.03,6.04-.08,8.87-.13,2.48-.05,4.82-.11,7-.11,10.46,0,17.23,1.3,18.61,9.83.08.43.13.85.13,1.28-.03-.37-.05-.77-.13-1.14-1.38-8.47-8.09-9.83-18.51-9.83-2.21,0-4.58.08-7.11.13-2.77.05-5.64.13-8.68.13h-.19c-5.09-.03-9.75-.35-13.85-.64-3.43-.24-6.55-.45-9.35-.45-6.52,0-11.32,1.2-14.75,6.15-.75,1.09-1.22,2.32-1.41,3.7.16-1.44.64-2.74,1.41-3.86Z"/>
    <path class="cls-8" d="m1336.45,749.23c.48-.24.96-.51,1.41-.8-.45.29-.93.56-1.41.8Z"/>
    <path class="cls-8" d="m1375.88,223.91c-14.25,0-29.98-11.58-35.87-22.58-1.46-2.72-2.26-5.25-2.42-7.54.19,2.24,1.01,4.74,2.42,7.38,3.14,5.86,9.05,11.88,16.06,16.22.4.27.8.51,1.22.75t.03,0c2.5,1.49,5.14,2.74,7.83,3.67.45.16.91.32,1.36.43.91.29,1.81.56,2.72.75,2.21.53,4.45.8,6.66.8h.56c10.76-.24,21.86-5.7,28.97-14.25,3.54-4.26,5.7-8.89,6.18-13.15-.43,4.31-2.58,8.97-6.18,13.29-7.11,8.55-18.21,14.01-28.97,14.25h-.56Z"/>
    <path class="cls-8" d="m1340.02,201.33c5.88,11,21.62,22.58,35.87,22.58h.56c10.76-.24,21.86-5.7,28.97-14.25,3.59-4.31,5.75-8.97,6.18-13.29.13-.99.13-1.92.05-2.85,0-.43-.05-.85-.13-1.28-1.38-8.52-8.15-9.83-18.61-9.83-2.18,0-4.53.05-7,.11-2.82.05-5.75.16-8.87.13-5.09,0-9.75-.35-13.85-.64-3.43-.24-6.55-.45-9.35-.45-6.52,0-11.32,1.2-14.75,6.15-.77,1.12-1.25,2.42-1.41,3.86-.11.69-.13,1.44-.08,2.21.16,2.29.96,4.82,2.42,7.54Zm-1.41-13.79c6.92-9.93,19.2-5.33,38.42-5.3,19.22,0,32.96-2.8,35.07,10.06,2.24,13.69-15.26,31.74-35.65,32.19-21.73.48-46.01-25.24-37.84-36.96Z"/>
    <path class="cls-8" d="m1406.32,210.27c3.73-4.47,5.94-9.32,6.44-13.85-.45,4.55-2.69,9.48-6.44,13.98-7.32,8.81-18.75,14.43-29.85,14.67h-.61c-15.12,0-30.83-11.96-36.88-23.22-1.3-2.45-2.13-4.77-2.42-6.95.32,2.13,1.14,4.42,2.42,6.82,6.04,11.26,21.75,23.22,36.88,23.22.19,0,.4,0,.61-.03,11.1-.24,22.53-5.86,29.85-14.64Z"/>
    <path class="cls-8" d="m1377.03,182.24c-19.22-.03-31.5-4.63-38.42,5.3-8.17,11.72,16.11,37.44,37.84,36.96,20.4-.45,37.89-18.51,35.65-32.19-2.1-12.86-15.84-10.06-35.07-10.06Zm-38.9,4.98c5.3-7.59,13.61-7,25.14-6.2,4.1.29,8.71.64,13.77.64,3.04-.03,6.02-.08,8.84-.13,14.49-.35,24.95-.61,26.81,10.68l.13,1.09.05,1.36c0,.59-.03,1.2-.11,1.78-.51,4.53-2.72,9.37-6.44,13.85-7.32,8.79-18.75,14.41-29.85,14.64-.21.03-.43.03-.61.03-15.12,0-30.83-11.96-36.88-23.22-1.28-2.4-2.1-4.69-2.42-6.82-.05-.35-.08-.72-.11-1.07-.05-.56-.05-1.12-.03-1.65.13-1.86.69-3.54,1.7-4.98Z"/>
    <path class="cls-8" d="m1363.26,181.01c-11.53-.8-19.84-1.38-25.14,6.2-1.01,1.44-1.57,3.12-1.7,4.98.11-1.92.67-3.67,1.7-5.14,5.3-7.59,13.61-7,25.14-6.18,4.07.29,8.71.61,13.77.61h.19c3.04,0,5.88-.08,8.65-.13,14.49-.35,24.95-.59,26.81,10.7,0,.05.03.08,0,.13-1.86-11.29-12.33-11.02-26.81-10.68-2.82.05-5.8.11-8.84.13-5.06,0-9.67-.35-13.77-.64Z"/>
    <path class="cls-8" d="m1336.56,194.91c-.05-.35-.11-.72-.11-1.07.03.35.05.72.11,1.07Z"/>
    <path class="cls-8" d="m1361.69,713.68c1.36.64,2.9,1.22,4.58,1.78l-.08.48c-.03.29-.05.59-.11.88-.11.69-.27,1.41-.45,2.18-.16.56-.32,1.17-.51,1.78-.21.67-.45,1.38-.72,2.1-.11.32-.24.64-.37.99-.64,1.7-1.46,3.49-2.4,5.33-.21.45-.45.91-.72,1.36-.24.45-.51.93-.77,1.38s-.53.93-.8,1.38c-1.12,1.84-2.34,3.7-3.7,5.51l-.72.96-.32.4c-.56.72-1.14,1.44-1.76,2.13-1.33,1.57-2.8,3.12-4.31,4.55-.64.61-1.3,1.22-2,1.78l-.56.48c-.64.53-1.3,1.07-2,1.57l-.32.24c-.75.53-1.52,1.07-2.32,1.57,0,0,0,.03-.03,0l-4.9-2.21h-.05s-.03,0-.05-.03c-.16-.08-.32-.11-.48-.13-.08-.03-.19-.05-.27-.05-.21-.03-.43-.05-.67-.08.37-.19.75-.35,1.09-.56.16-.05.32-.13.45-.24.48-.24.96-.51,1.41-.8.43-.24.83-.48,1.22-.75.05-.05.11-.08.13-.11.61-.4,1.22-.83,1.84-1.28.08-.08.16-.13.24-.19.59-.43,1.14-.88,1.7-1.38,2.48-2.05,4.74-4.42,6.79-6.95.37-.45.75-.93,1.09-1.38,3.78-4.93,6.68-10.3,8.49-15.2,1.84-4.98,1.73-7.46,1.52-8.07.05.03.08.05.13.11.19.19.43.35.67.45Z"/>
    <path class="cls-8" d="m1336.42,750.32l4.9,2.21c-1.46.96-2.98,1.78-4.55,2.48.13-.11.27-.21.4-.35l.03-.03c1.04-1.04,1.04-2.72,0-3.75-.24-.24-.53-.43-.83-.56h.05Z"/>
    <path class="cls-8" d="m1336.32,750.3c-.16-.05-.32-.11-.48-.13.16.03.32.05.48.13Z"/>
    <path class="cls-8" d="m1335.81,755.38c.13-.03.27-.05.4-.11-.13.05-.27.08-.4.11Z"/>
    <path class="cls-8" d="m1336.05,755.99l-.83-.37.83.37Z"/>
    <path class="cls-8" d="m1336,749.47c-.35.21-.72.37-1.09.56h-.03c.37-.16.75-.35,1.12-.56Z"/>
    <path class="cls-8" d="m1334.24,755.19c-.96-.45-1.57-1.38-1.57-2.45v-.08c-.03-.11,0-.21.03-.29.03-.13.05-.27.08-.37.05-.13.08-.24.13-.37.13-.21.27-.43.43-.61,0-.03.05-.08.08-.11l.05-.05c.11-.11.24-.21.37-.29.16-.11.29-.19.48-.27.48-.19,1.01-.24,1.52-.13.16.03.32.08.48.13.03.03.05.03.05.03.29.13.59.32.83.56,1.04,1.04,1.04,2.72,0,3.75l-.03.03c-.13.13-.27.24-.4.35-.11.08-.24.13-.35.19-.08.03-.13.05-.21.08-.13.05-.27.08-.4.11-.16.03-.32.05-.48.05-.11,0-.21-.03-.32-.03s-.24-.03-.35-.05h-.03c-.08-.03-.13-.03-.19-.05l-.21-.11Z"/>
    <path class="cls-8" d="m1341.35,752.53l105.2,47.48c.96.43,1.57,1.36,1.57,2.4.03,1.04-.56,2-1.52,2.42-.37.19-.75.37-1.14.56-.4-.19-.77-.37-1.14-.56l-5.35-2.4-4.34-1.97-98.57-44.47-.83-.37-.56-.27c.11.03.24.05.35.05s.21.03.32.03c.16,0,.32-.03.48-.05.13-.03.27-.05.4-.11.08-.03.13-.05.21-.08.11-.05.24-.11.35-.19,1.57-.69,3.09-1.52,4.55-2.48.03.03.03,0,.03,0Z"/>
    <path class="cls-8" d="m1335.23,755.62l-.64-.27h.08l.56.27Z"/>
    <path class="cls-8" d="m1335.84,750.16c-.51-.11-1.04-.05-1.52.13.19-.08.37-.16.53-.27h.05c.24.03.45.05.67.08.08,0,.19.03.27.05Z"/>
    <path class="cls-8" d="m1334.45,755.3c.05.03.11.03.19.05h-.05l-.13-.05Z"/>
    <path class="cls-8" d="m1333.84,750.56c-.13.08-.27.19-.37.29.13-.11.24-.21.37-.29Z"/>
    <path class="cls-8" d="m1333.33,751.01c-.16.19-.29.4-.43.61.08-.21.24-.43.43-.61Z"/>
    <path class="cls-8" d="m1332.91,751.63c-.05.13-.08.24-.13.37.03-.13.05-.27.13-.37Z"/>
    <path class="cls-8" d="m1332.78,752c-.03.11-.05.24-.08.37,0-.13.03-.27.08-.37Z"/>
    <path class="cls-8" d="m1332.67,752.74c0,1.07.61,2,1.57,2.45l.21.11c-.4-.13-.75-.32-1.04-.64-.56-.56-.8-1.28-.75-2v.08Z"/>
    <path class="cls-8" d="m1321.73,147.81c6.23-5.25,12.7-8.95,20.34-11.77,7.16-2.64,14.56-4.58,22.1-5.72,7.83-1.22,15.68-1.76,23.59-1.33,3.97.21,7.93.67,11.9,1.25,3.89.59,7.99.93,11.08,3.57,2.56,2.18,1.09,6.6-1.94,7.4-3.7.93-7.62-.51-11.29-1.09-3.59-.53-7.24-.85-10.86-1.01-7.03-.29-14.17-.03-21.14.91-14.25,1.94-27.8,7.24-41.17,12.3-2.48.96-4.63-2.8-2.61-4.5Z"/>
    <path class="cls-8" d="m1322.68,753.41c2.45.53,5.03,1.01,7.78,1.41-2.74-.4-5.33-.85-7.78-1.41Z"/>
    <path class="cls-8" d="m1322.47,747.87c.59.13,1.17.27,1.76.4-.59-.13-1.17-.27-1.76-.4Z"/>
    <path class="cls-8" d="m1318,627.54c.67.35,1.33.72,2.02,1.07-.69-.37-1.36-.72-2.02-1.07Z"/>
    <path class="cls-8" d="m1315.73,751.57c2.18.69,4.5,1.3,6.95,1.84-2.45-.53-4.77-1.14-6.95-1.84Z"/>
    <path class="cls-8" d="m1313.68,745.18c.67.29,1.33.53,2.02.75-.69-.21-1.36-.45-2.02-.75Z"/>
    <path class="cls-8" d="m1313.58,618.54c.59.43,1.2.85,1.81,1.25-.61-.4-1.22-.8-1.81-1.25Z"/>
    <path class="cls-8" d="m1311.47,623.58c.8.53,1.6,1.07,2.45,1.6-.85-.51-1.65-1.07-2.45-1.6Z"/>
    <path class="cls-8" d="m1310.76,635.59c-.37-.03-.75-.05-1.12-.05.37,0,.75.03,1.12.05Z"/>
    <path class="cls-9" d="m1308.7,640.94c4.5-.72,10.33,4.18,12.25,5.78l.24.21c9.37,7.88,12.65,22.87,16.77,41.86l.8,3.73c2.21,9.99,7.35,12.35,12.81,14.86,1.14.53,2.29,1.07,3.46,1.68,1.57.83,3.17,1.81,4.77,3.12.37.29.72.61,1.09.96.21.61.32,3.09-1.52,8.07-1.81,4.9-4.71,10.28-8.49,15.2-.35.45-.72.93-1.09,1.38-2.05,2.53-4.31,4.9-6.79,6.95-.56.51-1.12.96-1.7,1.38-.08.05-.16.11-.24.19-.59.45-1.2.88-1.84,1.28-.03.03-.08.05-.13.11-.4.27-.8.51-1.22.75-.45.29-.93.56-1.41.8-.13.11-.29.19-.45.24-.37.21-.75.4-1.12.56h-.03c-3.41-.4-7.03-.96-10.62-1.76-.59-.13-1.17-.27-1.76-.4-2.29-.53-4.58-1.17-6.76-1.94-.69-.21-1.36-.45-2.02-.75-3.81-1.44-7.32-3.28-10.22-5.57-.35-.27-.67-.53-.99-.83-2.26-1.97-4.07-4.23-5.27-6.9-.37-.83-1.3-3.89-2.21-6.87l-1.09-3.65c-.96-3.06-2.05-6.55-3.06-9.03-.96-2.34-1.28-4.82-.96-7.14,1.92-13.9,7.14-47.5,14.14-60.18.08-.13.16-.27.21-.35l.43-.75c1.14-1.78,2.45-2.77,4.05-3.01Z"/>
    <polygon class="cls-8" points="1310.04 615.83 1310.04 615.86 1310.01 615.83 1310.04 615.83"/>
    <path class="cls-8" d="m1313.58,618.54c.59.45,1.2.85,1.81,1.25,3.22,2.1,6.76,4.05,10.76,5.8,15.04,6.71,46.7,14.91,69.18,17.95,1.46.19,2.48,1.54,2.29,3.01-.21,1.44-1.57,2.45-3.01,2.26-22.87-3.09-55.22-11.48-70.64-18.35-1.36-.61-2.66-1.22-3.94-1.86-.69-.35-1.36-.72-2.02-1.07-1.41-.77-2.77-1.54-4.07-2.37-.85-.53-1.65-1.07-2.45-1.6-1.7-1.14-3.3-2.37-4.82-3.62-.08-.05-.16-.13-.24-.21-.13-.11-.24-.21-.37-.32-.05-.24-.11-.4-.16-.53-.45-1.12-.08-2.42.91-3.14.96-.72,2.29-.67,3.22.08l.03.03c.08.05.16.11.21.19,1.07.88,2.18,1.7,3.33,2.5Z"/>
    <path class="cls-8" d="m1309.58,635.53c-.35,0-.72.03-1.07.05.35-.03.72-.05,1.07-.05Z"/>
    <path class="cls-8" d="m1320.95,646.72c-1.92-1.6-7.75-6.5-12.25-5.78-1.6.24-2.9,1.22-4.05,3.01l-.43.75c-.77,1.2-2.37,1.57-3.62.85-1.17-.69-1.62-2.18-1.04-3.41-.03-.03,0-.03.03-.05.05-.08.08-.19.13-.27l.4-.67c2-3.17,4.61-4.98,7.75-5.49l.64-.08c.35-.03.72-.05,1.07-.05h.05c.37,0,.75.03,1.12.05,5.86.53,11.34,5.17,13.61,7.06l.24.19c10.78,9.05,14.22,24.84,18.56,44.81l.83,3.73c1.62,7.4,4.69,8.81,9.8,11.16.4.19.83.37,1.25.59.8.37,1.65.77,2.5,1.22.4.21.85.45,1.28.72.45.27.88.53,1.33.8.08.05.13.11.21.13,1.28.83,2.61,1.81,3.94,3.04-.11-.05-.24-.11-.35-.16-1.17-.56-2.66-.24-3.41.85-.75,1.07-.64,2.45.32,3.33-.35-.32-.69-.61-1.07-.88-1.57-1.33-3.17-2.29-4.77-3.12-1.17-.61-2.32-1.14-3.46-1.68-5.46-2.5-10.6-4.87-12.81-14.86l-.8-3.73c-4.13-18.99-7.4-33.98-16.77-41.86l-.24-.21Z"/>
    <path class="cls-8" d="m1302.47,738.79c.32.29.64.56.99.83-.32-.27-.67-.53-.99-.83Z"/>
    <path class="cls-8" d="m1305.08,629.57c1.41-6.1,1.25-8.92.96-10.14.13.11.24.21.37.32.08.08.16.16.24.21,1.52,1.25,3.12,2.48,4.82,3.62-.16,2.05-.56,4.42-1.2,7.19-.24,1.07-.93,2.85-1.76,4.82l-.64.08c-3.14.51-5.75,2.32-7.75,5.49l-.4.67c-.05.08-.08.19-.13.27,0-.03,0-.08.03-.11,1.33-2.42,4.98-10.38,5.46-12.41Z"/>
    <path class="cls-7" d="m1288.79,722.92l1.12,3.67c1.22,4.05,1.94,6.39,2.42,7.48,3.59,7.91,11.42,13.77,23.41,17.49,2.18.69,4.5,1.3,6.95,1.84,2.45.56,5.03,1.01,7.78,1.41,1.33.19,2.72.37,4.13.53l.64.27.83.37,98.57,44.47,4.34,1.97c-1.68.67-3.73,1.44-6.31,2.37-12.04,4.21-25.46,7.64-38.8,9.91-20.21,3.41-35.6,3.35-45.75,3.28-14.22-.05-23.99-1.01-35.25-2.26l-1.57-.16c-12.67-1.41-19.62-2.18-23.14-4.47-11.88-7.67-20.08-24.87-19.94-41.83.05-6.1,1.17-10.33,3.04-17.36,3.35-12.51,8.44-24.68,15.15-36.27.43,1.12.85,2.42,1.3,3.78.16.51.32,1.04.48,1.57.08.21.13.43.19.64.16.43.29.88.43,1.3Z"/>
    <path class="cls-8" d="m1284.61,704.47c1.97-14.22,7.35-48.7,14.8-62.09.05-.08.11-.19.16-.24-.59,1.22-.13,2.72,1.04,3.41,1.25.72,2.85.35,3.62-.85-.05.08-.13.21-.21.35-7,12.67-12.22,46.28-14.14,60.18-.32,2.32,0,4.79.96,7.14-1.14-2.8-2-3.99-3.2-4.55-1.09-.51-2.37-.19-3.12.72-.13-1.36-.11-2.72.08-4.05Z"/>
    <path class="cls-8" d="m1285.91,714.38c-.77-1.92-1.25-3.89-1.38-5.86.75-.91,2.02-1.22,3.12-.72,1.2.56,2.05,1.76,3.2,4.55,1.01,2.48,2.1,5.96,3.06,9.03l1.09,3.65c.91,2.98,1.84,6.04,2.21,6.87,1.2,2.66,3.01,4.93,5.27,6.9.32.29.67.56.99.83,2.9,2.29,6.42,4.13,10.22,5.57.67.29,1.33.53,2.02.75,2.18.77,4.47,1.41,6.76,1.94.59.13,1.17.27,1.76.4,3.59.8,7.22,1.36,10.62,1.76-.16.11-.35.19-.53.27s-.32.16-.48.27c-.13.08-.24.19-.37.29l-.05.05s-.08.08-.08.11c-.19.19-.35.4-.43.61-.08.11-.11.24-.13.37-.05.11-.08.24-.08.37-.03.08-.05.19-.03.29-.05.72.19,1.44.75,2,.29.32.64.51,1.04.64l.13.05c-1.41-.16-2.8-.35-4.13-.53-2.74-.4-5.33-.88-7.78-1.41s-4.77-1.14-6.95-1.84c-11.98-3.73-19.81-9.59-23.41-17.49-.48-1.09-1.2-3.43-2.42-7.48l-1.12-3.67c-.13-.43-.27-.88-.43-1.3-.05-.21-.11-.43-.19-.64-.16-.53-.32-1.07-.48-1.57-.45-1.36-.88-2.66-1.3-3.78-.16-.45-.32-.88-.48-1.25Z"/>
    <path class="cls-8" d="m1288.18,720.98c.08.21.13.43.19.64-.05-.21-.11-.43-.19-.64Z"/>
    <path class="cls-8" d="m1288.18,720.98c-.16-.53-.32-1.07-.48-1.57.16.51.32,1.04.48,1.57Z"/>
    <path class="cls-8" d="m1285.54,590.75c-17.44-37.62-1.52-82.62,3.73-97.43,9.24-26.17,34.11-54.32,51.74-64.09l1.25.4c-.19.72-.05,1.49.37,2.13s.88,1.28,1.36,1.92c-16.43,8.84-40.87,36.51-49.71,61.43-5.06,14.27-20.45,57.75-3.91,93.41,5.67,12.17,11.9,20.88,19.65,27.32-.93-.75-2.26-.8-3.22-.08-.99.72-1.36,2.02-.91,3.14.05.13.11.29.16.53-8.12-6.9-14.62-16.03-20.5-28.68Z"/>
    <path class="cls-8" d="m1311.29,815.56l1.57.16c11.26,1.25,21.04,2.21,35.25,2.26,10.14.08,25.54.13,45.75-3.28,13.34-2.26,26.76-5.7,38.8-9.91,2.58-.93,4.63-1.7,6.31-2.37l5.35,2.4c.37.19.75.37,1.14.56-2.85,1.33-5.91,2.61-11.05,4.42-12.3,4.34-26.01,7.83-39.67,10.14-17.41,2.96-30.97,3.38-43.22,3.38-1.17,0-2.32-.03-3.43-.03-15.63-.05-26.81-1.3-35.81-2.29l-1.6-.19c-13.9-1.54-20.88-2.32-25.4-5.27-13.34-8.6-22.55-27.67-22.39-46.36.05-6.76,1.3-11.5,3.22-18.69,3.89-14.46,9.99-28.49,18.16-41.67.08-.11.16-.24.27-.32.13,1.97.61,3.94,1.38,5.86.16.37.32.8.48,1.25-6.71,11.58-11.8,23.75-15.15,36.27-1.86,7.03-2.98,11.26-3.04,17.36-.13,16.96,8.07,34.16,19.94,41.83,3.51,2.29,10.46,3.06,23.14,4.47Z"/>
    <path class="cls-8" d="m1250.79,176.99c2.66-10.94,8.39-18.08,16.06-20.1,1.78-.48,3.57-.64,5.35-.56C1284.69,66.99,1358.66,0,1445.35,0h1.57c86.75.08,160.69,67.23,173.02,156.67,1.78-.11,3.57.08,5.33.53h.03c7.67,2.05,13.37,9.21,16,20.16,2.53,10.38,2.05,23.11-1.36,35.87-5.86,21.91-18.93,38.66-32.19,41.51-19.38,47.58-57.91,84.81-104.46,101.5-3.28-.72-6.76-1.36-10.46-1.92-.37-.05-.77-.03-1.14.08,49.95-14.35,91.7-52.88,111.7-103.02.35-.88,1.14-1.52,2.1-1.65,11.53-1.52,23.86-17.44,29.32-37.86,3.17-11.9,3.65-23.72,1.33-33.26-2.16-8.97-6.5-14.72-12.2-16.27-1.89-.48-3.81-.51-5.72-.08-.72.16-1.49,0-2.1-.43-.61-.45-1.01-1.12-1.12-1.86-10.86-88.08-83.13-154.57-168.1-154.65h-1.54c-84.89,0-157.18,66.33-168.23,154.33-.08.75-.51,1.44-1.12,1.86s-1.36.59-2.1.43c-.88-.21-1.78-.29-2.69-.29-1.01,0-2.02.11-3.01.37-5.7,1.49-10.06,7.27-12.25,16.24-2.32,9.53-1.86,21.33,1.28,33.23,5.43,20.45,17.71,36.4,29.24,37.94.96.13,1.76.77,2.13,1.65,19.86,50.19,61.56,88.77,111.49,103.23-.37-.11-.77-.13-1.14-.08-3.7.56-7.19,1.17-10.46,1.89-46.54-16.77-84.97-54.08-104.27-101.69-13.26-2.88-26.31-19.65-32.11-41.59-3.38-12.73-3.83-25.48-1.3-35.87Z"/>
  </g>
</svg>