<?xml version="1.0" encoding="UTF-8"?>
<svg id="Layer_1" data-name="Layer 1" xmlns="http://www.w3.org/2000/svg" viewBox="0 0 16 16">
  <defs>
    <style>
      .cls-1, .cls-2, .cls-3, .cls-4, .cls-5, .cls-6, .cls-7 {
        stroke-width: 0px;
      }

      .cls-2 {
        fill: #f2f2f2;
      }

      .cls-3 {
        fill: #565766;
      }

      .cls-4 {
        fill: #5b727b;
      }

      .cls-5 {
        fill: #dfe3e6;
      }

      .cls-6 {
        fill: #8babb0;
      }

      .cls-7 {
        fill: #ebd4c5;
      }
    </style>
  </defs>
  <rect class="cls-2" width="16" height="16"/>
  <g>
    <path class="cls-6" d="m5.89,11.79c.27.12.83.26,1.22.32.13.02.24.02.32.02.02.04.05.07.08.09.11.11.27.16.44.16s.34-.06.47-.17c.02-.02.04-.04.08-.09.03,0,.07,0,.11,0,.07,0,.16,0,.27-.02.4-.05.96-.2,1.22-.32.02,0,.03-.01.05-.02.01,0,.02-.01.04-.02.05-.02.09-.05.14-.08,0,.04,0,.08.02.12,0,.02.02.05.03.08h0s-.01,0-.02,0c-.08,0-.16.05-.22.09,0,0-.02.01-.02.02,0,0-.01.01-.02.02h0c-.19.16-.25.43-.32.78v.06c-.04.13-.1.15-.18.19-.01,0-.03.01-.04.02-.02.01-.05.02-.07.04,0,0-.02.01-.02.02-.01.01-.03.02-.04.04h0s-.05.02-.08.03h-.02s-.02.01-.04.02h0s-.05.01-.08.02c-.03,0-.06.01-.09.02-.07.02-.14.03-.2.05-.01,0-.06.01-.12.02-.05,0-.09.02-.13.03-.01,0-.03,0-.04,0-.03,0-.05.01-.08.02,0,0,0,0,0,0-.02,0-.04,0-.05.01-.02,0-.04,0-.06.01-.04,0-.07.02-.1.02-.02,0-.03,0-.05.01-.01,0-.03,0-.04.01-.04.01-.07.02-.09.03,0,0-.01,0-.02,0-.01,0-.02,0-.03.01h0s0,0,0,0,0,0,0,0c-.03,0-.06-.01-.1-.02,0,0-.01,0-.02,0-.01,0-.02,0-.03,0-.02,0-.04,0-.07-.01,0,0-.01,0-.02,0-.01,0-.02,0-.04,0-.02,0-.04,0-.06-.01-.04,0-.09-.02-.13-.03-.22-.04-.48-.1-.5-.1-.06-.02-.13-.04-.2-.05-.06-.01-.11-.03-.16-.04-.01,0-.03,0-.04-.01h-.02s-.04-.02-.06-.03c0,0-.02,0-.02,0h0s-.05-.04-.07-.05c0,0,0,0,0,0,0,0-.02,0-.02-.01,0,0-.02,0-.02-.01-.01,0-.03-.01-.04-.02,0,0-.01,0-.02-.01-.09-.04-.14-.06-.17-.19v-.06c-.09-.35-.15-.62-.34-.78h0s-.13-.12-.24-.13c0,0-.01,0-.02,0h0s-.01,0-.02,0c.01-.03.03-.06.03-.08.01-.05.02-.09.02-.12.01,0,.03.02.04.03.02.01.05.03.07.04.01,0,.02.01.04.02.02.01.04.02.07.03Z"/>
    <path class="cls-7" d="m8.69,4.51c.13.15.32.25.52.25,0,0,0,0,.01,0,.26,0,.53-.21.64-.4.03-.05.04-.1.04-.14,0,0,0-.01,0-.02h0s0-.02,0-.02c-.02-.06-.02-.07-.03-.07-.09-.13-.24-.12-.44-.11-.07,0-.15.01-.24.01-.05,0-.1,0-.15,0-.25,0-.43-.01-.46.18,0,0,0,.02,0,.02,0,.02,0,.03,0,.05,0,.08.05.16.11.24Zm-1.73-.5s-.1,0-.15,0h0c-.09,0-.17,0-.24-.01-.2-.01-.34-.02-.44.11-.02.03-.03.06-.03.09,0,0,0,.02,0,.03,0,0,0,.01,0,.02,0,.04.02.08.04.12.1.19.38.4.64.4h.01c.19,0,.39-.1.52-.25.06-.08.1-.16.11-.24,0-.01,0-.02,0-.03v-.02s0-.01,0-.02c0,0,0,0,0,0-.03-.2-.21-.19-.46-.19Zm-2.04-.33s.03,0,.05,0c.02,0,.03,0,.05,0,.01,0,.03,0,.04,0s.02-.02.02-.03c.19-1.52,1.44-2.67,2.91-2.67h.03c1.47,0,2.72,1.15,2.91,2.68,0,.01,0,.02.02.03.01,0,.02.01.04,0,.03,0,.07,0,.1,0,.1.03.17.13.21.28.04.17.03.37-.02.58-.09.35-.31.63-.51.66-.02,0-.03.01-.04.03-.35.87-1.07,1.54-1.93,1.78-.06.02-.13.03-.19.05,0,0,0,0-.01,0-.19.03-.38.05-.57.05h-.03c-.19,0-.38-.02-.57-.05,0,0-.01,0-.02,0-.07-.01-.13-.03-.2-.05-.86-.25-1.59-.92-1.93-1.79,0-.02-.02-.03-.04-.03-.2-.03-.41-.3-.51-.66-.05-.21-.06-.41-.02-.58.04-.16.11-.26.21-.28Zm5.35-.17s.08-.05.05-.08c-.11-.09-.21-.15-.34-.2-.13-.05-.26-.08-.39-.1-.13-.02-.26-.03-.4-.02-.07,0-.14.01-.21.02-.07.01-.15.02-.2.06-.04.04-.02.11.03.13.06.02.13,0,.2-.02.06,0,.12-.01.18-.02.12,0,.25,0,.38.02.25.03.48.13.71.21Zm-1.73,2.95c0-.06-.03-.13-.09-.18s-.16-.09-.3-.09h0c-.25,0-.66.12-.66.27s.3.19.53.22c.07,0,.13.01.18.01.13,0,.23-.02.28-.07.05-.04.06-.11.06-.16Zm-.39-.83c.12-.01.27-.06.25-.21-.01-.15-.16-.23-.24-.34-.09-.13-.13-.28-.15-.43,0-.04-.06-.04-.06,0,0,.12.03.24.08.35.05.11.12.2.21.3.04.04.09.1.07.16-.01.06-.08.07-.13.07s-.1,0-.15,0c-.05-.01-.08-.04-.12-.07-.04-.03-.1.02-.09.07.03.13.22.13.33.12Zm-.8-2.31c.05-.01.08-.09.03-.13-.05-.05-.12-.05-.19-.06-.07-.01-.14-.02-.21-.02-.14,0-.27,0-.41.02-.13.02-.26.05-.38.1-.13.05-.24.11-.35.2-.04.03,0,.09.05.08.23-.09.47-.18.71-.21.12-.02.24-.02.37-.02.06,0,.13,0,.19.02.06.01.13.04.2.02Z"/>
    <polygon class="cls-1" points="10.75 13.27 10.74 13.28 10.75 13.27 10.75 13.27"/>
    <path class="cls-1" d="m10.5,12.05s.03-.04.02-.06c0,0,0,0,0,0,.12.22.21.77.25,1.08,0,.02,0,.05,0,.07-.01-.02-.04-.02-.05-.01-.02,0-.04.03-.06.08.02-.04.02-.08.02-.12-.03-.24-.12-.82-.24-1.04,0,0,0,0,0,0,.01.02.04.03.06.01Z"/>
    <path class="cls-1" d="m10.48,13.65s.01-.01.02-.02c0,0-.01.01-.02.02Z"/>
    <path class="cls-1" d="m10.4,11.61s0,0,0,0c0,.02,0,.07.02.18,0,.03.07.17.09.21h0c-.03-.07-.08-.1-.13-.11,0,0,0,0-.01,0-.01-.03-.03-.06-.03-.08-.01-.05-.02-.09-.02-.12.03-.02.06-.04.08-.06h0Z"/>
    <path class="cls-1" d="m10.37,11.88s-.01,0-.02,0c0,0,.01,0,.02,0Z"/>
    <path class="cls-3" d="m10.36,11.97s.05.02.07.05c0,0,0,0,0,.01,0,0,0,0,0,0,0,0,0,0,0,0,.12.22.21.8.24,1.04,0,.04,0,.08-.02.12-.02.04-.04.1-.05.16l-.02.06c-.02.05-.03.11-.04.12-.01.03-.04.06-.06.09,0,0,0,.01-.02.02-.05.05-.12.09-.2.12-.03.01-.06.02-.09.03-.02,0-.04.01-.06.02-.03,0-.06.02-.1.02-.02,0-.03,0-.05,0-.03,0-.06,0-.09.01h0s-.01,0-.02,0c0,0,0,0-.01,0,0,0-.01,0-.02-.01,0,0-.02-.01-.03-.02,0,0-.02-.01-.03-.02-.02-.01-.03-.02-.04-.04,0,0-.02-.01-.02-.02-.05-.05-.1-.1-.14-.16,0,0-.01-.02-.02-.03-.04-.06-.07-.13-.1-.19-.03-.09-.03-.13-.03-.14.06-.05.11-.08.16-.1.09-.04.18-.08.22-.26v-.06c.09-.33.14-.59.31-.72h0s.06-.06.11-.08c0,0,.01,0,.02,0,0,0,.02,0,.02,0,.01,0,.03,0,.04,0,0,0,.01,0,.02,0Z"/>
    <path class="cls-1" d="m10.36,11.97s-.01,0-.02,0c-.01,0-.03,0-.04,0,.02,0,.04,0,.06,0Z"/>
    <path class="cls-1" d="m10.31,11.56s.02-.02.03-.02c0,0-.02.02-.03.02Z"/>
    <path class="cls-1" d="m10.28,11.59s.02-.02.03-.02c-.01,0-.02.02-.03.02Z"/>
    <path class="cls-1" d="m10.24,11.61s.02-.01.03-.02c-.01,0-.02.01-.03.02Z"/>
    <path class="cls-1" d="m10.26,11.99s.01,0,.02,0c0,0-.01,0-.02,0Z"/>
    <path class="cls-1" d="m10.29,13.77s-.06.02-.09.03c.03,0,.06-.02.09-.03Z"/>
    <path class="cls-1" d="m10.27,3.51c-.23-.09-.47-.18-.71-.21-.12-.02-.25-.02-.38-.02-.06,0-.12,0-.18.02-.06.01-.13.04-.2.02-.05-.01-.08-.09-.03-.13.06-.05.13-.05.2-.06.07-.01.14-.02.21-.02.13,0,.27,0,.4.02.13.02.27.05.39.1.13.05.24.11.34.2.03.03,0,.09-.05.08Z"/>
    <path class="cls-1" d="m10.15,11.77s.02-.01.04-.02c-.01,0-.02.01-.04.02Z"/>
    <path class="cls-1" d="m10.11,11.99s.01-.01.02-.02c0,0-.02.01-.02.02Z"/>
    <path class="cls-1" d="m10.11,11.99s-.01.01-.02.02c0,0,.01,0,.02-.02Z"/>
    <path class="cls-1" d="m10.04,13.84s.07-.01.1-.02c-.03,0-.06.02-.1.02Z"/>
    <path class="cls-1" d="m9.99,13.85s-.06,0-.09.01c0,0,0,0,0,0,.03,0,.06,0,.09-.01Z"/>
    <path class="cls-1" d="m9.93,13.88s0,0,0,.01c0,0,0,0,0-.01Z"/>
    <path class="cls-1" d="m9.91,13.95s.03-.02.03-.04c0,0,0-.02,0-.03,0,.02,0,.04,0,.05,0,0-.01.01-.02.01Z"/>
    <path class="cls-1" d="m10.64,13.59c-.09.2-.34.32-.74.37,0,0,0,0,0,0,0,0,.02,0,.02-.01.01-.01.02-.04,0-.05,0,0,0,0,0-.01,0,0,0,0,0,0,0,0,0,0,0,0,0,0,0,0,0,0,0,0,0,0,0,0,0,0,0,0,0,0,.03,0,.06,0,.09-.01.02,0,.03,0,.05,0,.03,0,.07-.01.1-.02.02,0,.04,0,.06-.02.03,0,.06-.02.09-.03.08-.03.15-.07.2-.12,0,0,.01-.01.02-.02.02-.03.05-.06.06-.09,0-.01.02-.07.04-.12l.02-.06c.02-.05.04-.11.05-.16.02-.05.03-.07.06-.08.02,0,.04,0,.05.01,0,.03-.01.07-.02.1,0,0,0,.01,0,.02,0,0,0,0,0,0,0,0,0,0,0,.01-.02.06-.03.09-.04.12l-.02.06c-.02.07-.03.11-.04.13Z"/>
    <path class="cls-1" d="m9.93,13.87s0,0,0,0c0,0,0,0,0,0Z"/>
    <polygon class="cls-1" points="9.91 13.95 9.91 13.95 9.9 13.95 9.91 13.95"/>
    <polygon class="cls-1" points="9.91 13.86 9.91 13.86 9.91 13.86 9.91 13.86 9.91 13.86"/>
    <path class="cls-1" d="m9.91,13.86h0s0,0,0,0c0,0-.01,0-.02,0,0,0,0,0,0,0,0,0,0,0,.01,0h0Z"/>
    <path class="cls-1" d="m9.89,13.85s.01,0,.02,0c0,0-.01,0-.02,0Z"/>
    <path class="cls-1" d="m9.87,13.94s-.02-.05,0-.06c0,0,.02-.01.02-.01,0,0,0,0,0,0,0,0,.02,0,.02,0,0,0,0,0,0,0,0,0,0,0,0,0,0,0,0,0,0,0,0,0,0,0,0,0,0,0,0,0,0,.01,0,0,0,.02,0,.03,0,.02-.02.03-.03.04h0s0,0,0,0h0s0,0,0,0c0,0,0,0,0,0h0s0,0,0,0c0,0,0,0,0,0h0Z"/>
    <path class="cls-1" d="m9.9,4.19h0s0,0,0,0Z"/>
    <polygon class="cls-1" points="9.9 13.95 9.9 13.95 9.89 13.95 9.9 13.95 9.9 13.95"/>
    <path class="cls-1" d="m9.88,13.95s0,0,0,0c0,0,0,0,0,0Z"/>
    <path class="cls-1" d="m9.85,13.83s.01,0,.02.01c0,0-.02,0-.02-.01Z"/>
    <path class="cls-1" d="m9.87,13.95s-.08-.04-.12-.07c.05,0,.09,0,.14-.01,0,0-.02,0-.02.01-.02.02-.02.05,0,.06h0s0,0,0,0Z"/>
    <path class="cls-1" d="m9.83,4.09h0s0,0,0,0Z"/>
    <path class="cls-1" d="m9.82,4.08s0,0,.01.01c0,0,0,0-.01-.01Z"/>
    <path class="cls-1" d="m9.83,13.81s-.02-.01-.03-.02c0,0,.02.01.03.02Z"/>
    <path class="cls-1" d="m9.78,4.05h.01s0,0-.01,0Z"/>
    <path class="cls-1" d="m9.76,4.05h.01s0,0-.01,0Z"/>
    <path class="cls-1" d="m9.73,13.74s.02.01.02.02c0,0-.02-.01-.02-.02Z"/>
    <path class="cls-1" d="m9.77,8.29s.03.04.01.06c0,.01-.02.02-.02.03-.01,0-.02-.01-.03-.02-.01,0-.02-.02-.02-.03,0-.01,0-.03,0-.04.01-.02.04-.03.06-.01Z"/>
    <path class="cls-1" d="m9.71,13.84s.03.02.04.03c-.01,0-.03-.02-.04-.03Z"/>
    <path class="cls-1" d="m9.67,13.81s.02.02.04.03c-.01-.01-.03-.02-.04-.03Z"/>
    <path class="cls-1" d="m9.74,13.87s-.05,0-.08,0c.03,0,.05,0,.08,0Z"/>
    <path class="cls-1" d="m9.64,13.77s.02.02.04.04c-.01-.01-.02-.02-.04-.04Z"/>
    <path class="cls-1" d="m9.61,13.74s.02.02.03.04c-.01-.01-.02-.02-.03-.04Z"/>
    <path class="cls-1" d="m8.92,4.03s.08,0,.12,0c.05,0,.1,0,.15,0h0c.09,0,.17,0,.24-.01.06,0,.11,0,.16,0,.11,0,.2.02.26.11.01.02.02.04.02.06,0,.01,0,.02,0,.04,0,.04-.02.08-.04.13-.1.19-.37.39-.62.39h-.01c-.19,0-.38-.1-.5-.25-.06-.07-.1-.15-.11-.23,0-.02,0-.03,0-.05,0,0,0-.01,0-.02,0-.04.02-.07.04-.09,0,0,0-.01.01-.02.02-.02.05-.03.07-.04.01,0,.03,0,.05-.01.04,0,.09,0,.15,0Z"/>
    <path class="cls-1" d="m9.57,13.7s.02.03.03.04c-.01-.01-.02-.03-.03-.04Z"/>
    <path class="cls-1" d="m9.58,13.55s.01.02.02.03c0,0-.01-.02-.02-.03Z"/>
    <path class="cls-1" d="m9.55,13.67s.02.02.03.03c0-.01-.02-.02-.03-.03Z"/>
    <path class="cls-1" d="m9.58,13.04s-.03.01-.04.02c.01,0,.03-.01.04-.02Z"/>
    <path class="cls-1" d="m9.56,13.88s-.02,0-.03,0c.01,0,.02,0,.03,0Z"/>
    <path class="cls-1" d="m9.54,13.66s-.02-.02-.02-.03c0,.01.02.02.02.03Z"/>
    <path class="cls-1" d="m9.46,13.16s-.04-.03-.06-.02c0,0,0,0,0,0,.01-.01.03-.03.04-.04,0,0,.02-.01.02-.02.02-.02.05-.03.07-.04.01,0,.03-.01.04-.02.09-.04.14-.06.17-.19v-.06c.09-.35.15-.62.34-.78h0s.01-.01.02-.02.01-.01.02-.02c.05-.04.13-.09.22-.09,0,0,.01,0,.02,0h0s0,0,.01,0c.05,0,.1.04.13.09h0s0,.02,0,.02c.01.02,0,.05-.02.06-.02.01-.05,0-.06-.01,0,0,0,0,0,0,0,0,0,0,0-.01-.02-.03-.04-.05-.07-.05-.02,0-.04,0-.06,0,0,0-.02,0-.02,0,0,0-.01,0-.02,0-.05.02-.09.06-.11.08h0c-.16.14-.22.4-.29.73v.06c-.05.17-.14.21-.24.26-.05.02-.11.05-.16.1.02-.02.02-.04,0-.06Z"/>
    <path class="cls-1" d="m9.47,13.1s-.02.01-.02.02c0,0,.02-.01.02-.02Z"/>
    <path class="cls-1" d="m9.44,13.5s.01.03.02.04c0-.01-.01-.03-.02-.04Z"/>
    <path class="cls-1" d="m9.37,13.28s0,0,0-.01c0,0,0,0,0-.01h0s.06-.02.08-.03c0,0,0,0,.01,0,0,0,0,.05.03.14.02.06.05.13.1.19,0,0,.01.02.02.03.04.06.08.11.14.16,0,0,.02.01.02.02.01.01.03.02.04.04,0,0,.02.01.03.02,0,0,.02.01.03.02,0,0,.01,0,.02.01,0,0,0,0,.01,0,0,0,.01,0,.02,0,0,0,0,0-.01,0,0,0,0,0,0,0,0,0,0,0,0,0-.05,0-.09,0-.14.01-.01,0-.03-.02-.04-.03-.01-.01-.03-.02-.04-.03-.01-.01-.02-.02-.04-.04s-.02-.02-.03-.04-.02-.02-.03-.04c0-.01-.02-.02-.03-.03h0s-.02-.03-.02-.04c-.02-.03-.04-.06-.05-.09,0-.01-.01-.03-.02-.04,0,0,0,0,0,0,0-.01-.01-.03-.02-.04,0-.02-.02-.04-.02-.05v-.02s-.02-.03-.02-.04c0,0,0-.02,0-.03,0-.01,0-.02,0-.03Z"/>
    <path class="cls-1" d="m9.43,13.46s.01.02.02.04l-.02-.04Z"/>
    <path class="cls-1" d="m9.44,13.23s-.05.02-.08.03c0-.05,0-.08.03-.11,0,0,0,0,0,0h0s0,0,0,0c.02,0,.05,0,.06.02.01.02,0,.04,0,.06,0,0,0,0-.01,0Z"/>
    <path class="cls-1" d="m9.39,13.38v.02s0-.02,0-.02Z"/>
    <path class="cls-1" d="m9.37,13.32s0,.02,0,.03c0,0,0-.02,0-.03Z"/>
    <path class="cls-1" d="m9.37,13.28s0,.02,0,.03c0-.01,0-.02,0-.03Z"/>
    <path class="cls-4" d="m9.35,13.27s.01,0,.02,0c0,0,0,0,0,.01,0,0,0,0,0,.01,0,.01,0,.02,0,.03,0,0,0,.02,0,.03,0,.01,0,.03.01.04,0,0,0,.01,0,.02,0,.02.01.04.02.05l.02.04s0,0,0,0c0,.01.01.03.02.04.02.03.03.06.05.09,0,.01.02.02.02.03h0s.02.03.03.04c0,.01.02.03.03.04.01.01.02.02.03.04s.02.02.04.04c.01.01.02.02.04.03.01.01.03.02.04.03,0,0,0,0-.01,0-.02,0-.05,0-.08,0-.03,0-.06,0-.09,0,0,0,0,0,0,0,0,0-.02,0-.03,0-.05,0-.12-.02-.2-.04-.02,0-.04,0-.06-.01-.06-.01-.13-.03-.2-.05-.02,0-.05-.01-.07-.02-.15-.04-.31-.09-.46-.13-.02,0-.03,0-.05-.01-.08-.02-.17-.05-.24-.07-.01,0-.02,0-.03,0,.01,0,.03,0,.04-.01,0,0,.01,0,.02,0h0s.02,0,.04,0c.04,0,.08-.02.12-.03.02,0,.05-.01.07-.02.02,0,.03,0,.05-.01h.02s.08-.02.11-.03c0,0,.01,0,.02,0,0,0,.01,0,.02,0,.01,0,.02,0,.03,0,.01,0,.03,0,.04,0,.08-.02.12-.02.13-.03.06-.02.13-.03.2-.05.06-.01.12-.03.17-.04,0,0,.01,0,.02,0,.01,0,.02,0,.04-.01Z"/>
    <path class="cls-1" d="m9.36,13.26s0,0,0,.01c0,0,0,0,0-.01Z"/>
    <path class="cls-1" d="m9.35,13.27s.01,0,.02,0c0,0-.01,0-.02,0Z"/>
    <path class="cls-1" d="m8.99,7.04c.59.13.82.38.91.57.09.21.06.46-.09.69.3.17.73.66.89,1.11.09.26.36,1.04.06,1.69-.1.22-.22.38-.36.5,0,0,0,0,0,0,0-.02,0-.04-.02-.05s-.04-.01-.06,0c0,0,0,0,0,0,0,0,0,0,0,0,.13-.11.24-.26.34-.47.29-.62.02-1.37-.06-1.62-.15-.43-.57-.91-.86-1.06,0-.01.02-.02.02-.03.01-.02,0-.05-.01-.06-.02-.01-.05,0-.06.01.15-.22.19-.45.11-.65-.08-.19-.33-.45-1.01-.55h0c.06-.02.12-.04.18-.06Z"/>
    <path class="cls-1" d="m9.3,13.18h.02s-.01,0-.02,0Z"/>
    <path class="cls-1" d="m9.27,13.82s.04,0,.06.01c-.02,0-.04,0-.06-.01Z"/>
    <path class="cls-1" d="m9.29,13.28s.01,0,.02,0c0,0-.01,0-.02,0Z"/>
    <path class="cls-1" d="m9.3,13.18s-.02,0-.04.01c.01,0,.02,0,.04-.01Z"/>
    <path class="cls-1" d="m9.26,13.19s-.05.01-.08.02c.03,0,.05-.01.08-.02Z"/>
    <path class="cls-7" d="m8.93,7.84c.08.04.12.06.14.11,0,.02.01.05.01.07h0s0,0,0,0h0c-.01.13-.14.27-.17.3,0,0,0,0,0,0,0,0,0,0,0,0-.04.03-.09.07-.17.1-.02,0-.04.01-.06.02-.1.03-.21.05-.32.05h-.72c-.12,0-.22-.02-.33-.06-.01,0-.03,0-.04-.01,0,0,0,0,0,0-.03-.01-.05-.02-.07-.03-.02,0-.03-.02-.04-.02h0s0,0,0,0c0,0,0,0,0,0h0s-.02-.01-.03-.02c-.02-.01-.03-.02-.04-.03-.04-.04-.18-.2-.17-.33,0-.01,0-.03,0-.04.02-.05.06-.08.14-.11.07-.03.15-.07.23-.16.04-.04.07-.1.09-.17h0s0,0,0,0c0,0,0,0,0-.01.02-.06.04-.13.05-.2,0-.04.01-.08.01-.12.17.03.35.05.53.05h.03c.18,0,.36-.02.54-.05,0,.09.02.21.06.32,0,0,0,.01,0,.02,0,0,0,0,0,.01,0,0,0,0,0,0,.02.07.05.13.09.17.08.09.16.13.23.16Z"/>
    <path class="cls-1" d="m9.07,13.77s-.05-.01-.07-.02c.02,0,.05.01.07.02Z"/>
    <path class="cls-1" d="m10.1,11.79c-.27.12-.83.26-1.22.32-.02,0-.05-.01-.05-.04s.01-.05.04-.05c.38-.05.94-.2,1.2-.31.07-.03.13-.06.18-.1.01,0,.02-.01.03-.02h0s.02-.01.03-.02c.01,0,.02-.02.03-.02,0,0,0,0,0,0,.02-.01.04-.01.06,0s.02.04.02.05c0,0,0,0,0,0,0,0,0,0,0,0h0s-.05.05-.08.07c-.04.03-.09.05-.14.08-.01,0-.02.01-.04.02-.01,0-.03.01-.05.02Z"/>
    <polygon class="cls-5" points="8.98 8.39 8.98 8.39 8.98 8.39 8.98 8.39"/>
    <path class="cls-1" d="m8.98,8.39s0,0,0,0h0Z"/>
    <path class="cls-1" d="m8.82,4.03s-.01,0-.02,0c0,0,.01,0,.02,0Z"/>
    <path class="cls-1" d="m9.27,8.8c-.14.08-.29.11-.45.15h-.05s0,.01-.01.01c-.02,0-.04-.01-.05-.04,0-.02,0-.05.03-.06h.05c.16-.05.3-.08.43-.15.2-.11.37-.26.48-.43,0,.01-.01.03,0,.04,0,.01.01.02.02.03.01,0,.02.01.03.02-.12.16-.29.31-.49.42Z"/>
    <path class="cls-1" d="m8.72,4.05s.03,0,.05-.01c-.02,0-.03,0-.05.01Z"/>
    <path class="cls-1" d="m8.68,7.13s.04,0,.06-.02c-.02,0-.04.01-.06.02Z"/>
    <path class="cls-1" d="m8.73,13.42s.02,0,.03,0c0,0-.02,0-.03,0Z"/>
    <path class="cls-1" d="m8.78,13.31s-.09.02-.13.03c.04,0,.09-.02.13-.03Z"/>
    <path class="cls-1" d="m8.97,7.74c.08.04.15.07.19.16.02.04.02.08.02.12,0-.04,0-.08-.02-.11-.04-.09-.11-.13-.19-.16-.07-.03-.14-.06-.2-.14-.02-.02-.04-.06-.06-.1,0,0,0,0,0,0,.02.04.03.07.05.09.06.07.13.1.2.14Z"/>
    <path class="cls-1" d="m8.77,7.61c.06.07.13.1.2.14.08.04.15.07.19.16.01.04.02.07.02.11h0s0,0,0,0c0,0,0,0,0,0,0,0,0,0,0,0h0s0-.08-.02-.12c-.04-.09-.11-.12-.19-.16-.07-.03-.14-.06-.2-.14-.02-.02-.04-.06-.06-.1,0,0,0,0,0,0,.02.04.04.07.06.1Z"/>
    <path class="cls-1" d="m8.71,4.05h0s0,0,0,0Z"/>
    <path class="cls-1" d="m8.71,13.42s-.01,0-.02,0c0,0,.01,0,.02,0Z"/>
    <path class="cls-1" d="m8.7,7.47s.01.03.02.04c0,0,0,0,0,0,0,0,0-.02-.01-.03,0,0,0,0,0-.01h0Z"/>
    <polygon class="cls-1" points="8.7 7.46 8.7 7.47 8.7 7.47 8.7 7.46"/>
    <path class="cls-1" d="m8.7,7.46h0s0,0,0,0Z"/>
    <path class="cls-1" d="m8.69,7.43s0,.02,0,.03c0,0,0,0-.01-.01,0,0-.02,0-.02,0,0,0,.02,0,.03,0Z"/>
    <path class="cls-1" d="m8.74,7.65c.15.16.32.15.38.28.01.03.02.06.01.09,0,0,0,0,0,0,0,.01,0,.03,0,.04-.02,0-.04-.02-.04-.04,0,0,0,0,0,0h0s0-.05-.01-.08c-.02-.06-.07-.08-.14-.11-.07-.03-.15-.07-.23-.16-.04-.04-.07-.1-.09-.17,0,0,0,0,0,0,0,0,0,0,0-.01,0-.02,0-.05.03-.06h0s.01,0,.02,0c0,0,.02,0,.02,0,0,0,0,0,.01.01,0,0,0,0,0,0h0s0,.01,0,.01c-.02,0-.03,0-.05,0,0,0,0,0,0,0,0,0,0,0,0,.01h0c.02.06.05.12.08.15Z"/>
    <path class="cls-1" d="m9.12,7.93c-.06-.14-.23-.12-.38-.28-.03-.04-.06-.09-.08-.15h0s0,0,0-.01c0,0,0,0,0,0,.02,0,.03,0,.05,0,0,0,0,0,0,.01,0,.01,0,.02.01.03,0,0,0,0,0,0,.02.04.04.07.06.1.06.07.13.1.2.14.08.04.15.07.19.16.01.04.02.07.02.11h0s0,0,0,.01c0,.02-.02.03-.04.03h0s0,0,0,0c0-.01,0-.03,0-.04,0,0,0,0,0,0,0-.03,0-.06-.01-.09Z"/>
    <path class="cls-1" d="m8.65,4.1s0,.01-.01.02c0,0,0-.01.01-.02Z"/>
    <path class="cls-1" d="m8.6,7.05c.06-.01.13-.03.19-.05,0,0,.01,0,.02,0,.06,0,.12.02.18.03-.06.02-.12.04-.18.06h0s-.04.01-.06.02c-.02,0-.04.01-.06.02-.01,0-.03,0-.04,0,0-.01,0-.02,0-.04,0-.01,0-.03-.02-.04,0,0-.02-.01-.03-.01Z"/>
    <path class="cls-1" d="m8.55,7.16s0,0,0,0c.03,0,.06-.01.09-.02,0,.08.02.19.05.29,0,0-.02,0-.03,0,0,0-.01,0-.02,0,0,0,0,0,0,0-.02,0-.03.02-.03.04-.03-.1-.05-.23-.06-.32Z"/>
    <path class="cls-1" d="m8.63,4.11s0,0,0,0c0,0,0,0,0,0Z"/>
    <path class="cls-1" d="m8.93,7.83c.07.03.12.06.14.11,0,.02.01.05.01.07h0s0,0,0,0c0,0,0,0,0,0h0s0-.05-.01-.07c-.02-.05-.06-.08-.14-.11-.07-.03-.15-.07-.23-.16-.04-.04-.07-.1-.09-.17,0,0,0,0,0,0,0,0,0,0,0-.01,0,0,0-.01,0-.02,0-.02.01-.03.03-.04,0,0,0,0,0,0,0,0,.01,0,.02,0,0,0-.01,0-.02,0h0s-.04.03-.03.06c0,0,0,0,0,.01,0,0,0,0,0,0,.02.07.05.13.09.17.08.09.16.13.23.16Z"/>
    <path class="cls-1" d="m8.7,4.5c.12.15.31.24.5.25h.01c.25,0,.52-.2.62-.39.02-.05.04-.09.04-.13,0,.04-.02.08-.04.13-.1.19-.37.39-.62.39h-.01c-.19,0-.38-.1-.5-.25-.06-.08-.1-.16-.11-.23,0,.07.05.15.11.23Z"/>
    <path class="cls-1" d="m9.04,4.03s-.09,0-.12,0c-.06,0-.11,0-.15,0-.02,0-.03,0-.05.01-.03,0-.05.02-.07.04,0,0,0,.01-.01.02-.02.02-.03.05-.04.09,0,0,0,.01,0,.02,0,0,0-.02,0-.02,0-.04.02-.06.03-.09,0,0,0,0,0,0,.02-.03.05-.04.08-.06h0s.05-.01.08-.02c0,0,.01,0,.02,0,.03,0,.06,0,.1,0,.04,0,.08,0,.12,0,.05,0,.1,0,.16,0,.09,0,.17,0,.24-.01.06,0,.11,0,.16,0l.17.03s0,0,.01,0c0,0,0,0,.01,0l.03.02s0,0,.01.01c0,0,0,0,0,0l.02.03s.02.04.02.07c0-.02-.01-.05-.02-.06-.06-.09-.14-.11-.26-.11-.05,0-.1,0-.16,0-.07,0-.15.01-.24.01h0c-.05,0-.1,0-.15,0Z"/>
    <path class="cls-1" d="m8.7,4.5c.12.15.31.24.5.25h.01c.25,0,.52-.2.62-.39.03-.05.04-.09.04-.13,0-.01,0-.03,0-.04,0-.02-.01-.05-.02-.07l-.02-.03h0s0,0-.01-.01l-.03-.02h-.01s-.01-.02-.01-.02l-.17-.03s-.1,0-.16,0c-.07,0-.15.01-.24.01-.05,0-.11,0-.16,0-.04,0-.09,0-.12,0-.04,0-.07,0-.1,0,0,0-.01,0-.02,0-.03,0-.06,0-.08.02,0,0,0,0,0,0-.03.01-.06.03-.08.06,0,0,0,0,0,0-.02.02-.03.05-.03.09,0,0,0,.02,0,.02,0,.02,0,.03,0,.05,0,.07.04.16.11.23Zm-.12-.3c.04-.22.27-.17.61-.17s.55-.08.67.09c.14.2-.28.65-.66.64-.35,0-.66-.32-.62-.56Z"/>
    <path class="cls-1" d="m8.59,13.44h-.02s.01,0,.02,0Z"/>
    <path class="cls-1" d="m9.2,4.77c-.19,0-.39-.1-.52-.25-.06-.08-.1-.16-.11-.24,0-.02,0-.04,0-.05,0,0,0-.01,0-.02.03-.2.21-.19.46-.18.05,0,.1,0,.15,0h0c.09,0,.17,0,.24-.01.2-.01.34-.02.44.11,0,0,0,.01.03.07h0s0,.02,0,.02c0,0,0,.01,0,.02,0,.04-.02.09-.04.14-.11.19-.38.4-.64.4h-.01Zm0-.74c-.33,0-.57-.05-.61.17-.04.24.26.55.62.56.38,0,.8-.44.66-.64-.12-.17-.33-.09-.67-.09Z"/>
    <path class="cls-1" d="m8.53,13.36s.05-.01.08-.02c-.03,0-.05.01-.08.02Z"/>
    <path class="cls-1" d="m8.69,4.51c.13.15.32.25.52.25h.01c.26,0,.53-.21.64-.4.03-.05.04-.09.04-.14,0,.04-.02.09-.04.14-.11.19-.38.4-.64.4,0,0,0,0-.01,0-.19,0-.39-.1-.52-.25-.06-.08-.1-.16-.11-.24,0,.08.05.16.11.24Z"/>
    <path class="cls-1" d="m8.58,4.19c.03-.2.21-.19.46-.18.05,0,.1,0,.15,0,.09,0,.17,0,.24-.01.2-.01.34-.02.44.11,0,0,0,.02.03.07-.02-.06-.02-.07-.03-.07-.09-.13-.24-.12-.44-.11-.07,0-.15.01-.24.01h0c-.05,0-.1,0-.15,0-.25,0-.43-.01-.46.18,0,0,0,.01,0,.02,0,0,0-.02,0-.02Z"/>
    <path class="cls-1" d="m8.6,12.13s-.08,0-.11,0c0,0,.01-.02.02-.02.01-.02.03-.04.04-.06.06,0,.16,0,.32-.02-.03,0-.04.03-.04.05s.03.04.05.04c-.11.01-.2.02-.27.02Z"/>
    <path class="cls-1" d="m8.5,13.61s.03,0,.05.01c-.02,0-.03,0-.05-.01Z"/>
    <path class="cls-1" d="m8.52,13.36s-.04,0-.05.01c.02,0,.04,0,.05-.01Z"/>
    <path class="cls-1" d="m8.52,6.46c0,.05,0,.11-.05.14-.07.06-.21.08-.45.05-.34-.04-.51-.1-.51-.2,0-.12.38-.25.64-.25h0c.25,0,.37.13.37.25Z"/>
    <path class="cls-1" d="m8.45,13.48s.05-.01.07-.02c-.02,0-.05.01-.07.02Z"/>
    <path class="cls-1" d="m8.46,11.4c.06.03.11.1.13.2.03.11.03.28-.05.43h0c.08-.15.08-.32.05-.43-.02-.1-.07-.17-.13-.2-.02-.01-.05-.02-.07-.03,0,0,0,0,0,0,.03,0,.05.02.07.03Z"/>
    <path class="cls-1" d="m9.09,10.99c-.08.04-.15.07-.21.1l-.03.02c-.25.12-.39.18-.45.27,0,0-.02,0-.03,0h-.02c.05-.04.13-.08.15-.15,0-.01,0-.02,0-.04h0c.08-.04.18-.09.31-.15l.03-.02c.06-.03.13-.06.21-.1.47-.22.49-.56.49-.6,0-.05-.06-.12-.15-.18-.02-.01-.03-.04-.01-.06.01-.02.04-.03.06-.01.07.05.2.15.19.26,0,.04-.02.43-.54.68Z"/>
    <path class="cls-7" d="m8.26,11.12s.02-.01.04-.02c.02,0,.07-.04.08-.03.01.01.02.08,0,.12-.01.04-.07.07-.11.09-.05.02-.1.05-.08.11.01.04.06.06.11.07.01,0,.02,0,.03,0,.03,0,.06.02.08.02.03.01.05.05.07.09,0,.01.01.03.02.05.03.11.02.27-.07.42-.02.04-.05.07-.08.1-.21.19-.58.19-.77.01-.01-.01-.02-.02-.03-.04.04-.01.08-.04.09-.08.01-.04.03-.09.04-.13.05-.15.09-.28.06-.45,0,0,0-.02,0-.02,0-.04-.02-.07-.04-.1.01-.01.03-.02.04-.03.06-.04.1-.05.18-.06.08-.02.18-.04.36-.11Z"/>
    <path class="cls-1" d="m8.31,13.41s.07-.02.1-.02c-.04,0-.07.02-.1.02Z"/>
    <path class="cls-1" d="m8.27,11.39c.03-.09.1-.15.21-.21,0,.01,0,.03,0,.04-.02.08-.09.12-.15.15h.02s.02.01.03.01c0,0,0,0,0,0,.03,0,.05.02.07.03.06.03.11.1.13.2.03.11.03.28-.05.43h0s-.02.04-.04.06c0,0-.01.02-.02.02-.01,0-.02,0-.04,0-.01,0-.03-.01-.03-.03s0-.03,0-.04c.09-.14.1-.31.07-.42,0-.02,0-.03-.02-.05-.02-.04-.04-.08-.07-.09-.02,0-.05-.02-.08-.03h-.03s-.02-.02-.03-.03,0-.03,0-.04Z"/>
    <path class="cls-1" d="m8.29,13.51s.02,0,.04,0c-.01,0-.02,0-.04,0Z"/>
    <path class="cls-1" d="m8.31,13.41s-.03,0-.05.01c.01,0,.03,0,.05-.01Z"/>
    <path class="cls-1" d="m8.3,9.03s-.01,0-.02,0c0,0,.01,0,.02,0Z"/>
    <path class="cls-1" d="m8.29,13.51s-.02,0-.02,0c0,0,.01,0,.02,0Z"/>
    <path class="cls-1" d="m8.21,7.11s.08,0,.12-.01c-.04,0-.08,0-.12.01Z"/>
    <path class="cls-1" d="m8.25,9.04s.02,0,.02,0c0,0-.02,0-.02,0Z"/>
    <path class="cls-1" d="m8.24,9.02s0,0,0,0c.06,0,.12-.01.17-.05.02-.01.03-.03.02-.04-.02-.05-.09-.07-.17-.07,0,0,0,0,0-.01,0,0,0,0,.01,0,.05,0,.09.01.12.03s.05.03.05.05c0,.04-.08.09-.2.09Z"/>
    <path class="cls-1" d="m8.23,13.53s.02,0,.03,0c-.01,0-.02,0-.03,0h0Z"/>
    <path class="cls-1" d="m8.24,8.84s.01-.01.02,0c0,0,0,0,0,0,0,0-.01,0-.02,0Z"/>
    <path class="cls-1" d="m8.27,8.86s-.02,0-.03,0c0,0,0,0,0-.01,0,0,0,0,0,0,0,0,.01,0,.02,0,0,0,0,0,0,.01Z"/>
    <path class="cls-1" d="m8.26,13.42s-.03,0-.04.01c.01,0,.03,0,.04-.01Z"/>
    <polygon class="cls-1" points="8.24 9.02 8.24 9.02 8.24 9.02 8.24 9.02 8.24 9.02 8.23 9.02 8.24 9.02"/>
    <path class="cls-1" d="m8.24,9.04s0,0,.01,0c0,0,0,0-.01,0h0s0,0,0,0Z"/>
    <path class="cls-1" d="m8.23,9.02s-.05,0-.09-.02c.03-.04.05-.05.07-.07.02-.02.03-.04.03-.07.01,0,.02,0,.03,0,.02.05,0,.11-.03.16h0s0,0,0,0h0Z"/>
    <polygon class="cls-1" points="8.23 9.04 8.23 9.04 8.23 9.04 8.23 9.04"/>
    <polygon class="cls-1" points="8.22 9.04 8.23 9.04 8.23 9.04 8.22 9.04"/>
    <path class="cls-1" d="m8.26,9.4c.01-.1-.09-.15-.13-.24-.01-.04-.02-.08,0-.12.03,0,.07,0,.1,0,0,0,0,0,0,0,0,0,0,0,0,0,0,0,0,.01,0,.01,0,0,0,.01,0,.02.02.08.1.12.13.21.04.12-.05.25-.15.3,0,0-.01,0-.01,0,0,0,0,0,0-.01.03-.06.07-.12.07-.18Z"/>
    <path class="cls-1" d="m8.21,7.11s-.09,0-.13,0c.04,0,.09,0,.13,0Z"/>
    <path class="cls-1" d="m8.22,9.04s-.06,0-.1,0h0s.04,0,.07,0h.02s0,0,0,0Z"/>
    <path class="cls-1" d="m8.14,9.01s.04,0,.06,0h.02s.01,0,.02,0h0s0,0,0,0h0s0,.01-.01.02c0,0,0,0,0,0,0,0,0,0,0,0,0,0,0,0,0,0h-.02s-.05,0-.07-.01c0,0,0-.01,0-.02h0Z"/>
    <path class="cls-1" d="m8.19,9.02s-.04,0-.06,0c0,0,0,0,0,0,.03,0,.07.02.09.02,0,0-.01,0-.02,0h-.02Z"/>
    <path class="cls-1" d="m8.9,13.29c.06-.02.13-.04.2-.05.03,0,.06-.01.09-.02.03,0,.05-.01.08-.02h0s.02,0,.04-.01h.02s.06-.02.08-.03c0,0,0,0,0,0-.02.02-.03.06-.03.11h0s-.01,0-.02,0c-.01,0-.02,0-.04.01,0,0-.01,0-.02,0-.05.01-.11.03-.17.04-.07.02-.14.03-.2.05-.01,0-.05.01-.13.03-.01,0-.02,0-.04,0,0,0-.02,0-.03,0,0,0-.01,0-.02,0,0,0-.01,0-.02,0-.03,0-.07.01-.11.02h-.02s-.03.01-.05.01c-.02,0-.05.01-.07.02-.04,0-.08.02-.12.03-.01,0-.02,0-.04,0h0s-.02,0-.02,0c-.02,0-.03,0-.04.01h0s-.06-.02-.08-.02h-.04s-.01-.02-.02-.02c0,0,.02,0,.03-.01,0,0,.01,0,.02,0,.03-.01.06-.02.09-.03.01,0,.03,0,.04-.01.01,0,.03,0,.05-.01.03,0,.07-.02.1-.02.02,0,.04,0,.06-.01.02,0,.04,0,.05-.01,0,0,0,0,0,0,.02,0,.05-.01.08-.02.01,0,.02,0,.04,0,.04,0,.09-.02.13-.03.06-.01.11-.02.12-.02Z"/>
    <path class="cls-1" d="m8.11,13.47s.01,0,.02,0c0,0-.01,0-.02,0Z"/>
    <path class="cls-1" d="m8.88,14.98c.35.06.62.06.79.06.27,0,.45-.02.61-.04h.03c.22-.03.34-.04.4-.08.21-.13.35-.43.35-.72,0-.11-.02-.18-.05-.3-.06-.22-.15-.43-.26-.63,0,0,0-.02,0-.02.01-.03.02-.07.02-.1,0,0,0,0,0,0,.14.23.25.47.31.72.03.12.05.21.06.32h0c0,.33-.16.65-.39.8-.08.05-.2.06-.44.09h-.03c-.16.02-.35.04-.62.04h-.04c-.22,0-.46,0-.77-.06-.24-.04-.47-.1-.69-.18-.09-.03-.14-.05-.19-.08,0,0,.01,0,.02,0,.02,0,.03-.02.03-.04,0-.02-.01-.03-.03-.04.04.02.1.05.2.08.21.07.44.13.67.17Z"/>
    <path class="cls-1" d="m8.08,13.58s-.03-.02-.03-.03,0-.03.01-.04c0,0,.01-.01.02-.02h0s.01,0,.02,0h.04s.05.03.08.04c-.05.02-.09.03-.1.04,0,0-.02.01-.03.01,0,0,0,0-.01,0,0,0,0,0,0,0h0Z"/>
    <path class="cls-1" d="m9.57,13.97c-.17,0-.84-.19-1.46-.38h-.04s0,0,.01,0c.01,0,.02,0,.03-.01.01-.01.05-.03.1-.04h0s.02,0,.03,0c.07.02.15.05.24.07.02,0,.03,0,.05.01.15.04.31.09.46.13.02,0,.05.01.07.02.07.02.14.04.2.05.02,0,.04,0,.06.01.09.02.16.03.2.04.01,0,.02,0,.03,0,0,0,0,0,0,0,.03,0,.06,0,.09,0,.03,0,.05,0,.08,0,0,0,0,0,.01,0,.04.03.08.05.12.07,0,0,0,0,0,0h0s0,0,0,0c0,0,0,0,0,0-.1.01-.21.02-.32.02Z"/>
    <polygon class="cls-1" points="8.08 13.58 8.07 13.58 8.08 13.58 8.08 13.58"/>
    <path class="cls-1" d="m8.07,13.49s0,0,0,0c0,0,0,0,0,0Z"/>
    <path class="cls-1" d="m8.06,13.58s0,0,0,0c0,0,0,0,0,0Z"/>
    <path class="cls-1" d="m8.14,9.01c-.06-.02-.11-.04-.11-.08,0-.05.09-.09.21-.09h0s0,0,0,0c0,0,0,0,0,.01-.07,0-.14.02-.17.04-.06.05,0,.08.07.1,0,0,0,0,0,0Z"/>
    <path class="cls-1" d="m8.05,13.58s-.02,0-.03,0c.01,0,.02,0,.03,0Z"/>
    <path class="cls-1" d="m8.12,9.02c-.07-.02-.11-.05-.11-.09,0-.06.1-.11.23-.11.01,0,.03,0,.04,0,.11,0,.19.05.19.11,0,.03-.03.06-.07.08-.03.01-.06.02-.09.03,0,0-.01,0-.02,0,0,0,0,0,0,0,0,0-.02,0-.02,0,0,0,0,0,0,0,0,0,0,0-.01,0,0,0,0,0,0,0h0s0,0,0,0c0,0,0-.01.01-.02.12,0,.2-.05.2-.09,0-.02-.02-.04-.05-.05s-.07-.03-.12-.03c0,0,0,0-.01,0,0,0,0,0,0,0,0,0-.02,0-.02,0h0c-.11,0-.21.04-.21.09,0,.03.04.06.11.08h0s0,.01,0,.02Z"/>
    <path class="cls-1" d="m8.15,5.63c-.1.01-.3,0-.33-.12-.01-.05.04-.1.09-.07.04.03.06.06.12.07.05,0,.1,0,.15,0s.11-.01.13-.07c.01-.06-.03-.12-.07-.16-.08-.09-.16-.18-.21-.3-.05-.11-.08-.23-.08-.35,0-.04.06-.04.06,0,.02.16.06.3.15.43.08.11.23.2.24.34.01.15-.13.2-.25.21Z"/>
    <path class="cls-1" d="m8.01,8.93s.04.08.11.09h0c-.05,0-.1-.03-.12-.08h0s0-.01,0-.02c0,0,0-.01,0-.01.04-.14.34-.13.43-.05.05.03.05.1,0,.13-.04.02-.08.03-.12.04.04,0,.07-.01.09-.03.04-.02.07-.05.07-.08,0-.05-.08-.1-.19-.11-.01,0-.02,0-.04,0-.13,0-.23.05-.23.11Z"/>
    <path class="cls-1" d="m8,8.93s0,.01,0,.02c0,0,0-.01,0-.02,0,0,0,0,0-.01,0,0,0,0,0,.01Z"/>
    <path class="cls-1" d="m7.99,7.2h.03c.18,0,.36-.01.54-.04h0c-.18.03-.36.05-.54.05h-.03c-.18,0-.36-.02-.53-.05h0c.18.03.35.04.53.04Z"/>
    <path class="cls-1" d="m7.94,13.46s.01,0,.02,0c0,0-.01,0-.02,0Z"/>
    <path class="cls-1" d="m7.84,13.44s.05,0,.07.01c-.02,0-.04,0-.07-.01Z"/>
    <path class="cls-1" d="m7.88,14.76l-.08-.03.08.03Z"/>
    <path class="cls-1" d="m7.82,13.43s.01,0,.02,0c0,0-.01,0-.02,0Z"/>
    <path class="cls-1" d="m7.84,8.84s0,.01,0,.02c0,0-.02,0-.02,0,0,0,0,0,0-.01,0,0,0,0,0,0,0,0,0,0,.01,0,0,0,0,0,0,0Z"/>
    <path class="cls-1" d="m7.81,8.86s0,0,0-.01c0,0,.02,0,.02,0,0,0,0,0,0,.01,0,0-.02,0-.03,0Z"/>
    <path class="cls-1" d="m7.83,8.83s0,0,0,0c0,0,0,0-.01,0,0,0,0,0,0,0Z"/>
    <path class="cls-1" d="m7.94,8.93s-.05-.05-.1-.07c0,0,0,0,0-.01.07.01.13.04.13.08,0,.04-.07.08-.16.08,0,0,0-.01,0-.02.06-.01.12-.04.13-.07Z"/>
    <path class="cls-1" d="m7.73,9c.02-.05.05-.1.07-.15,0,0,.02,0,.03,0,0,.02,0,.04-.01.06,0,.02-.01.05-.02.07-.02,0-.05,0-.07,0Z"/>
    <polygon class="cls-1" points="7.8 9.01 7.8 9.02 7.8 9.02 7.8 9.01 7.8 9.01"/>
    <path class="cls-1" d="m7.8,9.02h0s0,0,0,0Z"/>
    <path class="cls-1" d="m7.8,9.04s0,0,0-.01h0s0,0,0,0c.09,0,.16-.05.16-.08,0-.04-.05-.07-.13-.08,0,0,0-.01,0-.02,0,0,0,0,0,0,.09.01.15.05.15.1,0,.05-.07.09-.18.11h0Z"/>
    <path class="cls-6" d="m6.86,8.53c.33.26.7.26,1.13.26.03,0,.06,0,.09,0,.19,0,.38,0,.55-.04.18-.03.34-.1.5-.22.23-.19.55-.57.38-.8-.18-.26-.48-.37-.83-.3-.03-.1-.04-.21-.05-.29.01,0,.03,0,.04,0,.02,0,.04,0,.06-.02.02,0,.04-.01.06-.02.68.11.92.36,1.01.55.08.19.05.43-.11.65-.11.16-.28.31-.48.43-.13.07-.27.1-.43.14h-.05s-.04.04-.03.07c0,.02.02.04.05.04,0,0,0,0,.01,0h.05c.16-.05.31-.08.45-.16.2-.11.37-.26.49-.42.28.15.71.63.86,1.06.09.25.35,1,.06,1.62-.1.21-.21.36-.34.47,0,0,0,0,0,0,0,0-.02.02-.03.02-.01,0-.02.02-.03.02h0s-.02.01-.03.02c-.05.04-.12.07-.18.1-.26.11-.82.26-1.2.31-.15.02-.25.02-.32.02.08-.15.08-.32.05-.43-.02-.1-.07-.17-.13-.2-.02-.01-.05-.02-.07-.03.06-.08.2-.15.45-.27l.03-.02c.06-.03.14-.06.21-.1.51-.25.54-.64.54-.68,0-.11-.12-.21-.19-.26-.02-.01-.05,0-.06.01-.01.02,0,.05.01.06.09.06.15.13.15.18,0,.04-.02.38-.49.6-.08.04-.15.07-.21.1l-.03.02c-.13.06-.23.11-.31.15,0-.06,0-.15-.05-.19-.06-.04-.14,0-.19.03-.01,0-.02.01-.03.01-.17.07-.26.08-.34.1-.08.01-.14.03-.22.08-.02.01-.04.03-.05.04-.08-.07-.21-.13-.43-.23l-.04-.02c-.06-.03-.13-.06-.21-.1-.47-.23-.48-.56-.49-.6,0-.05.06-.11.15-.18.02-.01.03-.04.01-.06-.01-.02-.04-.03-.06-.01-.07.05-.2.15-.19.26,0,.04.02.43.54.68.08.04.15.07.21.1l.03.02c.22.1.35.17.42.24,0,0,0,0,0,.01.03.03.05.07.06.12.03.15,0,.26-.05.41-.01.04-.03.08-.04.13,0,0-.01.02-.08.02,0,0-.01,0-.01,0-.08,0-.18,0-.32-.02-.39-.05-.94-.19-1.2-.31-.07-.03-.13-.06-.19-.1-.01,0-.02-.01-.03-.02-.02-.01-.04-.03-.06-.04,0,0,0,0,0,0h0s0,0,0,0c-.13-.11-.24-.26-.34-.47-.29-.62-.02-1.37.07-1.62.15-.43.58-.91.86-1.06.12.16.29.31.49.42.14.08.29.11.45.15h.05s0,.01.01.01c.02,0,.04-.01.04-.04,0-.02,0-.05-.03-.06h-.05c-.16-.05-.3-.08-.43-.15-.2-.11-.37-.26-.48-.43,0,0,0,0,0,0-.15-.22-.19-.45-.1-.65.08-.19.33-.44,1.01-.55.04.01.08.02.12.03.02,0,.03,0,.05.01,0,.04,0,.08-.01.13,0,.06-.02.11-.03.16-.35-.07-.66.04-.83.3-.16.24.15.62.38.8Zm1.14.38c-.03-.11-.26-.12-.39-.07,0,0,0,0-.01,0-.04.02-.07.04-.07.07h0s0,0,0,0c0,0,0,0,0,0h0s0,.02.01.04c0,0,0,0,0,0,0,0,0,0,0,0,.03.04.1.06.17.07-.01.04-.02.07-.02.12,0,.06.03.13.06.18.05.1-.02.16-.06.25-.11.16-.03.38.11.5,0,0,.02,0,.02-.01-.05-.1-.09-.21-.07-.3.01-.11.1-.18.13-.29.01-.05.02-.11,0-.16-.03-.06-.07-.11-.09-.18,0-.03,0-.06,0-.1.1,0,.2-.04.21-.11.02.05.07.07.12.08-.02.04,0,.09,0,.12.04.09.14.15.13.24,0,.05-.04.12-.07.18,0,0,0,0,0,.01,0,0,0,0,.01,0,.1-.05.19-.18.15-.3-.02-.09-.11-.13-.13-.21,0-.01,0-.01,0-.02,0,0,0,0,0-.01h0s0,0,.01,0c0,0,0,0,0,0,0,0,.02,0,.02,0,0,0,0,0,0,0,0,0,.01,0,.02,0,.04,0,.09-.01.12-.04.05-.03.05-.1,0-.13-.09-.07-.39-.09-.43.05Zm-.8,1.71s0,0,0,0c0,0,0,0,0,0,0,0,0,0,0,0,0,0,0,0,0,0h0s0,0,0,0c0,0,0,0,0,0,0,0,0,0,0,0,0,0,0,0,0,0s0,0,0,0h0s0,0,0,0c0,0,0,0,0,0,0,0,0,0,0,0Z"/>
    <path class="cls-1" d="m7.78,13.43s-.04,0-.06-.01c.02,0,.04,0,.06.01Z"/>
    <path class="cls-1" d="m7.73,9.02s0,0,0-.01c.02,0,.05,0,.07,0,0,0,0,.01,0,.02h0s0,0,0,0c-.02,0-.03,0-.04,0,0,0-.02,0-.03,0Z"/>
    <path class="cls-1" d="m7.79,9.05s-.05,0-.08,0c0,0,0,0,0-.01.01,0,.02,0,.04,0,.01,0,.03,0,.04,0,0,0,0,.01,0,.02Z"/>
    <path class="cls-1" d="m7.69,9.59c.05-.09.11-.16.06-.25-.03-.05-.05-.12-.06-.18,0-.04,0-.08.02-.12.03,0,.05,0,.08,0,0,.04-.01.07,0,.1.02.07.06.11.09.18.02.05.01.11,0,.16-.03.12-.12.18-.13.29-.01.09.03.2.07.3,0,0,0,.02-.02.01-.14-.12-.21-.34-.11-.5Z"/>
    <path class="cls-1" d="m7.72,9.04s0-.01,0-.02c0,0,.02,0,.03,0,.01,0,.03,0,.04,0h0s0,0,0,0h0s0,0,0,.01c-.01,0-.03,0-.04,0-.01,0-.02,0-.04,0Z"/>
    <path class="cls-1" d="m7.68,11.32s.04.06.04.1h0c-.01-.05-.04-.1-.07-.14-.01-.01-.02-.02-.04-.03.02-.02.04-.03.05-.04.08-.05.14-.07.22-.08.08-.01.18-.03.34-.1,0,0,.02,0,.03-.01.05-.03.13-.07.19-.03.05.04.06.13.05.19h0c-.12.07-.18.13-.21.21,0,.01,0,.03,0,.04s.02.02.03.02h.03s.06.02.08.03c.03.01.05.05.07.09h0s-.04-.08-.07-.09c-.02,0-.05-.02-.08-.02-.01,0-.02,0-.03,0-.04-.01-.09-.02-.11-.07-.02-.05.04-.08.08-.11.04-.02.1-.05.11-.09.01-.04,0-.11,0-.12-.01,0-.06.02-.08.03-.01,0-.03.02-.04.02-.17.07-.28.09-.36.11-.07.01-.12.02-.18.06-.02.01-.03.02-.04.03Z"/>
    <path class="cls-1" d="m7.76,8.84s.04,0,.05,0c0,0,0,0,0,.01-.06-.01-.13,0-.18,0,.03,0,.06-.02.09-.02.01,0,.02,0,.04,0Z"/>
    <path class="cls-5" d="m7.64,8.59h.72s0,0,0,0c.12,0,.24-.02.35-.06.02,0,.04-.01.06-.02.08-.03.15-.07.19-.11,0,0,0,0,0,0,0,0,0,0,0,0h0s.18-.17.2-.36c0,0,0,0,0,0h0s0-.09-.02-.12c-.04-.09-.11-.13-.19-.16-.07-.03-.14-.06-.2-.14-.02-.02-.04-.05-.05-.09.3-.05.57.05.72.27.02.03.03.06.03.1,0,.18-.21.44-.39.58-.31.25-.67.24-1.09.24-.18,0-.34,0-.5-.02v-.1c.06,0,.1,0,.15,0Z"/>
    <path class="cls-1" d="m7.61,8.85c.13-.06.36-.04.39.07,0,0,0,0,0,.01,0,0,0,.01,0,.02h0c-.01.07-.11.1-.21.11,0,0,0-.01,0-.02h0c.11-.01.18-.05.18-.11,0-.05-.06-.09-.15-.1,0,0,0,0,0,0,0,0,0,0,0,0-.02,0-.04,0-.06,0-.01,0-.03,0-.04,0-.04,0-.08.01-.11.02Z"/>
    <path class="cls-1" d="m7.55,8.97s.03.03.05.04c.03.02.08.02.12.03,0,0,0,0,0,.01-.07-.01-.14-.04-.17-.07Z"/>
    <path class="cls-1" d="m7.53,8.92s.03-.05.07-.07c-.04.02-.06.04-.07.07Z"/>
    <path class="cls-1" d="m7.55,8.93c0,.06.09.08.18.08,0,0,0,0,0,.01-.05,0-.09-.01-.12-.03-.04-.02-.06-.04-.06-.06,0-.01,0-.03.02-.04-.01,0-.02.02-.02.03Z"/>
    <path class="cls-1" d="m7.6,9.01s-.04-.02-.05-.04c0,0,0,0,0,0,0,0,0,0,0,0,0-.01-.01-.02-.01-.04h0s0,0,0,0h0s.03-.05.07-.07c0,0,0,0,.01,0,.03-.01.07-.02.11-.02.01,0,.02,0,.04,0,.02,0,.04,0,.06,0,0,0,0,0,0,0,0,0,0,0,0,.01-.02,0-.04,0-.05,0-.01,0-.03,0-.04,0-.04,0-.07,0-.09.02,0,0,0,0,0,0,0,0-.02,0-.02,0-.01,0-.02.01-.03.02-.01.01-.02.02-.02.04,0,.02.02.04.06.06.03.01.07.02.12.03,0,0,0,.01,0,.02-.05,0-.09-.01-.12-.03Z"/>
    <path class="cls-1" d="m7.58,12.15c.19.18.57.18.77-.01.03-.03.06-.06.08-.1.09-.14.1-.31.07-.42,0-.02,0-.03-.02-.05h0s.01.03.02.05c.03.11.02.28-.07.42,0,.01,0,.03,0,.04s.02.02.03.03c.01,0,.02,0,.04,0-.04.05-.06.07-.08.09-.12.11-.3.17-.47.17s-.33-.05-.44-.16c-.03-.03-.05-.06-.08-.09.01,0,.02,0,.03,0,.04,0,.14-.01.17-.09.01-.04.03-.09.04-.13.05-.15.09-.28.06-.45,0,0,0-.02,0-.02h0s0,.02,0,.02c.03.18-.01.3-.06.45-.01.04-.03.08-.04.13-.01.05-.05.07-.09.08.01.01.02.03.03.04Z"/>
    <path class="cls-1" d="m7.54,8.97s0,0,0,0c0,0,0,0,0,0Z"/>
    <path class="cls-1" d="m7.53,8.93s0,.02.01.04c0-.01-.01-.02-.01-.04Z"/>
    <polygon class="cls-1" points="7.53 8.92 7.53 8.93 7.53 8.92 7.53 8.92"/>
    <path class="cls-1" d="m7.58,11.87c.05-.14.08-.25.05-.41,0-.05-.03-.08-.06-.12,0,0,0,0,0-.01,0,0,0,0,.01.01.03.03.05.07.06.12.03.15,0,.27-.05.41-.01.04-.03.08-.04.13,0,0-.01.02-.09.03,0,0,0,0-.01,0,0,0,0,0,.01,0,.07,0,.08-.02.08-.02.01-.05.03-.09.04-.13Z"/>
    <path class="cls-1" d="m8.15,6.21c-.26,0-.64.13-.64.25,0,.1.17.16.51.2.23.03.38,0,.45-.05.04-.04.05-.09.05-.14,0-.12-.12-.25-.37-.25h0Zm-.65.25c0-.13.39-.26.65-.26.26,0,.38.13.38.26s-.04.26-.51.21c-.26-.03-.52-.08-.52-.21Z"/>
    <path class="cls-1" d="m8.15,6.2c-.26,0-.65.13-.65.26s.26.18.52.21c.47.05.51-.08.51-.21s-.12-.26-.38-.26Zm-.13.48c-.23-.02-.53-.07-.53-.22s.41-.27.66-.27h0c.13,0,.23.04.3.09s.09.12.09.18c0,.05,0,.11-.06.16-.05.05-.14.07-.28.07-.05,0-.12,0-.18-.01Z"/>
    <path class="cls-1" d="m7.37,7.14s.04,0,.06.01c-.02,0-.04,0-.06-.01Z"/>
    <path class="cls-1" d="m7.46,12.03c.08,0,.09-.03.09-.03.01-.05.03-.09.04-.13.05-.14.08-.26.05-.41,0-.05-.03-.08-.06-.12,0,0,0,0-.01-.01,0-.02,0-.04,0-.05.01-.01.02-.02.03-.03.01.01.02.02.04.03.04.04.06.09.07.14,0,0,0,.02,0,.02.03.17-.01.3-.06.45-.01.04-.03.08-.04.13-.02.08-.13.09-.17.09-.01,0-.02,0-.03,0,0,0-.01-.02-.01-.03,0-.01,0-.03,0-.05,0,0,.01-.02.02-.02,0,0,.01,0,.01,0Z"/>
    <path class="cls-1" d="m7.42,4.2s0,.01,0,.02v-.02Z"/>
    <path class="cls-1" d="m7.42,7.05c.19.03.38.05.57.05h.03c.19,0,.39-.02.57-.05,0,0,0,0,.01,0-.02,0-.04,0-.06.01-.07.01-.14.02-.21.03-.04,0-.08,0-.12.01-.04,0-.09,0-.13,0-.02,0-.04,0-.07,0h-.03c-.18,0-.36-.02-.53-.05-.02,0-.04,0-.05-.01,0,0,.01,0,.02,0Z"/>
    <path class="cls-1" d="m7.36,7.43s0,0-.01,0c-.01,0-.02,0-.03,0,.01-.05.03-.1.03-.16,0-.04.01-.08.01-.13,0,0,.01,0,.02,0,.02,0,.04,0,.06.01,0,0,0,0,.01,0,0,.04,0,.08-.01.12-.01.07-.03.14-.05.2,0-.01,0-.02,0-.03,0,0-.02-.02-.03-.02Z"/>
    <path class="cls-1" d="m7.37,7.14s-.01,0-.02,0h0s.01,0,.02,0Z"/>
    <path class="cls-1" d="m7.36,7.1s0-.02.01-.03c0,0,.02-.01.03-.01.02,0,.04,0,.05.01.17.03.35.05.53.05h.03s.04,0,.07,0c.04,0,.09,0,.13,0,.04,0,.08,0,.12-.01.07,0,.14-.02.21-.03.02,0,.04,0,.06-.01.01,0,.02,0,.03.01,0,0,.02.02.02.04,0,.01,0,.02,0,.04-.03,0-.06.01-.09.02,0,0,0,0,0,0h0c-.18.03-.36.04-.54.04h-.03c-.18,0-.36-.01-.53-.04h0s0,0-.01,0c-.02,0-.04,0-.06-.01,0,0-.01,0-.02,0,0-.01,0-.02,0-.04Z"/>
    <path class="cls-1" d="m7.36,7.14h0s-.03,0-.05-.01c.02,0,.03,0,.05.01Z"/>
    <path class="cls-1" d="m7.3,7.46s0-.02,0-.03c.01,0,.02,0,.03,0-.02,0-.04.01-.04.03h0Z"/>
    <path class="cls-1" d="m7.28,7.51s.01-.03.02-.04h0s0,0,0,0c0,.01,0,.02-.01.04,0,0,0,0,0,0Z"/>
    <path class="cls-1" d="m7.31,8.44s-.03-.01-.04-.02c0,0,0,0,0,0-.02,0-.04-.02-.06-.03,0,0,0,0,0,0,.02.01.04.02.07.03,0,0,0,0,0,0,.01,0,.03.01.04.01.1.04.21.05.33.05h.72c.11,0,.22-.02.32-.05.02,0,.04-.01.06-.02.07-.03.13-.06.17-.1,0,0,0,0,0,0,0,0,0,0,0,0,.03-.03.16-.17.17-.3h0s0,0,0,0c-.01.12-.14.26-.17.29h0s0,0,0,0c0,0,0,0,0,0-.04.03-.09.07-.17.1-.02,0-.04.01-.06.02-.1.03-.2.05-.31.05h-.73c-.12,0-.22-.02-.33-.05Z"/>
    <path class="cls-1" d="m7.27,8.43s.03.01.04.02c.1.04.21.05.33.05h.73c.11,0,.21-.02.31-.05.02,0,.04-.01.06-.02.07-.03.13-.06.17-.1,0,0,0,0,0,0h0s0,0,0,0c.03-.03.16-.17.17-.29,0,.02.02.04.04.04-.03.14-.17.27-.18.28,0,0,0,0,0,0h0s0,0,0,0c-.03.02-.08.06-.18.11-.02,0-.04.01-.06.02,0,0,0,0,0,0-.11.04-.22.05-.33.05h-.72s-.01,0-.01,0c-.12,0-.23-.02-.34-.06,0,0,0,0,0,0-.02,0-.03-.01-.04-.02,0,0,0,0,0,0,0,0-.02,0-.03-.01,0-.02,0-.04-.01-.06.02,0,.04.02.06.03,0,0,0,0,0,0Z"/>
    <path class="cls-1" d="m7.18,7.09c-.06-.02-.12-.04-.18-.06.06-.01.12-.02.18-.03,0,0,.01,0,.02,0,.06.02.13.03.2.05-.01,0-.02,0-.03.01,0,0-.01.02-.01.03s0,.02,0,.04c-.02,0-.03,0-.05-.01-.04-.01-.08-.02-.12-.03h0Z"/>
    <polygon class="cls-1" points="7.2 10.62 7.2 10.62 7.2 10.62 7.21 10.62 7.21 10.63 7.21 10.63 7.2 10.63 7.2 10.63 7.2 10.63 7.19 10.63 7.19 10.63 7.19 10.63 7.19 10.62 7.19 10.62 7.2 10.62"/>
    <path class="cls-1" d="m7.3,8.49c.11.04.22.06.34.06h.72s.01,0,.01,0c.11,0,.22-.02.33-.05,0,0,0,0,0,0,.02,0,.04-.01.06-.02.1-.04.15-.08.18-.11,0,0,0,0,0,0h0s0,0,0,0c.01,0,.14-.14.18-.28,0,0,0,0,0,0h0s.04-.01.04-.03c-.02.18-.19.34-.2.35h0s0,0,0,0c0,0,0,0,0,0-.05.04-.11.08-.19.11-.02,0-.04.02-.06.02-.11.04-.22.05-.34.05h-.73c-.13,0-.25-.02-.35-.06-.02,0-.03-.01-.05-.02,0,0,0,0,0,0-.02-.01-.05-.02-.06-.03,0,0,0,0,.01,0,.02,0,.03,0,.04-.03,0,0,0,0,0,0,0,0,.02,0,.03.01,0,0,0,0,0,0,.01,0,.03.01.04.02,0,0,0,0,0,0Z"/>
    <path class="cls-1" d="m7.23,8.51s-.05-.02-.07-.03c0,0,0,0,.01,0,0,0,0,0,0,0,.02,0,.04.02.06.03,0,0,0,0,0,0,.01,0,.03.01.05.02.11.04.23.06.35.06h.73c.12,0,.23-.02.34-.05.02,0,.04-.01.06-.02.08-.03.15-.07.19-.11,0,0,0,0,0,0,0,0,0,0,0,0,0,0,0,0,0,0,.01-.01.18-.17.2-.35,0,0,0,0,0,0-.02.18-.2.36-.2.36h0s0,0,0,0c0,0,0,0,0,0-.04.04-.11.08-.19.11-.02,0-.04.02-.06.02-.11.04-.23.05-.35.06h-.73s-.09,0-.14,0c-.08,0-.15-.03-.22-.05-.02,0-.03-.01-.05-.02,0,0,0,0,0,0Z"/>
    <path class="cls-1" d="m7.22,8.46s-.03-.01-.04-.02c0,0,0,0,0,0,.01-.02,0-.04,0-.06.01,0,.02.01.03.02h0s.02.04.01.06Z"/>
    <path class="cls-1" d="m7.43,12.12c-.08,0-.19,0-.32-.02.02,0,.05-.01.05-.04,0-.03-.01-.05-.04-.05.14.02.24.02.32.02,0,0-.02.01-.02.02,0,.01,0,.03,0,.05,0,0,0,.02.01.03Z"/>
    <path class="cls-1" d="m7.16,8.37s.03.01.04.02c0,0,0,0,0,0h0s-.02-.02-.03-.02t0,0s0,0,0,0h0Z"/>
    <polygon class="cls-1" points="7.15 8.37 7.15 8.37 7.15 8.37 7.15 8.37"/>
    <polygon class="cls-1" points="7.15 8.37 7.16 8.38 7.15 8.37 7.15 8.37 7.15 8.37 7.15 8.37 7.15 8.37 7.15 8.37"/>
    <path class="cls-1" d="m7.09,8.38s.03-.02.05-.02c0,0,0,0,0,0h0s0,0,0,0t0,0s.02.04,0,.06c-.01,0-.03-.01-.04-.02,0,0,0,0,0,0-.01,0-.02-.01-.03-.02,0,0,0,0,0,0Z"/>
    <path class="cls-1" d="m7.14,8.47s-.02,0-.02-.01c0,0,.02,0,.02.01Z"/>
    <path class="cls-1" d="m7.17,8.43s.03.01.04.02c0,0,0,0,0,0,0,.02-.03.03-.04.03,0,0,0,0-.01,0,0,0,0,0,0,0,0,0,0,0-.01,0-.01,0-.03-.01-.04-.02,0,0,0,0,.01,0,.02,0,.03,0,.04-.02,0,0,0,0,0,0,0,0,0,0,0,0Z"/>
    <path class="cls-1" d="m7.12,8.34s0,0,0,0c0,0,.02.01.03.02,0,0,0,0,0,0,0,0-.02-.01-.02-.02,0,0,0,0,0,0Z"/>
    <path class="cls-1" d="m7.14,8.47s-.02,0-.02-.01c0,0,0,0,0,0,0,0,0,0,0,0,0,0,0,0,0,0h0s.02.01.04.02c0,0,0,0,.01,0,0,0,0,0-.01,0,0,0,0,0-.01,0Z"/>
    <polygon class="cls-1" points="7.11 8.45 7.11 8.45 7.11 8.46 7.11 8.45"/>
    <path class="cls-1" d="m7.1,8.45s0,0,0,0t0,0Z"/>
    <polygon class="cls-1" points="7.1 8.45 7.1 8.45 7.1 8.45 7.1 8.45"/>
    <polygon class="cls-1" points="7.11 8.45 7.11 8.45 7.11 8.45 7.11 8.45 7.1 8.45 7.1 8.45 7.1 8.44 7.1 8.45 7.11 8.45"/>
    <path class="cls-1" d="m7.1,8.39s.02.01.03.02c0,0,0,0,0,0,.01,0,.02.01.04.02,0,0,0,0,0,0,0,.01-.02.02-.04.02,0,0,0,0-.01,0h0s0,0,0,0c0,0,0,0,0,0,0,0,0,0,0,0h0s-.02-.04,0-.06c0,0,0,0,0,0,0,0,0,0,0,0Z"/>
    <path class="cls-1" d="m7.12,8.35s.01.01.02.02c-.02,0-.04,0-.05.02-.01-.01-.02-.02-.03-.03.01-.02.04-.02.06-.01,0,0,0,0,0,0Z"/>
    <path class="cls-1" d="m7.4,4.22s0,.03,0,.05c0,.07-.05.15-.11.23-.12.15-.32.24-.5.25h0s-.08,0-.12-.01c-.02,0-.03,0-.05-.01,0,0-.02,0-.02,0-.05-.02-.09-.04-.14-.06t0,0s-.01,0-.02-.01c-.12-.08-.22-.18-.28-.28-.02-.05-.04-.09-.04-.13,0-.01,0-.03,0-.04,0-.02.01-.05.02-.06.06-.09.14-.11.26-.11.05,0,.1,0,.16,0,.07,0,.15.01.24.01h0c.05,0,.1,0,.15,0,.04,0,.08,0,.12,0,.18,0,.3.02.32.17,0,0,0,.01,0,.02Z"/>
    <path class="cls-1" d="m7.09,8.39s0,.04,0,.06c-.01,0-.02-.01-.03-.02,0,0,0,0-.01,0-.01-.02-.01-.04,0-.06,0,0,0,0,0,0,0,0,.02.02.03.03,0,0,0,0,0,0Z"/>
    <path class="cls-1" d="m7.1,8.44s0,0,0,0c0,0,0,0,0,0-.01,0-.03-.02-.04-.02h0s0,0,0,0c0,0,0,0,.01,0,0,0,.01,0,.03.02h0Z"/>
    <path class="cls-5" d="m7.15,8.48s.05.02.07.03c0,0,0,0,0,0,.02,0,.03.01.05.02.07.02.14.04.22.05v.1c-.22-.03-.41-.09-.58-.22-.22-.17-.48-.51-.36-.68.06-.09.24-.28.56-.28.05,0,.11,0,.17.02-.02.04-.03.07-.05.09-.06.07-.13.1-.2.14-.08.04-.15.07-.19.16,0,.02-.02.05-.02.07,0,0,0,0,0,0h0c-.02.2.2.41.2.41.01.01.02.02.04.04h0s.02.02.04.02c0,0,0,0,0,0,0,0,0,0,0,0h0s0,0,0,0c0,0,0,0,0,0,0,0,0,0,0,0,0,0,.02,0,.02.01,0,0,0,0,.01,0Z"/>
    <path class="cls-1" d="m7.09,8.32s.02.02.04.03c0,0,0,0,0,0-.01,0-.02-.02-.03-.03-.04-.04-.18-.19-.17-.32,0,0,0,0,0-.01-.02.13.13.3.17.33Z"/>
    <path class="cls-1" d="m7.39,7.45s0,.02,0,.03c0,0,0,.01,0,.01,0,0,0,0,0,0h0c-.02.08-.05.13-.09.17-.08.09-.16.13-.23.16-.08.04-.12.06-.14.11,0,.01,0,.03,0,.04,0,0,0,0,0,.01,0,0,0,0,0-.01,0-.01,0-.03.01-.04.02-.06.07-.08.14-.11.07-.03.15-.07.23-.16.04-.04.07-.1.09-.17,0,0,0,0,0,0,0,0,0,0,0,0,0-.01,0-.03,0-.04,0,0-.02-.02-.03-.02,0,0,0,0,0,0,0,0,0,0-.01,0,0,0,0,0,.01,0,.01,0,.02,0,.03.02Z"/>
    <path class="cls-1" d="m7.39,7.51c-.02.07-.05.13-.09.17-.08.08-.16.13-.23.16-.07.03-.12.06-.14.11,0,.01,0,.03-.01.04,0,0,0,0,0,.01,0,.02-.02.03-.05.03h0s0-.03,0-.05c0-.02,0-.04.01-.05.06-.14.23-.12.38-.28.04-.04.06-.09.08-.15h0s0,0,0,0c0,0,0,0,0,0-.02,0-.03,0-.05-.01,0,0,0,0,0,0h0s.02-.03.04-.03c0,0,0,0,.01,0,0,0,0,0,0,0,.01,0,.02,0,.03.02,0,.01.01.03,0,.04,0,0,0,0,0,0,0,0,0,0,0,0Z"/>
    <path class="cls-1" d="m7.09,8.32s.02.02.03.03c-.02,0-.04,0-.06.01,0,0,0,0,0,0-.01-.01-.17-.17-.18-.32h0s.04-.01.05-.03c0,.13.13.29.17.32Z"/>
    <path class="cls-1" d="m7.34,7.49c-.02.06-.05.11-.08.15-.15.16-.32.15-.38.28,0,.02-.01.04-.01.05,0,.02,0,.03,0,.05h0s-.04-.02-.04-.04h0s0-.01,0-.01c0-.02,0-.04.02-.06.04-.09.11-.12.19-.16.07-.03.14-.06.2-.14.02-.02.04-.06.06-.1,0,0,0,0,0,0,0-.01,0-.02.01-.04,0,0,0,0,0,0,.02,0,.03,0,.05.01,0,0,0,0,0,0,0,0,0,0,0,0h0Z"/>
    <path class="cls-1" d="m7.23,7.6s.04-.05.05-.09c0,0,0,0,0,0-.02.04-.04.07-.06.1-.06.07-.13.1-.2.14-.08.04-.15.07-.19.16,0,.02-.01.04-.02.06,0-.03,0-.05.02-.07.04-.09.11-.12.19-.16.07-.03.14-.06.2-.14Z"/>
    <path class="cls-1" d="m7.29,7.52s-.04.07-.06.1c-.06.07-.13.1-.2.14-.08.04-.15.07-.19.16,0,.02-.01.04-.02.06,0,0,0,0,0,.01,0,0,0,0,0,0h0s0,0,0,0c0-.02,0-.04.02-.06.04-.09.11-.12.19-.16.07-.03.14-.06.2-.14.02-.02.04-.06.06-.1,0,0,0,0,0,0Z"/>
    <path class="cls-1" d="m7.06,8.36s-.01.04,0,.06c-.02-.01-.03-.02-.04-.03,0,0-.21-.2-.2-.4,0,.02.02.04.04.04h0c.01.16.17.31.18.32,0,0,0,0,0,0,0,0,0,0,0,0Z"/>
    <path class="cls-1" d="m7.06,8.42s0,0,0,0c-.02-.01-.03-.03-.04-.04,0,0-.22-.2-.2-.41,0,0,0,0,0,0h0c-.01.2.2.39.2.4,0,0,.02.02.04.03Z"/>
    <path class="cls-1" d="m6.69,13.28s.02,0,.04,0c-.01,0-.02,0-.04,0Z"/>
    <path class="cls-1" d="m6.72,13.19s-.03,0-.04-.01c.01,0,.02,0,.04.01Z"/>
    <path class="cls-1" d="m6.68,13.18h-.02s.01,0,.02,0Z"/>
    <path class="cls-1" d="m6.62,4.72s.03,0,.05.01c-.02,0-.03,0-.05-.01Z"/>
    <path class="cls-4" d="m6.62,13.26s.05.01.07.02c.01,0,.02,0,.04,0,.04.01.09.02.14.03.07.02.14.03.2.05.03,0,.21.05.51.11.17.03.35.07.45.09.01,0,.02,0,.03,0,0,0,0,0,0,0,0,0,.01,0,.01,0,0,0,0,0,0,0s0,0,0,0h.04c.61.19,1.28.39,1.46.39.12,0,.22,0,.32-.02,0,0,0,0,0,0h0s0,0,0,0c.4-.04.64-.17.74-.37,0-.02.02-.06.04-.13l.02-.06s.02-.05.04-.12c0,0,0,0,0-.01.12.2.2.41.26.63.03.12.05.2.05.3,0,.29-.14.59-.35.72-.06.04-.18.05-.4.08h-.03c-.16.02-.34.04-.61.04-.18,0-.44,0-.79-.06-.23-.04-.46-.1-.67-.17-.11-.04-.16-.06-.2-.08l-1.82-.82s.03-.02.04-.03h0s.02-.02.03-.03h0s.02-.03.03-.04c.03-.02.05-.05.07-.08.01-.01.02-.02.03-.04h0s0-.02.01-.02c.02-.03.04-.06.06-.1,0,0,0-.02.01-.02,0,0,0-.02.01-.02,0,0,0-.02.01-.02.02-.03.03-.06.04-.09,0,0,0-.01,0-.02,0-.01,0-.02.01-.04,0-.01,0-.02,0-.03,0-.01,0-.03,0-.04,0,0,0-.01,0-.02,0,0,0,0,0,0Z"/>
    <path class="cls-1" d="m6.62,13.26s0,0,0,0h0Z"/>
    <path class="cls-1" d="m6.6,13.35s0-.02,0-.03c0,.01,0,.02,0,.03Z"/>
    <path class="cls-1" d="m6.61,13.16s-.02,0-.02,0h0s.01,0,.02,0Z"/>
    <path class="cls-1" d="m6.69,13.28s-.05-.01-.07-.02c0-.05,0-.08-.03-.11,0,0,0,0,0,0,0,0,.01,0,.02,0,.02,0,.04.01.06.02h.02s.02.01.04.02c.05.01.11.03.16.04.07.02.14.03.2.05.03,0,.28.06.5.1.04,0,.09.02.13.03.02,0,.04,0,.06.01.01,0,.02,0,.04,0,0,0,.01,0,.02,0,.02,0,.05,0,.07.01.01,0,.02,0,.03,0,0,0,.01,0,.02,0,.04,0,.08.02.1.02,0,0,0,0,0,0s0,0,0,0c0,0-.02.01-.02.02-.01.01-.02.03-.01.04s.02.03.03.03c0,0,0,0,0,0,0,0,0,0-.01,0,0,0,0,0,0,0,0,0-.02,0-.03,0-.1-.02-.27-.06-.45-.09-.3-.06-.48-.1-.51-.11-.06-.02-.13-.03-.2-.05-.05-.01-.09-.02-.14-.03-.01,0-.02,0-.04,0Z"/>
    <path class="cls-1" d="m6.59,13.39s0,.01,0,.02c0,0,0-.01,0-.02Z"/>
    <path class="cls-1" d="m6.53,13.22s0,0,0,0c0,0,0,0,0,0-.02-.02-.02-.04,0-.06.01-.02.04-.02.06-.01,0,0,0,0,0,0h0s0,0,0,0c.02.02.03.06.03.11-.03,0-.06-.02-.08-.03,0,0,0,0-.01,0Z"/>
    <path class="cls-1" d="m6.6,4.71s-.09-.04-.14-.06c.04.03.09.05.14.06Z"/>
    <path class="cls-1" d="m6.53,13.52s0-.02.01-.02c0,0,0,.02-.01.02Z"/>
    <path class="cls-1" d="m6.53,13.22s-.01-.01-.02-.02c0,0,.01,0,.02.02,0,0,0,0,0,0Z"/>
    <path class="cls-1" d="m7.99,8.75c-.42,0-.78,0-1.1-.25-.22-.17-.52-.53-.37-.74.14-.2.4-.36.78-.28,0,.02-.01.03-.02.04-.06-.01-.12-.02-.17-.02-.32,0-.49.19-.56.28-.12.17.15.51.36.68.17.14.36.2.57.22.16.02.32.02.5.02.42,0,.78,0,1.09-.24.18-.14.39-.4.39-.58,0-.04,0-.07-.03-.1-.15-.22-.42-.32-.72-.27,0-.01-.01-.03-.02-.04h0c.38-.07.64.09.77.28.14.21-.16.57-.37.74-.32.26-.7.25-1.12.25Z"/>
    <path class="cls-1" d="m6.51,13.09s0,0,0,0c0,0,0,0,0,0Z"/>
    <path class="cls-1" d="m6.5,13.57s0-.02.01-.02c0,0,0,.02-.01.02Z"/>
    <path class="cls-1" d="m6.49,13.08s.02,0,.02.01c0,0-.02,0-.02-.01Z"/>
    <path class="cls-1" d="m6.89,8.49c.32.25.68.25,1.1.25.42,0,.79,0,1.12-.25.22-.17.52-.53.37-.74-.13-.2-.4-.35-.77-.28,0,0,0,0,0,0,0,0,0,0,0,0,0,0,0,0,0,0,0,0,0-.02,0-.03.34-.06.65.05.83.3.16.24-.15.62-.38.8-.16.12-.32.19-.5.22-.18.04-.36.04-.55.04-.03,0-.06,0-.09,0-.43,0-.8,0-1.13-.26-.23-.19-.55-.57-.38-.8.18-.26.49-.37.83-.3,0,.01,0,.02,0,.03h0s0,.01,0,.01h0c-.38-.07-.65.09-.78.28-.14.21.16.57.37.74Z"/>
    <path class="cls-1" d="m6.44,4.64s.01,0,.02.01c0,0-.01,0-.02-.01Z"/>
    <path class="cls-1" d="m7.58,11.29s-.02.04,0,.05c-.07-.07-.21-.13-.42-.24l-.03-.02c-.06-.03-.14-.06-.21-.1-.51-.25-.54-.64-.54-.68,0-.11.12-.21.19-.26.02-.01.05,0,.06.01.01.02,0,.05-.01.06-.09.06-.15.13-.15.18,0,.04.02.38.49.6.08.04.15.07.21.1l.04.02c.21.1.34.16.43.23-.01,0-.02.02-.03.03Z"/>
    <path class="cls-1" d="m6.47,13.07s-.03-.01-.04-.02c.01,0,.03.01.04.02Z"/>
    <path class="cls-1" d="m6.42,13.15s.06.03.08.05c-.03-.02-.06-.04-.08-.05Z"/>
    <path class="cls-1" d="m6.42,13.68v-.02s0,.01,0,.02Z"/>
    <path class="cls-1" d="m6.42,13.69s-.02.02-.03.04c.01-.01.02-.02.03-.04Z"/>
    <path class="cls-1" d="m6.35,13.62s-.01.02-.02.02c0,0,.01-.02.02-.02Z"/>
    <path class="cls-1" d="m6.28,13.83s.02-.02.03-.03c-.01.01-.02.02-.03.03Z"/>
    <path class="cls-1" d="m6.27,8.36s.02-.02.02-.03c0-.01,0-.03,0-.04.11.16.28.31.48.43.13.07.27.11.43.14h.05s.04.04.03.07c0,.02-.02.04-.04.04,0,0,0,0-.01,0h-.05c-.16-.05-.31-.08-.45-.16-.2-.11-.37-.26-.49-.42.01,0,.02-.01.03-.02Z"/>
    <path class="cls-1" d="m6.2,8.31s0-.02.02-.03c.02-.01.05,0,.06.01,0,0,0,0,0,0,0,.01,0,.02,0,.04,0,.01-.01.02-.02.03-.01,0-.02.01-.03.02,0-.01-.02-.02-.02-.03s0-.02,0-.04Z"/>
    <path class="cls-1" d="m6.23,13.87s.02-.02.03-.03c-.01,0-.02.02-.03.03Z"/>
    <path class="cls-1" d="m6.19,13.9s.03-.02.04-.03c-.01,0-.03.02-.04.03Z"/>
    <path class="cls-1" d="m6.19,13.79s.02-.02.03-.02c0,0-.02.02-.03.02Z"/>
    <path class="cls-1" d="m6.22,8.28s-.02.02-.02.03h-.02c-.15-.24-.18-.49-.08-.7.09-.2.31-.45.91-.57.06.02.12.04.18.06h0c-.68.11-.92.36-1.01.55-.09.2-.05.43.1.65-.01-.02-.04-.03-.06-.01Z"/>
    <path class="cls-1" d="m6.15,13.81s.02-.01.03-.02c-.01,0-.02.02-.03.02Z"/>
    <path class="cls-1" d="m6.15,13.82s-.01,0-.02.01c0,0,.01,0,.02-.01Z"/>
    <path class="cls-1" d="m6.15,4.12c.06-.09.14-.11.26-.11.05,0,.1,0,.16,0,.07,0,.15.01.24.01.05,0,.1,0,.15,0,.04,0,.08,0,.12,0,.18,0,.3.02.32.17,0,0,0,.01,0,.02,0,0,0-.01,0-.02-.02-.15-.14-.17-.32-.17-.04,0-.08,0-.12,0-.05,0-.1,0-.15,0h0c-.09,0-.17,0-.24-.01-.06,0-.11,0-.16,0-.11,0-.2.02-.26.11-.01.02-.02.04-.02.06,0-.02.01-.05.02-.07Z"/>
    <path class="cls-1" d="m6.1,13.84s.02,0,.02-.01c0,0-.02,0-.02.01Z"/>
    <path class="cls-1" d="m6.79,4.75c-.25,0-.52-.2-.62-.39-.03-.05-.04-.09-.04-.13,0,.04.02.08.04.13.05.1.16.21.28.28,0,0,.01,0,.02.01t0,0s.09.05.14.06c0,0,.02,0,.02,0,.02,0,.03,0,.05.01.04,0,.08.01.12.01h0c.19,0,.38-.1.5-.25.06-.07.1-.15.11-.23,0,.07-.04.16-.11.23-.12.15-.32.24-.5.25h0Z"/>
    <path class="cls-1" d="m6.16,4.36c.1.19.37.39.62.39h0c.19,0,.38-.1.5-.25.06-.07.1-.16.11-.23,0-.02,0-.03,0-.05,0,0,0-.01,0-.02-.02-.15-.14-.17-.32-.17-.04,0-.08,0-.12,0-.05,0-.1,0-.15,0-.09,0-.17,0-.24-.01-.06,0-.11,0-.16,0-.11,0-.2.02-.26.11-.01.02-.02.04-.02.07,0,.01,0,.02,0,.04,0,.04.02.08.04.13Zm-.02-.24c.12-.17.33-.09.67-.09.33,0,.57-.05.61.17.04.24-.26.55-.62.56-.38,0-.8-.44-.66-.64Z"/>
    <path class="cls-1" d="m7.31,4.51c.06-.08.1-.16.11-.24,0,.08-.05.16-.11.24-.13.15-.32.25-.52.25h-.01c-.26,0-.53-.21-.64-.4-.02-.04-.04-.08-.04-.12,0,.04.02.08.04.12.1.19.38.4.64.4,0,0,0,0,.01,0,.19,0,.39-.1.52-.25Z"/>
    <path class="cls-1" d="m6.81,4.03c-.33,0-.55-.08-.67.09-.14.2.28.65.66.64.35,0,.66-.32.62-.56-.04-.22-.27-.17-.61-.17Zm-.67.09c.09-.13.24-.12.44-.11.07,0,.15.01.24.01.05,0,.1,0,.15,0,.25,0,.43-.01.46.18v.02s0,.02,0,.02c0,.01,0,.02,0,.03,0,.08-.05.16-.11.24-.13.15-.32.25-.52.25,0,0,0,0-.01,0-.26,0-.53-.21-.64-.4-.02-.04-.04-.08-.04-.12,0,0,0-.01,0-.02,0,0,0-.02,0-.03,0-.03.01-.06.03-.09Z"/>
    <path class="cls-1" d="m6.57,4.01c-.2-.01-.34-.02-.44.11-.02.02-.03.05-.03.09,0-.03.01-.06.03-.09.09-.13.24-.12.44-.11.07,0,.15.01.24.01h0c.05,0,.1,0,.15,0,.25,0,.43-.01.46.19,0,0,0,0,0,0-.03-.2-.21-.19-.46-.18-.05,0-.1,0-.15,0-.09,0-.17,0-.24-.01Z"/>
    <path class="cls-1" d="m6.1,4.25s0-.01,0-.02c0,0,0,.01,0,.02Z"/>
    <path class="cls-1" d="m6.54,13.23s.05.02.08.03h0s0,.02,0,.02c0,.01,0,.02,0,.04,0,0,0,.02,0,.03,0,.01,0,.02-.01.04,0,0,0,.01,0,.02-.01.03-.03.06-.04.09,0,0,0,.02-.01.02,0,0,0,.02-.01.02s0,.02-.01.02c-.02.03-.04.06-.06.1v.02s-.02,0-.02,0c0,.01-.02.02-.03.04-.02.03-.05.05-.07.08-.01.01-.02.02-.03.03h0s-.02.03-.03.04h0s-.03.02-.04.03c0,0,0,0,0,0l-.08-.04h0s0,0,0,0c0,0,0,0,0,0,0,0,0,0,0,0,0,0,0,0-.01,0,0,0,.01,0,.02,0,0,0,0,0,0,0,0,0,.02,0,.02-.01,0,0,.01,0,.02-.01,0,0,0,0,0,0,.01,0,.02-.01.03-.02,0,0,0,0,0,0,.01,0,.02-.02.03-.02.04-.04.08-.08.12-.12,0,0,.01-.02.02-.02.07-.09.12-.18.15-.26.03-.09.03-.13.03-.14,0,0,0,0,0,0,0,0,0,0,.01,0Z"/>
    <path class="cls-1" d="m6.1,13.86l.08.04s-.05.03-.08.04c0,0,0,0,0,0h0s.02-.05,0-.07c0,0,0,0-.01,0h0Z"/>
    <path class="cls-1" d="m6.1,13.86s0,0,0,0c0,0,0,0,0,0Z"/>
    <path class="cls-1" d="m6.09,13.95s0,0,0,0c0,0,0,0,0,0Z"/>
    <path class="cls-1" d="m6.1,13.96h-.01s.01,0,.01,0Z"/>
    <path class="cls-1" d="m6.09,13.85s-.01,0-.02,0h0s.01,0,.02,0Z"/>
    <path class="cls-1" d="m6.06,13.95s-.03-.02-.03-.04h0s0,0,0,0c0,0,0,0,0,0,0,0,0,0,0,0,0,0,0,0,0-.01,0,0,0,0,0,0h0s0,0,0,0c0,0,0,0,0,0,0,0,.02,0,.03,0,0,0,0,0,0,0,0,0,0,0,0,0,0,0,.01,0,.01,0,.02.02.02.05,0,.06h0s0,0,0,0c0,0,0,0,0,0,0,0,0,0,0,0,0,0,0,0,0,0,0,0,0,0,0,0,0,0,0,0,0,0s0,0,0,0h0s0,0,0,0h0Z"/>
    <path class="cls-1" d="m6.19,13.9l1.82.82s.03.02.03.04c0,.02,0,.03-.03.04,0,0-.01,0-.02,0,0,0-.01,0-.02,0l-.09-.04-.08-.03-1.71-.77h-.01s0-.01,0-.01c0,0,0,0,0,0s0,0,0,0c0,0,0,0,0,0,0,0,0,0,0,0,0,0,0,0,0,0,0,0,0,0,0,0,.03-.01.05-.03.08-.04,0,0,0,0,0,0Z"/>
    <polygon class="cls-1" points="6.08 13.95 6.07 13.95 6.07 13.95 6.07 13.95 6.08 13.95"/>
    <path class="cls-1" d="m6.09,13.86s-.02,0-.03,0c0,0,0,0,0,0h0s0,0,.01,0c0,0,0,0,0,0Z"/>
    <polygon class="cls-1" points="6.07 13.95 6.07 13.95 6.07 13.95 6.07 13.95"/>
    <path class="cls-1" d="m6.06,13.87s0,0,0,0c0,0,0,0,0,0Z"/>
    <path class="cls-1" d="m6.05,13.87s0,0,0,.01c0,0,0,0,0-.01Z"/>
    <path class="cls-1" d="m6.04,13.88s0,0,0,0c0,0,0,0,0,0Z"/>
    <path class="cls-1" d="m6.04,13.89s0,0,0,0c0,0,0,0,0,0Z"/>
    <path class="cls-1" d="m6.04,13.9s.01.03.03.04h0s-.01,0-.02,0c0,0-.01-.02-.01-.03h0Z"/>
    <path class="cls-1" d="m5.85,3.43c.11-.09.22-.15.35-.2.12-.05.25-.08.38-.1.14-.02.27-.03.41-.02.07,0,.14.01.21.02.07.01.14.02.19.06.04.04.02.11-.03.13-.06.02-.13,0-.2-.02-.06,0-.13-.01-.19-.02-.12,0-.25,0-.37.02-.25.03-.48.13-.71.21-.04.02-.08-.05-.05-.08Z"/>
    <path class="cls-1" d="m5.86,13.92s.09.02.13.02c-.05,0-.09-.01-.13-.02Z"/>
    <path class="cls-1" d="m5.86,13.82h.03s-.02,0-.03,0Z"/>
    <path class="cls-1" d="m5.78,11.74s.02.01.04.02c-.01,0-.02-.01-.04-.02Z"/>
    <path class="cls-1" d="m5.74,13.88s.08.02.12.03c-.04,0-.08-.02-.12-.03Z"/>
    <path class="cls-1" d="m5.71,13.77s.02,0,.04.01c-.01,0-.02,0-.04-.01Z"/>
    <path class="cls-1" d="m5.71,11.58s.02.01.03.02c-.01,0-.02-.01-.03-.02Z"/>
    <path class="cls-1" d="m5.67,11.67s.03.02.04.03c-.01,0-.03-.02-.04-.03Z"/>
    <path class="cls-1" d="m5.66,11.88s-.01,0-.02,0c0,0,.01,0,.02,0Z"/>
    <path class="cls-3" d="m5.62,11.97c.08-.01.18.07.21.1h0c.16.14.22.4.29.73v.06c.05.17.14.21.24.26.02,0,.04.02.06.03.03.01.05.03.08.05,0,0,.01.01.02.02,0,.01,0,.05-.03.14-.03.08-.08.18-.15.26,0,0-.01.02-.02.02-.04.04-.07.08-.12.12,0,0-.02.02-.03.02,0,0,0,0,0,0-.01,0-.02.02-.03.02,0,0,0,0,0,0,0,0-.01,0-.02.01,0,0-.02,0-.02.01,0,0,0,0,0,0,0,0-.01,0-.02,0h0c-.06,0-.12-.02-.18-.03h-.03s-.08-.03-.12-.04c-.01,0-.02,0-.04-.01-.07-.02-.13-.06-.18-.1,0,0-.01,0-.02-.01-.04-.03-.07-.07-.09-.12,0-.01-.02-.07-.04-.12l-.02-.06c-.02-.05-.04-.11-.05-.16-.02-.04-.02-.08-.02-.12.03-.24.12-.82.24-1.04,0,0,0,0,0,0h0s.04-.06.07-.06Z"/>
    <polygon class="cls-1" points="5.65 11.53 5.65 11.53 5.64 11.53 5.65 11.53"/>
    <path class="cls-1" d="m5.71,11.58s.02.01.03.02c.06.04.12.07.19.1.26.12.81.26,1.2.31.03,0,.04.03.04.05,0,.02-.03.04-.05.04-.4-.05-.96-.2-1.22-.32-.02-.01-.05-.02-.07-.03-.01,0-.02-.01-.04-.02-.02-.01-.05-.03-.07-.04-.01,0-.03-.02-.04-.03-.03-.02-.06-.04-.08-.06,0,0,0,0,0,0,0,0,0,0,0,0,0,0,0,0,0,0,0-.02,0-.04.02-.05.02-.01.04-.01.06,0h0s0,0,0,0c.02.02.04.03.06.04Z"/>
    <path class="cls-1" d="m5.64,11.87s-.01,0-.02,0c0,0,.01,0,.02,0Z"/>
    <path class="cls-1" d="m5.83,12.07s-.13-.11-.21-.1c-.03,0-.05.02-.07.05h0s-.04.04-.06.03c-.02-.01-.03-.04-.02-.06,0,0,0,0,0,0,0,0,0,0,0,0h0c.03-.07.08-.1.13-.11h.01s.01,0,.02,0h0s.01,0,.02,0c.1,0,.2.09.24.12h0c.19.16.25.43.32.78v.06c.04.13.1.15.18.19,0,0,.01,0,.02.01.01,0,.03.01.04.02,0,0,.01,0,.02.01,0,0,.02,0,.02.01,0,0,0,0,0,0,.02.01.05.03.07.05,0,0,0,0,0,0-.02,0-.05,0-.06.01-.01.02-.01.04,0,.06,0,0-.01-.01-.02-.02-.03-.02-.05-.04-.08-.05-.02-.01-.04-.02-.06-.03-.09-.04-.18-.08-.22-.26v-.06c-.09-.33-.14-.59-.3-.72h0Z"/>
    <path class="cls-1" d="m5.51,13.66s.01,0,.02.01c0,0-.01,0-.02-.01Z"/>
    <path class="cls-1" d="m5.56,11.77c.02-.11.02-.15.02-.18,0,0,0,0,0,0,0,0,0,0,0,0,.03.02.05.04.08.06,0,.04,0,.08-.02.12,0,.02-.02.05-.03.08h-.01c-.05.01-.1.04-.13.1h0s0,.01,0,.02c0,0,0,0,0,0,.02-.04.09-.18.09-.21Z"/>
    <path class="cls-4" d="m5.28,13.39l.02.06c.02.07.03.11.04.13.06.14.2.24.41.3.04.01.08.02.12.03.04,0,.09.02.13.02.02,0,.05,0,.07,0h.01s.01.01.01.01l1.71.77.08.03s-.06.02-.11.04c-.21.07-.44.13-.67.17-.35.06-.62.06-.79.06-.25,0-.42-.02-.61-.04h-.03c-.22-.03-.34-.04-.4-.08-.21-.13-.35-.43-.35-.72,0-.11.02-.18.05-.3.06-.22.15-.43.26-.63,0,.02.01.04.02.07,0,0,0,.02,0,.03,0,0,0,0,0,.01,0,0,0,.02,0,.02Z"/>
    <path class="cls-1" d="m5.21,13.07c.03-.25.13-.84.26-1.08,0,0,0,0,0,0-.01.02,0,.05.02.06.02.01.05,0,.06-.01,0,0,0,0,0,0-.12.22-.21.8-.24,1.04,0,.04,0,.08.02.12-.02-.05-.03-.07-.06-.08-.02,0-.04,0-.05.01,0-.02,0-.05,0-.07Z"/>
    <path class="cls-1" d="m5.23,13.24s-.02-.07-.02-.1c.01-.02.04-.02.05-.01.02,0,.04.03.06.08.02.04.04.1.05.16l.02.06c.02.05.03.1.04.12.02.05.05.09.09.12,0,0,.01,0,.02.01.05.04.11.07.18.1.01,0,.02,0,.04.01.04.01.08.02.12.03h.03c.06.02.12.03.18.04,0,0,0,0,0,0s0,0,0,0c0,0,0,0,0,0h0s0,0,0,0c0,0,0,0,0,.01,0,0,0,0,0,0,0,0,0,0,0,0,0,0,0,0,0,0,0,.01,0,.02.01.03,0,0,.01,0,.02.01h0s-.05,0-.07,0c-.05,0-.09-.02-.13-.02s-.08-.02-.12-.03c-.21-.06-.34-.17-.41-.3,0-.02-.02-.06-.04-.13l-.02-.06s0-.02,0-.02c0,0,0,0,0-.01,0,0,0-.02,0-.03,0-.02-.02-.05-.02-.07,0,0,0-.02,0-.02Z"/>
    <path class="cls-1" d="m5.27,13.35s0,0,0,.01c0,0,0,0,0-.01Z"/>
    <path class="cls-1" d="m5.27,13.35s0-.02,0-.03c0,0,0,.02,0,.03Z"/>
    <path class="cls-1" d="m5.22,11.1c-.3-.65-.03-1.43.06-1.69.16-.45.59-.94.9-1.11h.02s0,.03,0,.04.02.02.02.03c-.28.15-.71.63-.86,1.06-.09.25-.35,1-.07,1.62.1.21.21.36.34.47-.02-.01-.04-.01-.06,0-.02.01-.02.04-.02.05,0,0,0,0,0,0-.14-.12-.25-.28-.35-.5Z"/>
    <path class="cls-1" d="m5.67,14.99h.03c.19.02.36.04.61.04.18,0,.44,0,.79-.06.23-.04.46-.1.67-.17.04-.02.08-.03.11-.04l.09.04s.01,0,.02,0c-.05.02-.1.05-.19.08-.21.08-.45.14-.69.18-.3.05-.54.06-.75.06-.02,0-.04,0-.06,0-.27,0-.46-.02-.62-.04h-.03c-.24-.03-.36-.04-.44-.09-.23-.15-.39-.48-.39-.8,0-.12.02-.2.06-.32.07-.25.17-.49.31-.72,0,0,0,0,0,0,0,.03.01.07.02.1,0,0,0,.01,0,.02-.12.2-.2.41-.26.63-.03.12-.05.19-.05.3,0,.29.14.59.35.72.06.04.18.05.4.08Z"/>
    <path class="cls-1" d="m4.62,3.94c.05-.19.15-.31.28-.35.03,0,.06-.01.09,0,.22-1.55,1.5-2.71,3-2.71h.03c1.5,0,2.78,1.16,3,2.71.03,0,.06,0,.09,0h0c.13.04.23.16.28.35.04.18.04.4-.02.62-.1.38-.33.67-.56.72-.34.82-1,1.47-1.81,1.76-.06-.01-.12-.02-.18-.03,0,0-.01,0-.02,0,.86-.25,1.59-.92,1.93-1.78,0-.02.02-.03.04-.03.2-.03.41-.3.51-.66.05-.21.06-.41.02-.58-.04-.16-.11-.25-.21-.28-.03,0-.07,0-.1,0-.01,0-.03,0-.04,0-.01,0-.02-.02-.02-.03-.19-1.52-1.44-2.68-2.91-2.68h-.03c-1.47,0-2.72,1.15-2.91,2.67,0,.01,0,.02-.02.03s-.02.01-.04,0c-.02,0-.03,0-.05,0-.02,0-.04,0-.05,0-.1.03-.17.13-.21.28-.04.17-.03.37.02.58.09.35.31.63.51.66.02,0,.03.01.04.03.34.87,1.07,1.54,1.93,1.79,0,0-.01,0-.02,0-.06,0-.12.02-.18.03-.81-.29-1.47-.94-1.81-1.76-.23-.05-.46-.34-.56-.72-.06-.22-.07-.44-.02-.62Z"/>
  </g>
</svg>