<?xml version="1.0" encoding="UTF-8"?>
<svg id="Layer_2" data-name="Layer 2" xmlns="http://www.w3.org/2000/svg" viewBox="0 0 3178.69 1055.01">
  <defs>
    <style>
      .cls-1 {
        letter-spacing: -.04em;
      }

      .cls-2, .cls-3 {
        stroke-width: 4.57px;
      }

      .cls-2, .cls-3, .cls-4 {
        fill: none;
        stroke: #010101;
      }

      .cls-2, .cls-4 {
        stroke-linejoin: round;
      }

      .cls-5 {
        fill: #010101;
      }

      .cls-6 {
        fill: #edd7c7;
      }

      .cls-7 {
        fill: #91abaf;
      }

      .cls-8 {
        fill: #dfe3e6;
      }

      .cls-9 {
        fill: #565764;
      }

      .cls-10, .cls-11, .cls-12 {
        fill: #5e7179;
      }

      .cls-3, .cls-11 {
        stroke-miterlimit: 10;
      }

      .cls-4 {
        stroke-width: 11.41px;
      }

      .cls-4, .cls-12 {
        stroke-linecap: round;
      }

      .cls-11, .cls-12 {
        font-family: FatFrank-Heavy, FatFrank;
        font-size: 317.88px;
        font-weight: 800;
        stroke: #5e7179;
        stroke-width: 3.97px;
      }

      .cls-12 {
        stroke-linejoin: bevel;
      }
    </style>
  </defs>
  <g id="Layer_1-2" data-name="Layer 1">
    <g id="lOGO">
      <text class="cls-11" transform="translate(1788.2 661.17) rotate(.05)"><tspan x="0" y="0">B</tspan><tspan class="cls-1" x="192.32" y="0">O</tspan><tspan x="422.15" y="0">ARDS</tspan></text>
    </g>
    <g id="lOGO-2" data-name="lOGO">
      <text class="cls-12" transform="translate(144.7 661.27) rotate(.05)"><tspan x="0" y="0">DOMAIN</tspan></text>
    </g>
    <g>
      <g>
        <path class="cls-6" d="m1763.89,281.09c13.53,3.6,19.13,26.68,12.48,51.6-5.75,21.52-18.69,37.35-30.83,38.96-19.79,49.68-60.67,87.83-110.93,102.28-4.66,1.34-9.43,2.48-14.25,3.39-9.93,1.91-20.16,2.88-30.59,2.87h-1.37c-10.39-.01-20.54-1-30.4-2.88-4.88-.94-9.7-2.09-14.42-3.46-50.23-14.54-91.03-52.77-110.73-102.49-12.14-1.63-25.05-17.49-30.76-39.02-6.6-24.93-.96-48.01,12.58-51.58,2.21-.57,4.52-.61,6.8-.11,10.86-86.53,81.64-153.31,167.27-153.22h1.37c85.63.08,156.29,66.99,166.98,153.54,2.28-.5,4.59-.45,6.8.12Zm-106.64,63.27c21.25.5,45.04-24.61,37.08-36.08-6.77-9.73-18.78-5.25-37.57-5.26s-32.23-2.79-34.32,9.78c-2.2,13.38,14.85,31.08,34.81,31.56Zm-37.96,95.86c0-7.26-6.93-14.57-21.49-14.58-14.59-.01-36.58,7.27-36.58,14.53,0,7.26,14.9,10.2,29.39,11.76,26.39,2.86,28.68-4.45,28.68-11.71Zm-98.09-95.99c19.95-.44,37.04-18.11,34.86-31.49-2.07-12.58-15.49-9.83-34.3-9.85-18.79-.02-30.79-4.53-37.58,5.19-7.98,11.45,15.76,36.61,37.02,36.15Z"/>
        <path class="cls-10" d="m1696.51,861.22c16.12-1.77,33.95-6.61,39.69-19.28.48-1.07,1.49-4.43,2.66-8.24.23-.75.48-1.55.71-2.33.98-3.15,2.01-6.37,2.93-8.6.69-1.67,1.3-2.83,1.81-3.06,9.73,15.78,14.7,30.01,17.38,40.1,1.87,7.06,3,11.42,3.04,17.63.1,16.73-7.84,34.78-20.79,43.1-4.09,2.64-11.28,3.35-25.3,4.88-9.82,1.06-20.09,2.13-34.75,2.16-10.93.04-25.82-.02-45.17-3.33-19.08-3.26-33.25-8.07-38.36-9.87-5.84-2.08-8.81-3.41-11.66-4.78l-107.7-48.59c19.55-8.68,30.94-36.82,26.88-40.56,6.82,3.2,19.6,5.34,29.03,8.13,3.13.92,51.06,10.23,57.45,11.76,24.53,7.28,73.19,21.82,83.78,21.83,5.14-.02,11.57-.22,18.35-.96h.02Z"/>
        <path class="cls-7" d="m1545.15,701.92c11.64,5.49,18.55,8.94,22.43,13.15,2.08,2.26,3.26,4.75,3.83,7.9,2.09,11.83-2.1,19.79-5.37,31.47-.53,1.89-3.13,2.94-7.17,3.35-3.58.36-8.31.22-13.72-.31-1.87-.18-3.81-.41-5.84-.69-22.83-3.08-54.09-11.4-68.38-17.76-6.09-2.72-11.48-5.88-16.34-9.9v-.02c-7.71-6.4-14.09-15.03-19.95-27.64-16.04-34.6-2.55-75.54,3.74-93.32,9.41-26.61,35.46-54.94,51.9-62.55-19.01-27.82-10.31-62.24,53.3-71.77,4.72,1.37,9.54,2.52,14.42,3.46l-.09.09c-.07,2.9-.28,6.09-.76,9.56-.62,4.43-1.51,8.35-2.5,11.75v.02c-1.08,3.42-2.47,6.48-4.3,8.67-7.7,9.28-17.04,8.2-19.99,16.05-3.89,10.36,8.33,23.25,9.04,23.96,1.92,1.99,7.21,6.95,23.37,10.73l52.73.05c.66,3.68-2.36,9.2,3.28,9.84,9.31,1.06,19.64-3.54,32.79-12.46,18.78-12.67,29.18-30.22,21.18-41.87-8.21-11.95-24.79-21.48-49.02-14.91v-.02c-2.39-7.56-3.16-16.71-3.22-21.32-.05-.05-.09-.07-.14-.14,4.82-.91,9.59-2.05,14.25-3.39,63.59,9.65,72.23,44.08,53.17,71.87,16.43,7.64,42.43,36.02,51.78,62.64,6.26,17.79,19.67,58.75,3.57,93.32-5.88,12.6-12.28,21.22-20,27.6v.02c-4.87,4.01-10.26,7.16-16.35,9.87-13.18,5.85-40.92,13.34-63.07,16.83-1.83.3-3.63.57-5.37.79-9.68,1.27-17.83,1.63-22.51.48,8.85-13.55,5.26-31.59-1.84-35.34-1.69-.89-4.5-1.47-6.82-2.11,2.84-7.51,11.15-11.2,30.22-20.17,1.83-.84,3.75-1.75,5.78-2.71l-.32-.66c-1.23-2.17-3.58-3.66-6.25-3.66l-25.86-.02-58.37-.05c-1.96,0-3.77.82-5.07,2.1-1.85,1.85-2.2,6.05-2.15,7.19Zm28.2-127.24c-5.75.43-10.14,2.66-10.14,5.36,0,3.01,5.47,5.48,12.21,5.49.84,0,1.69-.04,2.49-.11h.02c5.55-.52,9.68-2.73,9.68-5.36,0-3.01-5.45-5.46-12.19-5.47-.71,0-1.39.02-2.08.09Zm27.75,10.82c.48.02.98.05,1.48.05,6.73,0,12.22-2.45,12.22-5.47,0-2.69-4.38-4.93-10.13-5.37-.68-.07-1.37-.09-2.08-.09-6.73,0-12.19,2.43-12.2,5.44,0,2.63,4.15,4.84,9.7,5.37.32.02.66.05,1,.07Zm-41.85-17.53c5.64-.63,2.63-6.16,3.3-9.84-16.16-3.78-21.45-8.74-23.37-10.73-.71-.71-12.93-13.59-9.04-23.96,2.95-7.85,12.29-6.77,19.99-16.05,1.83-2.19,3.22-5.25,4.3-8.67-24.21-6.62-40.8,2.88-49.05,14.82-8.02,11.63,2.35,29.2,21.1,41.91,13.14,8.94,23.45,13.56,32.77,12.52Z"/>
        <path class="cls-9" d="m1743.62,814.45c.39,2.83-.05,5.68-1.13,8.33-.92,2.24-1.95,5.45-2.93,8.6-.23.78-.48,1.57-.71,2.33-1.17,3.81-2.18,7.17-2.66,8.24-5.74,12.66-23.57,17.51-39.69,19.28h-.02c-19.53-8.72-30.87-36.87-26.81-40.61,9.34-8.62,18.02-5.3,21.02-18.88,4.52-20.4,7.66-37.2,18.15-45.98,2.7-2.23,13.91-12.02,20.05-2.26.14.23.27.46.43.71.09.18.16.32.23.41,7.13,12.86,12.28,46.76,14.07,59.85Z"/>
        <path class="cls-7" d="m1729.32,754.19c-.16-.25-.3-.48-.43-.71-6.13-9.75-17.35.03-20.05,2.26-10.49,8.78-13.63,25.58-18.15,45.98-3,13.58-11.67,10.26-21.02,18.88-6.83,3.19-19.61,5.3-29.04,8.08-3.13.91-41.99,7.65-46.28,11.67-6.39-1.54-54.32-10.85-57.45-11.76-9.43-2.79-22.21-4.93-29.03-8.13-9.33-8.64-18.01-5.34-20.98-18.92-4.48-20.41-7.59-37.22-18.06-46.02-2.69-2.24-13.89-12.04-20.04-2.3-.14.23-.27.46-.43.71,1.23-2.26,5.01-10.36,5.58-12.8,1.51-6.57,1.4-10.11.65-11.98,4.86,4.02,10.24,7.18,16.34,9.9,14.28,6.36,45.55,14.68,68.38,17.76,2.03.28,3.97.51,5.84.69,0,.84-.02,19.72-.02,20.09,0,3.97,3.21,7.17,7.16,7.17l84.24.08c3.95,0,7.17-3.19,7.17-7.16l.02-21.57c22.15-3.49,49.89-10.98,63.07-16.83,6.1-2.71,11.49-5.86,16.35-9.87-.76,1.87-.87,5.41.63,11.99.57,2.44,4.33,10.55,5.56,12.81Z"/>
        <path class="cls-5" d="m1694.33,308.28c7.96,11.47-15.83,36.58-37.08,36.08-19.95-.48-37.01-18.18-34.81-31.56,2.09-12.58,15.51-9.8,34.32-9.78s30.8-4.47,37.57,5.26Z"/>
        <path class="cls-10" d="m1696.48,861.22c-6.78.75-13.22.95-18.35.96-10.59,0-59.25-14.55-83.78-21.83,4.3-4.01,43.15-10.76,46.28-11.67,9.43-2.78,22.22-4.89,29.04-8.08-4.07,3.74,7.28,31.9,26.81,40.61Z"/>
        <path class="cls-8" d="m1672.75,513.71c8,11.65-2.4,29.19-21.18,41.87-13.16,8.91-23.48,13.52-32.79,12.46-5.64-.64-2.62-6.17-3.28-9.84,16.17-3.75,21.47-8.7,23.39-10.68.71-.71,12.96-13.57,9.09-23.94-2.94-7.86-12.28-6.79-19.96-16.09-1.82-2.19-3.21-5.25-4.28-8.68,24.23-6.57,40.81,2.96,49.02,14.91Z"/>
        <path class="cls-6" d="m1647.97,523.57c3.87,10.37-8.38,23.23-9.09,23.94-1.92,1.98-7.22,6.93-23.39,10.68l-52.73-.05c-16.16-3.78-21.45-8.74-23.37-10.73-.71-.71-12.93-13.59-9.04-23.96,2.95-7.85,12.29-6.77,19.99-16.05,1.83-2.19,3.22-5.25,4.3-8.67v-.02c.98-3.4,1.88-7.33,2.5-11.75.48-3.47.69-6.67.76-9.56l.09-.09c9.86,1.88,20.02,2.87,30.4,2.88h1.37c10.43.01,20.66-.96,30.59-2.87.05.07.09.09.14.14.06,4.61.83,13.77,3.22,21.32v.02c1.07,3.43,2.46,6.49,4.28,8.68,7.68,9.3,17.02,8.23,19.96,16.09Z"/>
        <path class="cls-8" d="m1643.71,756.1l-.02,21.57c0,3.97-3.23,7.16-7.17,7.16l-84.24-.08c-3.95,0-7.16-3.2-7.16-7.17,0-.37.02-19.24.02-20.09,5.41.53,10.14.67,13.72.31,1,1.96,2.42,4.09,4.51,6.08,11.63,11.06,34.46,11.17,47.41-.57,2.01-1.82,3.68-3.83,5.05-5.93,4.68,1.15,12.83.79,22.51-.48,1.74-.23,3.54-.5,5.37-.79Z"/>
        <path class="cls-8" d="m1642.86,696.38l.32.66c-2.03.96-3.95,1.87-5.78,2.71-19.07,8.98-27.38,12.67-30.22,20.17-2.1-.55-3.86-1.12-4.11-1.99-.64-2.17,9.16-3.85,10.72-9.58.73-2.72.85-8.22-1.34-9.73-.5-.34-1.1-.48-1.71-.48v-5.46s25.87.02,25.87.02c2.67,0,5.02,1.49,6.25,3.66Z"/>
        <path class="cls-6" d="m1614,722.03c7.1,3.75,10.69,21.79,1.84,35.34-1.37,2.1-3.04,4.11-5.05,5.93-12.95,11.74-35.78,11.63-47.41.57-2.1-1.99-3.51-4.11-4.51-6.08,4.04-.41,6.64-1.45,7.17-3.35,3.28-11.68,7.46-19.65,5.37-31.47-.57-3.15-1.75-5.64-3.83-7.9,1.35-1.37,2.86-2.69,4.59-3.92,7.65-5.45,11.67-2.2,30.85-9.88,1.67-.66,5.07-3.12,7.72-3.12.62,0,1.21.14,1.71.48,2.19,1.51,2.07,7.01,1.34,9.73-1.56,5.73-11.35,7.41-10.72,9.58.25.87,2.01,1.44,4.11,1.99,2.33.64,5.14,1.21,6.82,2.11Z"/>
        <path class="cls-5" d="m1597.8,425.64c14.56.01,21.5,7.33,21.49,14.58,0,7.26-2.3,14.56-28.68,11.71-14.49-1.57-29.4-4.5-29.39-11.76,0-7.26,22-14.54,36.58-14.53Z"/>
        <path class="cls-8" d="m1610.74,692.7v5.46c-2.65,0-6.06,2.46-7.72,3.12-19.18,7.68-23.2,4.43-30.85,9.88-1.74,1.23-3.24,2.55-4.59,3.92-3.88-4.2-10.79-7.66-22.43-13.15-.04-1.14.3-5.34,2.15-7.19,1.3-1.28,3.11-2.1,5.07-2.1l58.37.05Z"/>
        <path class="cls-10" d="m1480.97,861.02h.02l107.7,48.59c-2.85,1.37-5.82,2.69-11.67,4.76-5.12,1.8-19.3,6.58-38.38,9.8-19.36,3.27-34.25,3.3-45.18,3.24-14.66-.06-24.93-1.14-34.74-2.22-14.01-1.57-21.21-2.28-25.29-4.93-12.94-8.34-20.84-26.41-20.71-43.14.05-6.21,1.2-10.57,3.08-17.62,2.7-10.09,7.69-24.3,17.46-40.07.5.23,1.12,1.39,1.8,3.06.91,2.24,1.94,5.46,2.91,8.61.23.78.48,1.58.71,2.33,1.16,3.81,2.16,7.17,2.64,8.24,5.72,12.67,23.54,17.55,39.66,19.35Z"/>
        <path class="cls-8" d="m1562.54,558.15c-.67,3.67,2.34,9.2-3.3,9.84-9.31,1.04-19.63-3.58-32.77-12.52-18.75-12.71-29.12-30.27-21.1-41.91,8.25-11.93,24.83-21.44,49.05-14.82-1.08,3.42-2.47,6.48-4.3,8.67-7.7,9.28-17.04,8.2-19.99,16.05-3.89,10.36,8.33,23.25,9.04,23.96,1.92,1.99,7.21,6.95,23.37,10.73Z"/>
        <path class="cls-5" d="m1556.06,312.74c2.18,13.38-14.91,31.05-34.86,31.49-21.25.46-44.99-24.7-37.02-36.15,6.79-9.72,18.79-5.21,37.58-5.19,18.81.02,32.24-2.73,34.3,9.85Z"/>
        <path class="cls-9" d="m1507.87,820.46c4.06,3.75-7.33,31.88-26.88,40.56h-.02c-16.11-1.8-33.94-6.67-39.66-19.35-.48-1.07-1.48-4.43-2.64-8.24-.23-.75-.48-1.55-.71-2.33-.98-3.15-2-6.37-2.91-8.61-1.07-2.65-1.5-5.5-1.11-8.33,1.82-13.1,7.03-46.97,14.19-59.82.07-.09.14-.23.23-.41.16-.25.3-.48.43-.71,6.15-9.74,17.35.06,20.04,2.3,10.47,8.8,13.58,25.6,18.06,46.02,2.98,13.59,11.66,10.28,20.98,18.92Z"/>
      </g>
      <g>
        <path class="cls-2" d="m1643.71,756.1l-.02,21.57c0,3.97-3.23,7.16-7.17,7.16l-84.24-.08c-3.95,0-7.16-3.2-7.16-7.17,0-.37.02-19.24.02-20.09v-.02"/>
        <path class="cls-2" d="m1545.17,702.18s-.02-.14-.02-.25c-.04-1.14.3-5.34,2.15-7.19,1.3-1.28,3.11-2.1,5.07-2.1l58.37.05,25.86.02c2.67,0,5.02,1.49,6.25,3.66"/>
        <path class="cls-2" d="m1567.57,715.07c1.35-1.37,2.86-2.69,4.59-3.92,7.65-5.45,11.67-2.2,30.85-9.88,1.67-.66,5.07-3.12,7.72-3.12.62,0,1.21.14,1.71.48,2.19,1.51,2.07,7.01,1.34,9.73-1.56,5.73-11.35,7.41-10.72,9.58.25.87,2.01,1.44,4.11,1.99"/>
        <path class="cls-2" d="m1615.84,757.37c-1.37,2.1-3.04,4.11-5.05,5.93-12.95,11.74-35.78,11.63-47.41.57-2.1-1.99-3.51-4.11-4.51-6.08"/>
        <line class="cls-3" x1="1696.53" y1="861.25" x2="1696.51" y2="861.22"/>
        <path class="cls-2" d="m1588.61,337.4c1.46,3.72,4.17,9.18,9.21,14.09,9.74,9.44,19.33,8.24,22.33,16.05,2.55,6.6-1.82,13.85-3.42,16.5-5.65,9.4-15.4,11.99-17.98,12.63-13.22,3.27-23.87-3.63-25.75-4.89"/>
        <path class="cls-2" d="m1634.62,473.93c50.26-14.45,91.13-52.6,110.93-102.28,12.15-1.61,25.08-17.44,30.83-38.96,6.64-24.92,1.05-48.01-12.48-51.6-2.21-.57-4.52-.62-6.8-.12-10.69-86.55-81.35-153.46-166.98-153.54h-1.37c-85.63-.08-156.41,66.69-167.27,153.22-2.28-.5-4.59-.46-6.8.11-13.54,3.57-19.18,26.65-12.58,51.58,5.71,21.53,18.62,37.39,30.76,39.02,19.7,49.71,60.5,87.94,110.73,102.49"/>
        <path class="cls-2" d="m1597.8,425.64c14.56.01,21.5,7.33,21.49,14.58,0,7.26-2.3,14.56-28.68,11.71-14.49-1.57-29.4-4.5-29.39-11.76,0-7.26,22-14.54,36.58-14.53Z"/>
        <path class="cls-2" d="m1521.19,344.23c-21.25.46-44.99-24.7-37.02-36.15,6.79-9.72,18.79-5.21,37.58-5.19,18.81.02,32.24-2.73,34.3,9.85,2.18,13.38-14.91,31.05-34.86,31.49Z"/>
        <path class="cls-2" d="m1539.3,756.8c2.03.28,3.97.51,5.84.69,5.41.53,10.14.67,13.72.31,4.04-.41,6.64-1.45,7.17-3.35,3.28-11.68,7.46-19.65,5.37-31.47-.57-3.15-1.75-5.64-3.83-7.9-3.88-4.2-10.79-7.66-22.43-13.15-1.51-.71-3.1-1.46-4.77-2.26"/>
        <path class="cls-2" d="m1558,477.31c-4.88-.94-9.7-2.09-14.42-3.46-63.61,9.53-72.31,43.94-53.3,71.77-16.44,7.61-42.49,35.94-51.9,62.55-6.29,17.78-19.78,58.72-3.74,93.32,5.86,12.61,12.24,21.24,19.95,27.64v.02"/>
        <path class="cls-2" d="m1723.13,729.39v-.02c7.72-6.38,14.12-15.01,20-27.6,16.1-34.57,2.7-75.54-3.57-93.32-9.36-26.63-35.35-55-51.78-62.64,19.06-27.79,10.42-62.22-53.17-71.87-4.66,1.34-9.43,2.48-14.25,3.39"/>
        <path class="cls-2" d="m1637.4,699.75c-19.07,8.98-27.38,12.67-30.22,20.17,2.33.64,5.14,1.21,6.82,2.11,7.1,3.75,10.69,21.79,1.84,35.34,4.68,1.15,12.83.79,22.51-.48"/>
        <path class="cls-2" d="m1604.66,574.71c5.75.44,10.13,2.68,10.13,5.37,0,3.01-5.48,5.47-12.22,5.47-.5,0-1-.02-1.48-.05-.34-.02-.68-.05-1-.07-5.55-.53-9.7-2.75-9.7-5.37,0-3.01,5.46-5.45,12.2-5.44.71,0,1.39.02,2.08.09Z"/>
        <path class="cls-2" d="m1623.73,498.81c24.23-6.57,40.81,2.96,49.02,14.91,8,11.65-2.4,29.19-21.18,41.87-13.16,8.91-23.48,13.52-32.79,12.46-5.64-.64-2.62-6.17-3.28-9.84"/>
        <path class="cls-2" d="m1559.24,567.98c-9.31,1.04-19.63-3.58-32.77-12.52-18.75-12.71-29.12-30.27-21.1-41.91,8.25-11.93,24.83-21.44,49.05-14.82-1.08,3.42-2.47,6.48-4.3,8.67-7.7,9.28-17.04,8.2-19.99,16.05-3.89,10.36,8.33,23.25,9.04,23.96,1.92,1.99,7.21,6.95,23.37,10.73-.67,3.67,2.34,9.2-3.3,9.84Z"/>
        <path class="cls-2" d="m1490.28,545.62c6.45,9.5,16.17,18.21,28.03,24.91,8.26,4.66,17.32,6.57,27.32,8.97"/>
        <path class="cls-2" d="m1573.34,574.69c.68-.07,1.37-.09,2.08-.09,6.73,0,12.19,2.45,12.19,5.47,0,2.63-4.14,4.84-9.68,5.36h-.02c-.8.07-1.64.11-2.49.11-6.73,0-12.21-2.48-12.21-5.49,0-2.69,4.39-4.93,10.14-5.36Z"/>
        <path class="cls-2" d="m1573.34,574.66v.02c.11,1.44,3.42,6.81,4.56,10.73"/>
        <path class="cls-2" d="m1577.92,585.42c.36,1.23.52,2.35.27,3.13-1.76,5.73-4.98,6.34-4.87,9.86.22,6.26,6.82,8.73,7.75,14.96.45,2.92-.24,7.46-6.5,13.69"/>
        <path class="cls-2" d="m1509.18,645.46c-3.38,2.21-9.89,7.23-9.76,12.18.11,5.55,3.54,23.95,28.91,36.28,4.43,2.15,8.44,4.05,12.05,5.74"/>
        <path class="cls-3" d="m1588.69,909.61c-2.85,1.37-5.82,2.69-11.67,4.76-5.12,1.8-19.3,6.58-38.38,9.8-19.36,3.27-34.25,3.3-45.18,3.24-14.66-.06-24.93-1.14-34.74-2.22-14.01-1.57-21.21-2.28-25.29-4.93-12.94-8.34-20.84-26.41-20.71-43.14.05-6.21,1.2-10.57,3.08-17.62,2.7-10.09,7.69-24.3,17.46-40.07.5.23,1.12,1.39,1.8,3.06"/>
        <path class="cls-3" d="m1594.35,840.35c24.53,7.28,73.19,21.82,83.78,21.83,5.14-.02,11.57-.22,18.35-.96"/>
        <path class="cls-3" d="m1742.5,822.78c.69-1.67,1.3-2.83,1.81-3.06,9.73,15.78,14.7,30.01,17.38,40.1,1.87,7.06,3,11.42,3.04,17.63.1,16.73-7.84,34.78-20.79,43.1-4.09,2.64-11.28,3.35-25.3,4.88-9.82,1.06-20.09,2.13-34.75,2.16-10.93.04-25.82-.02-45.17-3.33-19.08-3.26-33.25-8.07-38.36-9.87-5.84-2.08-8.81-3.41-11.66-4.78l-107.7-48.59"/>
        <line class="cls-3" x1="1480.97" y1="861.02" x2="1480.94" y2="861.04"/>
        <path class="cls-3" d="m1507.87,820.46c4.06,3.75-7.33,31.88-26.88,40.56h-.02c-16.11-1.8-33.94-6.67-39.66-19.35-.48-1.07-1.48-4.43-2.64-8.24-.23-.75-.48-1.55-.71-2.33-.98-3.15-2-6.37-2.91-8.61-1.07-2.65-1.5-5.5-1.11-8.33,1.82-13.1,7.03-46.97,14.19-59.82.07-.09.14-.23.23-.41"/>
        <path class="cls-3" d="m1669.68,820.61c-6.83,3.19-19.61,5.3-29.04,8.08-3.13.91-41.99,7.65-46.28,11.67-6.39-1.54-54.32-10.85-57.45-11.76-9.43-2.79-22.21-4.93-29.03-8.13-9.33-8.64-18.01-5.34-20.98-18.92-4.48-20.41-7.59-37.22-18.06-46.02-2.69-2.24-13.89-12.04-20.04-2.3-.14.23-.27.46-.43.71,1.23-2.26,5.01-10.36,5.58-12.8,1.51-6.57,1.4-10.11.65-11.98,4.86,4.02,10.24,7.18,16.34,9.9,14.28,6.36,45.55,14.68,68.38,17.76"/>
        <path class="cls-3" d="m1638.35,756.89c1.74-.23,3.54-.5,5.37-.79,22.15-3.49,49.89-10.98,63.07-16.83,6.1-2.71,11.49-5.86,16.35-9.87-.76,1.87-.87,5.41.63,11.99.57,2.44,4.33,10.55,5.56,12.81"/>
        <path class="cls-2" d="m1657.25,344.36c-19.95-.48-37.01-18.18-34.81-31.56,2.09-12.58,15.51-9.8,34.32-9.78s30.8-4.47,37.57,5.26c7.96,11.47-15.83,36.58-37.08,36.08Z"/>
        <path class="cls-2" d="m1632.37,579.58c10-2.39,19.07-4.27,27.33-8.92,11.88-6.68,21.61-15.37,28.08-24.86"/>
        <path class="cls-2" d="m1603.34,645.55c-6.27-8.45-6.93-14.57-6.49-18.52.94-8.45,7.57-11.77,7.78-20.24.14-4.75-3.1-5.6-4.85-13.31-.41-1.83.3-4.84,1.31-7.97,1.44-4.54,3.5-9.29,3.57-10.79v-.02"/>
        <path class="cls-2" d="m1668.7,645.61c3.38,2.22,9.88,7.25,9.74,12.2-.12,5.55-3.58,23.94-28.98,36.22-2.19,1.07-4.29,2.05-6.28,3.01-2.03.96-3.95,1.87-5.78,2.71"/>
        <path class="cls-3" d="m1742.5,822.78c-.92,2.24-1.95,5.45-2.93,8.6-.23.78-.48,1.57-.71,2.33-1.17,3.81-2.18,7.17-2.66,8.24-5.74,12.66-23.57,17.51-39.69,19.28h-.02c-19.53-8.72-30.87-36.87-26.81-40.61,9.34-8.62,18.02-5.3,21.02-18.88,4.52-20.4,7.66-37.2,18.15-45.98,2.7-2.23,13.91-12.02,20.05-2.26.14.23.27.46.43.71.09.18.16.32.23.41,7.13,12.86,12.28,46.76,14.07,59.85.39,2.83-.05,5.68-1.13,8.33Z"/>
        <path class="cls-3" d="m1623.73,498.81c1.07,3.43,2.46,6.49,4.28,8.68,7.68,9.3,17.02,8.23,19.96,16.09,3.87,10.37-8.38,23.23-9.09,23.94-1.92,1.98-7.22,6.93-23.39,10.68l-52.73-.05c-16.16-3.78-21.45-8.74-23.37-10.73-.71-.71-12.93-13.59-9.04-23.96,2.95-7.85,12.29-6.77,19.99-16.05,1.83-2.19,3.22-5.25,4.3-8.67v-.02c.98-3.4,1.88-7.33,2.5-11.75.48-3.47.69-6.67.76-9.56l.09-.09c9.86,1.88,20.02,2.87,30.4,2.88h1.37c10.43.01,20.66-.96,30.59-2.87.05.07.09.09.14.14.06,4.61.83,13.77,3.22,21.32v.02Z"/>
        <path class="cls-4" d="m1721.77,281.16c-6.46-4.78-16.45-10.97-29.87-14.98-19.99-5.95-37.18-3.96-46.27-2.21"/>
        <path class="cls-4" d="m1452.45,280.91c6.46-4.77,16.47-10.94,29.9-14.92,20-5.92,37.19-3.89,46.27-2.13"/>
      </g>
    </g>
  </g>
</svg>