<?xml version="1.0" encoding="UTF-8"?>
<svg id="Layer_3" data-name="Layer 3" xmlns="http://www.w3.org/2000/svg" viewBox="0 0 1000 1000">
  <defs>
    <style>
      .cls-1 {
        fill: #5e7179;
      }

      .cls-1, .cls-2, .cls-3, .cls-4, .cls-5, .cls-6, .cls-7 {
        stroke-width: 0px;
      }

      .cls-2 {
        fill: #565764;
      }

      .cls-3 {
        fill: #dfe3e6;
      }

      .cls-4 {
        fill: #91abaf;
      }

      .cls-5 {
        fill: #e8e7e3;
      }

      .cls-6 {
        fill: #ecd6c6;
      }

      .cls-7 {
        fill: #010101;
      }
    </style>
  </defs>
  <circle class="cls-5" cx="500" cy="500" r="340.09"/>
  <g>
    <path class="cls-4" d="m377.14,720.13c15.52,6.91,48.07,15.35,71.09,18.46,7.77,1.05,14.07,1.45,18.81,1.18,1.18,2.09,2.63,3.89,4.37,5.52,6.54,6.24,15.94,9.33,25.51,9.33s19.91-3.3,27.15-9.86c1.31-1.18,2.55-2.49,4.69-5.23,1.8.27,3.89.4,6.32.4,4.29,0,9.57-.43,15.78-1.23,23.1-3.08,55.68-11.47,71.17-18.36.91-.4,1.8-.8,2.65-1.23.7-.32,1.37-.67,2.04-1.02,2.81-1.45,5.44-2.97,7.88-4.64.16,2.06.56,4.48,1.21,7.24.24,1.07.94,2.87,1.77,4.85h-.08c-.29-.03-.59-.05-.88-.05-4.8-.08-9.51,2.84-12.57,5.15-.51.38-.96.72-1.37,1.07-.4.32-.78.64-1.07.88l-.27.21c-10.85,9.08-14.34,24.98-18.76,45.07l-.8,3.72c-1.66,7.45-4.77,8.87-9.92,11.23-.8.38-1.63.75-2.47,1.15-1.34.64-2.73,1.39-4.15,2.33-.46.27-.94.59-1.42.96-.83.59-1.69,1.29-2.55,2.06h-.03c-1.31.59-2.87,1.15-4.58,1.69-.35.11-.7.21-1.05.32-.7.19-1.42.4-2.14.62h-.05c-1.45.38-2.95.78-4.5,1.18-1.63.38-3.32.78-4.98,1.18-4.02.96-8.17,1.96-11.82,3.03-.64.19-3.62.78-7.07,1.45-2.71.54-5.28,1.05-7.72,1.55-.75.13-1.47.29-2.2.46-1.5.29-2.97.59-4.37.91-.13.03-.29.05-.43.08-1.07.24-2.12.46-3.16.7-1.15.24-2.28.48-3.35.75-2.14.48-4.15.96-5.98,1.42-.91.21-1.8.46-2.63.67-.86.21-1.63.46-2.38.67-2.14.62-3.94,1.21-5.41,1.8-.35.13-.67.27-.99.4-.67.29-1.23.56-1.72.86h-.03c-.16-.03-.32-.08-.48-.11s-.35-.08-.54-.11c-1.5-.35-3.51-.75-5.92-1.23-.38-.11-.78-.19-1.21-.27-.64-.13-1.29-.27-1.98-.4-1.23-.24-2.52-.51-3.89-.78-.4-.08-.83-.16-1.26-.27-.7-.13-1.39-.27-2.12-.4-1.15-.24-2.3-.48-3.48-.72-2.49-.48-5.06-1.02-7.66-1.53-13-2.6-27.74-5.55-29.26-6-3.64-1.07-7.82-2.06-11.82-3.03-3.24-.78-6.51-1.55-9.51-2.38-.75-.21-1.47-.43-2.17-.62l-1.05-.32c-1.18-.38-2.28-.78-3.27-1.15-.46-.19-.91-.38-1.31-.56h-.03c-1.34-1.23-2.68-2.22-3.97-3.05-.08-.05-.13-.08-.21-.13-.46-.29-.91-.56-1.34-.8-.43-.27-.88-.51-1.29-.72-.86-.46-1.72-.86-2.52-1.23-.43-.21-.86-.4-1.26-.59-5.15-2.36-8.23-3.78-9.86-11.23l-.83-3.75c-4.37-20.1-7.82-35.99-18.68-45.1l-.24-.19c-2.28-1.9-7.8-6.57-13.69-7.1-.38-.03-.75-.05-1.13-.05h-.05c-.35,0-.72.03-1.07.05.83-1.98,1.53-3.78,1.77-4.85.64-2.79,1.05-5.17,1.21-7.24.8.54,1.61,1.1,2.47,1.61,1.31.83,2.68,1.61,4.1,2.38.67.35,1.34.7,2.04,1.07,1.29.64,2.6,1.26,3.97,1.88Z"/>
    <path class="cls-6" d="m539.93,297.32c7.34,8.87,18.84,14.52,30.01,14.79.24,0,.46.03.67.03,15.19,0,31-12.01,37.11-23.31,1.55-2.87,2.41-5.6,2.55-8.09.03-.32.05-.67.05-1.02l-.03-.64-.08-.8c-1.05-3.46-1.31-3.91-1.61-4.34-5.33-7.64-13.69-7.07-25.3-6.27-4.13.27-8.82.59-13.85.59-3.11,0-6.06-.08-8.9-.13-14.58-.4-25.11-.67-26.98,10.69-.08.46-.13.94-.16,1.42-.08.99-.05,2.01.05,3.05.46,4.58,2.71,9.49,6.46,14.04Zm-100.49-29.18c-2.79.05-5.65.13-8.71.13h-.19c-5.09,0-9.75-.32-13.85-.62-11.6-.83-19.96-1.42-25.3,6.22-1.05,1.47-1.61,3.24-1.72,5.17-.03.54-.03,1.1.03,1.66,0,.35.05.72.11,1.07.29,2.2,1.13,4.53,2.44,6.99,6.08,11.34,21.89,23.37,37.11,23.37h.62c11.17-.24,22.67-5.9,30.04-14.77,3.78-4.53,6.03-9.49,6.48-14.07.08-.59.11-1.21.11-1.8l-.05-1.37c-.03-.38-.05-.75-.13-1.1.03-.05,0-.08,0-.13-1.88-11.36-12.41-11.12-26.98-10.77Zm-118.42-19.45c.99-.27,2.01-.38,3.03-.38.91,0,1.82.08,2.71.29.75.16,1.5,0,2.12-.43s1.05-1.13,1.13-1.88c11.12-88.57,83.88-155.32,169.31-155.32h1.55c85.51.08,158.24,66.99,169.17,155.64.11.75.51,1.42,1.13,1.88.62.43,1.39.59,2.12.43,1.93-.43,3.86-.4,5.76.08,5.73,1.55,10.1,7.34,12.27,16.37,2.33,9.59,1.85,21.49-1.34,33.47-5.49,20.55-17.9,36.58-29.5,38.11-.96.13-1.77.78-2.12,1.66-20.12,50.46-62.14,89.24-112.41,103.68-3.64,1.05-7.37,1.98-11.09,2.76-.27-.05-.54-.05-.8,0-10.83,1.93-22.05,2.92-33.31,2.92h-1.5c-11.15-.03-22.27-1.02-33.09-2.95-.29-.05-.62-.05-.91.05-3.94-.86-7.77-1.8-11.47-2.87-50.25-14.55-92.21-53.38-112.2-103.89-.38-.88-1.18-1.53-2.14-1.66-11.6-1.55-23.96-17.61-29.42-38.19-3.16-11.98-3.62-23.85-1.29-33.44,2.2-9.03,6.59-14.85,12.33-16.35Zm311.2-9.78c2.52.96,4.66-2.81,2.65-4.53-6.11-5.15-12.46-8.84-19.96-11.66-7.37-2.76-15.01-4.74-22.78-5.95-7.69-1.21-15.38-1.74-23.18-1.37-3.99.19-7.99.62-11.95,1.21-4.1.59-8.49.91-11.74,3.67-2.57,2.2-1.1,6.65,1.98,7.45,3.72.94,7.64-.51,11.36-1.1,3.43-.51,6.89-.83,10.34-.99,7.26-.35,14.66-.08,21.87.88,14.34,1.96,27.95,7.29,41.4,12.38Zm-100.73,171.29c0-3.75-1.77-7.66-5.49-10.61-3.72-2.95-9.41-4.98-17.2-4.98h-.05c-14.39,0-38.19,7.24-38.19,15.54s17.55,11.25,30.76,12.68c4.02.43,7.58.64,10.75.64,7.82,0,13.13-1.31,16.13-3.99,2.89-2.6,3.3-6.16,3.3-9.27Zm-22.59-48.13c7.18-.72,15.41-3.67,14.68-12.41-.7-8.49-9.49-13.51-13.96-19.99-5.23-7.58-7.8-16.19-8.71-25.24-.21-2.36-3.64-2.44-3.7,0-.19,7.05,1.53,14.04,4.37,20.47,2.92,6.62,7.24,11.9,12.11,17.15,2.22,2.38,5.01,5.79,4.21,9.35-.78,3.35-4.53,3.86-7.42,3.97-2.89.11-5.98.11-8.79-.46-3.05-.64-4.37-2.22-6.78-3.91-2.57-1.8-5.6,1.18-4.98,3.83,1.72,7.45,13.08,7.82,18.97,7.24Zm-46.39-134.34c3.05-.8,4.53-5.25,1.96-7.45-3.11-2.65-7.24-3-11.15-3.59-3.99-.59-7.99-1.05-11.98-1.26-7.96-.43-15.86.11-23.74,1.34-7.58,1.15-15.03,3.11-22.24,5.76-7.69,2.84-14.2,6.57-20.47,11.84-2.04,1.72.13,5.49,2.63,4.53,13.45-5.09,27.09-10.42,41.43-12.38,7.02-.94,14.2-1.21,21.28-.91,3.64.16,7.32.48,10.93,1.02,3.7.59,7.64,2.04,11.36,1.1Z"/>
    <path class="cls-7" d="m659.69,806.15c-.08.19-.16.4-.24.62.05-.21.13-.43.21-.64,0,0,0,.03.03.03Z"/>
    <path class="cls-7" d="m645.49,735.56c1.23-.7,1.66-2.22,1.05-3.48.08.08.13.21.19.29,7.18,13,12.35,44.75,14.79,62.52.19,1.34.21,2.71.05,4.07-.75-.91-2.04-1.21-3.14-.72-1.21.56-2.06,1.77-3.22,4.58.96-2.36,1.29-4.85.99-7.21-1.93-13.96-7.13-47.83-14.15-60.56-.05-.11-.13-.21-.19-.35.78,1.21,2.38,1.58,3.62.86Z"/>
    <path class="cls-7" d="m644.42,828.52c.32-.29.62-.59.88-.91-.27.32-.59.62-.88.91Z"/>
    <path class="cls-7" d="m639.7,709.6c.13-.11.27-.21.4-.35-.29,1.21-.48,4.05.94,10.24.46,1.98,3.97,9.73,5.36,12.33l-.43-.7c-1.98-3.14-4.61-4.98-7.77-5.49-.21-.03-.4-.05-.62-.08-.83-1.98-1.53-3.78-1.77-4.85-.64-2.76-1.05-5.17-1.21-7.24,1.72-1.15,3.32-2.36,4.88-3.64l.21-.21Z"/>
    <path class="cls-7" d="m637.5,725.54c-.29-.03-.59-.05-.88-.05.29,0,.59.03.88.05Z"/>
    <path class="cls-2" d="m637.37,730.9c1.58.27,2.92,1.26,4.02,3,.13.21.27.46.4.67.03.05.05.08.08.13.05.13.13.24.19.35,7.02,12.73,12.22,46.6,14.15,60.56.29,2.36-.03,4.85-.99,7.21-1.02,2.47-2.12,5.98-3.11,9.11l-1.07,3.54c-.94,3.03-1.9,6.16-2.25,6.99-.86,1.9-2.04,3.62-3.48,5.15-.27.32-.56.62-.88.91-3.05,2.97-7.07,5.25-11.55,7.02-1.66.67-3.38,1.26-5.15,1.8-1.1.35-2.22.64-3.38.91-1.88.48-3.78.88-5.68,1.23-.96.19-1.93.35-2.87.48-1.72.27-3.38.48-5.01.67h-.03c-.35-.16-.7-.32-1.05-.54-.24-.08-.46-.21-.67-.35-.43-.21-.86-.48-1.29-.75-.56-.32-1.1-.67-1.63-1.05-.54-.35-1.05-.7-1.53-1.1-.88-.64-1.72-1.31-2.55-2.06-.46-.38-.91-.78-1.34-1.21-2.97-2.79-5.63-6-7.91-9.38-.35-.51-.7-1.05-1.02-1.55-2.38-3.7-4.26-7.53-5.55-11.07-1.93-5.25-1.74-7.74-1.66-8.01,3.27-3.03,6.46-4.48,9.51-5.87,5.49-2.52,10.69-4.9,12.92-14.95l.83-3.72c4.18-19.11,7.5-34.19,16.94-42.1l.27-.21c1.15-.96,3.75-3.14,6.59-4.56.4-.19.78-.35,1.18-.51.46-.19.88-.35,1.34-.46.78-.21,1.53-.35,2.28-.35.32,0,.62.03.94.05Z"/>
    <path class="cls-7" d="m637.37,730.9c-.32-.03-.62-.05-.94-.05-.75,0-1.5.13-2.28.35,1.1-.32,2.2-.46,3.22-.29Z"/>
    <path class="cls-7" d="m634.15,707.18c.56-.46,1.13-.88,1.69-1.34-.54.46-1.1.91-1.69,1.34Z"/>
    <path class="cls-7" d="m632.36,708.5c.62-.43,1.21-.88,1.8-1.31-.59.46-1.18.88-1.8,1.31Z"/>
    <path class="cls-7" d="m630.46,709.76c.64-.4,1.26-.83,1.88-1.26-.62.46-1.23.86-1.88,1.26Z"/>
    <path class="cls-7" d="m631.63,732.16c.4-.19.78-.38,1.18-.51-.4.16-.78.32-1.18.51Z"/>
    <path class="cls-7" d="m632.87,835.54c-1.66.67-3.38,1.26-5.15,1.8,1.77-.54,3.48-1.13,5.15-1.8Z"/>
    <path class="cls-7" d="m632.22,238.9c-13.45-5.09-27.07-10.42-41.4-12.38-7.21-.96-14.6-1.23-21.87-.88-3.46.16-6.91.48-10.34.99-3.72.59-7.64,2.04-11.36,1.1-3.08-.8-4.56-5.25-1.98-7.45,3.24-2.76,7.64-3.08,11.74-3.67,3.97-.59,7.96-1.02,11.95-1.21,7.8-.38,15.49.16,23.18,1.37,7.77,1.21,15.41,3.19,22.78,5.95,7.5,2.81,13.85,6.51,19.96,11.66,2.01,1.72-.13,5.49-2.65,4.53Z"/>
    <path class="cls-7" d="m624.69,719.11c.7-.32,1.37-.67,2.04-1.02-.67.35-1.34.7-2.04,1.02Z"/>
    <path class="cls-7" d="m622.68,731.7c.4-.35.86-.7,1.37-1.07-.51.38-.96.75-1.37,1.07Z"/>
    <path class="cls-7" d="m622.68,731.7c-.4.32-.78.64-1.07.88.29-.24.67-.56,1.07-.88Z"/>
    <path class="cls-7" d="m618.66,839.48c1.9-.35,3.81-.75,5.68-1.23-1.88.48-3.78.88-5.68,1.23Z"/>
    <path class="cls-7" d="m615.8,839.96c-1.69.29-3.35.51-4.96.7-.03,0-.05-.03-.05-.03,1.63-.19,3.3-.4,5.01-.67Z"/>
    <path class="cls-7" d="m612.37,841.65c.19.19.32.4.4.62-.11-.21-.24-.43-.4-.62Z"/>
    <path class="cls-7" d="m611.05,845.99c1.02-.29,1.77-1.15,1.93-2.17.08-.54,0-1.07-.21-1.55.51.99.35,2.2-.48,3.03-.35.35-.78.59-1.23.7Z"/>
    <path class="cls-7" d="m653.66,824.66c-5.25,11.6-19.64,18.81-42.74,21.38.05,0,.08-.03.13-.05.46-.11.88-.35,1.23-.7.83-.83.99-2.04.48-3.03-.08-.21-.21-.43-.4-.62-.11-.13-.24-.27-.38-.38-.08-.05-.13-.11-.21-.13-.11-.08-.21-.13-.35-.19-.03,0-.03-.03-.05-.03-.19-.08-.38-.16-.54-.27,1.61-.19,3.27-.4,4.96-.7.94-.13,1.9-.29,2.87-.48,1.9-.35,3.81-.75,5.68-1.23,1.15-.27,2.28-.56,3.38-.91,1.77-.54,3.48-1.13,5.15-1.8,4.48-1.77,8.49-4.05,11.55-7.02.29-.29.62-.59.88-.91,1.45-1.53,2.63-3.24,3.48-5.15.35-.83,1.31-3.97,2.25-6.99l1.07-3.54c.99-3.14,2.09-6.65,3.11-9.11,1.15-2.81,2.01-4.02,3.22-4.58,1.1-.48,2.38-.19,3.14.72-.13,1.98-.62,3.97-1.39,5.9-.16.4-.32.83-.48,1.29-.03,0-.03-.03-.03-.03-.08.21-.16.43-.21.64-1.26,3.64-1.77,5.23-2.22,6.73l-1.07,3.54c-1.26,4.15-2.01,6.54-2.49,7.64Z"/>
    <path class="cls-7" d="m611.99,841.28c-.05-.05-.13-.08-.21-.13.08.03.13.08.21.13Z"/>
    <path class="cls-7" d="m611.05,845.99c-.05.03-.08.05-.13.05-.08,0-.19.03-.27.03l.4-.08Z"/>
    <path class="cls-7" d="m610.84,840.66h-.05l-.03-.03h.03s.03.03.05.03Z"/>
    <path class="cls-7" d="m610.79,840.66h.05c.16.11.35.19.54.27-.4-.19-.86-.24-1.31-.19.03,0,.08,0,.11-.03.19-.03.38-.05.59-.08l.03.03Z"/>
    <path class="cls-7" d="m609.71,840.1c.35.21.7.38,1.05.54-.35-.16-.7-.32-1.05-.54Z"/>
    <path class="cls-7" d="m608.48,845.3c-1.05-1.05-1.05-2.73,0-3.78.4-.4.88-.64,1.37-.75.08,0,.13-.03.21-.03.46-.05.91,0,1.31.19.03,0,.03.03.05.03.13.05.24.11.35.19.08.05.16.08.21.13.13.11.27.24.38.38.16.19.29.4.4.62.21.48.29,1.02.21,1.55-.16,1.02-.91,1.88-1.93,2.17l-.4.08h-.29c-.19,0-.38-.03-.56-.05-.16-.03-.35-.08-.51-.16h-.03c-.11-.05-.24-.11-.35-.19-.13-.11-.27-.21-.4-.35l-.03-.03Z"/>
    <path class="cls-7" d="m610.22,278.27l.08.8-.08-.8Z"/>
    <path class="cls-7" d="m610.55,846.07c-.08,0-.13.03-.21.03-.19,0-.38-.03-.54-.08.19.03.38.05.56.05h.19Z"/>
    <path class="cls-7" d="m609.29,845.86c.16.08.35.13.51.16-.19-.03-.35-.08-.51-.16Z"/>
    <path class="cls-7" d="m607.76,839c.43.27.86.54,1.29.75-.46-.21-.88-.48-1.29-.75Z"/>
    <path class="cls-7" d="m608.91,845.67c-2.49-1.13-4.88-2.57-7.15-4.26,2.79-.16,5.47-.38,8.09-.64-.48.11-.96.35-1.37.75-1.05,1.05-1.05,2.73,0,3.78l.03.03c.13.13.27.24.4.35Z"/>
    <path class="cls-7" d="m606.28,272.91l.13.13c-.05-.05-.08-.11-.13-.13Z"/>
    <path class="cls-7" d="m605.69,272.32c.21.19.4.38.59.59-.19-.21-.38-.43-.59-.59Z"/>
    <path class="cls-7" d="m606.12,837.95c-.54-.35-1.05-.7-1.53-1.1.48.4.99.75,1.53,1.1Z"/>
    <path class="cls-7" d="m603.34,270.55l.83.54c-.27-.21-.54-.38-.83-.54Z"/>
    <path class="cls-7" d="m602.56,270.15l.78.4c-.24-.16-.51-.29-.78-.4Z"/>
    <path class="cls-7" d="m600.71,833.59c.43.43.88.83,1.34,1.21-.46-.38-.91-.78-1.34-1.21Z"/>
    <path class="cls-7" d="m602.91,516.6c1.21.83,1.53,2.52.7,3.72-.43.64-.88,1.29-1.37,1.93-.67-.38-1.34-.7-1.98-.99-.7-.35-1.23-.96-1.45-1.74-.21-.75-.08-1.55.38-2.22.83-1.21,2.49-1.53,3.72-.7Z"/>
    <path class="cls-7" d="m599.5,839.62c.72.64,1.47,1.23,2.25,1.8-.75-.56-1.53-1.15-2.25-1.8Z"/>
    <path class="cls-7" d="m597.33,837.71c.7.64,1.42,1.29,2.17,1.9-.75-.59-1.47-1.23-2.17-1.9Z"/>
    <path class="cls-7" d="m601.14,841.44c-1.45.08-2.89.13-4.39.19,1.5-.05,2.95-.11,4.39-.19Z"/>
    <path class="cls-7" d="m595.27,835.68c.67.7,1.37,1.37,2.06,2.04-.7-.64-1.39-1.34-2.06-2.04Z"/>
    <path class="cls-7" d="m593.31,833.53c.64.72,1.29,1.45,1.96,2.14-.67-.7-1.34-1.42-1.96-2.14Z"/>
    <path class="cls-7" d="m553.31,269.29c2.25,0,4.66.08,7.24.13,2.84.08,5.79.16,8.92.16h.11c5.09,0,9.73-.32,13.83-.62,3.43-.24,6.51-.46,9.27-.46,6.65,0,11.5,1.23,14.98,6.22.75,1.07,1.23,2.33,1.42,3.7.11.7.11,1.45.05,2.25-.19,2.25-.99,4.77-2.44,7.45-5.95,11.07-21.79,22.67-36.1,22.67h-.62c-10.83-.27-22-5.79-29.13-14.39-3.56-4.29-5.71-8.92-6.19-13.24-.11-.96-.13-1.93-.05-2.84.03-.4.08-.8.13-1.18.35-2.14,1.05-3.81,2.04-5.15.24-.32.51-.64.8-.91,1.18-1.18,2.63-1.98,4.31-2.55.86-.29,1.77-.51,2.76-.7,2.49-.43,5.39-.56,8.66-.56Z"/>
    <path class="cls-7" d="m591.47,831.31c.59.78,1.21,1.5,1.85,2.22-.64-.72-1.29-1.47-1.85-2.22Z"/>
    <path class="cls-7" d="m591.79,822.65c.32.51.67,1.05,1.02,1.55-.38-.51-.7-1.02-1.02-1.55Z"/>
    <path class="cls-7" d="m589.94,829.35c.48.67.99,1.31,1.53,1.96-.54-.64-1.05-1.29-1.53-1.96Z"/>
    <path class="cls-7" d="m591.87,792.83c-.8.35-1.61.72-2.47,1.15.83-.4,1.66-.78,2.47-1.15Z"/>
    <path class="cls-7" d="m590.96,841.68c-.48,0-1.05-.05-1.66-.11.62.05,1.18.11,1.66.11Z"/>
    <path class="cls-7" d="m589.7,829.03c-.48-.64-.94-1.29-1.37-1.96.43.67.88,1.31,1.37,1.96Z"/>
    <path class="cls-7" d="m584.98,800.12c-.72-1.1-2.17-1.5-3.35-.94-.11.05-.24.11-.35.16.86-.78,1.72-1.47,2.55-2.06.48-.35.94-.67,1.42-.96,1.42-.94,2.81-1.69,4.15-2.33.86-.43,1.66-.8,2.47-1.15,5.15-2.36,8.25-3.78,9.92-11.23l.8-3.72c4.42-20.1,7.91-35.99,18.76-45.07l.27-.21c.29-.24.67-.56,1.07-.88.4-.32.86-.7,1.37-1.07,3.05-2.3,7.77-5.23,12.57-5.15.29,0,.59.03.88.05h.08c.21.03.4.05.62.08,3.16.51,5.79,2.36,7.77,5.49l.43.7c.05.08.11.19.13.27.62,1.26.19,2.79-1.05,3.48-1.23.72-2.84.35-3.62-.86-.03-.05-.05-.08-.08-.13-.13-.21-.27-.46-.4-.67-1.1-1.74-2.44-2.73-4.02-3-1.02-.16-2.12-.03-3.22.29-.46.11-.88.27-1.34.46-.4.13-.78.32-1.18.51-2.84,1.42-5.44,3.59-6.59,4.56l-.27.21c-9.43,7.91-12.76,22.99-16.94,42.1l-.83,3.72c-2.22,10.05-7.42,12.43-12.92,14.95-3.05,1.39-6.24,2.84-9.51,5.87.96-.88,1.15-2.36.4-3.46Z"/>
    <path class="cls-7" d="m585.25,796.31c-.48.29-.94.62-1.42.96.48-.38.96-.7,1.42-.96Z"/>
    <path class="cls-7" d="m583.96,819.73c.4.78.8,1.55,1.26,2.33-.46-.78-.86-1.55-1.26-2.33Z"/>
    <path class="cls-7" d="m579.49,807.19c-.03-.21-.05-.4-.08-.59-.05-.27-.08-.54-.11-.78v-.03c1.69-.54,3.22-1.13,4.58-1.77.27-.11.48-.27.7-.46-.08.27-.27,2.76,1.66,8.01,1.29,3.54,3.16,7.37,5.55,11.07.32.54.64,1.05,1.02,1.55,2.28,3.38,4.93,6.59,7.91,9.38.43.43.88.83,1.34,1.21.83.75,1.66,1.42,2.55,2.06.48.4.99.75,1.53,1.1.54.38,1.07.72,1.63,1.05.4.27.83.54,1.29.75.21.13.43.27.67.35.35.21.7.38,1.05.54-.21.03-.4.05-.59.08-.03.03-.08.03-.11.03-.08,0-.13.03-.21.03-2.63.27-5.31.48-8.09.64-.78-.56-1.53-1.15-2.25-1.8-.75-.62-1.47-1.26-2.17-1.9-.7-.67-1.39-1.34-2.06-2.04-.67-.7-1.31-1.42-1.96-2.14-.64-.72-1.26-1.45-1.85-2.22-.54-.64-1.05-1.29-1.53-1.96l-.24-.32c-.48-.64-.94-1.29-1.37-1.96-1.15-1.66-2.17-3.35-3.11-5.01-.46-.78-.86-1.55-1.26-2.33-.03-.03-.03-.05-.05-.08-.35-.72-.7-1.47-1.05-2.17-.48-1.1-.94-2.17-1.34-3.19-.16-.43-.32-.86-.48-1.29-.29-.83-.56-1.66-.78-2.44-.16-.54-.29-1.05-.4-1.55-.16-.62-.27-1.23-.38-1.82Z"/>
    <path class="cls-7" d="m582.86,817.48c.35.7.7,1.45,1.05,2.17-.35-.72-.7-1.45-1.05-2.17Z"/>
    <path class="cls-7" d="m583.88,804.03c-1.37.64-2.89,1.23-4.58,1.77-.29-2.89.27-4.9,1.63-6.16.11-.11.21-.19.32-.29h.03c.11-.05.24-.11.35-.16,1.18-.56,2.63-.16,3.35.94.75,1.1.56,2.57-.4,3.46-.21.19-.43.35-.7.46Z"/>
    <path class="cls-7" d="m581.04,813.01c.16.43.32.86.48,1.29-.19-.46-.35-.88-.48-1.29Z"/>
    <path class="cls-7" d="m579.86,809.01c.11.51.24,1.02.4,1.55-.16-.54-.29-1.05-.4-1.55Z"/>
    <path class="cls-7" d="m579.49,807.19c.11.59.21,1.21.38,1.82-.16-.64-.27-1.23-.38-1.82Z"/>
    <path class="cls-1" d="m578.2,806.17c.38-.11.75-.24,1.1-.35.03.24.05.51.11.78.03.19.05.38.08.59.11.59.21,1.18.38,1.82.11.51.24,1.02.4,1.55.21.78.48,1.61.78,2.44.13.4.29.83.48,1.29.4,1.02.86,2.09,1.34,3.19.35.72.7,1.45,1.05,2.17.03.03.03.05.05.08.4.78.8,1.55,1.26,2.33.94,1.66,1.96,3.35,3.11,5.01.43.67.88,1.31,1.37,1.96l.24.32c.48.67.99,1.31,1.53,1.96.56.75,1.21,1.5,1.85,2.22.62.72,1.29,1.45,1.96,2.14.67.7,1.37,1.39,2.06,2.04.7.67,1.42,1.31,2.17,1.9.72.64,1.5,1.23,2.25,1.8-.21,0-.4.03-.62.03-1.45.08-2.89.13-4.39.19-1.72.05-3.48.08-5.28.08-.16,0-.32,0-.51-.03-.48,0-1.05-.05-1.66-.11-2.79-.32-6.89-1.13-11.84-2.28-1.07-.24-2.2-.51-3.35-.8-3.62-.86-7.58-1.88-11.76-3-1.31-.35-2.63-.7-3.97-1.05-8.66-2.33-17.98-4.98-26.69-7.53-.96-.27-1.9-.56-2.87-.83-4.9-1.42-9.59-2.81-13.8-4.05-.62-.19-1.23-.38-1.82-.56.75-.24,1.58-.46,2.47-.7.4-.11.83-.21,1.29-.35h.05c.67-.19,1.37-.35,2.06-.54,2.17-.54,4.5-1.07,6.86-1.61,1.39-.32,2.79-.62,4.15-.94.96-.19,1.9-.4,2.84-.59.38-.08.75-.16,1.13-.24,2.28-.48,4.45-.91,6.38-1.31.32-.08.64-.13.94-.19.32-.05.62-.13.91-.19.59-.11,1.15-.24,1.69-.32.8-.16,1.53-.29,2.14-.43,4.5-.91,6.7-1.34,7.53-1.58,3.51-1.05,7.61-2.01,11.55-2.95,3.43-.83,6.78-1.61,9.86-2.47.35-.08.7-.19,1.05-.29.72-.19,1.45-.4,2.12-.62Z"/>
    <path class="cls-7" d="m579.3,805.82c.03.24.05.51.11.78-.05-.27-.08-.54-.11-.78Z"/>
    <path class="cls-7" d="m578.2,806.17c.38-.11.75-.24,1.1-.35-.35.11-.72.24-1.1.35Z"/>
    <path class="cls-7" d="m557.62,444.14c34.46,7.34,47.67,21.89,52.63,33.31,5.36,12.35,3.59,26.58-4.98,40.36,17.71,9.86,42.69,38.21,51.93,64.58,5.25,14.9,21.2,60.21,3.59,98.05-5.92,12.7-12.51,21.89-20.69,28.81.05-.21.11-.4.16-.51.46-1.13.08-2.44-.91-3.16s-2.36-.7-3.3.11c-.08.05-.13.11-.21.16.08-.05.13-.13.21-.19,7.82-6.46,14.12-15.19,19.86-27.47,16.72-35.85,1.31-79.64-3.75-94.03-8.84-25.08-33.39-52.98-49.92-61.9.48-.64.94-1.29,1.37-1.93.83-1.21.51-2.89-.7-3.72-1.23-.83-2.89-.51-3.72.7,8.9-12.97,11.09-26.37,6.16-37.7-4.88-11.23-19-25.89-58.5-32l.56-.16c3.43-.99,6.83-2.09,10.21-3.3Z"/>
    <path class="cls-7" d="m575.63,801.35c.35-.11.7-.21,1.05-.32-.35.11-.7.21-1.05.32Z"/>
    <path class="cls-7" d="m574.1,838.49c1.15.29,2.28.56,3.35.8-1.07-.24-2.2-.51-3.35-.8Z"/>
    <path class="cls-7" d="m575.04,807.08c.35-.08.7-.19,1.05-.29-.35.11-.7.21-1.05.29Z"/>
    <path class="cls-7" d="m575.63,801.35c-.7.21-1.39.4-2.14.62.72-.21,1.45-.43,2.14-.62Z"/>
    <path class="cls-7" d="m573.43,801.97c-1.45.4-2.95.8-4.5,1.18,1.55-.4,3.05-.8,4.5-1.18Z"/>
    <path class="cls-6" d="m554.16,490.47c4.42,2.12,6.97,3.46,8.2,6.51.51,1.29.72,2.65.62,4.15v.05h-.03v.27c-.67,7.24-7.99,15.3-10,17.15-.05.03-.11.11-.19.19-.08.05-.19.16-.32.27-2.2,2.01-5.47,3.91-9.73,5.6-1.07.46-2.2.83-3.24,1.21-5.76,1.88-12.03,2.87-18.57,2.92l-42.13-.05c-6.73,0-13.02-1.05-18.95-3.16-.83-.27-1.63-.56-2.36-.86-.08-.05-.19-.08-.27-.13-1.53-.62-2.81-1.18-3.91-1.77-.91-.48-1.72-.91-2.41-1.34h-.03s-.03-.03-.05-.03c-.03-.03-.03-.05-.05-.05h-.03c-.62-.4-1.15-.78-1.63-1.13-.94-.7-1.58-1.29-2.17-1.85-2.3-2.12-10.72-11.6-9.83-19.27.08-.8.27-1.55.56-2.3,1.23-3.05,3.78-4.37,8.2-6.48,3.97-1.88,8.9-4.23,13.35-9.19,2.14-2.38,3.89-5.63,5.31-9.92l.08-.24c.03-.13.08-.27.08-.29.11-.27.13-.56.13-.86,1.15-3.7,2.04-7.64,2.63-11.74.38-2.33.62-4.64.75-7.02,10.16,1.9,20.58,2.87,30.95,2.87h1.58c10.56,0,21.12-.96,31.3-2.92.32,5.39,1.29,12.49,3.22,18.52-.05.32-.03.62.05.94.05.19.11.38.19.62.03.08.05.16.08.21,1.39,4.21,3.19,7.53,5.28,9.89,4.45,5.01,9.38,7.37,13.35,9.25Z"/>
    <path class="cls-7" d="m562.34,835.49c-1.29-.32-2.63-.67-3.97-1.05,1.34.35,2.65.7,3.97,1.05Z"/>
    <path class="cls-7" d="m622.04,720.34c-15.49,6.89-48.07,15.27-71.17,18.36-1.45.19-2.81-.83-3-2.3s.83-2.81,2.3-3c22.27-2.97,54.83-11.36,69.67-17.95,3.91-1.72,7.42-3.62,10.61-5.68.64-.4,1.26-.8,1.88-1.26h.03c.62-.43,1.21-.86,1.8-1.31.59-.43,1.15-.88,1.69-1.34.08-.05.13-.11.21-.16.94-.8,2.3-.83,3.3-.11s1.37,2.04.91,3.16c-.05.11-.11.29-.16.51-.13.13-.27.24-.4.35l-.21.21c-1.55,1.29-3.16,2.49-4.88,3.64-2.44,1.66-5.06,3.19-7.88,4.64-.67.35-1.34.7-2.04,1.02-.86.43-1.74.83-2.65,1.23Z"/>
    <path class="cls-3" d="m556.79,522.6v.03h-.03s.03,0,.03-.03Z"/>
    <path class="cls-7" d="m556.74,522.52s-.03.03-.03.03l.03-.03Z"/>
    <path class="cls-7" d="m547.44,269.37c-.43.05-.83.08-1.23.13.4-.05.8-.11,1.23-.13Z"/>
    <path class="cls-7" d="m573.81,546.75c-8.09,4.53-16.86,6.62-26.15,8.82l-2.65.62c-.21.05-.43.08-.62.08-1.23,0-2.33-.83-2.63-2.06-.32-1.45.56-2.89,1.98-3.22l2.68-.64c9.3-2.2,17.34-4.1,24.76-8.28,11.79-6.62,21.49-15.19,28-24.76-.46.67-.59,1.47-.38,2.22.21.78.75,1.39,1.45,1.74.64.29,1.31.62,1.98.99-6.91,9.46-16.72,17.9-28.43,24.49Z"/>
    <path class="cls-7" d="m541.89,270.55c.86-.29,1.8-.51,2.76-.7-.99.19-1.9.4-2.76.7Z"/>
    <path class="cls-7" d="m539.72,449.45c1.21-.27,2.41-.56,3.59-.88-1.21.32-2.38.62-3.59.88Z"/>
    <path class="cls-7" d="m542.27,814.83c.59-.11,1.15-.24,1.69-.32-.54.08-1.1.21-1.69.32Z"/>
    <path class="cls-7" d="m545.05,808.8c-2.71.54-5.28,1.05-7.72,1.55,2.44-.51,5.01-1.02,7.72-1.55Z"/>
    <path class="cls-7" d="m556.6,484.9c4.56,2.17,8.87,4.23,10.96,9.46.88,2.2,1.21,4.61.94,7.18.16-2.33-.16-4.56-.99-6.62-2.09-5.23-6.4-7.29-10.96-9.46-3.86-1.85-7.88-3.75-11.58-7.93-1.23-1.39-2.36-3.3-3.35-5.71.11,0,.19-.03.29-.03.91,2.17,1.98,3.89,3.11,5.17,3.7,4.18,7.72,6.08,11.58,7.93Z"/>
    <path class="cls-7" d="m544.97,477.53c3.7,4.18,7.72,6.08,11.58,7.93,4.56,2.17,8.87,4.23,10.96,9.46.83,2.06,1.15,4.29.99,6.62v.08c0,.05-.03.11-.03.16-.03.16-.08.32-.13.48.03-.16.03-.29.05-.46l.03-.27c.16-2.33-.19-4.53-.99-6.59-2.09-5.17-6.38-7.24-10.91-9.38-3.89-1.88-7.91-3.78-11.63-7.96-1.23-1.42-2.36-3.35-3.35-5.76.03,0,.05,0,.08-.03.99,2.41,2.12,4.31,3.35,5.71Z"/>
    <path class="cls-7" d="m541.49,270.55l-.03.03s0-.03.03-.03Z"/>
    <path class="cls-7" d="m541.35,815.02c-.29.05-.62.11-.94.19.32-.08.64-.13.94-.19Z"/>
    <path class="cls-7" d="m540.93,469.25c.32.91.64,1.77.99,2.55-.11,0-.19.03-.29.03-.24-.56-.46-1.18-.67-1.8.03-.29,0-.56-.05-.8h.03v.03Z"/>
    <path class="cls-7" d="m540.82,468.87c.05.11.08.24.11.35h-.03c-.03-.11-.05-.24-.08-.35Z"/>
    <path class="cls-7" d="m540.82,468.87l-.16-.46c.08.13.13.29.16.46Z"/>
    <path class="cls-7" d="m540.15,466.68c.13.56.29,1.1.46,1.61-.16-.29-.4-.56-.67-.78-.43-.29-.88-.48-1.37-.54.54-.13,1.07-.24,1.58-.29Z"/>
    <path class="cls-7" d="m542.91,479.38c8.47,9.57,18.78,8.47,22.03,16.56.7,1.74.94,3.54.8,5.39,0,.11-.03.24-.03.38-.08.78-.21,1.58-.43,2.36-1.23-.19-2.17-1.21-2.28-2.41.03-.05.03-.13.03-.19l.03-.27c.11-1.55-.08-2.92-.62-4.23-1.29-3.27-4.21-4.64-8.23-6.57-3.97-1.88-8.9-4.23-13.32-9.22-2.09-2.36-3.86-5.65-5.28-9.86-.03-.08-.05-.13-.05-.21-.08-.24-.13-.43-.19-.59-.35-1.37.43-2.79,1.77-3.22l.43-.11c.32-.08.67-.16.99-.21.48.05.94.24,1.37.54.27.21.51.48.67.78.03.03.05.08.05.13l.16.46c.03.11.05.24.08.35-.88.16-1.8.35-2.71.56-.08.03-.13.03-.21.05.05.21.13.4.19.59v.03c1.18,3.51,2.73,6.67,4.74,8.92Z"/>
    <path class="cls-7" d="m564.94,495.94c-3.24-8.09-13.56-6.99-22.03-16.56-2.01-2.25-3.56-5.41-4.74-8.92v-.03c-.05-.19-.13-.38-.19-.59.08-.03.13-.03.21-.05.91-.21,1.82-.4,2.71-.56.05.24.08.51.05.8.21.62.43,1.23.67,1.8-.03.03-.05.03-.08.03.99,2.41,2.12,4.34,3.35,5.76,3.72,4.18,7.74,6.08,11.63,7.96,4.53,2.14,8.82,4.21,10.91,9.38.8,2.06,1.15,4.26.99,6.59l-.03.27c-.03.16-.03.29-.05.46-.4,1.1-1.42,1.85-2.6,1.85h-.24c-.08,0-.13-.03-.21-.05.21-.78.35-1.58.43-2.36,0-.13.03-.27.03-.38.13-1.85-.11-3.64-.8-5.39Z"/>
    <path class="cls-7" d="m537.58,273.09c-.29.27-.56.59-.8.91.24-.32.54-.64.8-.91Z"/>
    <path class="cls-7" d="m534.84,445.05c3.72-.78,7.45-1.72,11.09-2.76.38-.11.78-.13,1.15-.08,3.72.56,7.24,1.21,10.53,1.93-3.38,1.21-6.78,2.3-10.21,3.3l-.56.16c-1.18.32-2.36.67-3.54.96-1.18.32-2.38.62-3.59.88-.72.19-1.47.35-2.22.51-.05-.72-.08-1.42-.08-2.06,0-.72-.43-1.55-.94-2.06-.46-.46-1.02-.7-1.63-.78Z"/>
    <path class="cls-7" d="m532,451.05c.16-.03.35-.05.51-.08,1.66-.29,3.32-.64,4.98-1.02.24,4.69,1.02,11.09,2.65,16.72-.51.05-1.05.16-1.58.29-.35-.03-.67.03-1.02.13-.11.03-.32.05-.43.11-1.07.35-1.82,1.31-1.9,2.36-1.93-6.03-2.89-13.13-3.22-18.52Z"/>
    <path class="cls-7" d="m536.66,274.03c.03-.05.05-.11.11-.16-.05.05-.08.11-.11.16Z"/>
    <path class="cls-7" d="m554.22,490.39c4.02,1.93,6.94,3.3,8.23,6.57.54,1.31.72,2.68.62,4.23l-.03.27c0,.05,0,.13-.03.19-.03-.13-.05-.29-.03-.46v-.05c.11-1.5-.11-2.87-.62-4.15-1.23-3.05-3.78-4.39-8.2-6.51-3.97-1.88-8.9-4.23-13.35-9.25-2.09-2.36-3.89-5.68-5.28-9.89-.03-.05-.05-.13-.08-.21-.08-.24-.13-.43-.19-.62-.08-.32-.11-.62-.05-.94.08-1.05.83-2.01,1.9-2.36.11-.05.32-.08.43-.11.35-.11.67-.16,1.02-.13-.32.05-.67.13-.99.21l-.43.11c-1.34.43-2.12,1.85-1.77,3.22.05.16.11.35.19.59,0,.08.03.13.05.21,1.42,4.21,3.19,7.5,5.28,9.86,4.42,4.98,9.35,7.34,13.32,9.22Z"/>
    <path class="cls-7" d="m540.85,296.41c7.13,8.6,18.3,14.12,29.13,14.39h.62c14.31,0,30.15-11.6,36.1-22.67,1.45-2.68,2.25-5.2,2.44-7.45-.16,2.3-.96,4.88-2.44,7.58-5.95,11.07-21.79,22.7-36.1,22.7h-.62c-10.83-.27-22-5.79-29.13-14.39-3.62-4.37-5.76-9.06-6.19-13.4.48,4.31,2.63,8.95,6.19,13.24Z"/>
    <path class="cls-7" d="m560.54,269.42c-2.57-.05-4.98-.13-7.24-.13-3.27,0-6.16.13-8.66.56-.96.19-1.9.4-2.76.7-1.69.56-3.14,1.37-4.31,2.55-.27.27-.56.59-.8.91-.99,1.34-1.69,3-2.04,5.15-.05.38-.11.78-.13,1.18,0-.46.05-.91.13-1.34.35-2.04.99-3.67,1.93-4.96.03-.05.05-.11.11-.16,1.15-1.55,2.73-2.6,4.69-3.3l.03-.03c1.39-.51,2.97-.83,4.72-1.05.4-.05.8-.08,1.23-.13,1.8-.16,3.75-.21,5.87-.21,2.25,0,4.66.05,7.24.11,2.89.08,5.9.19,9.03.16,5.09,0,9.73-.32,13.83-.59,3.43-.24,6.54-.46,9.33-.46l9.83,1.77c.27.11.54.24.78.4.29.16.56.32.83.54l1.53,1.23c.21.16.4.38.59.59.05.03.08.08.13.13l1.23,1.55c.78,1.13,1.26,2.41,1.42,3.83-.19-1.37-.67-2.63-1.42-3.7-3.48-4.98-8.33-6.22-14.98-6.22-2.76,0-5.84.21-9.27.46-4.1.29-8.74.62-13.83.62h-.11c-3.14,0-6.08-.08-8.92-.16Z"/>
    <path class="cls-7" d="m540.85,296.57c7.13,8.6,18.3,14.12,29.13,14.39h.62c14.31,0,30.15-11.63,36.1-22.7,1.47-2.71,2.28-5.28,2.44-7.58.05-.8.05-1.55-.05-2.25-.16-1.42-.64-2.71-1.42-3.83l-1.23-1.55-.13-.13c-.19-.21-.38-.4-.59-.59l-1.53-1.23-.83-.54-.78-.4-9.83-1.77c-2.79,0-5.9.21-9.33.46-4.1.27-8.74.59-13.83.59-3.14.03-6.14-.08-9.03-.16-2.57-.05-4.98-.11-7.24-.11-2.12,0-4.07.05-5.87.21-.43.03-.83.08-1.23.13-1.74.21-3.32.54-4.72,1.05-.03,0-.03.03-.03.03-1.96.7-3.54,1.74-4.69,3.3-.05.05-.08.11-.11.16-.94,1.29-1.58,2.92-1.93,4.96-.08.43-.13.88-.13,1.34-.08.91-.05,1.88.05,2.84.43,4.34,2.57,9.03,6.19,13.4Zm-6.7-17.66c2.14-12.94,15.97-10.1,35.32-10.08,19.35.03,31.7-4.58,38.67,5.41,8.17,11.82-16.29,37.65-38.16,37.14-20.53-.51-38.08-18.73-35.83-32.48Z"/>
    <path class="cls-7" d="m534.04,816.52c-.38.08-.75.16-1.13.24.38-.08.75-.16,1.13-.24Z"/>
    <path class="cls-7" d="m569.95,311.98c-11.17-.27-22.67-5.95-30.01-14.82-3.72-4.48-5.95-9.35-6.46-13.88-.11-1.05-.13-2.06-.05-3.05.05-.43.08-.86.16-1.26,1.88-11.36,12.41-11.09,26.98-10.72,2.84.08,5.79.16,8.9.16h.11c5.04,0,9.67-.32,13.75-.59,11.6-.8,19.96-1.39,25.3,6.24.21.32.43.64,1.61,4.21l.08.8.03.64c0,.35-.03.7-.05,1.02-.19,2.44-1.05,5.12-2.55,7.93-6.11,11.34-21.92,23.31-37.11,23.31h-.67Zm-.48-43.14c-19.35-.03-33.18-2.87-35.32,10.08-2.25,13.75,15.3,31.97,35.83,32.48,21.87.51,46.33-25.32,38.16-37.14-6.97-10-19.32-5.39-38.67-5.41Z"/>
    <path class="cls-7" d="m530.77,811.72c1.39-.32,2.87-.62,4.37-.91-1.5.32-2.97.62-4.37.91Z"/>
    <path class="cls-7" d="m539.93,297.16c7.34,8.87,18.84,14.55,30.01,14.82h.67c15.19,0,31-11.98,37.11-23.31,1.5-2.81,2.36-5.49,2.55-7.93-.13,2.49-.99,5.23-2.55,8.09-6.11,11.31-21.92,23.31-37.11,23.31-.21,0-.43-.03-.67-.03-11.17-.27-22.67-5.92-30.01-14.79-3.75-4.56-6-9.46-6.46-14.04.51,4.53,2.73,9.41,6.46,13.88Z"/>
    <path class="cls-7" d="m533.58,278.8c1.88-11.36,12.41-11.09,26.98-10.69,2.84.05,5.79.13,8.9.13,5.04,0,9.73-.32,13.85-.59,11.6-.8,19.96-1.37,25.3,6.27.29.43.56.88,1.61,4.34-1.18-3.56-1.39-3.89-1.61-4.21-5.33-7.64-13.69-7.05-25.3-6.24-4.07.27-8.71.59-13.75.59h-.11c-3.11,0-6.06-.08-8.9-.16-14.58-.38-25.11-.64-26.98,10.72-.08.4-.11.83-.16,1.26.03-.48.08-.96.16-1.42Z"/>
    <path class="cls-7" d="m535.08,739.93c-2.44,0-4.53-.13-6.32-.4.35-.46.67-.94.99-1.42.78-1.21,1.47-2.41,2.06-3.64,3.62.24,9.38.08,18.36-1.07-1.47.19-2.49,1.53-2.3,3s1.55,2.49,3,2.3c-6.22.8-11.5,1.23-15.78,1.23Z"/>
    <path class="cls-7" d="m528.81,826.08c.96.27,1.9.56,2.87.83-.96-.27-1.93-.54-2.87-.83Z"/>
    <path class="cls-7" d="m530.34,811.8c-1.1.24-2.14.48-3.16.7,1.05-.24,2.09-.46,3.16-.7Z"/>
    <path class="cls-7" d="m530.31,410.19c0,3-.35,6.11-2.92,8.39-3.91,3.54-12.41,4.53-25.94,3.05-20.02-2.14-29.72-5.92-29.72-11.5,0-6.81,22.05-14.39,37.01-14.39h.05c14.79.03,21.52,7.5,21.52,14.44Z"/>
    <path class="cls-7" d="m525.92,818.29c1.39-.32,2.79-.64,4.15-.94-1.37.32-2.76.62-4.15.94Z"/>
    <path class="cls-7" d="m526.8,697.64c3.51,1.85,6.27,6,7.72,11.66,1.69,6.54,1.72,16.19-2.71,25.16h-.19c4.42-8.95,4.42-18.6,2.73-25.11-1.45-5.63-4.18-9.73-7.64-11.55-1.23-.64-2.76-1.13-4.34-1.55.03-.05.05-.08.11-.13,1.55.4,3.08.88,4.31,1.53Z"/>
    <path class="cls-7" d="m563.11,673.77c-4.56,2.2-8.71,4.15-12.43,5.9l-1.98.94c-14.68,6.91-22.64,10.64-26.21,15.52-.54-.16-1.05-.27-1.55-.4l-1.45-.4c3.08-1.63,7.32-4.1,8.52-8.47.16-.59.29-1.34.4-2.17v-.03c4.56-2.57,10.45-5.33,18.01-8.9l1.98-.94c3.7-1.74,7.82-3.67,12.38-5.87,27.07-13.08,28.27-32.72,28.3-34.92.08-2.68-3.38-6.7-8.79-10.26-1.26-.8-1.58-2.47-.78-3.7.8-1.26,2.47-1.58,3.7-.78,4.29,2.81,11.42,8.47,11.23,14.87-.05,2.52-1.39,25.14-31.33,39.61Z"/>
    <path class="cls-6" d="m515.23,681.46c.56-.24,1.34-.64,2.2-1.13.99-.54,4.02-2.17,4.77-1.93.7.72.96,4.42.29,6.94-.62,2.25-3.86,3.97-6.22,5.23-2.68,1.42-5.73,3.03-4.8,6.16.75,2.57,3.78,3.38,6.22,4.02.59.16,1.21.32,1.82.48,1.69.43,3.59.91,4.61,1.45,1.53.8,2.92,2.71,3.97,5.25.35.86.64,1.8.91,2.79,1.61,6.27,1.39,15.92-4.05,24.25-1.34,2.06-2.92,3.91-4.72,5.55-11.98,10.88-33.82,11.17-44.91.64-.7-.67-1.34-1.39-1.93-2.14,2.3-.72,4.72-2.06,5.47-4.72.72-2.6,1.5-5.01,2.22-7.32,2.76-8.66,5.17-16.13,3.35-26.37-.08-.46-.19-.91-.32-1.37-.51-2.22-1.37-4.18-2.57-5.98.83-.7,1.66-1.37,2.55-1.98,3.4-2.44,5.98-2.92,10.26-3.72,4.53-.88,10.72-2.06,20.88-6.11Z"/>
    <path class="cls-7" d="m517.85,814.67c1.82-.46,3.83-.94,5.98-1.42-2.14.48-4.13.96-5.98,1.42Z"/>
    <path class="cls-7" d="m515.92,697.05c1.93-5.06,5.73-8.52,12.49-12.38-.11.83-.24,1.58-.4,2.17-1.21,4.37-5.44,6.83-8.52,8.47l1.45.4c.51.13,1.02.24,1.55.4-.05.05-.08.08-.11.13,1.58.43,3.11.91,4.34,1.55,3.46,1.82,6.19,5.92,7.64,11.55,1.69,6.51,1.69,16.16-2.73,25.11h.19c-.59,1.23-1.29,2.44-2.06,3.64-.32.48-.64.96-.99,1.42-.72-.11-1.42-.24-2.04-.4-.86-.19-1.53-.8-1.85-1.61-.32-.8-.24-1.72.24-2.44,5.47-8.39,5.68-18.09,4.05-24.39-.27-1.02-.56-1.96-.94-2.81-1.05-2.6-2.47-4.53-4.02-5.33-1.02-.56-2.95-1.05-4.64-1.47-.62-.16-1.23-.32-1.85-.48-.72-.21-1.31-.7-1.66-1.37-.35-.67-.38-1.47-.13-2.17Z"/>
    <path class="cls-7" d="m517,820.43c.67-.19,1.37-.38,2.06-.54-.7.19-1.39.35-2.06.54Z"/>
    <path class="cls-7" d="m517.85,814.67c-.91.24-1.77.46-2.63.67.83-.21,1.72-.46,2.63-.67Z"/>
    <path class="cls-7" d="m517.69,560.04c-.43.08-.86.11-1.29.13.43-.03.86-.08,1.29-.13Z"/>
    <path class="cls-7" d="m516.94,820.43c-.46.13-.88.24-1.29.35.4-.13.86-.24,1.29-.35Z"/>
    <path class="cls-7" d="m512.39,448.21c2.25-.16,4.48-.38,6.7-.62-2.22.27-4.45.48-6.7.62Z"/>
    <path class="cls-7" d="m514.61,560.28c.46,0,.94-.03,1.42-.08-.46.05-.94.08-1.42.08Z"/>
    <path class="cls-7" d="m513.86,559.16s.03-.05.03-.05c3.46.05,7.13-.72,9.94-2.71.88-.67,1.47-1.55,1.42-2.28-1.1-2.73-5.2-3.97-9.62-4.18-.11-.29-.27-.56-.48-.83.24.03.46.03.67.05,2.81.21,5.28.86,7.05,1.74s2.84,2.01,2.84,3.19c0,2.41-4.77,5.04-11.84,5.06Z"/>
    <path class="cls-7" d="m513.19,821.47c.59.19,1.21.38,1.82.56-.64-.19-1.23-.38-1.85-.56h.03Z"/>
    <path class="cls-7" d="m513.89,549.05c.05-.51.83-.72,1.1-.21.05.08.13.16.16.27-.4-.03-.8-.05-1.26-.05Z"/>
    <path class="cls-7" d="m515.63,549.94c-.59-.03-1.21-.03-1.8,0,.03-.24.03-.51.03-.78,0-.03,0-.08.03-.11.46,0,.86.03,1.26.05.21.27.38.54.48.83Z"/>
    <path class="cls-7" d="m515.23,815.34c-.83.24-1.63.46-2.38.67.75-.21,1.53-.46,2.38-.67Z"/>
    <path class="cls-7" d="m513.7,559.1h.19s-.03.03-.03.05h-.16c-.13,0-.24,0-.38-.03.13,0,.24-.03.38-.03Z"/>
    <path class="cls-7" d="m513.73,560.31c.24,0,.48,0,.7-.03-.24.03-.48.05-.72.05h-.24c.08,0,.19-.03.27-.03Z"/>
    <path class="cls-7" d="m513.11,559.13c-1.21-.05-3.16-.38-5.06-.94,1.61-2.12,2.79-2.81,3.83-4.29,1.02-1.37,1.82-2.28,1.96-3.97.59-.03,1.21-.03,1.8,0,1.26,2.84-.27,6.32-1.74,9.16h-.19c-.13,0-.24.03-.38.03h-.21Z"/>
    <path class="cls-7" d="m513.35,560.33h-.13l.03-.03c.05.03.08.03.11.03Z"/>
    <path class="cls-7" d="m512.82,560.31c.13.03.29.03.43,0l-.03.03c-.13,0-.27-.03-.4-.03Z"/>
    <path class="cls-7" d="m514.85,581.13c.8-5.63-5.23-8.71-7.37-14.12-.86-2.22-1.23-4.9-.32-7.24,1.9.4,3.86.51,5.55.54.03.03.05.03.11,0,.13,0,.27.03.4.03-.16.29-.32.59-.46.86-.13.56-.08.67.05,1.34,1.1,4.56,5.9,7.07,7.29,12.17,2.57,7.15-3.05,14.55-8.71,17.55-.29.19-.67.08-.83-.21-.11-.19-.11-.43,0-.62,2.01-3.56,3.94-7.1,4.29-10.29Z"/>
    <path class="cls-7" d="m512.39,448.21c-2.57.21-5.17.32-7.77.35,2.6-.05,5.2-.16,7.77-.35Z"/>
    <path class="cls-7" d="m512.71,560.31c-1.69-.03-3.64-.13-5.55-.54l.08-.24c1.18.29,2.47.54,3.86.67l1.05.05c.19,0,.38.03.56.05Z"/>
    <path class="cls-7" d="m507.86,558.46c1.02.27,2.14.46,3.35.56l1.02.08c.29.03.59.03.88.03h.21c.13.03.24.03.38.03h.16c-.21.4-.43.78-.62,1.15-.13.03-.29.03-.43,0-.05.03-.08.03-.11,0-.19-.03-.38-.05-.56-.05l-1.05-.05c-1.39-.13-2.68-.38-3.86-.67.16-.35.35-.7.56-1.02l.05-.05Z"/>
    <path class="cls-7" d="m511.21,559.02c-1.21-.11-2.33-.29-3.35-.56.05-.11.13-.19.19-.27,1.9.56,3.86.88,5.06.94-.29,0-.59,0-.88-.03l-1.02-.08Z"/>
    <path class="cls-7" d="m552.13,807.35c3.64-1.07,7.8-2.06,11.82-3.03,1.66-.4,3.35-.8,4.98-1.18,1.55-.38,3.05-.78,4.5-1.18h.05c.75-.21,1.45-.4,2.14-.62.35-.11.7-.21,1.05-.32,1.72-.54,3.27-1.1,4.58-1.69-.11.11-.21.19-.32.29-1.37,1.26-1.93,3.27-1.63,6.16v.03c-.35.11-.72.24-1.1.35-.67.21-1.39.43-2.12.62-.35.11-.7.21-1.05.29-3.08.86-6.43,1.63-9.86,2.47-3.94.94-8.04,1.9-11.55,2.95-.83.24-3.03.67-7.53,1.58-.62.13-1.34.27-2.14.43-.54.08-1.1.21-1.69.32-.29.05-.59.13-.91.19-.29.05-.62.11-.94.19-1.93.4-4.1.83-6.38,1.31-.38.08-.75.16-1.13.24-.94.19-1.88.4-2.84.59-1.37.29-2.76.62-4.15.94-2.36.54-4.69,1.07-6.86,1.61-.7.16-1.39.35-2.06.54h-.05c-.43.11-.88.21-1.29.35-.88.24-1.72.46-2.47.7h-.05c-1.69-.48-3.32-.96-4.82-1.42l-2.44-.72c-.29-.08-.7-.16-1.15-.27.48-.29,1.05-.56,1.72-.86.32-.13.64-.27.99-.4,1.47-.59,3.27-1.18,5.41-1.8.75-.21,1.55-.43,2.38-.67.86-.21,1.72-.43,2.63-.67,1.85-.46,3.83-.94,5.98-1.42,1.07-.27,2.2-.51,3.35-.75,1.02-.21,2.06-.46,3.16-.7.13-.03.29-.05.43-.08,1.39-.29,2.87-.59,4.37-.91.72-.16,1.45-.32,2.2-.46,2.44-.51,5.01-1.02,7.72-1.55,3.46-.67,6.43-1.26,7.07-1.45Z"/>
    <path class="cls-7" d="m506.44,818.21c.32-.13.64-.27.99-.4-.35.13-.67.27-.99.4Z"/>
    <path class="cls-7" d="m551.35,905.65c20.34,3.46,35.77,3.4,46.04,3.38,15.41-.03,26.07-1.18,35.45-2.2l1.66-.19c12.7-1.39,19.7-2.17,23.21-4.45,11.98-7.69,20.29-25,20.18-42.07-.03-6.11-1.18-10.4-3.03-17.47-3.35-12.59-8.47-24.84-15.17-36.5.16-.46.32-.88.48-1.29.78-1.93,1.26-3.91,1.39-5.9.11.08.19.21.27.32,8.2,13.29,14.31,27.41,18.2,41.99,1.9,7.24,3.16,12.01,3.22,18.81v.32c0,18.7-9.27,37.73-22.62,46.31-4.58,2.95-11.58,3.7-25.54,5.25l-1.66.16c-9.06.99-20.34,2.22-36.04,2.25h-2.38c-12.59,0-26.53-.38-44.56-3.46-13.75-2.36-27.55-5.92-39.9-10.29-5.17-1.82-8.25-3.14-11.12-4.48.4-.19.78-.38,1.15-.56.96-.43,1.55-1.39,1.53-2.44,0-1.05-.62-1.98-1.58-2.41,2.6,1.26,5.6,2.63,11.82,4.85,12.06,4.26,25.56,7.74,39.02,10.05Z"/>
    <path class="cls-7" d="m504.45,824.48c-.91-.27-1.61-.99-1.82-1.93-.21-.94.08-1.93.78-2.57.32-.29.75-.62,1.29-.91h.03c.46.11.86.19,1.15.27l2.44.72c1.5.46,3.14.94,4.82,1.42-3.08.91-5.31,1.74-6.06,2.41-.51.46-1.21.72-1.88.72-.19,0-.4-.03-.59-.08-.05,0-.08-.03-.13-.03l-.03-.03Z"/>
    <path class="cls-7" d="m591.47,847.07c-10.13,0-49.01-11.31-84.68-21.89l-2.17-.64c.19.05.4.08.59.08.67,0,1.37-.27,1.88-.72.75-.67,2.97-1.5,6.06-2.41h.03c.62.19,1.21.38,1.85.56,4.21,1.23,8.9,2.63,13.8,4.05.94.29,1.9.56,2.87.83,8.71,2.55,18.03,5.2,26.69,7.53,1.34.38,2.68.72,3.97,1.05,4.18,1.13,8.15,2.14,11.76,3,1.15.29,2.28.56,3.35.8,4.96,1.15,9.06,1.96,11.84,2.28.62.05,1.18.11,1.66.11.19.03.35.03.51.03,1.8,0,3.56-.03,5.28-.08,1.5-.05,2.95-.11,4.39-.19.21,0,.4-.03.62-.03,2.28,1.69,4.66,3.14,7.15,4.26.11.08.24.13.35.19h.03c.16.08.32.13.51.16.16.05.35.08.54.08-5.84.62-12.01.94-18.87.96Z"/>
    <path class="cls-7" d="m504.48,824.5c-.05,0-.11-.03-.19-.05.05.03.11.03.16.03l.03.03Z"/>
    <path class="cls-7" d="m504.21,818.96c-.16-.03-.35-.08-.54-.11.19.03.38.08.54.11Z"/>
    <path class="cls-7" d="m503.46,824.26c-.19-.03-.38-.08-.56-.11.21.03.4.08.56.11Z"/>
    <path class="cls-7" d="m507.86,558.46c-3.64-.88-6.11-2.57-6.11-4.37.03-2.73,5.47-5.04,11.95-5.04h.19s-.03.08-.03.11c0,.27,0,.54-.03.78-4.02.05-7.99.94-9.94,2.25-3.64,2.63.16,4.82,4.15,6-.05.08-.13.16-.19.27Z"/>
    <path class="cls-7" d="m502.9,824.15c-.51-.11-1.1-.24-1.77-.38.64.13,1.26.24,1.77.38Z"/>
    <path class="cls-7" d="m507.24,559.53c-4.05-1.07-6.65-3.11-6.65-5.44,0-3.48,5.76-6.19,13.1-6.19.8,0,1.55.03,2.22.08,6.43.51,10.96,3.03,10.96,6.11-.03,1.77-1.47,3.32-3.83,4.42-1.47.7-3.3,1.23-5.36,1.53-.43.05-.86.11-1.29.13-.13.03-.24.03-.38.03-.48.05-.96.08-1.42.08-.08.03-.13.03-.19,0-.21.03-.46.03-.7.03-.08,0-.19.03-.27.03h-.11s-.05,0-.11-.03c.19-.38.4-.75.62-1.15,7.07-.03,11.84-2.65,11.84-5.06,0-1.18-1.07-2.3-2.84-3.19s-4.23-1.53-7.05-1.74c-.21-.03-.43-.03-.67-.05-.03-.11-.11-.19-.16-.27-.27-.51-1.05-.29-1.1.21h-.19c-6.48,0-11.92,2.3-11.95,5.04,0,1.8,2.47,3.48,6.11,4.37l-.05.05c-.21.32-.4.67-.56,1.02Z"/>
    <path class="cls-7" d="m508.9,362.06c-5.9.59-17.26.21-18.97-7.24-.62-2.65,2.41-5.63,4.98-3.83,2.41,1.69,3.72,3.27,6.78,3.91,2.81.56,5.9.56,8.79.46,2.89-.11,6.65-.62,7.42-3.97.8-3.56-1.98-6.97-4.21-9.35-4.88-5.25-9.19-10.53-12.11-17.15-2.84-6.43-4.56-13.43-4.37-20.47.05-2.44,3.48-2.36,3.7,0,.91,9.06,3.48,17.66,8.71,25.24,4.48,6.48,13.26,11.5,13.96,19.99.72,8.74-7.5,11.68-14.68,12.41Z"/>
    <path class="cls-7" d="m500.6,554.09c0,2.33,2.6,4.37,6.65,5.44l-.08.24c-3.14-.59-6.06-1.93-6.97-4.77v-.03c.05-.29.08-.59.08-.88-.03-.29-.08-.59-.16-.86,2.28-8.01,19.64-7.4,24.92-3.05,3,2.01,2.97,5.79-.19,7.64-2.2,1.39-4.64,1.96-7.15,2.22,2.06-.29,3.89-.83,5.36-1.53,2.36-1.1,3.81-2.65,3.83-4.42,0-3.08-4.53-5.6-10.96-6.11-.67-.05-1.42-.08-2.22-.08-7.34,0-13.1,2.71-13.1,6.19Z"/>
    <path class="cls-7" d="m500.27,554.09c0,.29-.03.59-.08.88-.11-.29-.19-.59-.24-.91.05-.29.11-.56.16-.83.08.27.13.56.16.86Z"/>
    <path class="cls-7" d="m499.23,453.52h1.5c10.56,0,21.06-.83,31.27-2.49v.03c-10.18,1.96-20.74,2.92-31.3,2.92h-1.58c-10.37,0-20.79-.96-30.95-2.87v-.11c10.18,1.66,20.61,2.49,31.06,2.52Z"/>
    <path class="cls-7" d="m496.55,817.35c.43.08.83.16,1.21.27-.4-.08-.8-.16-1.21-.27Z"/>
    <path class="cls-7" d="m490.68,816.17c1.37.27,2.65.54,3.89.78-1.23-.24-2.52-.51-3.89-.78Z"/>
    <path class="cls-7" d="m492.88,893.18l-4.37-1.98,4.37,1.98Z"/>
    <path class="cls-7" d="m489.42,815.9c.43.11.86.19,1.26.27-.4-.08-.83-.16-1.26-.27Z"/>
    <path class="cls-7" d="m490.41,548.57c0,.29,0,.59-.05.88-.46-.11-.94-.16-1.42-.24.11-.21.21-.46.29-.67.05-.16.13-.32.27-.43.27.05.54.08.8.13.08.11.11.21.11.32Z"/>
    <path class="cls-7" d="m488.67,549.8c.11-.19.19-.38.27-.59.48.08.96.13,1.42.24,0,.24,0,.46-.05.67-.54-.13-1.07-.24-1.63-.32Z"/>
    <path class="cls-7" d="m490.06,548.03c.11.05.19.13.24.21-.27-.05-.54-.08-.8-.13.16-.13.35-.16.56-.08Z"/>
    <path class="cls-7" d="m496.33,554.06c-.62-1.82-3-3.16-6.03-3.94.05-.21.05-.43.05-.67,4.29.78,7.37,2.57,7.37,4.61,0,2.28-4.02,4.39-9.33,4.93.08-.35.16-.67.24-1.02,3.64-.67,6.78-2.04,7.69-3.91Z"/>
    <path class="cls-7" d="m484.44,558.38c1.31-2.92,2.95-5.71,4.23-8.58.56.08,1.1.19,1.63.32-.11,1.26-.4,2.36-.64,3.54-.27,1.34-.64,2.81-1.02,4.31-1.34.24-2.79.4-4.21.4Z"/>
    <path class="cls-7" d="m488.4,558.99c-.03.11-.05.24-.08.35l-.03-.24v-.11h.11Z"/>
    <path class="cls-7" d="m488.3,559.1l.03.24-.03-.24Z"/>
    <path class="cls-7" d="m488.13,560.17c.05-.27.11-.54.19-.8v-.03c.03-.11.05-.24.08-.35,5.31-.54,9.33-2.65,9.33-4.93,0-2.04-3.08-3.83-7.37-4.61.05-.29.05-.59.05-.88,0-.11-.03-.21-.11-.32,5.06.86,8.6,3.11,8.6,5.82-.03,3.03-4.34,5.52-10.5,6.11h-.27Z"/>
    <path class="cls-4" d="m433.74,530.88c19.13,15.17,40.57,15.25,65.63,15.35,1.74.03,3.46.03,5.17.03,11.12,0,21.92-.24,32.18-2.28,10.29-2.01,20.04-5.84,29.08-13,13.61-10.8,31.73-33.01,22.32-46.71-10.18-14.9-27.95-21.38-47.97-17.61-1.63-5.63-2.41-12.03-2.65-16.72.75-.16,1.5-.32,2.22-.51,1.21-.27,2.38-.56,3.59-.88,1.18-.29,2.36-.64,3.54-.96,39.5,6.11,53.62,20.77,58.5,32,4.93,11.34,2.73,24.73-6.16,37.7-6.51,9.57-16.21,18.14-28,24.76-7.42,4.18-15.46,6.08-24.76,8.28l-2.68.64c-1.42.32-2.3,1.77-1.98,3.22.29,1.23,1.39,2.06,2.63,2.06.19,0,.4-.03.62-.08l2.65-.62c9.3-2.2,18.06-4.29,26.15-8.82,11.71-6.59,21.52-15.03,28.43-24.49,16.53,8.92,41.08,36.82,49.92,61.9,5.06,14.39,20.47,58.18,3.75,94.03-5.73,12.27-12.03,21.01-19.86,27.47-.08.05-.13.13-.21.19-.56.46-1.13.88-1.69,1.34-.59.43-1.18.88-1.8,1.31h-.03c-.62.43-1.23.86-1.88,1.26-3.19,2.06-6.7,3.97-10.61,5.68-14.85,6.59-47.4,14.98-69.67,17.95-8.98,1.15-14.74,1.31-18.36,1.07,4.42-8.98,4.39-18.62,2.71-25.16-1.45-5.65-4.21-9.81-7.72-11.66-1.23-.64-2.76-1.13-4.31-1.53,3.56-4.88,11.52-8.6,26.21-15.52l1.98-.94c3.72-1.74,7.88-3.7,12.43-5.9,29.93-14.47,31.27-37.09,31.33-39.61.19-6.4-6.94-12.06-11.23-14.87-1.23-.8-2.89-.48-3.7.78-.8,1.23-.48,2.89.78,3.7,5.41,3.56,8.87,7.58,8.79,10.26-.03,2.2-1.23,21.84-28.3,34.92-4.56,2.2-8.68,4.13-12.38,5.87l-1.98.94c-7.56,3.56-13.45,6.32-18.01,8.9.46-3.56.21-8.76-2.92-10.91-3.51-2.41-7.91,0-10.8,1.58-.62.35-1.18.67-1.58.83-9.65,3.86-15.3,4.93-19.83,5.79-4.5.86-8.09,1.55-12.51,4.69-1.13.78-2.17,1.63-3.19,2.55-4.82-4.1-12.35-7.66-24.71-13.51l-2.04-.94c-3.7-1.74-7.8-3.7-12.35-5.9-27.04-13.16-28.19-32.77-28.24-35-.08-2.65,3.4-6.67,8.84-10.24,1.23-.8,1.58-2.47.78-3.7-.83-1.23-2.49-1.58-3.72-.78-4.26,2.79-11.42,8.44-11.25,14.85.05,2.52,1.37,25.14,31.27,39.69,4.56,2.2,8.71,4.15,12.41,5.92l2.01.94c12.57,5.92,20.42,9.65,24.55,13.67.11.27.27.54.48.75,1.74,1.9,2.73,3.97,3.22,6.7,1.55,8.82-.51,15.35-3.16,23.61-.75,2.38-1.55,4.85-2.28,7.48,0,0-.72.99-4.93,1.42-.29.03-.59.11-.86.24-4.42.32-10.69-.05-18.62-1.1-22.62-3.05-54.48-11.31-69.62-18.06-4.02-1.77-7.58-3.72-10.83-5.84-.62-.4-1.23-.83-1.82-1.26-1.15-.8-2.28-1.63-3.35-2.52-.05-.08-.13-.13-.21-.19v-.03h-.03c-7.8-6.48-14.07-15.25-19.78-27.49-16.64-35.88-1.15-79.64,3.94-94.01,8.9-25.08,33.5-52.92,50.03-61.82,6.91,9.46,16.69,17.93,28.38,24.52,8.09,4.58,16.88,6.67,26.15,8.87l2.65.64c.21.05.43.08.64.08,1.21,0,2.3-.83,2.6-2.06.35-1.45-.54-2.89-1.98-3.22l-2.65-.64c-9.3-2.22-17.34-4.13-24.76-8.33-11.76-6.62-21.41-15.17-27.9-24.71,0-.03-.03-.08-.05-.11-8.87-12.97-11.04-26.37-6.08-37.73,4.88-11.2,19.03-25.83,58.53-31.86,2.33.67,4.72,1.29,7.15,1.88.88.21,1.77.4,2.68.62-.11,2.49-.35,4.88-.72,7.29-.48,3.27-1.15,6.4-1.96,9.35-20.12-3.94-38.08,2.47-48.48,17.45-9.49,13.69,8.6,35.96,22.24,46.79Zm66.38,22.35c-1.55-6.43-15.22-7.26-22.72-4.02-.21.08-.4.16-.59.27-2.33.99-3.83,2.41-4.13,4.02v.03c-.05.08-.05.16-.08.24,0,.08,0,.16.03.24v.05c0,.72.24,1.39.72,2.04.03.03.03.08.05.11.08.11.16.21.27.32,1.74,2.28,5.57,3.75,9.75,4.34-.78,2.12-1.29,4.34-1.34,6.7.29,3.54,1.8,7.34,3.43,10.29,2.73,5.6-.96,9.54-3.75,14.82-6.16,9.49-1.96,22.35,6.22,29.13.46.46,1.23-.13.94-.7-2.71-5.92-4.98-11.95-4.26-17.42.67-6.57,5.79-10.21,7.72-17.02.8-2.89,1.18-6.3.03-9.25-1.72-3.75-4.1-6.51-4.98-10.42-.19-1.74.08-3.78.51-5.87,5.95-.13,11.52-2.06,12.27-6.14.91,2.84,3.83,4.18,6.97,4.77-.91,2.33-.54,5.01.32,7.24,2.14,5.41,8.17,8.49,7.37,14.12-.35,3.19-2.28,6.73-4.29,10.29-.11.19-.11.43,0,.62.16.29.54.4.83.21,5.65-3,11.28-10.4,8.71-17.55-1.39-5.09-6.19-7.61-7.29-12.17-.13-.67-.19-.78-.05-1.34.13-.27.29-.56.46-.86h.48c.24,0,.48-.03.72-.05.05.03.11.03.19,0,.48,0,.96-.03,1.42-.08.13,0,.24,0,.38-.03.43-.03.86-.05,1.29-.13,2.52-.27,4.96-.83,7.15-2.22,3.16-1.85,3.19-5.63.19-7.64-5.28-4.34-22.64-4.96-24.92,3.05Zm-46.23,99.47c0-.08-.03-.16-.08-.21-.03,0-.05-.03-.05-.05-.05-.03-.11-.03-.16-.03-.08,0-.16-.03-.27-.03h-.24c-.08,0-.19.03-.24.08-.05.08-.11.16-.11.24.03.11.05.19.11.24.08.05.16.11.24.11s.16,0,.24-.03h.27s.08-.03.11-.03c.05-.03.08-.05.11-.08.05-.05.08-.13.08-.21Z"/>
    <path class="cls-7" d="m487.3,815.5c-1.13-.24-2.3-.48-3.48-.72,1.18.24,2.33.48,3.48.72Z"/>
    <path class="cls-7" d="m484.12,559.07c.11-.24.21-.46.32-.7,1.42,0,2.87-.16,4.21-.4-.08.35-.16.67-.24,1.02h-.11v.11l-.03-.11c-.88.08-1.72.13-2.52.13-.56,0-1.1-.03-1.63-.05Z"/>
    <path class="cls-7" d="m487.92,561.14c-1.5,0-3.03-.08-4.5-.27.08-.21.16-.43.24-.67.67.05,1.39.08,2.09.08.78,0,1.58-.03,2.38-.11-.08.32-.16.64-.21.96Z"/>
    <path class="cls-7" d="m481.76,592.68c2.79-5.28,6.48-9.22,3.75-14.82-1.63-2.95-3.14-6.75-3.43-10.29.05-2.36.56-4.58,1.34-6.7,1.47.19,3,.27,4.5.27-.43,2.09-.7,4.13-.51,5.87.88,3.91,3.27,6.67,4.98,10.42,1.15,2.95.78,6.35-.03,9.25-1.93,6.81-7.05,10.45-7.72,17.02-.72,5.47,1.55,11.5,4.26,17.42.29.56-.48,1.15-.94.7-8.17-6.78-12.38-19.64-6.22-29.13Z"/>
    <path class="cls-7" d="m483.66,560.2c.16-.38.29-.75.46-1.13.54.03,1.07.05,1.63.05.8,0,1.63-.05,2.52-.13l.03.11.03.24v.03c-.08.27-.13.54-.19.8-.8.08-1.61.11-2.38.11-.7,0-1.42-.03-2.09-.08Z"/>
    <path class="cls-7" d="m481.54,693.28c1.21,1.8,2.06,3.75,2.57,5.98l-.13.03c-.78-3.14-2.14-5.73-4.31-8.09-.64-.7-1.34-1.34-2.09-2.01,1.02-.91,2.06-1.77,3.19-2.55,4.42-3.14,8.01-3.83,12.51-4.69,4.53-.86,10.18-1.93,19.83-5.79.4-.16.96-.48,1.58-.83,2.89-1.58,7.29-3.99,10.8-1.58,3.14,2.14,3.38,7.34,2.92,10.91v.03c-6.75,3.86-10.56,7.32-12.49,12.38-.24.7-.21,1.5.13,2.17.35.67.94,1.15,1.66,1.37.62.16,1.23.32,1.85.48,1.69.43,3.62.91,4.64,1.47,1.55.8,2.97,2.73,4.02,5.33l-.13.05c-1.05-2.55-2.44-4.45-3.97-5.25-1.02-.54-2.92-1.02-4.61-1.45-.62-.16-1.23-.32-1.82-.48-2.44-.64-5.47-1.45-6.22-4.02-.94-3.14,2.12-4.74,4.8-6.16,2.36-1.26,5.6-2.97,6.22-5.23.67-2.52.4-6.22-.29-6.94-.75-.24-3.78,1.39-4.77,1.93-.86.48-1.63.88-2.2,1.13-10.16,4.05-16.35,5.23-20.88,6.11-4.29.8-6.86,1.29-10.26,3.72-.88.62-1.72,1.29-2.55,1.98Z"/>
    <path class="cls-7" d="m485.78,549.03c1.1,0,2.14.08,3.16.19-.08.21-.16.4-.27.59-3.51-.62-7.53-.51-10.5.43,1.55-.56,3.46-.94,5.52-1.1.62-.08,1.29-.11,2.09-.11Z"/>
    <path class="cls-3" d="m478.78,534.29l41.7.05h.46c7.13-.05,13.96-1.13,20.31-3.22,1.21-.4,2.38-.83,3.54-1.29,4.88-1.96,8.71-4.21,11.2-6.51.11-.08.21-.16.29-.24.19-.13.32-.27.48-.46h.03c.11-.11,10.72-10.1,11.68-20.85,0-.05.03-.11.03-.16v-.08c.27-2.57-.05-4.98-.94-7.18-2.09-5.23-6.4-7.29-10.96-9.46-3.86-1.85-7.88-3.75-11.58-7.93-1.13-1.29-2.2-3-3.11-5.17,17.5-3.05,32.96,2.63,41.78,15.52,1.18,1.69,1.69,3.67,1.69,5.82,0,10.53-12.43,25.35-22.91,33.66-17.98,14.26-38.86,14.18-63.35,14.1-10.29-.05-19.99-.08-29.1-1.26l.67-5.82c2.63.32,5.33.48,8.09.48Z"/>
    <path class="cls-7" d="m477.39,549.21c7.5-3.24,21.17-2.41,22.72,4.02-.05.27-.11.54-.16.83.05.32.13.62.24.91v.03c-.75,4.07-6.32,6-12.27,6.14.05-.32.13-.64.21-.96h.27c6.16-.59,10.48-3.08,10.5-6.11,0-2.71-3.54-4.96-8.6-5.82-.05-.08-.13-.16-.24-.21-.21-.08-.4-.05-.56.08-1.18-.16-2.44-.24-3.72-.24-.83,0-1.53.03-2.2.08-2.36.19-4.48.62-6.19,1.26Z"/>
    <path class="cls-7" d="m473.66,556.53c.67.78,1.69,1.47,2.97,2.04,1.93.88,4.37,1.45,7.02,1.63-.08.24-.16.46-.24.67-4.18-.59-8.01-2.06-9.75-4.34Z"/>
    <path class="cls-7" d="m472.67,553.5c.29-1.61,1.8-3.03,4.13-4.02-2.12.99-3.64,2.36-4.13,4.02Z"/>
    <path class="cls-7" d="m473.83,553.88c.54,3.32,5.49,4.66,10.61,4.5-.11.24-.21.46-.32.7-2.65-.19-5.09-.72-6.99-1.58-2.12-.94-3.35-2.2-3.35-3.43,0-.78.48-1.53,1.29-2.2-.62.56-1.05,1.23-1.23,2.01Z"/>
    <path class="cls-7" d="m476.64,558.57c-1.29-.56-2.3-1.26-2.97-2.04-.11-.11-.19-.21-.27-.32-.03-.03-.03-.08-.05-.11-.4-.62-.64-1.29-.72-2.04v-.05c0-.16.03-.32.05-.48v-.03c.48-1.66,2.01-3.03,4.13-4.02.19-.11.38-.19.59-.27,1.72-.64,3.83-1.07,6.19-1.26.67-.05,1.37-.08,2.2-.08,1.29,0,2.55.08,3.72.24-.13.11-.21.27-.27.43-.08.21-.19.46-.29.67-1.02-.11-2.06-.19-3.16-.19-.8,0-1.47.03-2.09.11-2.06.16-3.97.54-5.52,1.1-.08.03-.19.05-.27.08-.46.16-.91.35-1.29.56-.62.27-1.13.62-1.55.99-.8.67-1.29,1.42-1.29,2.2,0,1.23,1.23,2.49,3.35,3.43,1.9.86,4.34,1.39,6.99,1.58-.16.38-.29.75-.46,1.13-2.65-.19-5.09-.75-7.02-1.63Z"/>
    <path class="cls-7" d="m475.33,741.16c11.09,10.53,32.93,10.24,44.91-.64,1.8-1.63,3.38-3.48,4.72-5.55,5.44-8.33,5.65-17.98,4.05-24.25-.27-.99-.56-1.93-.91-2.79l.13-.05c.38.86.67,1.8.94,2.81,1.63,6.3,1.42,16-4.05,24.39-.48.72-.56,1.63-.24,2.44.32.8.99,1.42,1.85,1.61.62.16,1.31.29,2.04.4-2.14,2.73-3.38,4.05-4.69,5.23-7.24,6.57-17.28,9.86-27.15,9.86s-18.97-3.08-25.51-9.33c-1.74-1.63-3.19-3.43-4.37-5.52.67-.03,1.34-.08,1.96-.13,2.09-.21,8.41-.86,9.67-5.39.75-2.6,1.5-5.01,2.25-7.32,2.76-8.63,5.15-16.11,3.35-26.26-.08-.48-.19-.94-.29-1.39l.13-.03c.13.46.24.91.32,1.37,1.82,10.24-.59,17.71-3.35,26.37-.72,2.3-1.5,4.72-2.22,7.32-.75,2.65-3.16,3.99-5.47,4.72.59.75,1.23,1.47,1.93,2.14Z"/>
    <path class="cls-7" d="m473.4,556.21c.08.11.16.21.27.32-.11-.11-.19-.21-.27-.32Z"/>
    <path class="cls-7" d="m472.62,554.06c.08.75.32,1.42.72,2.04-.48-.64-.72-1.31-.72-2.04Z"/>
    <path class="cls-7" d="m472.67,553.53c-.03.16-.05.32-.05.48-.03-.08-.03-.16-.03-.24.03-.08.03-.16.08-.24Z"/>
    <path class="cls-7" d="m475.65,725.25c2.65-8.25,4.72-14.79,3.16-23.61-.48-2.73-1.47-4.8-3.22-6.7-.21-.21-.38-.48-.48-.75.21.21.43.43.62.64,1.77,1.9,2.76,4.02,3.27,6.78,1.55,8.84-.54,15.41-3.19,23.69-.75,2.36-1.53,4.85-2.28,7.5,0,0-.67,1.05-5.09,1.5-.27.03-.56.05-.86.08.27-.13.56-.21.86-.24,4.21-.43,4.93-1.42,4.93-1.42.72-2.63,1.53-5.09,2.28-7.48Z"/>
    <path class="cls-7" d="m508.74,395.74c-14.95,0-37.01,7.58-37.01,14.39,0,5.57,9.7,9.35,29.72,11.5,13.53,1.47,22.03.48,25.94-3.05,2.57-2.28,2.92-5.39,2.92-8.39,0-6.94-6.73-14.42-21.52-14.44h-.05Zm-37.6,14.39c0-7.48,22.64-14.98,37.65-14.95,14.98,0,22.11,7.53,22.11,15.01s-2.36,14.98-29.5,12.03c-14.93-1.61-30.25-4.64-30.25-12.09Z"/>
    <path class="cls-7" d="m508.8,395.18c-15.01-.03-37.65,7.48-37.65,14.95s15.33,10.48,30.25,12.09c27.15,2.95,29.5-4.58,29.5-12.03s-7.13-15.01-22.11-15.01Zm-7.48,27.63c-13.21-1.42-30.76-4.29-30.76-12.68s23.8-15.54,38.19-15.54h.05c7.8,0,13.48,2.04,17.2,4.98,3.72,2.95,5.49,6.86,5.49,10.61,0,3.11-.4,6.67-3.3,9.27-3,2.68-8.31,3.99-16.13,3.99-3.16,0-6.73-.21-10.75-.64Z"/>
    <path class="cls-7" d="m463.56,450.2c1.26.27,2.52.54,3.78.78-1.26-.24-2.52-.51-3.78-.78Z"/>
    <path class="cls-7" d="m468.44,734.3c4.42-.46,5.09-1.5,5.09-1.5.75-2.65,1.53-5.15,2.28-7.5,2.65-8.28,4.74-14.85,3.19-23.69-.51-2.76-1.5-4.88-3.27-6.78-.19-.21-.4-.43-.62-.64-.51-1.05-.29-2.3.54-3.19.64-.64,1.29-1.26,1.93-1.82.75.67,1.45,1.31,2.09,2.01,2.17,2.36,3.54,4.96,4.31,8.09.11.46.21.91.29,1.39,1.8,10.16-.59,17.63-3.35,26.26-.75,2.3-1.5,4.72-2.25,7.32-1.26,4.53-7.58,5.17-9.67,5.39-.62.05-1.29.11-1.96.13-.32-.48-.59-.99-.86-1.5-.43-.83-.43-1.82.03-2.65.32-.56.8-1.02,1.37-1.23.29-.03.59-.05.86-.08Z"/>
    <path class="cls-7" d="m466.43,279.04c.08.35.11.72.13,1.1l-.13-1.1Z"/>
    <path class="cls-7" d="m466.13,445.03c10.83,1.93,21.95,2.92,33.09,2.95h1.5c11.25,0,22.48-.99,33.31-2.92.27-.05.54-.05.8,0-1.1.24-2.22.46-3.32.67-4.1.78-8.25,1.42-12.43,1.88-2.22.24-4.45.46-6.7.62-2.57.19-5.17.29-7.77.35-1.31.03-2.6.05-3.91.05h-1.58c-10.32,0-20.66-.99-30.76-2.92-1.05-.21-2.09-.4-3.14-.62.29-.11.62-.11.91-.05Z"/>
    <path class="cls-7" d="m462.65,467.13c-.27-.05-.54-.08-.8-.08-.62-.13-1.26-.27-1.88-.4.8-2.95,1.47-6.08,1.96-9.35.38-2.41.62-4.8.72-7.29.29.05.62.13.91.19,1.26.27,2.52.54,3.78.78.27.05.56.11.83.13-.13,2.38-.38,4.69-.75,7.02-.59,4.1-1.47,8.04-2.63,11.74,0-.59-.16-1.15-.51-1.63-.4-.56-.99-.94-1.63-1.1Z"/>
    <path class="cls-7" d="m463.56,450.2c-.29-.05-.62-.13-.91-.19v-.03c.32.08.62.16.91.21Z"/>
    <path class="cls-7" d="m462.76,447.81c.03-.72.32-1.39.83-1.9.43-.43,1.02-.75,1.63-.83,1.05.21,2.09.4,3.14.62,10.1,1.93,20.45,2.92,30.76,2.92h1.58c1.31,0,2.6-.03,3.91-.05,2.6-.03,5.2-.13,7.77-.35,2.25-.13,4.48-.35,6.7-.62,4.18-.46,8.33-1.1,12.43-1.88,1.1-.21,2.22-.43,3.32-.67.62.08,1.18.32,1.63.78.51.51.94,1.34.94,2.06,0,.64.03,1.34.08,2.06-1.66.38-3.32.72-4.98,1.02-.16.03-.35.05-.51.08v-.03c-10.21,1.66-20.71,2.49-31.27,2.49h-1.5c-10.45-.03-20.88-.86-31.06-2.52v.11c-.27-.03-.56-.08-.83-.13-1.26-.24-2.52-.51-3.78-.78-.29-.05-.59-.13-.91-.21.05-.72.08-1.45.11-2.17Z"/>
    <path class="cls-7" d="m462.65,449.98v.03c-.91-.21-1.8-.4-2.68-.62.88.19,1.8.4,2.68.59Z"/>
    <path class="cls-7" d="m459.46,468.39c.16-.56.35-1.15.51-1.74.62.13,1.26.27,1.88.4-1.15.05-2.17.78-2.55,1.88l.16-.54Z"/>
    <path class="cls-7" d="m458.2,471.77c.38-.78.7-1.63.99-2.55h.03c-.05.16-.05.35-.08.54-.24.72-.51,1.39-.78,2.04-.05,0-.11-.03-.16-.03Z"/>
    <path class="cls-7" d="m459.84,525.69c-.86-.29-1.72-.62-2.41-.88-.08-.03-.16-.08-.27-.11-1.31-.56-2.44-1.05-3.4-1.55-.13-.13-.29-.24-.46-.32,1.1.59,2.38,1.15,3.91,1.77.08.05.19.08.27.13.72.29,1.53.59,2.36.86,5.92,2.12,12.22,3.16,18.95,3.16l42.13.05c6.54-.05,12.81-1.05,18.57-2.92,1.05-.38,2.17-.75,3.24-1.21,4.26-1.69,7.53-3.59,9.73-5.6.13-.11.24-.21.32-.27.08-.08.13-.16.19-.19,2.01-1.85,9.33-9.92,10-17.15v-.27h.03c-.03.16,0,.32.03.46-.75,7.21-8.01,15.22-9.97,17.02l-.21.21-.08.08c-.08.05-.16.11-.24.19-2.2,2.01-5.49,3.91-9.75,5.63-1.07.43-2.2.8-3.4,1.23-5.65,1.9-11.74,2.87-18.12,2.87l-42.45-.05c-6.73,0-13.05-1.05-18.95-3.14Z"/>
    <path class="cls-7" d="m457.43,524.8c.7.27,1.55.59,2.41.88,5.9,2.09,12.22,3.14,18.95,3.14l42.45.05c6.38,0,12.46-.96,18.12-2.87,1.21-.43,2.33-.8,3.4-1.23,4.26-1.72,7.56-3.62,9.75-5.63.08-.08.16-.13.24-.19l.08-.08.21-.21c1.96-1.8,9.22-9.81,9.97-17.02.11,1.21,1.05,2.22,2.28,2.41-1.96,8.28-9.78,15.97-10.37,16.51-.08.08-.16.13-.24.27h-.03c-.11.08-.19.19-.32.27-1.58,1.45-4.61,3.75-10.56,6.14-1.13.46-2.28.86-3.43,1.26-.05.03-.08.05-.13.05-6.11,2.06-12.54,3-18.97,3h-.75l-41.05-.05h-.64c-6.73,0-13.43-.99-19.75-3.24-.03-.03-.05-.03-.08-.05-.91-.32-1.8-.64-2.6-.96-.05-.03-.13-.05-.19-.08-.56-.24-1.1-.46-1.61-.67.56-1.18.21-2.6-.8-3.35.96.51,2.09.99,3.4,1.55.11.03.19.08.27.11Z"/>
    <path class="cls-7" d="m452.25,447.36c-3.43-.99-6.83-2.09-10.18-3.32,3.3-.72,6.81-1.34,10.53-1.9.38-.05.78-.03,1.15.08,3.7,1.07,7.53,2.01,11.47,2.87-.62.08-1.21.4-1.63.83-.51.51-.8,1.18-.83,1.9-.03.72-.05,1.45-.11,2.17-.88-.19-1.8-.4-2.68-.59-2.44-.59-4.82-1.21-7.15-1.88l-.56-.16Z"/>
    <path class="cls-7" d="m453.33,652.38c.11,0,.19.03.27.03.05,0,.11,0,.16.03,0,.03.03.05.05.05.05.05.08.13.08.21s-.03.16-.08.21c-.03.03-.05.05-.11.08-.03,0-.08.03-.11.03h-.27c-.08.03-.16.03-.24.03s-.16-.05-.24-.11c-.05-.05-.08-.13-.11-.24,0-.08.05-.16.11-.24.05-.05.16-.08.24-.08h.24Z"/>
    <path class="cls-7" d="m459.03,528.26c6.32,2.25,13.02,3.24,19.75,3.24h.64l41.05.05h.75c6.43,0,12.86-.94,18.97-3,.05,0,.08-.03.13-.05,1.15-.4,2.3-.8,3.43-1.26,5.95-2.38,8.98-4.69,10.56-6.14.13-.08.21-.19.32-.27h.03c.08-.13.16-.19.24-.27.59-.54,8.41-8.23,10.37-16.51.08.03.13.05.21.05h.24c1.18,0,2.2-.75,2.6-1.85-1.18,10.21-10.99,19.67-11.6,20.26l-.03.03c-.13.16-.29.32-.48.46,0,0-.05.08-.21.21-2.71,2.41-6.48,4.61-11.25,6.51-1.15.48-2.36.88-3.54,1.31-6.38,2.14-13.05,3.19-19.99,3.19l-42.45-.05c-7.34,0-14.28-1.15-20.63-3.4-1.05-.38-1.96-.7-2.79-1.05-.05,0-.13-.05-.21-.08-1.39-.59-2.63-1.13-3.7-1.66.19.05.4.08.59.08,1.02,0,1.98-.56,2.49-1.53,0-.03.03-.03.03-.05.51.21,1.05.43,1.61.67.05.03.13.05.19.08.8.32,1.69.64,2.6.96.03.03.05.03.08.05Z"/>
    <path class="cls-7" d="m455.12,529.73c-1.66-.67-3.08-1.31-4.31-1.96.21.11.4.19.62.21,0,.03.03,0,.03,0,1.07.54,2.3,1.07,3.7,1.66.08.03.16.08.21.08.83.35,1.74.67,2.79,1.05,6.35,2.25,13.29,3.4,20.63,3.4l42.45.05c6.94,0,13.61-1.05,19.99-3.19,1.18-.43,2.38-.83,3.54-1.31,4.77-1.9,8.55-4.1,11.25-6.51.16-.13.21-.21.21-.21.19-.13.35-.29.48-.46,0,0,.03,0,.03-.03.62-.59,10.42-10.05,11.6-20.26.05-.16.11-.32.13-.48-.96,10.75-11.58,20.74-11.68,20.85v-.03s-.03.03-.03.03c-.16.19-.29.32-.48.46-.08.08-.19.16-.29.24-2.49,2.3-6.32,4.56-11.2,6.51-1.15.46-2.33.88-3.54,1.29-6.35,2.09-13.18,3.16-20.31,3.22h-.46l-41.7-.05c-2.76,0-5.47-.16-8.09-.48-4.39-.54-8.6-1.53-12.57-2.95-.99-.32-1.9-.67-2.81-1.05-.05,0-.11-.03-.19-.08Z"/>
    <path class="cls-7" d="m454.56,526.49c-.91-.4-1.77-.8-2.52-1.21-.13-.05-.24-.13-.38-.19.62-1.07.43-2.36-.35-3.24.59.35,1.23.7,1.96,1.05.16.08.32.16.48.24,1.02.75,1.37,2.17.8,3.35Z"/>
    <path class="cls-7" d="m467.05,739.77c-4.74.27-11.04-.13-18.81-1.18,1.45.19,2.81-.83,3.03-2.28.19-1.47-.83-2.84-2.3-3.03,7.93,1.05,14.2,1.42,18.62,1.1-.56.21-1.05.67-1.37,1.23-.46.83-.46,1.82-.03,2.65.27.51.54,1.02.86,1.5Z"/>
    <path class="cls-7" d="m450.89,521.48c.7.43,1.5.86,2.41,1.34.16.08.32.19.46.32-.16-.08-.32-.16-.48-.24-.72-.35-1.37-.7-1.96-1.05t-.03-.03c-.13-.13-.27-.24-.43-.35h.03Z"/>
    <path class="cls-7" d="m450.75,521.4s.03.03.05.05c-.03-.03-.05-.05-.08-.05h.03Z"/>
    <path class="cls-7" d="m450.86,521.48c.16.11.29.21.43.35-.16-.08-.32-.19-.46-.27l-.16-.08c-.13-.08-.24-.16-.35-.21.13,0,.27.05.4.13.03,0,.05.03.08.05t.05.03Z"/>
    <path class="cls-7" d="m447.16,522.28c.72-1.05,2.01-1.45,3.16-1.02.11.05.21.13.35.21l.16.08c.13.08.29.19.46.27t.03.03c.78.88.96,2.17.35,3.24-.83-.46-1.58-.86-2.22-1.26-.08-.03-.13-.05-.19-.11-.67-.43-1.29-.86-1.8-1.23-.11-.08-.19-.16-.29-.21Z"/>
    <path class="cls-7" d="m450,527.35c-.48-.21-.94-.48-1.37-.75.43.24.88.48,1.37.75Z"/>
    <path class="cls-7" d="m452.04,525.28c.75.4,1.61.8,2.52,1.21,0,.03-.03.03-.03.05-.51.96-1.47,1.53-2.49,1.53-.19,0-.4-.03-.59-.08,0,0-.03.03-.03,0-.21-.11-.43-.21-.62-.32-.86-.43-1.61-.86-2.28-1.26.24.08.48.11.72.11.91,0,1.82-.46,2.36-1.31.03-.03.05-.08.05-.11.13.05.24.13.38.19Z"/>
    <path class="cls-7" d="m448.58,519.98c.19.08.35.19.51.29.48.35,1.02.72,1.63,1.13-.13-.08-.27-.13-.4-.13-.48-.32-.91-.64-1.29-.91-.16-.11-.32-.24-.46-.38Z"/>
    <path class="cls-7" d="m450,527.35c-.48-.27-.94-.51-1.37-.75-.08-.03-.16-.08-.24-.13-.11-.08-.24-.16-.35-.24.16.08.29.16.46.19h.03c.67.4,1.42.83,2.28,1.26.19.11.4.21.62.32-.21-.03-.4-.11-.62-.21-.27-.13-.54-.27-.8-.43Z"/>
    <path class="cls-7" d="m448.02,526.22h.03c.11.08.24.16.35.24-.13-.05-.27-.13-.38-.24Z"/>
    <path class="cls-7" d="m447.97,526.19s.03.03.05.03t-.05-.03Z"/>
    <path class="cls-7" d="m447.89,526.14s.05.05.08.05h-.03s-.03-.03-.05-.05Z"/>
    <path class="cls-7" d="m448.07,526.14c.13.08.29.16.43.27-.16-.03-.29-.11-.46-.19h-.03s-.03,0-.05-.03c-.03,0-.05-.03-.08-.05-.19-.11-.35-.24-.48-.4.13.08.27.19.4.27.08.05.19.11.27.13Z"/>
    <path class="cls-7" d="m447.46,522.5c.51.38,1.13.8,1.8,1.23.05.05.11.08.19.11.64.4,1.39.8,2.22,1.26,0,.03-.03.08-.05.11-.54.86-1.45,1.31-2.36,1.31-.24,0-.48-.03-.72-.11h-.03c-.13-.11-.29-.19-.43-.27-.08-.03-.19-.08-.27-.13-.13-.08-.27-.19-.4-.27l-.05-.03c-.78-.91-.94-2.25-.27-3.32.03-.05.05-.08.08-.11.11.05.19.13.29.21Z"/>
    <path class="cls-7" d="m449.04,520.35c.38.27.8.59,1.29.91-1.15-.43-2.44-.03-3.16,1.02-.78-.59-1.37-1.13-1.82-1.55.8-.96,2.14-1.26,3.24-.75.13.13.29.27.46.38Z"/>
    <path class="cls-7" d="m465.38,280.38c.08.94.08,1.88-.05,2.87-.48,4.29-2.65,8.95-6.22,13.24-7.15,8.6-18.33,14.1-29.16,14.34h-.56c-2.22,0-4.48-.27-6.7-.8-.91-.21-1.82-.46-2.73-.75-.46-.11-.91-.27-1.37-.43-2.68-.96-5.36-2.2-7.88-3.7t-.03,0c-.4-.24-.83-.48-1.23-.75-7.05-4.37-13-10.42-16.16-16.32-1.42-2.65-2.25-5.17-2.44-7.42-.05-.78-.03-1.53.08-2.22.19-1.39.67-2.63,1.42-3.72,3.46-4.98,8.28-6.19,14.85-6.19,2.81,0,5.95.21,9.41.46,4.13.29,8.82.62,13.93.64h.19c3.05,0,5.95-.08,8.74-.13,2.55-.05,4.93-.13,7.15-.13,10.48,0,17.23,1.37,18.62,9.89.08.38.11.78.13,1.15Z"/>
    <path class="cls-7" d="m447.08,522.39c-.67,1.07-.51,2.41.27,3.32-.83-.56-1.18-.83-1.47-1.05-.21-.16-.43-.32-.62-.48-.75-.96-.8-2.33-.03-3.35.03-.03.05-.08.11-.11.46.43,1.05.96,1.82,1.55-.03.03-.05.05-.08.11Z"/>
    <path class="cls-7" d="m447.4,525.74c.13.16.29.29.48.4-.03,0-.05,0-.08-.03-.8-.51-1.47-.96-2.06-1.42l-.03-.03c-.19-.13-.35-.29-.46-.48.19.16.4.32.62.48.29.21.64.48,1.47,1.05l.05.03Z"/>
    <path class="cls-3" d="m450.81,527.78c1.23.64,2.65,1.29,4.31,1.96.08.05.13.08.19.08.91.38,1.82.72,2.81,1.05,3.97,1.42,8.17,2.41,12.57,2.95l-.67,5.82c-11.98-1.53-22.94-4.98-32.96-12.94-12.62-10.02-28.08-29.53-21.17-39.53,3.78-5.44,13.69-16.35,32.34-16.35,3.08,0,6.38.29,9.97.96-.91,2.14-1.93,3.86-3.08,5.15-3.7,4.13-7.72,6.03-11.6,7.88-4.56,2.17-8.87,4.21-10.96,9.41-.56,1.39-.91,2.87-.99,4.34-.03.08-.03.13-.03.21v.11c-1.1,11.79,11.5,23.53,11.58,23.61.64.59,1.45,1.34,2.6,2.2l.03.03c.59.46,1.26.91,2.06,1.42.03.03.05.03.08.03.03.03.03.05.05.05h.03s.03.03.05.03c.11.11.24.19.38.24.08.05.16.11.24.13.43.27.88.54,1.37.75.27.16.54.29.8.43Z"/>
    <path class="cls-7" d="m446.92,518.42c.59.56,1.23,1.15,2.17,1.85-.16-.11-.32-.21-.51-.29-.7-.51-1.23-1.02-1.72-1.47-2.28-2.09-10.37-11.17-9.92-18.76.05-.19.11-.38.13-.59-.88,7.66,7.53,17.15,9.83,19.27Z"/>
    <path class="cls-7" d="m464.29,468.23c.35.48.51,1.05.51,1.63,0,.29-.03.59-.13.86,0,.03-.05.16-.08.29l-.08.24c-1.42,4.29-3.16,7.53-5.31,9.92-4.45,4.96-9.38,7.32-13.35,9.19-4.42,2.12-6.97,3.43-8.2,6.48-.29.75-.48,1.5-.56,2.3-.03.21-.08.4-.13.59,0-.21,0-.4.03-.59.08-.8.29-1.58.59-2.33,1.29-3.24,4.21-4.64,8.23-6.54,3.97-1.88,8.9-4.23,13.32-9.16,2.14-2.38,3.89-5.6,5.31-9.89.03-.08.03-.16.05-.21.05-.16.11-.29.11-.32.27-.8.13-1.72-.38-2.41-.38-.54-.94-.91-1.58-1.05-.03,0-.05-.03-.08-.03-.24-.05-.46-.11-.7-.16.27,0,.54.03.8.08.64.16,1.23.54,1.63,1.1Z"/>
    <path class="cls-7" d="m464.42,471.23c-1.42,4.29-3.16,7.5-5.31,9.89-4.42,4.93-9.35,7.29-13.32,9.16-4.02,1.9-6.94,3.3-8.23,6.54-.29.75-.51,1.53-.59,2.33-.03.19-.03.38-.03.59-.38,1.13-1.42,1.9-2.63,1.9h-.03c-.08-.94-.08-1.85.03-2.79.11-1.02.35-2.04.75-3.05,3.24-8.07,13.56-6.97,22.05-16.51,2.04-2.25,3.56-5.39,4.74-8.92v-.03c.05-.16.11-.35.16-.51-.03,0-.08-.03-.11-.03-.91-.21-1.82-.4-2.71-.59.03-.08.05-.19.08-.27v-.03c.38-1.1,1.39-1.82,2.55-1.88.24.05.46.11.7.16.03,0,.05.03.08.03.64.13,1.21.51,1.58,1.05.51.7.64,1.61.38,2.41,0,.03-.05.16-.11.32-.03.05-.03.13-.05.21Z"/>
    <path class="cls-7" d="m446.87,518.5c.48.46,1.02.96,1.72,1.47-1.1-.51-2.44-.21-3.24.75-.11-.08-.21-.19-.29-.27-.64-.59-9.89-9.67-10.75-18.81h.03c1.21,0,2.25-.78,2.63-1.9-.46,7.58,7.64,16.67,9.92,18.76Z"/>
    <path class="cls-7" d="m461.87,470.38c-1.18,3.54-2.71,6.67-4.74,8.92-8.49,9.54-18.81,8.44-22.05,16.51-.4,1.02-.64,2.04-.75,3.05-.11.94-.11,1.85-.03,2.79h-.19c-1.26-.08-2.28-1.02-2.52-2.22v-.03c.03-.29.05-.56.08-.83.11-1.26.43-2.52.91-3.72,2.09-5.2,6.38-7.24,10.91-9.41,3.91-1.85,7.93-3.75,11.63-7.91,1.26-1.39,2.38-3.3,3.38-5.71-.05,0-.08-.03-.13-.03.27-.64.54-1.31.78-2.04.03-.19.03-.38.08-.54.88.19,1.8.38,2.71.59.03,0,.08.03.11.03-.05.16-.11.35-.16.51v.03Z"/>
    <path class="cls-7" d="m455.12,476.91c1.15-1.29,2.17-3,3.08-5.15.05,0,.11.03.16.03-.96,2.41-2.06,4.31-3.3,5.68-3.7,4.13-7.72,6.03-11.6,7.88-4.56,2.17-8.87,4.21-10.99,9.43-.46,1.23-.78,2.52-.91,3.75.08-1.47.43-2.95.99-4.34,2.09-5.2,6.4-7.24,10.96-9.41,3.89-1.85,7.91-3.75,11.6-7.88Z"/>
    <path class="cls-7" d="m458.5,471.82c-.99,2.41-2.12,4.31-3.38,5.71-3.7,4.15-7.72,6.06-11.63,7.91-4.53,2.17-8.82,4.21-10.91,9.41-.48,1.21-.8,2.47-.91,3.72-.03.27-.05.54-.08.83-.03-.19-.05-.35-.05-.54v-.11c0-.08,0-.13.03-.21.13-1.23.46-2.52.91-3.75,2.12-5.23,6.43-7.26,10.99-9.43,3.89-1.85,7.91-3.75,11.6-7.88,1.23-1.37,2.33-3.27,3.3-5.68.05,0,.08.03.13.03Z"/>
    <path class="cls-7" d="m445.23,520.83c-.78,1.02-.72,2.38.03,3.35-.88-.67-1.53-1.26-2.06-1.77-.11-.11-12.27-11.44-11.6-22.99.24,1.21,1.26,2.14,2.52,2.22h.19c.86,9.14,10.1,18.22,10.75,18.81.08.08.19.19.29.27-.05.03-.08.08-.11.11Z"/>
    <path class="cls-7" d="m445.26,524.18c.11.19.27.35.46.48-1.15-.86-1.96-1.61-2.6-2.2-.08-.08-12.68-11.82-11.58-23.61,0,.19.03.35.05.54v.03c-.67,11.55,11.5,22.88,11.6,22.99.54.51,1.18,1.1,2.06,1.77Z"/>
    <path class="cls-7" d="m423.87,806.92c.67.19,1.37.38,2.09.56-.7-.19-1.42-.38-2.09-.56Z"/>
    <path class="cls-7" d="m425.56,801.83c-.75-.19-1.47-.4-2.17-.62.7.19,1.42.4,2.17.62Z"/>
    <path class="cls-7" d="m423.39,801.22l-1.05-.32,1.05.32Z"/>
    <path class="cls-7" d="m419.96,309.27c.91.29,1.82.54,2.73.75-.91-.19-1.82-.46-2.73-.75Z"/>
    <path class="cls-1" d="m419.72,805.66c1.31.43,2.68.86,4.15,1.26.67.19,1.39.38,2.09.56,2.49.64,5.15,1.29,7.85,1.93,3.94.96,8.04,1.93,11.55,2.97,1.66.48,12.35,2.63,29.75,6.11,10.08,2.01,20.42,4.1,26.02,5.28.67.13,1.26.27,1.77.38.19.03.38.08.56.11.32.08.59.13.83.19.08.03.13.05.19.05s.08.03.13.03l2.17.64c35.67,10.58,74.55,21.89,84.68,21.89,6.86-.03,13.02-.35,18.87-.96.08,0,.13-.03.21-.03h.11c.08,0,.19-.03.27-.03,23.1-2.57,37.49-9.78,42.74-21.38.48-1.1,1.23-3.48,2.49-7.64l1.07-3.54c.46-1.5.96-3.08,2.22-6.73.08-.21.16-.43.24-.62,6.7,11.66,11.82,23.9,15.17,36.5,1.85,7.07,3,11.36,3.03,17.47.11,17.07-8.2,34.38-20.18,42.07-3.51,2.28-10.5,3.05-23.21,4.45l-1.66.19c-9.38,1.02-20.04,2.17-35.45,2.2-10.26.03-25.7.08-46.04-3.38-13.45-2.3-26.96-5.79-39.02-10.05-6.22-2.22-9.22-3.59-11.82-4.85l-105.88-47.78c.8-.48,1.55-1.02,2.33-1.58l.32-.24c.67-.51,1.37-1.05,2.01-1.58l.56-.48c.7-.59,1.37-1.18,2.01-1.8,1.53-1.45,3-3,4.34-4.58.62-.72,1.21-1.45,1.77-2.14l.32-.4.72-.96c1.37-1.82,2.6-3.7,3.72-5.55.29-.46.56-.94.8-1.39.27-.46.54-.94.78-1.39.27-.46.51-.91.72-1.37.94-1.85,1.77-3.64,2.41-5.36.13-.32.27-.67.38-.99.27-.72.51-1.45.72-2.12.19-.62.35-1.21.51-1.8.19-.78.35-1.5.46-2.2.05-.29.08-.59.11-.88.05-.16.05-.32.08-.48Z"/>
    <path class="cls-7" d="m419.72,805.66c-.03.16-.03.32-.08.48l.08-.48Z"/>
    <path class="cls-7" d="m418.57,811.02c.19-.62.35-1.23.51-1.8-.16.59-.32,1.18-.51,1.8Z"/>
    <path class="cls-7" d="m419.08,799.74c-.46-.19-.91-.38-1.31-.54v-.03c.4.19.86.38,1.31.56Z"/>
    <path class="cls-7" d="m423.87,806.92c-1.47-.4-2.84-.83-4.15-1.26.27-2.89-.29-4.9-1.63-6.19-.11-.11-.21-.19-.32-.27.4.16.86.35,1.31.54.99.38,2.09.78,3.27,1.15l1.05.32c.7.21,1.42.43,2.17.62,3,.83,6.27,1.61,9.51,2.38,3.99.96,8.17,1.96,11.82,3.03,1.53.46,16.27,3.4,29.26,6,2.6.51,5.17,1.05,7.66,1.53,1.18.24,2.36.48,3.48.72.72.13,1.42.27,2.12.4.43.11.86.19,1.26.27,1.37.27,2.65.54,3.89.78.7.13,1.34.27,1.98.4.4.11.8.19,1.21.27,2.41.48,4.42.88,5.92,1.23.19.03.38.08.54.11s.32.08.48.11c-.54.29-.96.62-1.29.91-.7.64-.99,1.63-.78,2.57.21.94.91,1.66,1.82,1.93-.05,0-.11,0-.16-.03-.24-.05-.51-.11-.83-.19-.16-.03-.35-.08-.56-.11-.51-.13-1.13-.24-1.77-.38-5.6-1.18-15.94-3.27-26.02-5.28-17.39-3.48-28.08-5.63-29.75-6.11-3.51-1.05-7.61-2.01-11.55-2.97-2.71-.64-5.36-1.29-7.85-1.93-.72-.19-1.42-.38-2.09-.56Z"/>
    <path class="cls-7" d="m417.85,813.14c-.11.32-.24.67-.38.99.13-.35.27-.67.38-.99Z"/>
    <path class="cls-7" d="m414.44,803.41c-.05-.05-.08-.08-.13-.11,0-.03-.03-.05-.03-.08-.96-.88-1.07-2.28-.32-3.35.75-1.1,2.25-1.42,3.43-.86.11.05.24.11.35.16h.03v.03c.11.08.21.16.32.27,1.34,1.29,1.9,3.3,1.63,6.19-1.69-.56-3.24-1.15-4.61-1.8-.24-.11-.48-.27-.67-.46Z"/>
    <path class="cls-7" d="m418.6,308.84c-2.71-.94-5.36-2.2-7.88-3.7,2.52,1.5,5.2,2.73,7.88,3.7Z"/>
    <path class="cls-7" d="m414.34,820.86c.27-.46.51-.91.72-1.37-.21.46-.46.91-.72,1.37Z"/>
    <path class="cls-7" d="m414.31,803.31c-.38-.35-.72-.67-1.1-.96.38.27.72.56,1.07.88,0,.03.03.05.03.08Z"/>
    <path class="cls-7" d="m499.2,543.56c-24.22-.11-45.37-.19-63.8-14.79-12.62-10.02-30.09-31.03-21.71-43.14,7.93-11.44,23.29-20.71,45.5-16.4-.29.91-.62,1.77-.99,2.55-3.59-.67-6.89-.96-9.97-.96-18.65,0-28.57,10.91-32.34,16.35-6.91,10,8.55,29.5,21.17,39.53,10.02,7.96,20.98,11.42,32.96,12.94,9.11,1.18,18.81,1.21,29.1,1.26,24.49.08,45.37.16,63.35-14.1,10.48-8.31,22.91-23.13,22.91-33.66,0-2.14-.51-4.13-1.69-5.82-8.82-12.89-24.28-18.57-41.78-15.52-.35-.78-.67-1.63-.99-2.55v-.03c22-4.07,37.19,5.15,44.99,16.56,8.28,12.09-9.14,33.07-21.79,43.09-18.76,14.87-40.44,14.77-64.93,14.68Z"/>
    <path class="cls-7" d="m413.56,795.99c.08.05.13.08.21.13-.08-.03-.13-.08-.21-.13Z"/>
    <path class="cls-7" d="m412.75,823.65c.27-.46.54-.94.8-1.39-.24.46-.51.94-.8,1.39Z"/>
    <path class="cls-7" d="m412.22,795.19c.43.24.88.51,1.34.8-.46-.27-.88-.54-1.34-.8Z"/>
    <path class="cls-7" d="m435.4,528.77c18.44,14.6,39.58,14.68,63.8,14.79,24.49.08,46.17.19,64.93-14.68,12.65-10.02,30.07-31,21.79-43.09-7.8-11.42-22.99-20.63-44.99-16.56-.03-.11-.05-.24-.11-.35-.03-.16-.08-.32-.16-.46,0-.05-.03-.11-.05-.13-.16-.51-.32-1.05-.46-1.61,20.02-3.78,37.78,2.71,47.97,17.61,9.41,13.69-8.71,35.91-22.32,46.71-9.03,7.15-18.78,10.99-29.08,13-10.26,2.04-21.06,2.28-32.18,2.28-1.72,0-3.43,0-5.17-.03-25.06-.11-46.49-.19-65.63-15.35-13.64-10.83-31.73-33.09-22.24-46.79,10.4-14.98,28.35-21.38,48.48-17.45-.16.59-.35,1.18-.51,1.74l-.16.54v.03c-.03.08-.05.19-.08.27h-.03c-22.22-4.31-37.57,4.96-45.5,16.4-8.39,12.11,9.08,33.12,21.71,43.14Z"/>
    <path class="cls-7" d="m409.46,304.39c.4.27.83.51,1.23.75-.43-.24-.83-.48-1.23-.75Z"/>
    <path class="cls-7" d="m475.65,691c-.83.88-1.05,2.14-.54,3.19-4.13-4.02-11.98-7.74-24.55-13.67l-2.01-.94c-3.7-1.77-7.85-3.72-12.41-5.92-29.91-14.55-31.22-37.17-31.27-39.69-.16-6.4,6.99-12.06,11.25-14.85,1.23-.8,2.89-.46,3.72.78.8,1.23.46,2.89-.78,3.7-5.44,3.56-8.92,7.58-8.84,10.24.05,2.22,1.21,21.84,28.24,35,4.56,2.2,8.66,4.15,12.35,5.9l2.04.94c12.35,5.84,19.88,9.41,24.71,13.51-.64.56-1.29,1.18-1.93,1.82Z"/>
    <path class="cls-7" d="m410.93,794.46c-.86-.46-1.72-.86-2.52-1.23.8.38,1.66.78,2.52,1.23Z"/>
    <path class="cls-7" d="m408.41,799.21c1.61.83,3.22,1.8,4.8,3.14-1.61-1.31-3.22-2.3-4.8-3.14Z"/>
    <path class="cls-7" d="m408.31,830.16l.72-.96-.72.96Z"/>
    <path class="cls-7" d="m407.98,830.56c-.56.7-1.15,1.42-1.77,2.14.62-.7,1.21-1.42,1.77-2.14Z"/>
    <path class="cls-7" d="m404.23,826.73c-.35.46-.72.94-1.1,1.39.38-.46.75-.94,1.1-1.39Z"/>
    <path class="cls-7" d="m399.86,839.08c.7-.56,1.37-1.18,2.01-1.8-.64.62-1.31,1.21-2.01,1.8Z"/>
    <path class="cls-7" d="m399.27,521.05c.72-.32,1.26-.94,1.45-1.72.21-.72.08-1.47-.29-2.12,6.48,9.54,16.13,18.09,27.9,24.71,7.42,4.21,15.46,6.11,24.76,8.33l2.65.64c1.45.32,2.33,1.77,1.98,3.22-.29,1.23-1.39,2.06-2.6,2.06-.21,0-.43-.03-.64-.08l-2.65-.64c-9.27-2.2-18.06-4.29-26.15-8.87-11.68-6.59-21.46-15.06-28.38-24.52.67-.38,1.34-.72,1.98-1.02Z"/>
    <path class="cls-7" d="m395.55,517.99c.13-.62.51-1.18,1.1-1.58,1.23-.83,2.87-.51,3.72.7.03.03.05.08.05.11.38.64.51,1.39.29,2.12-.19.78-.72,1.39-1.45,1.72-.64.29-1.31.64-1.98,1.02-.48-.64-.94-1.29-1.37-1.93s-.56-1.42-.38-2.14Z"/>
    <path class="cls-7" d="m397.29,841.14c.7-.51,1.37-1.05,2.01-1.58-.64.54-1.34,1.07-2.01,1.58Z"/>
    <path class="cls-7" d="m394.64,842.97c.8-.51,1.58-1.05,2.33-1.58-.78.56-1.53,1.1-2.33,1.58Z"/>
    <path class="cls-7" d="m394.59,836.51c.59-.43,1.15-.88,1.72-1.39-.56.51-1.13.96-1.72,1.39Z"/>
    <path class="cls-7" d="m396.65,516.41c-.59.4-.96.96-1.1,1.58l-1.26-.4c-8.55-13.77-10.29-28-4.93-40.36,4.98-11.42,18.25-25.94,52.71-33.2,3.35,1.23,6.75,2.33,10.18,3.32l.56.16c-39.5,6.03-53.65,20.66-58.53,31.86-4.96,11.36-2.79,24.76,6.08,37.73-.86-1.21-2.49-1.53-3.72-.7Z"/>
    <path class="cls-7" d="m392.5,837.98c.64-.4,1.26-.83,1.85-1.29-.62.46-1.23.88-1.85,1.29Z"/>
    <path class="cls-7" d="m392.36,838.09c-.4.27-.8.51-1.23.75.43-.24.83-.48,1.23-.75Z"/>
    <path class="cls-7" d="m392.36,274.54c3.46-4.98,8.28-6.19,14.85-6.19,2.81,0,5.95.21,9.41.46,4.13.29,8.82.64,13.93.64,3.14.03,6.08-.08,8.92-.13,2.49-.05,4.85-.11,7.05-.11,10.53,0,17.34,1.31,18.73,9.89.08.43.13.86.13,1.29-.03-.38-.05-.78-.13-1.15-1.39-8.52-8.15-9.89-18.62-9.89-2.22,0-4.61.08-7.15.13-2.79.05-5.68.13-8.74.13h-.19c-5.12-.03-9.81-.35-13.93-.64-3.46-.24-6.59-.46-9.41-.46-6.57,0-11.39,1.21-14.85,6.19-.75,1.1-1.23,2.33-1.42,3.72.16-1.45.64-2.76,1.42-3.89Z"/>
    <path class="cls-7" d="m389.71,839.64c.48-.24.96-.51,1.42-.8-.46.29-.94.56-1.42.8Z"/>
    <path class="cls-7" d="m429.4,310.96c-14.34,0-30.17-11.66-36.1-22.72-1.47-2.73-2.28-5.28-2.44-7.58.19,2.25,1.02,4.77,2.44,7.42,3.16,5.9,9.11,11.95,16.16,16.32.4.27.8.51,1.23.75t.03,0c2.52,1.5,5.17,2.76,7.88,3.7.46.16.91.32,1.37.43.91.29,1.82.56,2.73.75,2.22.54,4.48.8,6.7.8h.56c10.83-.24,22-5.73,29.16-14.34,3.56-4.29,5.73-8.95,6.22-13.24-.43,4.34-2.6,9.03-6.22,13.37-7.15,8.6-18.33,14.1-29.16,14.34h-.56Z"/>
    <path class="cls-7" d="m393.3,288.23c5.92,11.07,21.76,22.72,36.1,22.72h.56c10.83-.24,22-5.73,29.16-14.34,3.62-4.34,5.79-9.03,6.22-13.37.13-.99.13-1.93.05-2.87,0-.43-.05-.86-.13-1.29-1.39-8.58-8.2-9.89-18.73-9.89-2.2,0-4.56.05-7.05.11-2.84.05-5.79.16-8.92.13-5.12,0-9.81-.35-13.93-.64-3.46-.24-6.59-.46-9.41-.46-6.57,0-11.39,1.21-14.85,6.19-.78,1.13-1.26,2.44-1.42,3.89-.11.7-.13,1.45-.08,2.22.16,2.3.96,4.85,2.44,7.58Zm-1.42-13.88c6.97-10,19.32-5.36,38.67-5.33,19.35,0,33.18-2.81,35.29,10.13,2.25,13.77-15.35,31.94-35.88,32.4-21.87.48-46.31-25.4-38.08-37.19Z"/>
    <path class="cls-7" d="m460.02,297.24c3.75-4.5,5.98-9.38,6.48-13.93-.46,4.58-2.71,9.54-6.48,14.07-7.37,8.87-18.87,14.52-30.04,14.77h-.62c-15.22,0-31.03-12.03-37.11-23.37-1.31-2.47-2.14-4.8-2.44-6.99.32,2.14,1.15,4.45,2.44,6.86,6.08,11.34,21.89,23.37,37.11,23.37.19,0,.4,0,.62-.03,11.17-.24,22.67-5.9,30.04-14.74Z"/>
    <path class="cls-7" d="m430.55,269.02c-19.35-.03-31.7-4.66-38.67,5.33-8.23,11.79,16.21,37.68,38.08,37.19,20.53-.46,38.13-18.62,35.88-32.4-2.12-12.94-15.94-10.13-35.29-10.13Zm-39.15,5.01c5.33-7.64,13.69-7.05,25.3-6.24,4.13.29,8.76.64,13.85.64,3.05-.03,6.06-.08,8.9-.13,14.58-.35,25.11-.62,26.98,10.75l.13,1.1.05,1.37c0,.59-.03,1.21-.11,1.8-.51,4.56-2.73,9.43-6.48,13.93-7.37,8.84-18.87,14.5-30.04,14.74-.21.03-.43.03-.62.03-15.22,0-31.03-12.03-37.11-23.37-1.29-2.41-2.12-4.72-2.44-6.86-.05-.35-.08-.72-.11-1.07-.05-.56-.05-1.13-.03-1.66.13-1.88.7-3.56,1.72-5.01Z"/>
    <path class="cls-7" d="m416.69,267.79c-11.6-.8-19.96-1.39-25.3,6.24-1.02,1.45-1.58,3.14-1.72,5.01.11-1.93.67-3.7,1.72-5.17,5.33-7.64,13.69-7.05,25.3-6.22,4.1.29,8.76.62,13.85.62h.19c3.05,0,5.92-.08,8.71-.13,14.58-.35,25.11-.59,26.98,10.77,0,.05.03.08,0,.13-1.88-11.36-12.41-11.09-26.98-10.75-2.84.05-5.84.11-8.9.13-5.09,0-9.73-.35-13.85-.64Z"/>
    <path class="cls-7" d="m389.82,281.78c-.05-.35-.11-.72-.11-1.07.03.35.05.72.11,1.07Z"/>
    <path class="cls-7" d="m415.11,803.87c1.37.64,2.92,1.23,4.61,1.8l-.08.48c-.03.29-.05.59-.11.88-.11.7-.27,1.42-.46,2.2-.16.56-.32,1.18-.51,1.8-.21.67-.46,1.39-.72,2.12-.11.32-.24.64-.38.99-.64,1.72-1.47,3.51-2.41,5.36-.21.46-.46.91-.72,1.37-.24.46-.51.94-.78,1.39-.27.46-.54.94-.8,1.39-1.13,1.85-2.36,3.72-3.72,5.55l-.72.96-.32.4c-.56.72-1.15,1.45-1.77,2.14-1.34,1.58-2.81,3.14-4.34,4.58-.64.62-1.31,1.23-2.01,1.8l-.56.48c-.64.54-1.31,1.07-2.01,1.58l-.32.24c-.75.54-1.53,1.07-2.33,1.58,0,0,0,.03-.03,0l-4.93-2.22h-.05s-.03,0-.05-.03c-.16-.08-.32-.11-.48-.13-.08-.03-.19-.05-.27-.05-.21-.03-.43-.05-.67-.08.38-.19.75-.35,1.1-.56.16-.05.32-.13.46-.24.48-.24.96-.51,1.42-.8.43-.24.83-.48,1.23-.75.05-.05.11-.08.13-.11.62-.4,1.23-.83,1.85-1.29.08-.08.16-.13.24-.19.59-.43,1.15-.88,1.72-1.39,2.49-2.06,4.77-4.45,6.83-6.99.38-.46.75-.94,1.1-1.39,3.81-4.96,6.73-10.37,8.55-15.3,1.85-5.01,1.74-7.5,1.53-8.12.05.03.08.05.13.11.19.19.43.35.67.46Z"/>
    <path class="cls-7" d="m389.68,840.74l4.93,2.22c-1.47.96-3,1.8-4.58,2.49.13-.11.27-.21.4-.35l.03-.03c1.05-1.05,1.05-2.73,0-3.78-.24-.24-.54-.43-.83-.56h.05Z"/>
    <path class="cls-7" d="m389.57,840.72c-.16-.05-.32-.11-.48-.13.16.03.32.05.48.13Z"/>
    <path class="cls-7" d="m389.07,845.83c.13-.03.27-.05.4-.11-.13.05-.27.08-.4.11Z"/>
    <path class="cls-7" d="m389.31,846.45l-.83-.38.83.38Z"/>
    <path class="cls-7" d="m389.25,839.88c-.35.21-.72.38-1.1.56h-.03c.38-.16.75-.35,1.13-.56Z"/>
    <path class="cls-7" d="m387.48,845.65c-.96-.46-1.58-1.39-1.58-2.47v-.08c-.03-.11,0-.21.03-.29.03-.13.05-.27.08-.38.05-.13.08-.24.13-.38.13-.21.27-.43.43-.62,0-.03.05-.08.08-.11l.05-.05c.11-.11.24-.21.38-.29.16-.11.29-.19.48-.27.48-.19,1.02-.24,1.53-.13.16.03.32.08.48.13.03.03.05.03.05.03.29.13.59.32.83.56,1.05,1.05,1.05,2.73,0,3.78l-.03.03c-.13.13-.27.24-.4.35-.11.08-.24.13-.35.19-.08.03-.13.05-.21.08-.13.05-.27.08-.4.11-.16.03-.32.05-.48.05-.11,0-.21-.03-.32-.03s-.24-.03-.35-.05h-.03c-.08-.03-.13-.03-.19-.05l-.21-.11Z"/>
    <path class="cls-7" d="m394.64,842.97l105.88,47.78c.96.43,1.58,1.37,1.58,2.41.03,1.05-.56,2.01-1.53,2.44-.38.19-.75.38-1.15.56-.4-.19-.78-.38-1.15-.56l-5.39-2.41-4.37-1.98-99.2-44.75-.83-.38-.56-.27c.11.03.24.05.35.05s.21.03.32.03c.16,0,.32-.03.48-.05.13-.03.27-.05.4-.11.08-.03.13-.05.21-.08.11-.05.24-.11.35-.19,1.58-.7,3.11-1.53,4.58-2.49.03.03.03,0,.03,0Z"/>
    <path class="cls-7" d="m388.48,846.07l-.64-.27h.08l.56.27Z"/>
    <path class="cls-7" d="m389.09,840.58c-.51-.11-1.05-.05-1.53.13.19-.08.38-.16.54-.27h.05c.24.03.46.05.67.08.08,0,.19.03.27.05Z"/>
    <path class="cls-7" d="m387.7,845.75c.05.03.11.03.19.05h-.05l-.13-.05Z"/>
    <path class="cls-7" d="m387.08,840.98c-.13.08-.27.19-.38.29.13-.11.24-.21.38-.29Z"/>
    <path class="cls-7" d="m386.57,841.44c-.16.19-.29.4-.43.62.08-.21.24-.43.43-.62Z"/>
    <path class="cls-7" d="m386.14,842.05c-.05.13-.08.24-.13.38.03-.13.05-.27.13-.38Z"/>
    <path class="cls-7" d="m386.01,842.43c-.03.11-.05.24-.08.38,0-.13.03-.27.08-.38Z"/>
    <path class="cls-7" d="m385.9,843.18c0,1.07.62,2.01,1.58,2.47l.21.11c-.4-.13-.75-.32-1.05-.64-.56-.56-.8-1.29-.75-2.01v.08Z"/>
    <path class="cls-7" d="m374.89,234.37c6.27-5.28,12.78-9,20.47-11.84,7.21-2.65,14.66-4.61,22.24-5.76,7.88-1.23,15.78-1.77,23.74-1.34,3.99.21,7.99.67,11.98,1.26,3.91.59,8.04.94,11.15,3.59,2.57,2.2,1.1,6.65-1.96,7.45-3.72.94-7.66-.51-11.36-1.1-3.62-.54-7.29-.86-10.93-1.02-7.07-.29-14.26-.03-21.28.91-14.34,1.96-27.98,7.29-41.43,12.38-2.49.96-4.66-2.81-2.63-4.53Z"/>
    <path class="cls-7" d="m375.85,843.85c2.47.54,5.06,1.02,7.82,1.42-2.76-.4-5.36-.86-7.82-1.42Z"/>
    <path class="cls-7" d="m375.64,838.28c.59.13,1.18.27,1.77.4-.59-.13-1.18-.27-1.77-.4Z"/>
    <path class="cls-7" d="m371.14,717.18c.67.35,1.34.72,2.04,1.07-.7-.38-1.37-.72-2.04-1.07Z"/>
    <path class="cls-7" d="m368.86,842c2.2.7,4.53,1.31,6.99,1.85-2.47-.54-4.8-1.15-6.99-1.85Z"/>
    <path class="cls-7" d="m366.8,835.57c.67.29,1.34.54,2.04.75-.7-.21-1.37-.46-2.04-.75Z"/>
    <path class="cls-7" d="m366.69,708.12c.59.43,1.21.86,1.82,1.26-.62-.4-1.23-.8-1.82-1.26Z"/>
    <path class="cls-7" d="m364.57,713.19c.8.54,1.61,1.07,2.47,1.61-.86-.51-1.66-1.07-2.47-1.61Z"/>
    <path class="cls-7" d="m363.85,725.27c-.38-.03-.75-.05-1.13-.05.38,0,.75.03,1.13.05Z"/>
    <path class="cls-2" d="m361.79,730.66c4.53-.72,10.4,4.21,12.33,5.82l.24.21c9.43,7.93,12.73,23.02,16.88,42.13l.8,3.75c2.22,10.05,7.4,12.43,12.89,14.95,1.15.54,2.3,1.07,3.48,1.69,1.58.83,3.19,1.82,4.8,3.14.38.29.72.62,1.1.96.21.62.32,3.11-1.53,8.12-1.82,4.93-4.74,10.34-8.55,15.3-.35.46-.72.94-1.1,1.39-2.06,2.55-4.34,4.93-6.83,6.99-.56.51-1.13.96-1.72,1.39-.08.05-.16.11-.24.19-.59.46-1.21.88-1.85,1.29-.03.03-.08.05-.13.11-.4.27-.8.51-1.23.75-.46.29-.94.56-1.42.8-.13.11-.29.19-.46.24-.38.21-.75.4-1.13.56h-.03c-3.43-.4-7.07-.96-10.69-1.77-.59-.13-1.18-.27-1.77-.4-2.3-.54-4.61-1.18-6.81-1.96-.7-.21-1.37-.46-2.04-.75-3.83-1.45-7.37-3.3-10.29-5.6-.35-.27-.67-.54-.99-.83-2.28-1.98-4.1-4.26-5.31-6.94-.38-.83-1.31-3.91-2.22-6.91l-1.1-3.67c-.96-3.08-2.06-6.59-3.08-9.08-.96-2.36-1.29-4.85-.96-7.18,1.93-13.99,7.18-47.81,14.23-60.56.08-.13.16-.27.21-.35l.43-.75c1.15-1.8,2.47-2.79,4.07-3.03Z"/>
    <polygon class="cls-7" points="363.13 705.39 363.13 705.42 363.1 705.39 363.13 705.39"/>
    <path class="cls-7" d="m366.69,708.12c.59.46,1.21.86,1.82,1.26,3.24,2.12,6.81,4.07,10.83,5.84,15.14,6.75,47,15.01,69.62,18.06,1.47.19,2.49,1.55,2.3,3.03-.21,1.45-1.58,2.47-3.03,2.28-23.02-3.11-55.58-11.55-71.09-18.46-1.37-.62-2.68-1.23-3.97-1.88-.7-.35-1.37-.72-2.04-1.07-1.42-.78-2.79-1.55-4.1-2.38-.86-.54-1.66-1.07-2.47-1.61-1.72-1.15-3.32-2.38-4.85-3.64-.08-.05-.16-.13-.24-.21-.13-.11-.24-.21-.38-.32-.05-.24-.11-.4-.16-.54-.46-1.13-.08-2.44.91-3.16.96-.72,2.3-.67,3.24.08l.03.03c.08.05.16.11.21.19,1.07.88,2.2,1.72,3.35,2.52Z"/>
    <path class="cls-7" d="m362.67,725.22c-.35,0-.72.03-1.07.05.35-.03.72-.05,1.07-.05Z"/>
    <path class="cls-7" d="m374.11,736.47c-1.93-1.61-7.8-6.54-12.33-5.82-1.61.24-2.92,1.23-4.07,3.03l-.43.75c-.78,1.21-2.38,1.58-3.64.86-1.18-.7-1.63-2.2-1.05-3.43-.03-.03,0-.03.03-.05.05-.08.08-.19.13-.27l.4-.67c2.01-3.19,4.64-5.01,7.8-5.52l.64-.08c.35-.03.72-.05,1.07-.05h.05c.38,0,.75.03,1.13.05,5.9.54,11.42,5.2,13.69,7.1l.24.19c10.85,9.11,14.31,25,18.68,45.1l.83,3.75c1.63,7.45,4.72,8.87,9.86,11.23.4.19.83.38,1.26.59.8.38,1.66.78,2.52,1.23.4.21.86.46,1.29.72.46.27.88.54,1.34.8.08.05.13.11.21.13,1.29.83,2.63,1.82,3.97,3.05-.11-.05-.24-.11-.35-.16-1.18-.56-2.68-.24-3.43.86-.75,1.07-.64,2.47.32,3.35-.35-.32-.7-.62-1.07-.88-1.58-1.34-3.19-2.3-4.8-3.14-1.18-.62-2.33-1.15-3.48-1.69-5.49-2.52-10.67-4.9-12.89-14.95l-.8-3.75c-4.15-19.11-7.45-34.19-16.88-42.13l-.24-.21Z"/>
    <path class="cls-7" d="m355.51,829.14c.32.29.64.56.99.83-.32-.27-.67-.54-.99-.83Z"/>
    <path class="cls-7" d="m358.14,719.22c1.42-6.14,1.26-8.98.96-10.21.13.11.24.21.38.32.08.08.16.16.24.21,1.53,1.26,3.14,2.49,4.85,3.64-.16,2.06-.56,4.45-1.21,7.24-.24,1.07-.94,2.87-1.77,4.85l-.64.08c-3.16.51-5.79,2.33-7.8,5.52l-.4.67c-.05.08-.08.19-.13.27,0-.03,0-.08.03-.11,1.34-2.44,5.01-10.45,5.49-12.49Z"/>
    <path class="cls-1" d="m341.74,813.17l1.13,3.7c1.23,4.07,1.96,6.43,2.44,7.53,3.62,7.96,11.5,13.85,23.55,17.61,2.2.7,4.53,1.31,6.99,1.85,2.47.56,5.06,1.02,7.82,1.42,1.34.19,2.73.38,4.15.54l.64.27.83.38,99.2,44.75,4.37,1.98c-1.69.67-3.75,1.45-6.35,2.38-12.11,4.23-25.62,7.69-39.04,9.97-20.34,3.43-35.83,3.38-46.04,3.3-14.31-.05-24.14-1.02-35.48-2.28l-1.58-.16c-12.76-1.42-19.75-2.2-23.29-4.5-11.95-7.72-20.21-25.03-20.07-42.1.05-6.14,1.18-10.4,3.05-17.47,3.38-12.59,8.49-24.84,15.25-36.5.43,1.13.86,2.44,1.31,3.81.16.51.32,1.05.48,1.58.08.21.13.43.19.64.16.43.29.88.43,1.31Z"/>
    <path class="cls-7" d="m337.53,794.6c1.98-14.31,7.4-49.01,14.9-62.49.05-.08.11-.19.16-.24-.59,1.23-.13,2.73,1.05,3.43,1.26.72,2.87.35,3.64-.86-.05.08-.13.21-.21.35-7.05,12.76-12.3,46.57-14.23,60.56-.32,2.33,0,4.82.96,7.18-1.15-2.81-2.01-4.02-3.22-4.58-1.1-.51-2.38-.19-3.14.72-.13-1.37-.11-2.73.08-4.07Z"/>
    <path class="cls-7" d="m338.85,804.57c-.78-1.93-1.26-3.91-1.39-5.9.75-.91,2.04-1.23,3.14-.72,1.21.56,2.06,1.77,3.22,4.58,1.02,2.49,2.12,6,3.08,9.08l1.1,3.67c.91,3,1.85,6.08,2.22,6.91,1.21,2.68,3.03,4.96,5.31,6.94.32.29.67.56.99.83,2.92,2.3,6.46,4.15,10.29,5.6.67.29,1.34.54,2.04.75,2.2.78,4.5,1.42,6.81,1.96.59.13,1.18.27,1.77.4,3.62.8,7.26,1.37,10.69,1.77-.16.11-.35.19-.54.27s-.32.16-.48.27c-.13.08-.24.19-.38.29l-.05.05s-.08.08-.08.11c-.19.19-.35.4-.43.62-.08.11-.11.24-.13.38-.05.11-.08.24-.08.38-.03.08-.05.19-.03.29-.05.72.19,1.45.75,2.01.29.32.64.51,1.05.64l.13.05c-1.42-.16-2.81-.35-4.15-.54-2.76-.4-5.36-.88-7.82-1.42s-4.8-1.15-6.99-1.85c-12.06-3.75-19.94-9.65-23.55-17.61-.48-1.1-1.21-3.46-2.44-7.53l-1.13-3.7c-.13-.43-.27-.88-.43-1.31-.05-.21-.11-.43-.19-.64-.16-.54-.32-1.07-.48-1.58-.46-1.37-.88-2.68-1.31-3.81-.16-.46-.32-.88-.48-1.26Z"/>
    <path class="cls-7" d="m341.12,811.21c.08.21.13.43.19.64-.05-.21-.11-.43-.19-.64Z"/>
    <path class="cls-7" d="m341.12,811.21c-.16-.54-.32-1.07-.48-1.58.16.51.32,1.05.48,1.58Z"/>
    <path class="cls-7" d="m338.47,680.15c-17.55-37.86-1.53-83.15,3.75-98.05,9.3-26.34,34.33-54.67,52.07-64.5l1.26.4c-.19.72-.05,1.5.38,2.14s.88,1.29,1.37,1.93c-16.53,8.9-41.13,36.74-50.03,61.82-5.09,14.36-20.58,58.12-3.94,94.01,5.71,12.25,11.98,21.01,19.78,27.49-.94-.75-2.28-.8-3.24-.08-.99.72-1.37,2.04-.91,3.16.05.13.11.29.16.54-8.17-6.94-14.71-16.13-20.63-28.86Z"/>
    <path class="cls-7" d="m364.38,906.4l1.58.16c11.34,1.26,21.17,2.22,35.48,2.28,10.21.08,25.7.13,46.04-3.3,13.43-2.28,26.93-5.73,39.04-9.97,2.6-.94,4.66-1.72,6.35-2.38l5.39,2.41c.38.19.75.38,1.15.56-2.87,1.34-5.95,2.63-11.12,4.45-12.38,4.37-26.18,7.88-39.93,10.21-17.53,2.97-31.17,3.4-43.49,3.4-1.18,0-2.33-.03-3.46-.03-15.73-.05-26.98-1.31-36.04-2.3l-1.61-.19c-13.99-1.55-21.01-2.33-25.56-5.31-13.43-8.66-22.7-27.84-22.54-46.65.05-6.81,1.31-11.58,3.24-18.81,3.91-14.55,10.05-28.67,18.28-41.94.08-.11.16-.24.27-.32.13,1.98.62,3.97,1.39,5.9.16.38.32.8.48,1.26-6.75,11.66-11.87,23.9-15.25,36.5-1.88,7.07-3,11.34-3.05,17.47-.13,17.07,8.12,34.38,20.07,42.1,3.54,2.3,10.53,3.08,23.29,4.5Z"/>
    <path class="cls-7" d="m303.5,263.74c2.68-11.01,8.44-18.2,16.16-20.23,1.8-.48,3.59-.64,5.39-.56,12.57-89.91,87.01-157.33,174.26-157.33h1.58c87.31.08,161.72,67.66,174.13,157.68,1.8-.11,3.59.08,5.36.54h.03c7.72,2.06,13.45,9.27,16.11,20.29,2.55,10.45,2.06,23.26-1.37,36.1-5.9,22.05-19.05,38.91-32.4,41.78-19.51,47.89-58.28,85.35-105.13,102.15-3.3-.72-6.81-1.37-10.53-1.93-.38-.05-.78-.03-1.15.08,50.27-14.44,92.29-53.22,112.41-103.68.35-.88,1.15-1.53,2.12-1.66,11.6-1.53,24.01-17.55,29.5-38.11,3.19-11.98,3.67-23.88,1.34-33.47-2.17-9.03-6.54-14.82-12.27-16.37-1.9-.48-3.83-.51-5.76-.08-.72.16-1.5,0-2.12-.43-.62-.46-1.02-1.13-1.13-1.88-10.93-88.65-83.66-155.56-169.17-155.64h-1.55c-85.43,0-158.18,66.75-169.31,155.32-.08.75-.51,1.45-1.13,1.88s-1.37.59-2.12.43c-.88-.21-1.8-.29-2.71-.29-1.02,0-2.04.11-3.03.38-5.73,1.5-10.13,7.32-12.33,16.35-2.33,9.59-1.88,21.46,1.29,33.44,5.47,20.58,17.82,36.63,29.42,38.19.96.13,1.77.78,2.14,1.66,19.99,50.51,61.96,89.34,112.2,103.89-.38-.11-.78-.13-1.15-.08-3.72.56-7.24,1.18-10.53,1.9-46.84-16.88-85.51-54.43-104.94-102.34-13.35-2.89-26.48-19.78-32.32-41.86-3.4-12.81-3.86-25.65-1.31-36.1Z"/>
  </g>
</svg>